%TF.GenerationSoftware,KiCad,Pcbnew,(6.0.8)*%
%TF.CreationDate,2023-04-16T02:33:25+09:00*%
%TF.ProjectId,ORION_sub_v2,4f52494f-4e5f-4737-9562-5f76322e6b69,rev?*%
%TF.SameCoordinates,Original*%
%TF.FileFunction,Paste,Top*%
%TF.FilePolarity,Positive*%
%FSLAX46Y46*%
G04 Gerber Fmt 4.6, Leading zero omitted, Abs format (unit mm)*
G04 Created by KiCad (PCBNEW (6.0.8)) date 2023-04-16 02:33:25*
%MOMM*%
%LPD*%
G01*
G04 APERTURE LIST*
G04 Aperture macros list*
%AMRoundRect*
0 Rectangle with rounded corners*
0 $1 Rounding radius*
0 $2 $3 $4 $5 $6 $7 $8 $9 X,Y pos of 4 corners*
0 Add a 4 corners polygon primitive as box body*
4,1,4,$2,$3,$4,$5,$6,$7,$8,$9,$2,$3,0*
0 Add four circle primitives for the rounded corners*
1,1,$1+$1,$2,$3*
1,1,$1+$1,$4,$5*
1,1,$1+$1,$6,$7*
1,1,$1+$1,$8,$9*
0 Add four rect primitives between the rounded corners*
20,1,$1+$1,$2,$3,$4,$5,0*
20,1,$1+$1,$4,$5,$6,$7,0*
20,1,$1+$1,$6,$7,$8,$9,0*
20,1,$1+$1,$8,$9,$2,$3,0*%
G04 Aperture macros list end*
%ADD10R,0.900000X1.000000*%
%ADD11RoundRect,0.218750X0.256250X-0.218750X0.256250X0.218750X-0.256250X0.218750X-0.256250X-0.218750X0*%
%ADD12RoundRect,0.218750X-0.218750X-0.256250X0.218750X-0.256250X0.218750X0.256250X-0.218750X0.256250X0*%
%ADD13RoundRect,0.218750X0.218750X0.256250X-0.218750X0.256250X-0.218750X-0.256250X0.218750X-0.256250X0*%
%ADD14R,1.450000X1.100000*%
%ADD15R,2.899999X1.350000*%
%ADD16RoundRect,0.218750X-0.256250X0.218750X-0.256250X-0.218750X0.256250X-0.218750X0.256250X0.218750X0*%
%ADD17R,1.000000X0.900000*%
G04 APERTURE END LIST*
D10*
%TO.C,SW2*%
X99550000Y-83700000D03*
X95450000Y-83700000D03*
X95450000Y-85300000D03*
X99550000Y-85300000D03*
%TD*%
D11*
%TO.C,D6*%
X107000000Y-58287500D03*
X107000000Y-56712500D03*
%TD*%
D12*
%TO.C,D7*%
X109212500Y-106500000D03*
X110787500Y-106500000D03*
%TD*%
D11*
%TO.C,D5*%
X105000000Y-58287500D03*
X105000000Y-56712500D03*
%TD*%
D10*
%TO.C,SW3*%
X99550000Y-74700000D03*
X95450000Y-74700000D03*
X99550000Y-76300000D03*
X95450000Y-76300000D03*
%TD*%
D13*
%TO.C,D10*%
X129287500Y-104500000D03*
X127712500Y-104500000D03*
%TD*%
D14*
%TO.C,J11*%
X102050000Y-65771500D03*
X102050000Y-67771501D03*
X102050000Y-69771500D03*
D15*
X96075001Y-62876502D03*
X96075001Y-72666498D03*
%TD*%
D16*
%TO.C,D3*%
X105500000Y-88747500D03*
X105500000Y-90322500D03*
%TD*%
D10*
%TO.C,SW4*%
X99550000Y-79200000D03*
X95450000Y-79200000D03*
X95450000Y-80800000D03*
X99550000Y-80800000D03*
%TD*%
D16*
%TO.C,D2*%
X115500000Y-88712500D03*
X115500000Y-90287500D03*
%TD*%
D13*
%TO.C,D4*%
X129287500Y-102500000D03*
X127712500Y-102500000D03*
%TD*%
D17*
%TO.C,SW1*%
X118700000Y-84950000D03*
X118700000Y-89050000D03*
X120300000Y-89050000D03*
X120300000Y-84950000D03*
%TD*%
D16*
%TO.C,D1*%
X108500000Y-88747500D03*
X108500000Y-90322500D03*
%TD*%
M02*
