%TF.GenerationSoftware,KiCad,Pcbnew,(6.0.8)*%
%TF.CreationDate,2023-04-16T02:33:25+09:00*%
%TF.ProjectId,ORION_sub_v2,4f52494f-4e5f-4737-9562-5f76322e6b69,rev?*%
%TF.SameCoordinates,Original*%
%TF.FileFunction,Soldermask,Bot*%
%TF.FilePolarity,Negative*%
%FSLAX46Y46*%
G04 Gerber Fmt 4.6, Leading zero omitted, Abs format (unit mm)*
G04 Created by KiCad (PCBNEW (6.0.8)) date 2023-04-16 02:33:25*
%MOMM*%
%LPD*%
G01*
G04 APERTURE LIST*
G04 Aperture macros list*
%AMRoundRect*
0 Rectangle with rounded corners*
0 $1 Rounding radius*
0 $2 $3 $4 $5 $6 $7 $8 $9 X,Y pos of 4 corners*
0 Add a 4 corners polygon primitive as box body*
4,1,4,$2,$3,$4,$5,$6,$7,$8,$9,$2,$3,0*
0 Add four circle primitives for the rounded corners*
1,1,$1+$1,$2,$3*
1,1,$1+$1,$4,$5*
1,1,$1+$1,$6,$7*
1,1,$1+$1,$8,$9*
0 Add four rect primitives between the rounded corners*
20,1,$1+$1,$2,$3,$4,$5,0*
20,1,$1+$1,$4,$5,$6,$7,0*
20,1,$1+$1,$6,$7,$8,$9,0*
20,1,$1+$1,$8,$9,$2,$3,0*%
%AMFreePoly0*
4,1,22,0.500000,-0.750000,0.000000,-0.750000,0.000000,-0.745033,-0.079941,-0.743568,-0.215256,-0.701293,-0.333266,-0.622738,-0.424486,-0.514219,-0.481581,-0.384460,-0.499164,-0.250000,-0.500000,-0.250000,-0.500000,0.250000,-0.499164,0.250000,-0.499963,0.256109,-0.478152,0.396186,-0.417904,0.524511,-0.324060,0.630769,-0.204165,0.706417,-0.067858,0.745374,0.000000,0.744959,0.000000,0.750000,
0.500000,0.750000,0.500000,-0.750000,0.500000,-0.750000,$1*%
%AMFreePoly1*
4,1,20,0.000000,0.744959,0.073905,0.744508,0.209726,0.703889,0.328688,0.626782,0.421226,0.519385,0.479903,0.390333,0.500000,0.250000,0.500000,-0.250000,0.499851,-0.262216,0.476331,-0.402017,0.414519,-0.529596,0.319384,-0.634700,0.198574,-0.708877,0.061801,-0.746166,0.000000,-0.745033,0.000000,-0.750000,-0.500000,-0.750000,-0.500000,0.750000,0.000000,0.750000,0.000000,0.744959,
0.000000,0.744959,$1*%
G04 Aperture macros list end*
%ADD10RoundRect,0.225000X0.475000X-0.225000X0.475000X0.225000X-0.475000X0.225000X-0.475000X-0.225000X0*%
%ADD11O,1.400000X0.900000*%
%ADD12RoundRect,0.225000X0.225000X0.475000X-0.225000X0.475000X-0.225000X-0.475000X0.225000X-0.475000X0*%
%ADD13O,0.900000X1.400000*%
%ADD14R,1.700000X1.700000*%
%ADD15O,1.700000X1.700000*%
%ADD16RoundRect,0.250000X0.350000X0.625000X-0.350000X0.625000X-0.350000X-0.625000X0.350000X-0.625000X0*%
%ADD17O,1.200000X1.750000*%
%ADD18C,1.400000*%
%ADD19R,3.500000X3.500000*%
%ADD20C,3.500000*%
%ADD21RoundRect,0.225000X-0.575000X0.225000X-0.575000X-0.225000X0.575000X-0.225000X0.575000X0.225000X0*%
%ADD22RoundRect,0.200000X0.275000X-0.200000X0.275000X0.200000X-0.275000X0.200000X-0.275000X-0.200000X0*%
%ADD23RoundRect,0.200000X-0.200000X-0.275000X0.200000X-0.275000X0.200000X0.275000X-0.200000X0.275000X0*%
%ADD24RoundRect,0.200000X-0.275000X0.200000X-0.275000X-0.200000X0.275000X-0.200000X0.275000X0.200000X0*%
%ADD25RoundRect,0.500000X1.500000X0.500000X-1.500000X0.500000X-1.500000X-0.500000X1.500000X-0.500000X0*%
%ADD26RoundRect,0.375000X0.375000X0.375000X-0.375000X0.375000X-0.375000X-0.375000X0.375000X-0.375000X0*%
%ADD27RoundRect,0.225000X-0.225000X-0.250000X0.225000X-0.250000X0.225000X0.250000X-0.225000X0.250000X0*%
%ADD28RoundRect,0.225000X-0.250000X0.225000X-0.250000X-0.225000X0.250000X-0.225000X0.250000X0.225000X0*%
%ADD29RoundRect,0.250000X0.650000X-0.325000X0.650000X0.325000X-0.650000X0.325000X-0.650000X-0.325000X0*%
%ADD30R,1.500000X4.000000*%
%ADD31RoundRect,0.200000X0.200000X0.275000X-0.200000X0.275000X-0.200000X-0.275000X0.200000X-0.275000X0*%
%ADD32RoundRect,0.150000X0.725000X0.150000X-0.725000X0.150000X-0.725000X-0.150000X0.725000X-0.150000X0*%
%ADD33RoundRect,0.250000X0.325000X0.650000X-0.325000X0.650000X-0.325000X-0.650000X0.325000X-0.650000X0*%
%ADD34RoundRect,0.075000X0.075000X-0.662500X0.075000X0.662500X-0.075000X0.662500X-0.075000X-0.662500X0*%
%ADD35RoundRect,0.075000X0.662500X-0.075000X0.662500X0.075000X-0.662500X0.075000X-0.662500X-0.075000X0*%
%ADD36RoundRect,0.225000X0.250000X-0.225000X0.250000X0.225000X-0.250000X0.225000X-0.250000X-0.225000X0*%
%ADD37RoundRect,0.140000X-0.140000X-0.170000X0.140000X-0.170000X0.140000X0.170000X-0.140000X0.170000X0*%
%ADD38R,0.400000X1.900000*%
%ADD39RoundRect,0.250000X-0.650000X0.325000X-0.650000X-0.325000X0.650000X-0.325000X0.650000X0.325000X0*%
%ADD40RoundRect,0.140000X-0.170000X0.140000X-0.170000X-0.140000X0.170000X-0.140000X0.170000X0.140000X0*%
%ADD41FreePoly0,180.000000*%
%ADD42FreePoly1,180.000000*%
%ADD43R,1.500000X2.400000*%
%ADD44R,1.500000X1.050000*%
%ADD45RoundRect,0.150000X0.587500X0.150000X-0.587500X0.150000X-0.587500X-0.150000X0.587500X-0.150000X0*%
%ADD46RoundRect,0.150000X-0.150000X0.587500X-0.150000X-0.587500X0.150000X-0.587500X0.150000X0.587500X0*%
%ADD47RoundRect,0.150000X0.512500X0.150000X-0.512500X0.150000X-0.512500X-0.150000X0.512500X-0.150000X0*%
G04 APERTURE END LIST*
D10*
%TO.C,J13*%
X102500000Y-84250000D03*
D11*
X102500000Y-83000000D03*
X102500000Y-81750000D03*
X102500000Y-80500000D03*
X102500000Y-79250000D03*
X102500000Y-78000000D03*
X102500000Y-76750000D03*
X102500000Y-75500000D03*
%TD*%
D12*
%TO.C,J1*%
X112500000Y-91000000D03*
D13*
X111250000Y-91000000D03*
%TD*%
D10*
%TO.C,J6*%
X100000000Y-92000000D03*
D11*
X100000000Y-90750000D03*
X100000000Y-89500000D03*
X100000000Y-88250000D03*
%TD*%
D12*
%TO.C,J3*%
X101875000Y-59000000D03*
D13*
X100625000Y-59000000D03*
X99375000Y-59000000D03*
X98125000Y-59000000D03*
%TD*%
D14*
%TO.C,J12*%
X114500000Y-84500000D03*
D15*
X111960000Y-84500000D03*
X109420000Y-84500000D03*
%TD*%
D10*
%TO.C,J7*%
X110500000Y-58750000D03*
D11*
X110500000Y-57500000D03*
X110500000Y-56250000D03*
%TD*%
D16*
%TO.C,J2*%
X119500000Y-61450000D03*
D17*
X117500000Y-61450000D03*
X115500000Y-61450000D03*
%TD*%
D18*
%TO.C,J4*%
X103000000Y-105000000D03*
X103000000Y-94000000D03*
D19*
X113000000Y-97000000D03*
D20*
X113000000Y-102000000D03*
%TD*%
D10*
%TO.C,J8*%
X96000000Y-92000000D03*
D11*
X96000000Y-90750000D03*
X96000000Y-89500000D03*
X96000000Y-88250000D03*
%TD*%
D21*
%TO.C,P1*%
X111500000Y-63250000D03*
X111500000Y-64750000D03*
X111500000Y-66250000D03*
X111500000Y-67750000D03*
X111500000Y-69250000D03*
X111500000Y-70750000D03*
%TD*%
D22*
%TO.C,R19*%
X112000000Y-87825000D03*
X112000000Y-86175000D03*
%TD*%
D23*
%TO.C,R13*%
X106175000Y-106500000D03*
X107825000Y-106500000D03*
%TD*%
D24*
%TO.C,R14*%
X115500000Y-63350000D03*
X115500000Y-65000000D03*
%TD*%
D22*
%TO.C,R2*%
X117500000Y-94325000D03*
X117500000Y-92675000D03*
%TD*%
D25*
%TO.C,J10*%
X102400000Y-65500000D03*
D26*
X103600000Y-65500000D03*
X101200000Y-65500000D03*
%TD*%
D24*
%TO.C,R5*%
X107500000Y-85675000D03*
X107500000Y-87325000D03*
%TD*%
%TO.C,R18*%
X108000000Y-70175000D03*
X108000000Y-71825000D03*
%TD*%
D27*
%TO.C,C2*%
X122225000Y-71000000D03*
X123775000Y-71000000D03*
%TD*%
D24*
%TO.C,R1*%
X117500000Y-84675000D03*
X117500000Y-86325000D03*
%TD*%
D28*
%TO.C,C11*%
X113000000Y-92725000D03*
X113000000Y-94275000D03*
%TD*%
D22*
%TO.C,R16*%
X126500000Y-105850000D03*
X126500000Y-104200000D03*
%TD*%
D29*
%TO.C,C7*%
X124500000Y-100975000D03*
X124500000Y-98025000D03*
%TD*%
D24*
%TO.C,R3*%
X112500000Y-58175000D03*
X112500000Y-59825000D03*
%TD*%
D30*
%TO.C,L1*%
X117200000Y-100500000D03*
X120800000Y-100500000D03*
%TD*%
D31*
%TO.C,R17*%
X132325000Y-104500000D03*
X130675000Y-104500000D03*
%TD*%
D22*
%TO.C,R9*%
X116000000Y-95825000D03*
X116000000Y-94175000D03*
%TD*%
D32*
%TO.C,U2*%
X125075000Y-91595000D03*
X125075000Y-92865000D03*
X125075000Y-94135000D03*
X125075000Y-95405000D03*
X119925000Y-95405000D03*
X119925000Y-94135000D03*
X119925000Y-92865000D03*
X119925000Y-91595000D03*
%TD*%
D33*
%TO.C,C8*%
X129975000Y-98000000D03*
X127025000Y-98000000D03*
%TD*%
D28*
%TO.C,C1*%
X127000000Y-92725000D03*
X127000000Y-94275000D03*
%TD*%
D34*
%TO.C,U1*%
X122750000Y-82162500D03*
X122250000Y-82162500D03*
X121750000Y-82162500D03*
X121250000Y-82162500D03*
X120750000Y-82162500D03*
X120250000Y-82162500D03*
X119750000Y-82162500D03*
X119250000Y-82162500D03*
X118750000Y-82162500D03*
X118250000Y-82162500D03*
X117750000Y-82162500D03*
X117250000Y-82162500D03*
D35*
X115837500Y-80750000D03*
X115837500Y-80250000D03*
X115837500Y-79750000D03*
X115837500Y-79250000D03*
X115837500Y-78750000D03*
X115837500Y-78250000D03*
X115837500Y-77750000D03*
X115837500Y-77250000D03*
X115837500Y-76750000D03*
X115837500Y-76250000D03*
X115837500Y-75750000D03*
X115837500Y-75250000D03*
D34*
X117250000Y-73837500D03*
X117750000Y-73837500D03*
X118250000Y-73837500D03*
X118750000Y-73837500D03*
X119250000Y-73837500D03*
X119750000Y-73837500D03*
X120250000Y-73837500D03*
X120750000Y-73837500D03*
X121250000Y-73837500D03*
X121750000Y-73837500D03*
X122250000Y-73837500D03*
X122750000Y-73837500D03*
D35*
X124162500Y-75250000D03*
X124162500Y-75750000D03*
X124162500Y-76250000D03*
X124162500Y-76750000D03*
X124162500Y-77250000D03*
X124162500Y-77750000D03*
X124162500Y-78250000D03*
X124162500Y-78750000D03*
X124162500Y-79250000D03*
X124162500Y-79750000D03*
X124162500Y-80250000D03*
X124162500Y-80750000D03*
%TD*%
D36*
%TO.C,C5*%
X113500000Y-75275000D03*
X113500000Y-73725000D03*
%TD*%
D23*
%TO.C,R26*%
X104175000Y-76500000D03*
X105825000Y-76500000D03*
%TD*%
D37*
%TO.C,C3*%
X118020000Y-105025000D03*
X118980000Y-105025000D03*
%TD*%
D23*
%TO.C,R24*%
X104175000Y-79500000D03*
X105825000Y-79500000D03*
%TD*%
D24*
%TO.C,R7*%
X106000000Y-85675000D03*
X106000000Y-87325000D03*
%TD*%
D38*
%TO.C,X1*%
X119300000Y-87500000D03*
X120500000Y-87500000D03*
X121700000Y-87500000D03*
%TD*%
D22*
%TO.C,R12*%
X109000000Y-61325000D03*
X109000000Y-59675000D03*
%TD*%
D24*
%TO.C,R6*%
X114500000Y-86175000D03*
X114500000Y-87825000D03*
%TD*%
D23*
%TO.C,R23*%
X104175000Y-81000000D03*
X105825000Y-81000000D03*
%TD*%
D22*
%TO.C,R11*%
X107500000Y-62325000D03*
X107500000Y-60675000D03*
%TD*%
D24*
%TO.C,R20*%
X108000000Y-67175000D03*
X108000000Y-68825000D03*
%TD*%
D39*
%TO.C,C12*%
X114000000Y-105525000D03*
X114000000Y-108475000D03*
%TD*%
D24*
%TO.C,R4*%
X114000000Y-58175000D03*
X114000000Y-59825000D03*
%TD*%
D23*
%TO.C,R27*%
X104175000Y-75000000D03*
X105825000Y-75000000D03*
%TD*%
D40*
%TO.C,C4*%
X128000000Y-104545000D03*
X128000000Y-105505000D03*
%TD*%
D22*
%TO.C,R10*%
X114500000Y-94325000D03*
X114500000Y-92675000D03*
%TD*%
D25*
%TO.C,J9*%
X102400000Y-70000000D03*
D26*
X101200000Y-70000000D03*
X103600000Y-70000000D03*
%TD*%
D23*
%TO.C,R21*%
X103675000Y-59000000D03*
X105325000Y-59000000D03*
%TD*%
%TO.C,R25*%
X104175000Y-78000000D03*
X105825000Y-78000000D03*
%TD*%
D41*
%TO.C,JP1*%
X103650000Y-90500000D03*
D42*
X102350000Y-90500000D03*
%TD*%
D26*
%TO.C,J5*%
X103600000Y-67750000D03*
X101200000Y-67750000D03*
D25*
X102400000Y-67750000D03*
%TD*%
D43*
%TO.C,D9*%
X122000000Y-104675000D03*
D44*
X122000000Y-107050000D03*
%TD*%
D39*
%TO.C,C13*%
X124500000Y-104050000D03*
X124500000Y-107000000D03*
%TD*%
D45*
%TO.C,Q1*%
X105937500Y-60550000D03*
X105937500Y-62450000D03*
X104062500Y-61500000D03*
%TD*%
D46*
%TO.C,U3*%
X127550000Y-100062500D03*
X129450000Y-100062500D03*
X128500000Y-101937500D03*
%TD*%
D22*
%TO.C,R22*%
X107000000Y-65825000D03*
X107000000Y-64175000D03*
%TD*%
D28*
%TO.C,C6*%
X126000000Y-79725000D03*
X126000000Y-81275000D03*
%TD*%
D24*
%TO.C,R15*%
X126500000Y-107200000D03*
X126500000Y-108850000D03*
%TD*%
D31*
%TO.C,R8*%
X132325000Y-102500000D03*
X130675000Y-102500000D03*
%TD*%
D47*
%TO.C,U4*%
X119637500Y-106075000D03*
X119637500Y-107025000D03*
X119637500Y-107975000D03*
X117362500Y-107975000D03*
X117362500Y-107025000D03*
X117362500Y-106075000D03*
%TD*%
M02*
