%TF.GenerationSoftware,KiCad,Pcbnew,(6.0.8)*%
%TF.CreationDate,2023-04-16T02:33:25+09:00*%
%TF.ProjectId,ORION_sub_v2,4f52494f-4e5f-4737-9562-5f76322e6b69,rev?*%
%TF.SameCoordinates,Original*%
%TF.FileFunction,Soldermask,Top*%
%TF.FilePolarity,Negative*%
%FSLAX46Y46*%
G04 Gerber Fmt 4.6, Leading zero omitted, Abs format (unit mm)*
G04 Created by KiCad (PCBNEW (6.0.8)) date 2023-04-16 02:33:25*
%MOMM*%
%LPD*%
G01*
G04 APERTURE LIST*
G04 Aperture macros list*
%AMRoundRect*
0 Rectangle with rounded corners*
0 $1 Rounding radius*
0 $2 $3 $4 $5 $6 $7 $8 $9 X,Y pos of 4 corners*
0 Add a 4 corners polygon primitive as box body*
4,1,4,$2,$3,$4,$5,$6,$7,$8,$9,$2,$3,0*
0 Add four circle primitives for the rounded corners*
1,1,$1+$1,$2,$3*
1,1,$1+$1,$4,$5*
1,1,$1+$1,$6,$7*
1,1,$1+$1,$8,$9*
0 Add four rect primitives between the rounded corners*
20,1,$1+$1,$2,$3,$4,$5,0*
20,1,$1+$1,$4,$5,$6,$7,0*
20,1,$1+$1,$6,$7,$8,$9,0*
20,1,$1+$1,$8,$9,$2,$3,0*%
G04 Aperture macros list end*
%ADD10C,0.150000*%
%ADD11R,0.900000X1.000000*%
%ADD12RoundRect,0.218750X0.256250X-0.218750X0.256250X0.218750X-0.256250X0.218750X-0.256250X-0.218750X0*%
%ADD13RoundRect,0.218750X-0.218750X-0.256250X0.218750X-0.256250X0.218750X0.256250X-0.218750X0.256250X0*%
%ADD14RoundRect,0.225000X0.475000X-0.225000X0.475000X0.225000X-0.475000X0.225000X-0.475000X-0.225000X0*%
%ADD15O,1.400000X0.900000*%
%ADD16RoundRect,0.225000X0.225000X0.475000X-0.225000X0.475000X-0.225000X-0.475000X0.225000X-0.475000X0*%
%ADD17O,0.900000X1.400000*%
%ADD18RoundRect,0.218750X0.218750X0.256250X-0.218750X0.256250X-0.218750X-0.256250X0.218750X-0.256250X0*%
%ADD19R,1.450000X1.100000*%
%ADD20R,2.899999X1.350000*%
%ADD21RoundRect,0.218750X-0.256250X0.218750X-0.256250X-0.218750X0.256250X-0.218750X0.256250X0.218750X0*%
%ADD22R,1.700000X1.700000*%
%ADD23O,1.700000X1.700000*%
%ADD24R,1.000000X0.900000*%
%ADD25RoundRect,0.250000X0.350000X0.625000X-0.350000X0.625000X-0.350000X-0.625000X0.350000X-0.625000X0*%
%ADD26O,1.200000X1.750000*%
%ADD27C,1.400000*%
%ADD28R,3.500000X3.500000*%
%ADD29C,3.500000*%
%ADD30RoundRect,0.225000X-0.575000X0.225000X-0.575000X-0.225000X0.575000X-0.225000X0.575000X0.225000X0*%
%ADD31RoundRect,0.500000X1.500000X0.500000X-1.500000X0.500000X-1.500000X-0.500000X1.500000X-0.500000X0*%
%ADD32RoundRect,0.375000X0.375000X0.375000X-0.375000X0.375000X-0.375000X-0.375000X0.375000X-0.375000X0*%
G04 APERTURE END LIST*
D10*
X116333333Y-109047619D02*
X116380952Y-109000000D01*
X116476190Y-108952380D01*
X116714285Y-108952380D01*
X116809523Y-109000000D01*
X116857142Y-109047619D01*
X116904761Y-109142857D01*
X116904761Y-109238095D01*
X116857142Y-109380952D01*
X116285714Y-109952380D01*
X116904761Y-109952380D01*
X117523809Y-108952380D02*
X117619047Y-108952380D01*
X117714285Y-109000000D01*
X117761904Y-109047619D01*
X117809523Y-109142857D01*
X117857142Y-109333333D01*
X117857142Y-109571428D01*
X117809523Y-109761904D01*
X117761904Y-109857142D01*
X117714285Y-109904761D01*
X117619047Y-109952380D01*
X117523809Y-109952380D01*
X117428571Y-109904761D01*
X117380952Y-109857142D01*
X117333333Y-109761904D01*
X117285714Y-109571428D01*
X117285714Y-109333333D01*
X117333333Y-109142857D01*
X117380952Y-109047619D01*
X117428571Y-109000000D01*
X117523809Y-108952380D01*
X118238095Y-109047619D02*
X118285714Y-109000000D01*
X118380952Y-108952380D01*
X118619047Y-108952380D01*
X118714285Y-109000000D01*
X118761904Y-109047619D01*
X118809523Y-109142857D01*
X118809523Y-109238095D01*
X118761904Y-109380952D01*
X118190476Y-109952380D01*
X118809523Y-109952380D01*
X119142857Y-108952380D02*
X119761904Y-108952380D01*
X119428571Y-109333333D01*
X119571428Y-109333333D01*
X119666666Y-109380952D01*
X119714285Y-109428571D01*
X119761904Y-109523809D01*
X119761904Y-109761904D01*
X119714285Y-109857142D01*
X119666666Y-109904761D01*
X119571428Y-109952380D01*
X119285714Y-109952380D01*
X119190476Y-109904761D01*
X119142857Y-109857142D01*
X120904761Y-108904761D02*
X120047619Y-110190476D01*
X121428571Y-108952380D02*
X121523809Y-108952380D01*
X121619047Y-109000000D01*
X121666666Y-109047619D01*
X121714285Y-109142857D01*
X121761904Y-109333333D01*
X121761904Y-109571428D01*
X121714285Y-109761904D01*
X121666666Y-109857142D01*
X121619047Y-109904761D01*
X121523809Y-109952380D01*
X121428571Y-109952380D01*
X121333333Y-109904761D01*
X121285714Y-109857142D01*
X121238095Y-109761904D01*
X121190476Y-109571428D01*
X121190476Y-109333333D01*
X121238095Y-109142857D01*
X121285714Y-109047619D01*
X121333333Y-109000000D01*
X121428571Y-108952380D01*
X122619047Y-109285714D02*
X122619047Y-109952380D01*
X122380952Y-108904761D02*
X122142857Y-109619047D01*
X122761904Y-109619047D01*
X123857142Y-108904761D02*
X123000000Y-110190476D01*
X124714285Y-109952380D02*
X124142857Y-109952380D01*
X124428571Y-109952380D02*
X124428571Y-108952380D01*
X124333333Y-109095238D01*
X124238095Y-109190476D01*
X124142857Y-109238095D01*
X125571428Y-108952380D02*
X125380952Y-108952380D01*
X125285714Y-109000000D01*
X125238095Y-109047619D01*
X125142857Y-109190476D01*
X125095238Y-109380952D01*
X125095238Y-109761904D01*
X125142857Y-109857142D01*
X125190476Y-109904761D01*
X125285714Y-109952380D01*
X125476190Y-109952380D01*
X125571428Y-109904761D01*
X125619047Y-109857142D01*
X125666666Y-109761904D01*
X125666666Y-109523809D01*
X125619047Y-109428571D01*
X125571428Y-109380952D01*
X125476190Y-109333333D01*
X125285714Y-109333333D01*
X125190476Y-109380952D01*
X125142857Y-109428571D01*
X125095238Y-109523809D01*
X118142857Y-108404761D02*
X118238095Y-108452380D01*
X118428571Y-108452380D01*
X118523809Y-108404761D01*
X118571428Y-108309523D01*
X118571428Y-108261904D01*
X118523809Y-108166666D01*
X118428571Y-108119047D01*
X118285714Y-108119047D01*
X118190476Y-108071428D01*
X118142857Y-107976190D01*
X118142857Y-107928571D01*
X118190476Y-107833333D01*
X118285714Y-107785714D01*
X118428571Y-107785714D01*
X118523809Y-107833333D01*
X119428571Y-107785714D02*
X119428571Y-108452380D01*
X119000000Y-107785714D02*
X119000000Y-108309523D01*
X119047619Y-108404761D01*
X119142857Y-108452380D01*
X119285714Y-108452380D01*
X119380952Y-108404761D01*
X119428571Y-108357142D01*
X119904761Y-108452380D02*
X119904761Y-107452380D01*
X119904761Y-107833333D02*
X120000000Y-107785714D01*
X120190476Y-107785714D01*
X120285714Y-107833333D01*
X120333333Y-107880952D01*
X120380952Y-107976190D01*
X120380952Y-108261904D01*
X120333333Y-108357142D01*
X120285714Y-108404761D01*
X120190476Y-108452380D01*
X120000000Y-108452380D01*
X119904761Y-108404761D01*
X121476190Y-107785714D02*
X121714285Y-108452380D01*
X121952380Y-107785714D01*
X122285714Y-107547619D02*
X122333333Y-107500000D01*
X122428571Y-107452380D01*
X122666666Y-107452380D01*
X122761904Y-107500000D01*
X122809523Y-107547619D01*
X122857142Y-107642857D01*
X122857142Y-107738095D01*
X122809523Y-107880952D01*
X122238095Y-108452380D01*
X122857142Y-108452380D01*
X116642857Y-104147380D02*
X116642857Y-103147380D01*
X116642857Y-104099761D02*
X116547619Y-104147380D01*
X116357142Y-104147380D01*
X116261904Y-104099761D01*
X116214285Y-104052142D01*
X116166666Y-103956904D01*
X116166666Y-103671190D01*
X116214285Y-103575952D01*
X116261904Y-103528333D01*
X116357142Y-103480714D01*
X116547619Y-103480714D01*
X116642857Y-103528333D01*
X117500000Y-104099761D02*
X117404761Y-104147380D01*
X117214285Y-104147380D01*
X117119047Y-104099761D01*
X117071428Y-104004523D01*
X117071428Y-103623571D01*
X117119047Y-103528333D01*
X117214285Y-103480714D01*
X117404761Y-103480714D01*
X117500000Y-103528333D01*
X117547619Y-103623571D01*
X117547619Y-103718809D01*
X117071428Y-103814047D01*
X117928571Y-104099761D02*
X118023809Y-104147380D01*
X118214285Y-104147380D01*
X118309523Y-104099761D01*
X118357142Y-104004523D01*
X118357142Y-103956904D01*
X118309523Y-103861666D01*
X118214285Y-103814047D01*
X118071428Y-103814047D01*
X117976190Y-103766428D01*
X117928571Y-103671190D01*
X117928571Y-103623571D01*
X117976190Y-103528333D01*
X118071428Y-103480714D01*
X118214285Y-103480714D01*
X118309523Y-103528333D01*
X118785714Y-104147380D02*
X118785714Y-103480714D01*
X118785714Y-103147380D02*
X118738095Y-103195000D01*
X118785714Y-103242619D01*
X118833333Y-103195000D01*
X118785714Y-103147380D01*
X118785714Y-103242619D01*
X119690476Y-103480714D02*
X119690476Y-104290238D01*
X119642857Y-104385476D01*
X119595238Y-104433095D01*
X119500000Y-104480714D01*
X119357142Y-104480714D01*
X119261904Y-104433095D01*
X119690476Y-104099761D02*
X119595238Y-104147380D01*
X119404761Y-104147380D01*
X119309523Y-104099761D01*
X119261904Y-104052142D01*
X119214285Y-103956904D01*
X119214285Y-103671190D01*
X119261904Y-103575952D01*
X119309523Y-103528333D01*
X119404761Y-103480714D01*
X119595238Y-103480714D01*
X119690476Y-103528333D01*
X120166666Y-103480714D02*
X120166666Y-104147380D01*
X120166666Y-103575952D02*
X120214285Y-103528333D01*
X120309523Y-103480714D01*
X120452380Y-103480714D01*
X120547619Y-103528333D01*
X120595238Y-103623571D01*
X120595238Y-104147380D01*
X121452380Y-104099761D02*
X121357142Y-104147380D01*
X121166666Y-104147380D01*
X121071428Y-104099761D01*
X121023809Y-104004523D01*
X121023809Y-103623571D01*
X121071428Y-103528333D01*
X121166666Y-103480714D01*
X121357142Y-103480714D01*
X121452380Y-103528333D01*
X121500000Y-103623571D01*
X121500000Y-103718809D01*
X121023809Y-103814047D01*
X122357142Y-104147380D02*
X122357142Y-103147380D01*
X122357142Y-104099761D02*
X122261904Y-104147380D01*
X122071428Y-104147380D01*
X121976190Y-104099761D01*
X121928571Y-104052142D01*
X121880952Y-103956904D01*
X121880952Y-103671190D01*
X121928571Y-103575952D01*
X121976190Y-103528333D01*
X122071428Y-103480714D01*
X122261904Y-103480714D01*
X122357142Y-103528333D01*
X123595238Y-104147380D02*
X123595238Y-103147380D01*
X123595238Y-103528333D02*
X123690476Y-103480714D01*
X123880952Y-103480714D01*
X123976190Y-103528333D01*
X124023809Y-103575952D01*
X124071428Y-103671190D01*
X124071428Y-103956904D01*
X124023809Y-104052142D01*
X123976190Y-104099761D01*
X123880952Y-104147380D01*
X123690476Y-104147380D01*
X123595238Y-104099761D01*
X124404761Y-103480714D02*
X124642857Y-104147380D01*
X124880952Y-103480714D02*
X124642857Y-104147380D01*
X124547619Y-104385476D01*
X124500000Y-104433095D01*
X124404761Y-104480714D01*
X117428571Y-105090714D02*
X117809523Y-105090714D01*
X117571428Y-104757380D02*
X117571428Y-105614523D01*
X117619047Y-105709761D01*
X117714285Y-105757380D01*
X117809523Y-105757380D01*
X118523809Y-105709761D02*
X118428571Y-105757380D01*
X118238095Y-105757380D01*
X118142857Y-105709761D01*
X118095238Y-105614523D01*
X118095238Y-105233571D01*
X118142857Y-105138333D01*
X118238095Y-105090714D01*
X118428571Y-105090714D01*
X118523809Y-105138333D01*
X118571428Y-105233571D01*
X118571428Y-105328809D01*
X118095238Y-105424047D01*
X119428571Y-105757380D02*
X119428571Y-105233571D01*
X119380952Y-105138333D01*
X119285714Y-105090714D01*
X119095238Y-105090714D01*
X119000000Y-105138333D01*
X119428571Y-105709761D02*
X119333333Y-105757380D01*
X119095238Y-105757380D01*
X119000000Y-105709761D01*
X118952380Y-105614523D01*
X118952380Y-105519285D01*
X119000000Y-105424047D01*
X119095238Y-105376428D01*
X119333333Y-105376428D01*
X119428571Y-105328809D01*
X119904761Y-105757380D02*
X119904761Y-105090714D01*
X119904761Y-105185952D02*
X119952380Y-105138333D01*
X120047619Y-105090714D01*
X120190476Y-105090714D01*
X120285714Y-105138333D01*
X120333333Y-105233571D01*
X120333333Y-105757380D01*
X120333333Y-105233571D02*
X120380952Y-105138333D01*
X120476190Y-105090714D01*
X120619047Y-105090714D01*
X120714285Y-105138333D01*
X120761904Y-105233571D01*
X120761904Y-105757380D01*
X122000000Y-105757380D02*
X122000000Y-105090714D01*
X122000000Y-104757380D02*
X121952380Y-104805000D01*
X122000000Y-104852619D01*
X122047619Y-104805000D01*
X122000000Y-104757380D01*
X122000000Y-104852619D01*
X122476190Y-105757380D02*
X122476190Y-104757380D01*
X122476190Y-105138333D02*
X122571428Y-105090714D01*
X122761904Y-105090714D01*
X122857142Y-105138333D01*
X122904761Y-105185952D01*
X122952380Y-105281190D01*
X122952380Y-105566904D01*
X122904761Y-105662142D01*
X122857142Y-105709761D01*
X122761904Y-105757380D01*
X122571428Y-105757380D01*
X122476190Y-105709761D01*
X123380952Y-105757380D02*
X123380952Y-105090714D01*
X123380952Y-104757380D02*
X123333333Y-104805000D01*
X123380952Y-104852619D01*
X123428571Y-104805000D01*
X123380952Y-104757380D01*
X123380952Y-104852619D01*
X123809523Y-105709761D02*
X123904761Y-105757380D01*
X124095238Y-105757380D01*
X124190476Y-105709761D01*
X124238095Y-105614523D01*
X124238095Y-105566904D01*
X124190476Y-105471666D01*
X124095238Y-105424047D01*
X123952380Y-105424047D01*
X123857142Y-105376428D01*
X123809523Y-105281190D01*
X123809523Y-105233571D01*
X123857142Y-105138333D01*
X123952380Y-105090714D01*
X124095238Y-105090714D01*
X124190476Y-105138333D01*
%TO.C,LG1*%
G36*
X119480152Y-100420086D02*
G01*
X119481314Y-100420703D01*
X119512723Y-100458036D01*
X119520000Y-100507603D01*
X119504814Y-100575459D01*
X119465635Y-100620617D01*
X119412023Y-100638659D01*
X119353544Y-100625167D01*
X119320000Y-100600000D01*
X119285212Y-100544531D01*
X119283530Y-100489794D01*
X119308568Y-100442884D01*
X119353942Y-100410898D01*
X119413264Y-100400933D01*
X119480152Y-100420086D01*
G37*
G36*
X120558410Y-98680438D02*
G01*
X120590118Y-98719863D01*
X120599627Y-98734172D01*
X120642152Y-98794779D01*
X120695247Y-98864773D01*
X120723575Y-98900039D01*
X120765599Y-98956701D01*
X120803551Y-99017682D01*
X120832990Y-99074229D01*
X120849477Y-99117589D01*
X120848571Y-99139009D01*
X120845268Y-99139912D01*
X120820188Y-99133621D01*
X120768115Y-99117100D01*
X120699666Y-99093739D01*
X120690000Y-99090334D01*
X120612511Y-99065605D01*
X120542136Y-99047724D01*
X120493700Y-99040438D01*
X120492575Y-99040421D01*
X120453524Y-99048813D01*
X120387534Y-99072064D01*
X120303259Y-99106792D01*
X120209357Y-99149612D01*
X120192575Y-99157688D01*
X120083330Y-99208517D01*
X119968057Y-99258538D01*
X119860894Y-99301811D01*
X119780000Y-99331085D01*
X119694765Y-99359686D01*
X119616681Y-99387058D01*
X119559063Y-99408496D01*
X119546977Y-99413397D01*
X119497745Y-99431638D01*
X119463436Y-99439950D01*
X119461977Y-99440000D01*
X119441156Y-99455514D01*
X119440000Y-99462798D01*
X119457726Y-99476685D01*
X119506493Y-99478157D01*
X119579685Y-99468287D01*
X119670685Y-99448144D01*
X119772876Y-99418800D01*
X119830000Y-99399642D01*
X120072906Y-99322344D01*
X120290192Y-99270790D01*
X120450000Y-99247897D01*
X120526902Y-99242409D01*
X120579742Y-99245105D01*
X120624116Y-99258949D01*
X120675620Y-99286905D01*
X120685023Y-99292558D01*
X120741852Y-99330805D01*
X120769463Y-99362080D01*
X120775356Y-99395274D01*
X120775023Y-99399214D01*
X120762972Y-99434701D01*
X120728662Y-99455329D01*
X120694918Y-99463918D01*
X120631234Y-99482686D01*
X120556622Y-99512320D01*
X120524918Y-99527293D01*
X120450060Y-99560752D01*
X120361400Y-99594449D01*
X120310000Y-99611317D01*
X120244464Y-99632361D01*
X120194608Y-99650776D01*
X120173650Y-99661078D01*
X120185883Y-99667350D01*
X120231100Y-99674624D01*
X120302327Y-99682038D01*
X120392590Y-99688731D01*
X120402228Y-99689317D01*
X120500812Y-99696436D01*
X120587730Y-99704986D01*
X120653524Y-99713888D01*
X120688578Y-99721993D01*
X120702912Y-99731792D01*
X120680861Y-99733486D01*
X120640000Y-99729656D01*
X120575572Y-99726851D01*
X120480861Y-99728625D01*
X120365230Y-99734270D01*
X120238044Y-99743078D01*
X120108667Y-99754339D01*
X119986465Y-99767346D01*
X119880802Y-99781389D01*
X119820712Y-99791648D01*
X119668132Y-99839747D01*
X119506338Y-99925726D01*
X119336481Y-100048829D01*
X119159711Y-100208301D01*
X119110000Y-100258473D01*
X119029335Y-100337785D01*
X118960747Y-100392236D01*
X118892361Y-100427261D01*
X118812307Y-100448293D01*
X118708711Y-100460766D01*
X118660000Y-100464440D01*
X118561262Y-100471903D01*
X118467294Y-100480174D01*
X118391685Y-100488003D01*
X118361302Y-100491894D01*
X118272605Y-100504906D01*
X118362121Y-100402576D01*
X118427117Y-100314675D01*
X118469913Y-100228388D01*
X118476293Y-100208063D01*
X118488105Y-100156699D01*
X118489216Y-100115771D01*
X118477331Y-100071094D01*
X118450154Y-100008485D01*
X118440760Y-99988492D01*
X118383509Y-99891893D01*
X118313654Y-99826718D01*
X118221253Y-99785374D01*
X118154069Y-99769443D01*
X118106349Y-99756320D01*
X118081166Y-99741259D01*
X118080000Y-99737927D01*
X118088867Y-99713660D01*
X118112694Y-99662905D01*
X118147316Y-99594305D01*
X118170346Y-99550414D01*
X118215282Y-99458505D01*
X118256073Y-99362064D01*
X118285824Y-99277811D01*
X118292111Y-99255261D01*
X118314706Y-99180223D01*
X118344200Y-99122976D01*
X118390380Y-99067288D01*
X118427943Y-99030000D01*
X118495944Y-98961892D01*
X118565830Y-98887224D01*
X118611987Y-98834491D01*
X118691616Y-98738982D01*
X118920808Y-98727292D01*
X119020153Y-98722633D01*
X119090096Y-98721643D01*
X119141178Y-98725815D01*
X119183937Y-98736641D01*
X119228913Y-98755612D01*
X119272404Y-98777069D01*
X119391440Y-98834761D01*
X119486843Y-98874855D01*
X119569268Y-98900355D01*
X119649368Y-98914267D01*
X119737797Y-98919597D01*
X119779082Y-98920000D01*
X119869477Y-98917891D01*
X119945163Y-98909451D01*
X120016189Y-98891510D01*
X120092603Y-98860897D01*
X120184453Y-98814442D01*
X120277654Y-98762691D01*
X120353761Y-98722613D01*
X120425165Y-98690221D01*
X120478406Y-98671521D01*
X120485286Y-98670025D01*
X120528151Y-98666454D01*
X120558410Y-98680438D01*
G37*
G36*
X120880000Y-99770000D02*
G01*
X120870000Y-99780000D01*
X120860000Y-99770000D01*
X120870000Y-99760000D01*
X120880000Y-99770000D01*
G37*
G36*
X116896624Y-97730173D02*
G01*
X116900000Y-97738819D01*
X116886766Y-97764936D01*
X116861116Y-97771190D01*
X116852789Y-97766122D01*
X116840623Y-97737090D01*
X116862029Y-97720580D01*
X116870000Y-97720000D01*
X116896624Y-97730173D01*
G37*
G36*
X119480000Y-102160000D02*
G01*
X119320000Y-102160000D01*
X119320000Y-100980000D01*
X119480000Y-100980000D01*
X119480000Y-102160000D01*
G37*
G36*
X120776909Y-99748090D02*
G01*
X120798212Y-99766681D01*
X120800000Y-99771180D01*
X120790508Y-99779400D01*
X120770747Y-99760981D01*
X120768090Y-99756909D01*
X120765732Y-99743223D01*
X120776909Y-99748090D01*
G37*
%TD*%
D11*
%TO.C,SW2*%
X99550000Y-83700000D03*
X95450000Y-83700000D03*
X95450000Y-85300000D03*
X99550000Y-85300000D03*
%TD*%
D12*
%TO.C,D6*%
X107000000Y-58287500D03*
X107000000Y-56712500D03*
%TD*%
D13*
%TO.C,D7*%
X109212500Y-106500000D03*
X110787500Y-106500000D03*
%TD*%
D14*
%TO.C,J13*%
X102500000Y-84250000D03*
D15*
X102500000Y-83000000D03*
X102500000Y-81750000D03*
X102500000Y-80500000D03*
X102500000Y-79250000D03*
X102500000Y-78000000D03*
X102500000Y-76750000D03*
X102500000Y-75500000D03*
%TD*%
D12*
%TO.C,D5*%
X105000000Y-58287500D03*
X105000000Y-56712500D03*
%TD*%
D11*
%TO.C,SW3*%
X99550000Y-74700000D03*
X95450000Y-74700000D03*
X99550000Y-76300000D03*
X95450000Y-76300000D03*
%TD*%
D16*
%TO.C,J1*%
X112500000Y-91000000D03*
D17*
X111250000Y-91000000D03*
%TD*%
D18*
%TO.C,D10*%
X129287500Y-104500000D03*
X127712500Y-104500000D03*
%TD*%
D19*
%TO.C,J11*%
X102050000Y-65771500D03*
X102050000Y-67771501D03*
X102050000Y-69771500D03*
D20*
X96075001Y-62876502D03*
X96075001Y-72666498D03*
%TD*%
D21*
%TO.C,D3*%
X105500000Y-88747500D03*
X105500000Y-90322500D03*
%TD*%
D11*
%TO.C,SW4*%
X99550000Y-79200000D03*
X95450000Y-79200000D03*
X95450000Y-80800000D03*
X99550000Y-80800000D03*
%TD*%
D14*
%TO.C,J6*%
X100000000Y-92000000D03*
D15*
X100000000Y-90750000D03*
X100000000Y-89500000D03*
X100000000Y-88250000D03*
%TD*%
D21*
%TO.C,D2*%
X115500000Y-88712500D03*
X115500000Y-90287500D03*
%TD*%
D16*
%TO.C,J3*%
X101875000Y-59000000D03*
D17*
X100625000Y-59000000D03*
X99375000Y-59000000D03*
X98125000Y-59000000D03*
%TD*%
D22*
%TO.C,J12*%
X114500000Y-84500000D03*
D23*
X111960000Y-84500000D03*
X109420000Y-84500000D03*
%TD*%
D14*
%TO.C,J7*%
X110500000Y-58750000D03*
D15*
X110500000Y-57500000D03*
X110500000Y-56250000D03*
%TD*%
D18*
%TO.C,D4*%
X129287500Y-102500000D03*
X127712500Y-102500000D03*
%TD*%
D24*
%TO.C,SW1*%
X118700000Y-84950000D03*
X118700000Y-89050000D03*
X120300000Y-89050000D03*
X120300000Y-84950000D03*
%TD*%
D25*
%TO.C,J2*%
X119500000Y-61450000D03*
D26*
X117500000Y-61450000D03*
X115500000Y-61450000D03*
%TD*%
D27*
%TO.C,J4*%
X103000000Y-105000000D03*
X103000000Y-94000000D03*
D28*
X113000000Y-97000000D03*
D29*
X113000000Y-102000000D03*
%TD*%
D14*
%TO.C,J8*%
X96000000Y-92000000D03*
D15*
X96000000Y-90750000D03*
X96000000Y-89500000D03*
X96000000Y-88250000D03*
%TD*%
D21*
%TO.C,D1*%
X108500000Y-88747500D03*
X108500000Y-90322500D03*
%TD*%
D30*
%TO.C,P1*%
X111500000Y-63250000D03*
X111500000Y-64750000D03*
X111500000Y-66250000D03*
X111500000Y-67750000D03*
X111500000Y-69250000D03*
X111500000Y-70750000D03*
%TD*%
D31*
%TO.C,J10*%
X102400000Y-65500000D03*
D32*
X103600000Y-65500000D03*
X101200000Y-65500000D03*
%TD*%
D31*
%TO.C,J9*%
X102400000Y-70000000D03*
D32*
X101200000Y-70000000D03*
X103600000Y-70000000D03*
%TD*%
%TO.C,J5*%
X103600000Y-67750000D03*
X101200000Y-67750000D03*
D31*
X102400000Y-67750000D03*
%TD*%
M02*
