%TF.GenerationSoftware,KiCad,Pcbnew,(6.0.8)*%
%TF.CreationDate,2023-04-16T02:33:25+09:00*%
%TF.ProjectId,ORION_sub_v2,4f52494f-4e5f-4737-9562-5f76322e6b69,rev?*%
%TF.SameCoordinates,Original*%
%TF.FileFunction,Paste,Bot*%
%TF.FilePolarity,Positive*%
%FSLAX46Y46*%
G04 Gerber Fmt 4.6, Leading zero omitted, Abs format (unit mm)*
G04 Created by KiCad (PCBNEW (6.0.8)) date 2023-04-16 02:33:25*
%MOMM*%
%LPD*%
G01*
G04 APERTURE LIST*
G04 Aperture macros list*
%AMRoundRect*
0 Rectangle with rounded corners*
0 $1 Rounding radius*
0 $2 $3 $4 $5 $6 $7 $8 $9 X,Y pos of 4 corners*
0 Add a 4 corners polygon primitive as box body*
4,1,4,$2,$3,$4,$5,$6,$7,$8,$9,$2,$3,0*
0 Add four circle primitives for the rounded corners*
1,1,$1+$1,$2,$3*
1,1,$1+$1,$4,$5*
1,1,$1+$1,$6,$7*
1,1,$1+$1,$8,$9*
0 Add four rect primitives between the rounded corners*
20,1,$1+$1,$2,$3,$4,$5,0*
20,1,$1+$1,$4,$5,$6,$7,0*
20,1,$1+$1,$6,$7,$8,$9,0*
20,1,$1+$1,$8,$9,$2,$3,0*%
G04 Aperture macros list end*
%ADD10RoundRect,0.200000X0.275000X-0.200000X0.275000X0.200000X-0.275000X0.200000X-0.275000X-0.200000X0*%
%ADD11RoundRect,0.200000X-0.200000X-0.275000X0.200000X-0.275000X0.200000X0.275000X-0.200000X0.275000X0*%
%ADD12RoundRect,0.200000X-0.275000X0.200000X-0.275000X-0.200000X0.275000X-0.200000X0.275000X0.200000X0*%
%ADD13RoundRect,0.225000X-0.225000X-0.250000X0.225000X-0.250000X0.225000X0.250000X-0.225000X0.250000X0*%
%ADD14RoundRect,0.225000X-0.250000X0.225000X-0.250000X-0.225000X0.250000X-0.225000X0.250000X0.225000X0*%
%ADD15RoundRect,0.250000X0.650000X-0.325000X0.650000X0.325000X-0.650000X0.325000X-0.650000X-0.325000X0*%
%ADD16R,1.500000X4.000000*%
%ADD17RoundRect,0.200000X0.200000X0.275000X-0.200000X0.275000X-0.200000X-0.275000X0.200000X-0.275000X0*%
%ADD18RoundRect,0.150000X0.725000X0.150000X-0.725000X0.150000X-0.725000X-0.150000X0.725000X-0.150000X0*%
%ADD19RoundRect,0.250000X0.325000X0.650000X-0.325000X0.650000X-0.325000X-0.650000X0.325000X-0.650000X0*%
%ADD20RoundRect,0.075000X0.075000X-0.662500X0.075000X0.662500X-0.075000X0.662500X-0.075000X-0.662500X0*%
%ADD21RoundRect,0.075000X0.662500X-0.075000X0.662500X0.075000X-0.662500X0.075000X-0.662500X-0.075000X0*%
%ADD22RoundRect,0.225000X0.250000X-0.225000X0.250000X0.225000X-0.250000X0.225000X-0.250000X-0.225000X0*%
%ADD23RoundRect,0.140000X-0.140000X-0.170000X0.140000X-0.170000X0.140000X0.170000X-0.140000X0.170000X0*%
%ADD24R,0.400000X1.900000*%
%ADD25RoundRect,0.250000X-0.650000X0.325000X-0.650000X-0.325000X0.650000X-0.325000X0.650000X0.325000X0*%
%ADD26RoundRect,0.140000X-0.170000X0.140000X-0.170000X-0.140000X0.170000X-0.140000X0.170000X0.140000X0*%
%ADD27R,1.500000X2.400000*%
%ADD28R,1.500000X1.050000*%
%ADD29RoundRect,0.150000X0.587500X0.150000X-0.587500X0.150000X-0.587500X-0.150000X0.587500X-0.150000X0*%
%ADD30RoundRect,0.150000X-0.150000X0.587500X-0.150000X-0.587500X0.150000X-0.587500X0.150000X0.587500X0*%
%ADD31RoundRect,0.150000X0.512500X0.150000X-0.512500X0.150000X-0.512500X-0.150000X0.512500X-0.150000X0*%
G04 APERTURE END LIST*
D10*
%TO.C,R19*%
X112000000Y-87825000D03*
X112000000Y-86175000D03*
%TD*%
D11*
%TO.C,R13*%
X106175000Y-106500000D03*
X107825000Y-106500000D03*
%TD*%
D12*
%TO.C,R14*%
X115500000Y-63350000D03*
X115500000Y-65000000D03*
%TD*%
D10*
%TO.C,R2*%
X117500000Y-94325000D03*
X117500000Y-92675000D03*
%TD*%
D12*
%TO.C,R5*%
X107500000Y-85675000D03*
X107500000Y-87325000D03*
%TD*%
%TO.C,R18*%
X108000000Y-70175000D03*
X108000000Y-71825000D03*
%TD*%
D13*
%TO.C,C2*%
X122225000Y-71000000D03*
X123775000Y-71000000D03*
%TD*%
D12*
%TO.C,R1*%
X117500000Y-84675000D03*
X117500000Y-86325000D03*
%TD*%
D14*
%TO.C,C11*%
X113000000Y-92725000D03*
X113000000Y-94275000D03*
%TD*%
D10*
%TO.C,R16*%
X126500000Y-105850000D03*
X126500000Y-104200000D03*
%TD*%
D15*
%TO.C,C7*%
X124500000Y-100975000D03*
X124500000Y-98025000D03*
%TD*%
D12*
%TO.C,R3*%
X112500000Y-58175000D03*
X112500000Y-59825000D03*
%TD*%
D16*
%TO.C,L1*%
X117200000Y-100500000D03*
X120800000Y-100500000D03*
%TD*%
D17*
%TO.C,R17*%
X132325000Y-104500000D03*
X130675000Y-104500000D03*
%TD*%
D10*
%TO.C,R9*%
X116000000Y-95825000D03*
X116000000Y-94175000D03*
%TD*%
D18*
%TO.C,U2*%
X125075000Y-91595000D03*
X125075000Y-92865000D03*
X125075000Y-94135000D03*
X125075000Y-95405000D03*
X119925000Y-95405000D03*
X119925000Y-94135000D03*
X119925000Y-92865000D03*
X119925000Y-91595000D03*
%TD*%
D19*
%TO.C,C8*%
X129975000Y-98000000D03*
X127025000Y-98000000D03*
%TD*%
D14*
%TO.C,C1*%
X127000000Y-92725000D03*
X127000000Y-94275000D03*
%TD*%
D20*
%TO.C,U1*%
X122750000Y-82162500D03*
X122250000Y-82162500D03*
X121750000Y-82162500D03*
X121250000Y-82162500D03*
X120750000Y-82162500D03*
X120250000Y-82162500D03*
X119750000Y-82162500D03*
X119250000Y-82162500D03*
X118750000Y-82162500D03*
X118250000Y-82162500D03*
X117750000Y-82162500D03*
X117250000Y-82162500D03*
D21*
X115837500Y-80750000D03*
X115837500Y-80250000D03*
X115837500Y-79750000D03*
X115837500Y-79250000D03*
X115837500Y-78750000D03*
X115837500Y-78250000D03*
X115837500Y-77750000D03*
X115837500Y-77250000D03*
X115837500Y-76750000D03*
X115837500Y-76250000D03*
X115837500Y-75750000D03*
X115837500Y-75250000D03*
D20*
X117250000Y-73837500D03*
X117750000Y-73837500D03*
X118250000Y-73837500D03*
X118750000Y-73837500D03*
X119250000Y-73837500D03*
X119750000Y-73837500D03*
X120250000Y-73837500D03*
X120750000Y-73837500D03*
X121250000Y-73837500D03*
X121750000Y-73837500D03*
X122250000Y-73837500D03*
X122750000Y-73837500D03*
D21*
X124162500Y-75250000D03*
X124162500Y-75750000D03*
X124162500Y-76250000D03*
X124162500Y-76750000D03*
X124162500Y-77250000D03*
X124162500Y-77750000D03*
X124162500Y-78250000D03*
X124162500Y-78750000D03*
X124162500Y-79250000D03*
X124162500Y-79750000D03*
X124162500Y-80250000D03*
X124162500Y-80750000D03*
%TD*%
D22*
%TO.C,C5*%
X113500000Y-75275000D03*
X113500000Y-73725000D03*
%TD*%
D11*
%TO.C,R26*%
X104175000Y-76500000D03*
X105825000Y-76500000D03*
%TD*%
D23*
%TO.C,C3*%
X118020000Y-105025000D03*
X118980000Y-105025000D03*
%TD*%
D11*
%TO.C,R24*%
X104175000Y-79500000D03*
X105825000Y-79500000D03*
%TD*%
D12*
%TO.C,R7*%
X106000000Y-85675000D03*
X106000000Y-87325000D03*
%TD*%
D24*
%TO.C,X1*%
X119300000Y-87500000D03*
X120500000Y-87500000D03*
X121700000Y-87500000D03*
%TD*%
D10*
%TO.C,R12*%
X109000000Y-61325000D03*
X109000000Y-59675000D03*
%TD*%
D12*
%TO.C,R6*%
X114500000Y-86175000D03*
X114500000Y-87825000D03*
%TD*%
D11*
%TO.C,R23*%
X104175000Y-81000000D03*
X105825000Y-81000000D03*
%TD*%
D10*
%TO.C,R11*%
X107500000Y-62325000D03*
X107500000Y-60675000D03*
%TD*%
D12*
%TO.C,R20*%
X108000000Y-67175000D03*
X108000000Y-68825000D03*
%TD*%
D25*
%TO.C,C12*%
X114000000Y-105525000D03*
X114000000Y-108475000D03*
%TD*%
D12*
%TO.C,R4*%
X114000000Y-58175000D03*
X114000000Y-59825000D03*
%TD*%
D11*
%TO.C,R27*%
X104175000Y-75000000D03*
X105825000Y-75000000D03*
%TD*%
D26*
%TO.C,C4*%
X128000000Y-104545000D03*
X128000000Y-105505000D03*
%TD*%
D10*
%TO.C,R10*%
X114500000Y-94325000D03*
X114500000Y-92675000D03*
%TD*%
D11*
%TO.C,R21*%
X103675000Y-59000000D03*
X105325000Y-59000000D03*
%TD*%
%TO.C,R25*%
X104175000Y-78000000D03*
X105825000Y-78000000D03*
%TD*%
D27*
%TO.C,D9*%
X122000000Y-104675000D03*
D28*
X122000000Y-107050000D03*
%TD*%
D25*
%TO.C,C13*%
X124500000Y-104050000D03*
X124500000Y-107000000D03*
%TD*%
D29*
%TO.C,Q1*%
X105937500Y-60550000D03*
X105937500Y-62450000D03*
X104062500Y-61500000D03*
%TD*%
D30*
%TO.C,U3*%
X127550000Y-100062500D03*
X129450000Y-100062500D03*
X128500000Y-101937500D03*
%TD*%
D10*
%TO.C,R22*%
X107000000Y-65825000D03*
X107000000Y-64175000D03*
%TD*%
D14*
%TO.C,C6*%
X126000000Y-79725000D03*
X126000000Y-81275000D03*
%TD*%
D12*
%TO.C,R15*%
X126500000Y-107200000D03*
X126500000Y-108850000D03*
%TD*%
D17*
%TO.C,R8*%
X132325000Y-102500000D03*
X130675000Y-102500000D03*
%TD*%
D31*
%TO.C,U4*%
X119637500Y-106075000D03*
X119637500Y-107025000D03*
X119637500Y-107975000D03*
X117362500Y-107975000D03*
X117362500Y-107025000D03*
X117362500Y-106075000D03*
%TD*%
M02*
