%TF.GenerationSoftware,KiCad,Pcbnew,(6.0.8)*%
%TF.CreationDate,2023-04-16T02:33:25+09:00*%
%TF.ProjectId,ORION_sub_v2,4f52494f-4e5f-4737-9562-5f76322e6b69,rev?*%
%TF.SameCoordinates,Original*%
%TF.FileFunction,Legend,Bot*%
%TF.FilePolarity,Positive*%
%FSLAX46Y46*%
G04 Gerber Fmt 4.6, Leading zero omitted, Abs format (unit mm)*
G04 Created by KiCad (PCBNEW (6.0.8)) date 2023-04-16 02:33:25*
%MOMM*%
%LPD*%
G01*
G04 APERTURE LIST*
%ADD10C,0.150000*%
%ADD11C,0.120000*%
G04 APERTURE END LIST*
D10*
%TO.C,R19*%
X110952380Y-86357142D02*
X110476190Y-86023809D01*
X110952380Y-85785714D02*
X109952380Y-85785714D01*
X109952380Y-86166666D01*
X110000000Y-86261904D01*
X110047619Y-86309523D01*
X110142857Y-86357142D01*
X110285714Y-86357142D01*
X110380952Y-86309523D01*
X110428571Y-86261904D01*
X110476190Y-86166666D01*
X110476190Y-85785714D01*
X110952380Y-87309523D02*
X110952380Y-86738095D01*
X110952380Y-87023809D02*
X109952380Y-87023809D01*
X110095238Y-86928571D01*
X110190476Y-86833333D01*
X110238095Y-86738095D01*
X110952380Y-87785714D02*
X110952380Y-87976190D01*
X110904761Y-88071428D01*
X110857142Y-88119047D01*
X110714285Y-88214285D01*
X110523809Y-88261904D01*
X110142857Y-88261904D01*
X110047619Y-88214285D01*
X110000000Y-88166666D01*
X109952380Y-88071428D01*
X109952380Y-87880952D01*
X110000000Y-87785714D01*
X110047619Y-87738095D01*
X110142857Y-87690476D01*
X110380952Y-87690476D01*
X110476190Y-87738095D01*
X110523809Y-87785714D01*
X110571428Y-87880952D01*
X110571428Y-88071428D01*
X110523809Y-88166666D01*
X110476190Y-88214285D01*
X110380952Y-88261904D01*
%TO.C,R13*%
X107642857Y-105452380D02*
X107976190Y-104976190D01*
X108214285Y-105452380D02*
X108214285Y-104452380D01*
X107833333Y-104452380D01*
X107738095Y-104500000D01*
X107690476Y-104547619D01*
X107642857Y-104642857D01*
X107642857Y-104785714D01*
X107690476Y-104880952D01*
X107738095Y-104928571D01*
X107833333Y-104976190D01*
X108214285Y-104976190D01*
X106690476Y-105452380D02*
X107261904Y-105452380D01*
X106976190Y-105452380D02*
X106976190Y-104452380D01*
X107071428Y-104595238D01*
X107166666Y-104690476D01*
X107261904Y-104738095D01*
X106357142Y-104452380D02*
X105738095Y-104452380D01*
X106071428Y-104833333D01*
X105928571Y-104833333D01*
X105833333Y-104880952D01*
X105785714Y-104928571D01*
X105738095Y-105023809D01*
X105738095Y-105261904D01*
X105785714Y-105357142D01*
X105833333Y-105404761D01*
X105928571Y-105452380D01*
X106214285Y-105452380D01*
X106309523Y-105404761D01*
X106357142Y-105357142D01*
%TO.C,R14*%
X114522380Y-63532142D02*
X114046190Y-63198809D01*
X114522380Y-62960714D02*
X113522380Y-62960714D01*
X113522380Y-63341666D01*
X113570000Y-63436904D01*
X113617619Y-63484523D01*
X113712857Y-63532142D01*
X113855714Y-63532142D01*
X113950952Y-63484523D01*
X113998571Y-63436904D01*
X114046190Y-63341666D01*
X114046190Y-62960714D01*
X114522380Y-64484523D02*
X114522380Y-63913095D01*
X114522380Y-64198809D02*
X113522380Y-64198809D01*
X113665238Y-64103571D01*
X113760476Y-64008333D01*
X113808095Y-63913095D01*
X113855714Y-65341666D02*
X114522380Y-65341666D01*
X113474761Y-65103571D02*
X114189047Y-64865476D01*
X114189047Y-65484523D01*
%TO.C,R2*%
X117952380Y-95833333D02*
X117476190Y-95500000D01*
X117952380Y-95261904D02*
X116952380Y-95261904D01*
X116952380Y-95642857D01*
X117000000Y-95738095D01*
X117047619Y-95785714D01*
X117142857Y-95833333D01*
X117285714Y-95833333D01*
X117380952Y-95785714D01*
X117428571Y-95738095D01*
X117476190Y-95642857D01*
X117476190Y-95261904D01*
X117047619Y-96214285D02*
X117000000Y-96261904D01*
X116952380Y-96357142D01*
X116952380Y-96595238D01*
X117000000Y-96690476D01*
X117047619Y-96738095D01*
X117142857Y-96785714D01*
X117238095Y-96785714D01*
X117380952Y-96738095D01*
X117952380Y-96166666D01*
X117952380Y-96785714D01*
%TO.C,J10*%
X99809523Y-64952380D02*
X99809523Y-65666666D01*
X99857142Y-65809523D01*
X99952380Y-65904761D01*
X100095238Y-65952380D01*
X100190476Y-65952380D01*
X98809523Y-65952380D02*
X99380952Y-65952380D01*
X99095238Y-65952380D02*
X99095238Y-64952380D01*
X99190476Y-65095238D01*
X99285714Y-65190476D01*
X99380952Y-65238095D01*
X98190476Y-64952380D02*
X98095238Y-64952380D01*
X98000000Y-65000000D01*
X97952380Y-65047619D01*
X97904761Y-65142857D01*
X97857142Y-65333333D01*
X97857142Y-65571428D01*
X97904761Y-65761904D01*
X97952380Y-65857142D01*
X98000000Y-65904761D01*
X98095238Y-65952380D01*
X98190476Y-65952380D01*
X98285714Y-65904761D01*
X98333333Y-65857142D01*
X98380952Y-65761904D01*
X98428571Y-65571428D01*
X98428571Y-65333333D01*
X98380952Y-65142857D01*
X98333333Y-65047619D01*
X98285714Y-65000000D01*
X98190476Y-64952380D01*
%TO.C,R5*%
X107952380Y-83833333D02*
X107476190Y-83500000D01*
X107952380Y-83261904D02*
X106952380Y-83261904D01*
X106952380Y-83642857D01*
X107000000Y-83738095D01*
X107047619Y-83785714D01*
X107142857Y-83833333D01*
X107285714Y-83833333D01*
X107380952Y-83785714D01*
X107428571Y-83738095D01*
X107476190Y-83642857D01*
X107476190Y-83261904D01*
X106952380Y-84738095D02*
X106952380Y-84261904D01*
X107428571Y-84214285D01*
X107380952Y-84261904D01*
X107333333Y-84357142D01*
X107333333Y-84595238D01*
X107380952Y-84690476D01*
X107428571Y-84738095D01*
X107523809Y-84785714D01*
X107761904Y-84785714D01*
X107857142Y-84738095D01*
X107904761Y-84690476D01*
X107952380Y-84595238D01*
X107952380Y-84357142D01*
X107904761Y-84261904D01*
X107857142Y-84214285D01*
%TO.C,R18*%
X107022380Y-70357142D02*
X106546190Y-70023809D01*
X107022380Y-69785714D02*
X106022380Y-69785714D01*
X106022380Y-70166666D01*
X106070000Y-70261904D01*
X106117619Y-70309523D01*
X106212857Y-70357142D01*
X106355714Y-70357142D01*
X106450952Y-70309523D01*
X106498571Y-70261904D01*
X106546190Y-70166666D01*
X106546190Y-69785714D01*
X107022380Y-71309523D02*
X107022380Y-70738095D01*
X107022380Y-71023809D02*
X106022380Y-71023809D01*
X106165238Y-70928571D01*
X106260476Y-70833333D01*
X106308095Y-70738095D01*
X106450952Y-71880952D02*
X106403333Y-71785714D01*
X106355714Y-71738095D01*
X106260476Y-71690476D01*
X106212857Y-71690476D01*
X106117619Y-71738095D01*
X106070000Y-71785714D01*
X106022380Y-71880952D01*
X106022380Y-72071428D01*
X106070000Y-72166666D01*
X106117619Y-72214285D01*
X106212857Y-72261904D01*
X106260476Y-72261904D01*
X106355714Y-72214285D01*
X106403333Y-72166666D01*
X106450952Y-72071428D01*
X106450952Y-71880952D01*
X106498571Y-71785714D01*
X106546190Y-71738095D01*
X106641428Y-71690476D01*
X106831904Y-71690476D01*
X106927142Y-71738095D01*
X106974761Y-71785714D01*
X107022380Y-71880952D01*
X107022380Y-72071428D01*
X106974761Y-72166666D01*
X106927142Y-72214285D01*
X106831904Y-72261904D01*
X106641428Y-72261904D01*
X106546190Y-72214285D01*
X106498571Y-72166666D01*
X106450952Y-72071428D01*
%TO.C,C2*%
X125666666Y-71357142D02*
X125714285Y-71404761D01*
X125857142Y-71452380D01*
X125952380Y-71452380D01*
X126095238Y-71404761D01*
X126190476Y-71309523D01*
X126238095Y-71214285D01*
X126285714Y-71023809D01*
X126285714Y-70880952D01*
X126238095Y-70690476D01*
X126190476Y-70595238D01*
X126095238Y-70500000D01*
X125952380Y-70452380D01*
X125857142Y-70452380D01*
X125714285Y-70500000D01*
X125666666Y-70547619D01*
X125285714Y-70547619D02*
X125238095Y-70500000D01*
X125142857Y-70452380D01*
X124904761Y-70452380D01*
X124809523Y-70500000D01*
X124761904Y-70547619D01*
X124714285Y-70642857D01*
X124714285Y-70738095D01*
X124761904Y-70880952D01*
X125333333Y-71452380D01*
X124714285Y-71452380D01*
%TO.C,R1*%
X117952380Y-87833333D02*
X117476190Y-87500000D01*
X117952380Y-87261904D02*
X116952380Y-87261904D01*
X116952380Y-87642857D01*
X117000000Y-87738095D01*
X117047619Y-87785714D01*
X117142857Y-87833333D01*
X117285714Y-87833333D01*
X117380952Y-87785714D01*
X117428571Y-87738095D01*
X117476190Y-87642857D01*
X117476190Y-87261904D01*
X117952380Y-88785714D02*
X117952380Y-88214285D01*
X117952380Y-88500000D02*
X116952380Y-88500000D01*
X117095238Y-88404761D01*
X117190476Y-88309523D01*
X117238095Y-88214285D01*
%TO.C,C11*%
X111927142Y-92857142D02*
X111974761Y-92809523D01*
X112022380Y-92666666D01*
X112022380Y-92571428D01*
X111974761Y-92428571D01*
X111879523Y-92333333D01*
X111784285Y-92285714D01*
X111593809Y-92238095D01*
X111450952Y-92238095D01*
X111260476Y-92285714D01*
X111165238Y-92333333D01*
X111070000Y-92428571D01*
X111022380Y-92571428D01*
X111022380Y-92666666D01*
X111070000Y-92809523D01*
X111117619Y-92857142D01*
X112022380Y-93809523D02*
X112022380Y-93238095D01*
X112022380Y-93523809D02*
X111022380Y-93523809D01*
X111165238Y-93428571D01*
X111260476Y-93333333D01*
X111308095Y-93238095D01*
X112022380Y-94761904D02*
X112022380Y-94190476D01*
X112022380Y-94476190D02*
X111022380Y-94476190D01*
X111165238Y-94380952D01*
X111260476Y-94285714D01*
X111308095Y-94190476D01*
%TO.C,R16*%
X126952380Y-101007142D02*
X126476190Y-100673809D01*
X126952380Y-100435714D02*
X125952380Y-100435714D01*
X125952380Y-100816666D01*
X126000000Y-100911904D01*
X126047619Y-100959523D01*
X126142857Y-101007142D01*
X126285714Y-101007142D01*
X126380952Y-100959523D01*
X126428571Y-100911904D01*
X126476190Y-100816666D01*
X126476190Y-100435714D01*
X126952380Y-101959523D02*
X126952380Y-101388095D01*
X126952380Y-101673809D02*
X125952380Y-101673809D01*
X126095238Y-101578571D01*
X126190476Y-101483333D01*
X126238095Y-101388095D01*
X125952380Y-102816666D02*
X125952380Y-102626190D01*
X126000000Y-102530952D01*
X126047619Y-102483333D01*
X126190476Y-102388095D01*
X126380952Y-102340476D01*
X126761904Y-102340476D01*
X126857142Y-102388095D01*
X126904761Y-102435714D01*
X126952380Y-102530952D01*
X126952380Y-102721428D01*
X126904761Y-102816666D01*
X126857142Y-102864285D01*
X126761904Y-102911904D01*
X126523809Y-102911904D01*
X126428571Y-102864285D01*
X126380952Y-102816666D01*
X126333333Y-102721428D01*
X126333333Y-102530952D01*
X126380952Y-102435714D01*
X126428571Y-102388095D01*
X126523809Y-102340476D01*
%TO.C,C7*%
X124616666Y-102857142D02*
X124664285Y-102904761D01*
X124807142Y-102952380D01*
X124902380Y-102952380D01*
X125045238Y-102904761D01*
X125140476Y-102809523D01*
X125188095Y-102714285D01*
X125235714Y-102523809D01*
X125235714Y-102380952D01*
X125188095Y-102190476D01*
X125140476Y-102095238D01*
X125045238Y-102000000D01*
X124902380Y-101952380D01*
X124807142Y-101952380D01*
X124664285Y-102000000D01*
X124616666Y-102047619D01*
X124283333Y-101952380D02*
X123616666Y-101952380D01*
X124045238Y-102952380D01*
%TO.C,R3*%
X112952380Y-56333333D02*
X112476190Y-56000000D01*
X112952380Y-55761904D02*
X111952380Y-55761904D01*
X111952380Y-56142857D01*
X112000000Y-56238095D01*
X112047619Y-56285714D01*
X112142857Y-56333333D01*
X112285714Y-56333333D01*
X112380952Y-56285714D01*
X112428571Y-56238095D01*
X112476190Y-56142857D01*
X112476190Y-55761904D01*
X111952380Y-56666666D02*
X111952380Y-57285714D01*
X112333333Y-56952380D01*
X112333333Y-57095238D01*
X112380952Y-57190476D01*
X112428571Y-57238095D01*
X112523809Y-57285714D01*
X112761904Y-57285714D01*
X112857142Y-57238095D01*
X112904761Y-57190476D01*
X112952380Y-57095238D01*
X112952380Y-56809523D01*
X112904761Y-56714285D01*
X112857142Y-56666666D01*
%TO.C,L1*%
X119166666Y-100952380D02*
X119642857Y-100952380D01*
X119642857Y-99952380D01*
X118309523Y-100952380D02*
X118880952Y-100952380D01*
X118595238Y-100952380D02*
X118595238Y-99952380D01*
X118690476Y-100095238D01*
X118785714Y-100190476D01*
X118880952Y-100238095D01*
%TO.C,R17*%
X134642857Y-104952380D02*
X134976190Y-104476190D01*
X135214285Y-104952380D02*
X135214285Y-103952380D01*
X134833333Y-103952380D01*
X134738095Y-104000000D01*
X134690476Y-104047619D01*
X134642857Y-104142857D01*
X134642857Y-104285714D01*
X134690476Y-104380952D01*
X134738095Y-104428571D01*
X134833333Y-104476190D01*
X135214285Y-104476190D01*
X133690476Y-104952380D02*
X134261904Y-104952380D01*
X133976190Y-104952380D02*
X133976190Y-103952380D01*
X134071428Y-104095238D01*
X134166666Y-104190476D01*
X134261904Y-104238095D01*
X133357142Y-103952380D02*
X132690476Y-103952380D01*
X133119047Y-104952380D01*
%TO.C,R9*%
X116452380Y-97333333D02*
X115976190Y-97000000D01*
X116452380Y-96761904D02*
X115452380Y-96761904D01*
X115452380Y-97142857D01*
X115500000Y-97238095D01*
X115547619Y-97285714D01*
X115642857Y-97333333D01*
X115785714Y-97333333D01*
X115880952Y-97285714D01*
X115928571Y-97238095D01*
X115976190Y-97142857D01*
X115976190Y-96761904D01*
X116452380Y-97809523D02*
X116452380Y-98000000D01*
X116404761Y-98095238D01*
X116357142Y-98142857D01*
X116214285Y-98238095D01*
X116023809Y-98285714D01*
X115642857Y-98285714D01*
X115547619Y-98238095D01*
X115500000Y-98190476D01*
X115452380Y-98095238D01*
X115452380Y-97904761D01*
X115500000Y-97809523D01*
X115547619Y-97761904D01*
X115642857Y-97714285D01*
X115880952Y-97714285D01*
X115976190Y-97761904D01*
X116023809Y-97809523D01*
X116071428Y-97904761D01*
X116071428Y-98095238D01*
X116023809Y-98190476D01*
X115976190Y-98238095D01*
X115880952Y-98285714D01*
%TO.C,U2*%
X123261904Y-89552380D02*
X123261904Y-90361904D01*
X123214285Y-90457142D01*
X123166666Y-90504761D01*
X123071428Y-90552380D01*
X122880952Y-90552380D01*
X122785714Y-90504761D01*
X122738095Y-90457142D01*
X122690476Y-90361904D01*
X122690476Y-89552380D01*
X122261904Y-89647619D02*
X122214285Y-89600000D01*
X122119047Y-89552380D01*
X121880952Y-89552380D01*
X121785714Y-89600000D01*
X121738095Y-89647619D01*
X121690476Y-89742857D01*
X121690476Y-89838095D01*
X121738095Y-89980952D01*
X122309523Y-90552380D01*
X121690476Y-90552380D01*
%TO.C,C8*%
X131857142Y-97833333D02*
X131904761Y-97785714D01*
X131952380Y-97642857D01*
X131952380Y-97547619D01*
X131904761Y-97404761D01*
X131809523Y-97309523D01*
X131714285Y-97261904D01*
X131523809Y-97214285D01*
X131380952Y-97214285D01*
X131190476Y-97261904D01*
X131095238Y-97309523D01*
X131000000Y-97404761D01*
X130952380Y-97547619D01*
X130952380Y-97642857D01*
X131000000Y-97785714D01*
X131047619Y-97833333D01*
X131380952Y-98404761D02*
X131333333Y-98309523D01*
X131285714Y-98261904D01*
X131190476Y-98214285D01*
X131142857Y-98214285D01*
X131047619Y-98261904D01*
X131000000Y-98309523D01*
X130952380Y-98404761D01*
X130952380Y-98595238D01*
X131000000Y-98690476D01*
X131047619Y-98738095D01*
X131142857Y-98785714D01*
X131190476Y-98785714D01*
X131285714Y-98738095D01*
X131333333Y-98690476D01*
X131380952Y-98595238D01*
X131380952Y-98404761D01*
X131428571Y-98309523D01*
X131476190Y-98261904D01*
X131571428Y-98214285D01*
X131761904Y-98214285D01*
X131857142Y-98261904D01*
X131904761Y-98309523D01*
X131952380Y-98404761D01*
X131952380Y-98595238D01*
X131904761Y-98690476D01*
X131857142Y-98738095D01*
X131761904Y-98785714D01*
X131571428Y-98785714D01*
X131476190Y-98738095D01*
X131428571Y-98690476D01*
X131380952Y-98595238D01*
%TO.C,C1*%
X128857142Y-93333333D02*
X128904761Y-93285714D01*
X128952380Y-93142857D01*
X128952380Y-93047619D01*
X128904761Y-92904761D01*
X128809523Y-92809523D01*
X128714285Y-92761904D01*
X128523809Y-92714285D01*
X128380952Y-92714285D01*
X128190476Y-92761904D01*
X128095238Y-92809523D01*
X128000000Y-92904761D01*
X127952380Y-93047619D01*
X127952380Y-93142857D01*
X128000000Y-93285714D01*
X128047619Y-93333333D01*
X128952380Y-94285714D02*
X128952380Y-93714285D01*
X128952380Y-94000000D02*
X127952380Y-94000000D01*
X128095238Y-93904761D01*
X128190476Y-93809523D01*
X128238095Y-93714285D01*
%TO.C,U1*%
X125302380Y-77238095D02*
X126111904Y-77238095D01*
X126207142Y-77285714D01*
X126254761Y-77333333D01*
X126302380Y-77428571D01*
X126302380Y-77619047D01*
X126254761Y-77714285D01*
X126207142Y-77761904D01*
X126111904Y-77809523D01*
X125302380Y-77809523D01*
X126302380Y-78809523D02*
X126302380Y-78238095D01*
X126302380Y-78523809D02*
X125302380Y-78523809D01*
X125445238Y-78428571D01*
X125540476Y-78333333D01*
X125588095Y-78238095D01*
%TO.C,C5*%
X113857142Y-71833333D02*
X113904761Y-71785714D01*
X113952380Y-71642857D01*
X113952380Y-71547619D01*
X113904761Y-71404761D01*
X113809523Y-71309523D01*
X113714285Y-71261904D01*
X113523809Y-71214285D01*
X113380952Y-71214285D01*
X113190476Y-71261904D01*
X113095238Y-71309523D01*
X113000000Y-71404761D01*
X112952380Y-71547619D01*
X112952380Y-71642857D01*
X113000000Y-71785714D01*
X113047619Y-71833333D01*
X112952380Y-72738095D02*
X112952380Y-72261904D01*
X113428571Y-72214285D01*
X113380952Y-72261904D01*
X113333333Y-72357142D01*
X113333333Y-72595238D01*
X113380952Y-72690476D01*
X113428571Y-72738095D01*
X113523809Y-72785714D01*
X113761904Y-72785714D01*
X113857142Y-72738095D01*
X113904761Y-72690476D01*
X113952380Y-72595238D01*
X113952380Y-72357142D01*
X113904761Y-72261904D01*
X113857142Y-72214285D01*
%TO.C,R26*%
X108642857Y-76952380D02*
X108976190Y-76476190D01*
X109214285Y-76952380D02*
X109214285Y-75952380D01*
X108833333Y-75952380D01*
X108738095Y-76000000D01*
X108690476Y-76047619D01*
X108642857Y-76142857D01*
X108642857Y-76285714D01*
X108690476Y-76380952D01*
X108738095Y-76428571D01*
X108833333Y-76476190D01*
X109214285Y-76476190D01*
X108261904Y-76047619D02*
X108214285Y-76000000D01*
X108119047Y-75952380D01*
X107880952Y-75952380D01*
X107785714Y-76000000D01*
X107738095Y-76047619D01*
X107690476Y-76142857D01*
X107690476Y-76238095D01*
X107738095Y-76380952D01*
X108309523Y-76952380D01*
X107690476Y-76952380D01*
X106833333Y-75952380D02*
X107023809Y-75952380D01*
X107119047Y-76000000D01*
X107166666Y-76047619D01*
X107261904Y-76190476D01*
X107309523Y-76380952D01*
X107309523Y-76761904D01*
X107261904Y-76857142D01*
X107214285Y-76904761D01*
X107119047Y-76952380D01*
X106928571Y-76952380D01*
X106833333Y-76904761D01*
X106785714Y-76857142D01*
X106738095Y-76761904D01*
X106738095Y-76523809D01*
X106785714Y-76428571D01*
X106833333Y-76380952D01*
X106928571Y-76333333D01*
X107119047Y-76333333D01*
X107214285Y-76380952D01*
X107261904Y-76428571D01*
X107309523Y-76523809D01*
%TO.C,C3*%
X116666666Y-105382142D02*
X116714285Y-105429761D01*
X116857142Y-105477380D01*
X116952380Y-105477380D01*
X117095238Y-105429761D01*
X117190476Y-105334523D01*
X117238095Y-105239285D01*
X117285714Y-105048809D01*
X117285714Y-104905952D01*
X117238095Y-104715476D01*
X117190476Y-104620238D01*
X117095238Y-104525000D01*
X116952380Y-104477380D01*
X116857142Y-104477380D01*
X116714285Y-104525000D01*
X116666666Y-104572619D01*
X116333333Y-104477380D02*
X115714285Y-104477380D01*
X116047619Y-104858333D01*
X115904761Y-104858333D01*
X115809523Y-104905952D01*
X115761904Y-104953571D01*
X115714285Y-105048809D01*
X115714285Y-105286904D01*
X115761904Y-105382142D01*
X115809523Y-105429761D01*
X115904761Y-105477380D01*
X116190476Y-105477380D01*
X116285714Y-105429761D01*
X116333333Y-105382142D01*
%TO.C,R24*%
X108642857Y-79952380D02*
X108976190Y-79476190D01*
X109214285Y-79952380D02*
X109214285Y-78952380D01*
X108833333Y-78952380D01*
X108738095Y-79000000D01*
X108690476Y-79047619D01*
X108642857Y-79142857D01*
X108642857Y-79285714D01*
X108690476Y-79380952D01*
X108738095Y-79428571D01*
X108833333Y-79476190D01*
X109214285Y-79476190D01*
X108261904Y-79047619D02*
X108214285Y-79000000D01*
X108119047Y-78952380D01*
X107880952Y-78952380D01*
X107785714Y-79000000D01*
X107738095Y-79047619D01*
X107690476Y-79142857D01*
X107690476Y-79238095D01*
X107738095Y-79380952D01*
X108309523Y-79952380D01*
X107690476Y-79952380D01*
X106833333Y-79285714D02*
X106833333Y-79952380D01*
X107071428Y-78904761D02*
X107309523Y-79619047D01*
X106690476Y-79619047D01*
%TO.C,R7*%
X106452380Y-83833333D02*
X105976190Y-83500000D01*
X106452380Y-83261904D02*
X105452380Y-83261904D01*
X105452380Y-83642857D01*
X105500000Y-83738095D01*
X105547619Y-83785714D01*
X105642857Y-83833333D01*
X105785714Y-83833333D01*
X105880952Y-83785714D01*
X105928571Y-83738095D01*
X105976190Y-83642857D01*
X105976190Y-83261904D01*
X105452380Y-84166666D02*
X105452380Y-84833333D01*
X106452380Y-84404761D01*
%TO.C,X1*%
X121309523Y-84952380D02*
X120642857Y-85952380D01*
X120642857Y-84952380D02*
X121309523Y-85952380D01*
X119738095Y-85952380D02*
X120309523Y-85952380D01*
X120023809Y-85952380D02*
X120023809Y-84952380D01*
X120119047Y-85095238D01*
X120214285Y-85190476D01*
X120309523Y-85238095D01*
%TO.C,R12*%
X110952380Y-59857142D02*
X110476190Y-59523809D01*
X110952380Y-59285714D02*
X109952380Y-59285714D01*
X109952380Y-59666666D01*
X110000000Y-59761904D01*
X110047619Y-59809523D01*
X110142857Y-59857142D01*
X110285714Y-59857142D01*
X110380952Y-59809523D01*
X110428571Y-59761904D01*
X110476190Y-59666666D01*
X110476190Y-59285714D01*
X110952380Y-60809523D02*
X110952380Y-60238095D01*
X110952380Y-60523809D02*
X109952380Y-60523809D01*
X110095238Y-60428571D01*
X110190476Y-60333333D01*
X110238095Y-60238095D01*
X110047619Y-61190476D02*
X110000000Y-61238095D01*
X109952380Y-61333333D01*
X109952380Y-61571428D01*
X110000000Y-61666666D01*
X110047619Y-61714285D01*
X110142857Y-61761904D01*
X110238095Y-61761904D01*
X110380952Y-61714285D01*
X110952380Y-61142857D01*
X110952380Y-61761904D01*
%TO.C,R6*%
X116452380Y-86833333D02*
X115976190Y-86500000D01*
X116452380Y-86261904D02*
X115452380Y-86261904D01*
X115452380Y-86642857D01*
X115500000Y-86738095D01*
X115547619Y-86785714D01*
X115642857Y-86833333D01*
X115785714Y-86833333D01*
X115880952Y-86785714D01*
X115928571Y-86738095D01*
X115976190Y-86642857D01*
X115976190Y-86261904D01*
X115452380Y-87690476D02*
X115452380Y-87500000D01*
X115500000Y-87404761D01*
X115547619Y-87357142D01*
X115690476Y-87261904D01*
X115880952Y-87214285D01*
X116261904Y-87214285D01*
X116357142Y-87261904D01*
X116404761Y-87309523D01*
X116452380Y-87404761D01*
X116452380Y-87595238D01*
X116404761Y-87690476D01*
X116357142Y-87738095D01*
X116261904Y-87785714D01*
X116023809Y-87785714D01*
X115928571Y-87738095D01*
X115880952Y-87690476D01*
X115833333Y-87595238D01*
X115833333Y-87404761D01*
X115880952Y-87309523D01*
X115928571Y-87261904D01*
X116023809Y-87214285D01*
%TO.C,R23*%
X108642857Y-81452380D02*
X108976190Y-80976190D01*
X109214285Y-81452380D02*
X109214285Y-80452380D01*
X108833333Y-80452380D01*
X108738095Y-80500000D01*
X108690476Y-80547619D01*
X108642857Y-80642857D01*
X108642857Y-80785714D01*
X108690476Y-80880952D01*
X108738095Y-80928571D01*
X108833333Y-80976190D01*
X109214285Y-80976190D01*
X108261904Y-80547619D02*
X108214285Y-80500000D01*
X108119047Y-80452380D01*
X107880952Y-80452380D01*
X107785714Y-80500000D01*
X107738095Y-80547619D01*
X107690476Y-80642857D01*
X107690476Y-80738095D01*
X107738095Y-80880952D01*
X108309523Y-81452380D01*
X107690476Y-81452380D01*
X107357142Y-80452380D02*
X106738095Y-80452380D01*
X107071428Y-80833333D01*
X106928571Y-80833333D01*
X106833333Y-80880952D01*
X106785714Y-80928571D01*
X106738095Y-81023809D01*
X106738095Y-81261904D01*
X106785714Y-81357142D01*
X106833333Y-81404761D01*
X106928571Y-81452380D01*
X107214285Y-81452380D01*
X107309523Y-81404761D01*
X107357142Y-81357142D01*
%TO.C,R11*%
X107952380Y-57857142D02*
X107476190Y-57523809D01*
X107952380Y-57285714D02*
X106952380Y-57285714D01*
X106952380Y-57666666D01*
X107000000Y-57761904D01*
X107047619Y-57809523D01*
X107142857Y-57857142D01*
X107285714Y-57857142D01*
X107380952Y-57809523D01*
X107428571Y-57761904D01*
X107476190Y-57666666D01*
X107476190Y-57285714D01*
X107952380Y-58809523D02*
X107952380Y-58238095D01*
X107952380Y-58523809D02*
X106952380Y-58523809D01*
X107095238Y-58428571D01*
X107190476Y-58333333D01*
X107238095Y-58238095D01*
X107952380Y-59761904D02*
X107952380Y-59190476D01*
X107952380Y-59476190D02*
X106952380Y-59476190D01*
X107095238Y-59380952D01*
X107190476Y-59285714D01*
X107238095Y-59190476D01*
%TO.C,R20*%
X107022380Y-67357142D02*
X106546190Y-67023809D01*
X107022380Y-66785714D02*
X106022380Y-66785714D01*
X106022380Y-67166666D01*
X106070000Y-67261904D01*
X106117619Y-67309523D01*
X106212857Y-67357142D01*
X106355714Y-67357142D01*
X106450952Y-67309523D01*
X106498571Y-67261904D01*
X106546190Y-67166666D01*
X106546190Y-66785714D01*
X106117619Y-67738095D02*
X106070000Y-67785714D01*
X106022380Y-67880952D01*
X106022380Y-68119047D01*
X106070000Y-68214285D01*
X106117619Y-68261904D01*
X106212857Y-68309523D01*
X106308095Y-68309523D01*
X106450952Y-68261904D01*
X107022380Y-67690476D01*
X107022380Y-68309523D01*
X106022380Y-68928571D02*
X106022380Y-69023809D01*
X106070000Y-69119047D01*
X106117619Y-69166666D01*
X106212857Y-69214285D01*
X106403333Y-69261904D01*
X106641428Y-69261904D01*
X106831904Y-69214285D01*
X106927142Y-69166666D01*
X106974761Y-69119047D01*
X107022380Y-69023809D01*
X107022380Y-68928571D01*
X106974761Y-68833333D01*
X106927142Y-68785714D01*
X106831904Y-68738095D01*
X106641428Y-68690476D01*
X106403333Y-68690476D01*
X106212857Y-68738095D01*
X106117619Y-68785714D01*
X106070000Y-68833333D01*
X106022380Y-68928571D01*
%TO.C,C12*%
X112507142Y-106357142D02*
X112554761Y-106309523D01*
X112602380Y-106166666D01*
X112602380Y-106071428D01*
X112554761Y-105928571D01*
X112459523Y-105833333D01*
X112364285Y-105785714D01*
X112173809Y-105738095D01*
X112030952Y-105738095D01*
X111840476Y-105785714D01*
X111745238Y-105833333D01*
X111650000Y-105928571D01*
X111602380Y-106071428D01*
X111602380Y-106166666D01*
X111650000Y-106309523D01*
X111697619Y-106357142D01*
X112602380Y-107309523D02*
X112602380Y-106738095D01*
X112602380Y-107023809D02*
X111602380Y-107023809D01*
X111745238Y-106928571D01*
X111840476Y-106833333D01*
X111888095Y-106738095D01*
X111697619Y-107690476D02*
X111650000Y-107738095D01*
X111602380Y-107833333D01*
X111602380Y-108071428D01*
X111650000Y-108166666D01*
X111697619Y-108214285D01*
X111792857Y-108261904D01*
X111888095Y-108261904D01*
X112030952Y-108214285D01*
X112602380Y-107642857D01*
X112602380Y-108261904D01*
%TO.C,R4*%
X114452380Y-56333333D02*
X113976190Y-56000000D01*
X114452380Y-55761904D02*
X113452380Y-55761904D01*
X113452380Y-56142857D01*
X113500000Y-56238095D01*
X113547619Y-56285714D01*
X113642857Y-56333333D01*
X113785714Y-56333333D01*
X113880952Y-56285714D01*
X113928571Y-56238095D01*
X113976190Y-56142857D01*
X113976190Y-55761904D01*
X113785714Y-57190476D02*
X114452380Y-57190476D01*
X113404761Y-56952380D02*
X114119047Y-56714285D01*
X114119047Y-57333333D01*
%TO.C,R27*%
X108642857Y-75452380D02*
X108976190Y-74976190D01*
X109214285Y-75452380D02*
X109214285Y-74452380D01*
X108833333Y-74452380D01*
X108738095Y-74500000D01*
X108690476Y-74547619D01*
X108642857Y-74642857D01*
X108642857Y-74785714D01*
X108690476Y-74880952D01*
X108738095Y-74928571D01*
X108833333Y-74976190D01*
X109214285Y-74976190D01*
X108261904Y-74547619D02*
X108214285Y-74500000D01*
X108119047Y-74452380D01*
X107880952Y-74452380D01*
X107785714Y-74500000D01*
X107738095Y-74547619D01*
X107690476Y-74642857D01*
X107690476Y-74738095D01*
X107738095Y-74880952D01*
X108309523Y-75452380D01*
X107690476Y-75452380D01*
X107357142Y-74452380D02*
X106690476Y-74452380D01*
X107119047Y-75452380D01*
%TO.C,C4*%
X129357142Y-104833333D02*
X129404761Y-104785714D01*
X129452380Y-104642857D01*
X129452380Y-104547619D01*
X129404761Y-104404761D01*
X129309523Y-104309523D01*
X129214285Y-104261904D01*
X129023809Y-104214285D01*
X128880952Y-104214285D01*
X128690476Y-104261904D01*
X128595238Y-104309523D01*
X128500000Y-104404761D01*
X128452380Y-104547619D01*
X128452380Y-104642857D01*
X128500000Y-104785714D01*
X128547619Y-104833333D01*
X128785714Y-105690476D02*
X129452380Y-105690476D01*
X128404761Y-105452380D02*
X129119047Y-105214285D01*
X129119047Y-105833333D01*
%TO.C,R10*%
X116452380Y-91357142D02*
X115976190Y-91023809D01*
X116452380Y-90785714D02*
X115452380Y-90785714D01*
X115452380Y-91166666D01*
X115500000Y-91261904D01*
X115547619Y-91309523D01*
X115642857Y-91357142D01*
X115785714Y-91357142D01*
X115880952Y-91309523D01*
X115928571Y-91261904D01*
X115976190Y-91166666D01*
X115976190Y-90785714D01*
X116452380Y-92309523D02*
X116452380Y-91738095D01*
X116452380Y-92023809D02*
X115452380Y-92023809D01*
X115595238Y-91928571D01*
X115690476Y-91833333D01*
X115738095Y-91738095D01*
X115452380Y-92928571D02*
X115452380Y-93023809D01*
X115500000Y-93119047D01*
X115547619Y-93166666D01*
X115642857Y-93214285D01*
X115833333Y-93261904D01*
X116071428Y-93261904D01*
X116261904Y-93214285D01*
X116357142Y-93166666D01*
X116404761Y-93119047D01*
X116452380Y-93023809D01*
X116452380Y-92928571D01*
X116404761Y-92833333D01*
X116357142Y-92785714D01*
X116261904Y-92738095D01*
X116071428Y-92690476D01*
X115833333Y-92690476D01*
X115642857Y-92738095D01*
X115547619Y-92785714D01*
X115500000Y-92833333D01*
X115452380Y-92928571D01*
%TO.C,J9*%
X99333333Y-69452380D02*
X99333333Y-70166666D01*
X99380952Y-70309523D01*
X99476190Y-70404761D01*
X99619047Y-70452380D01*
X99714285Y-70452380D01*
X98809523Y-70452380D02*
X98619047Y-70452380D01*
X98523809Y-70404761D01*
X98476190Y-70357142D01*
X98380952Y-70214285D01*
X98333333Y-70023809D01*
X98333333Y-69642857D01*
X98380952Y-69547619D01*
X98428571Y-69500000D01*
X98523809Y-69452380D01*
X98714285Y-69452380D01*
X98809523Y-69500000D01*
X98857142Y-69547619D01*
X98904761Y-69642857D01*
X98904761Y-69880952D01*
X98857142Y-69976190D01*
X98809523Y-70023809D01*
X98714285Y-70071428D01*
X98523809Y-70071428D01*
X98428571Y-70023809D01*
X98380952Y-69976190D01*
X98333333Y-69880952D01*
%TO.C,R21*%
X105142857Y-57952380D02*
X105476190Y-57476190D01*
X105714285Y-57952380D02*
X105714285Y-56952380D01*
X105333333Y-56952380D01*
X105238095Y-57000000D01*
X105190476Y-57047619D01*
X105142857Y-57142857D01*
X105142857Y-57285714D01*
X105190476Y-57380952D01*
X105238095Y-57428571D01*
X105333333Y-57476190D01*
X105714285Y-57476190D01*
X104761904Y-57047619D02*
X104714285Y-57000000D01*
X104619047Y-56952380D01*
X104380952Y-56952380D01*
X104285714Y-57000000D01*
X104238095Y-57047619D01*
X104190476Y-57142857D01*
X104190476Y-57238095D01*
X104238095Y-57380952D01*
X104809523Y-57952380D01*
X104190476Y-57952380D01*
X103238095Y-57952380D02*
X103809523Y-57952380D01*
X103523809Y-57952380D02*
X103523809Y-56952380D01*
X103619047Y-57095238D01*
X103714285Y-57190476D01*
X103809523Y-57238095D01*
%TO.C,R25*%
X108642857Y-78452380D02*
X108976190Y-77976190D01*
X109214285Y-78452380D02*
X109214285Y-77452380D01*
X108833333Y-77452380D01*
X108738095Y-77500000D01*
X108690476Y-77547619D01*
X108642857Y-77642857D01*
X108642857Y-77785714D01*
X108690476Y-77880952D01*
X108738095Y-77928571D01*
X108833333Y-77976190D01*
X109214285Y-77976190D01*
X108261904Y-77547619D02*
X108214285Y-77500000D01*
X108119047Y-77452380D01*
X107880952Y-77452380D01*
X107785714Y-77500000D01*
X107738095Y-77547619D01*
X107690476Y-77642857D01*
X107690476Y-77738095D01*
X107738095Y-77880952D01*
X108309523Y-78452380D01*
X107690476Y-78452380D01*
X106785714Y-77452380D02*
X107261904Y-77452380D01*
X107309523Y-77928571D01*
X107261904Y-77880952D01*
X107166666Y-77833333D01*
X106928571Y-77833333D01*
X106833333Y-77880952D01*
X106785714Y-77928571D01*
X106738095Y-78023809D01*
X106738095Y-78261904D01*
X106785714Y-78357142D01*
X106833333Y-78404761D01*
X106928571Y-78452380D01*
X107166666Y-78452380D01*
X107261904Y-78404761D01*
X107309523Y-78357142D01*
%TO.C,JP1*%
X103833333Y-88152380D02*
X103833333Y-88866666D01*
X103880952Y-89009523D01*
X103976190Y-89104761D01*
X104119047Y-89152380D01*
X104214285Y-89152380D01*
X103357142Y-89152380D02*
X103357142Y-88152380D01*
X102976190Y-88152380D01*
X102880952Y-88200000D01*
X102833333Y-88247619D01*
X102785714Y-88342857D01*
X102785714Y-88485714D01*
X102833333Y-88580952D01*
X102880952Y-88628571D01*
X102976190Y-88676190D01*
X103357142Y-88676190D01*
X101833333Y-89152380D02*
X102404761Y-89152380D01*
X102119047Y-89152380D02*
X102119047Y-88152380D01*
X102214285Y-88295238D01*
X102309523Y-88390476D01*
X102404761Y-88438095D01*
%TO.C,J5*%
X99333333Y-67202380D02*
X99333333Y-67916666D01*
X99380952Y-68059523D01*
X99476190Y-68154761D01*
X99619047Y-68202380D01*
X99714285Y-68202380D01*
X98380952Y-67202380D02*
X98857142Y-67202380D01*
X98904761Y-67678571D01*
X98857142Y-67630952D01*
X98761904Y-67583333D01*
X98523809Y-67583333D01*
X98428571Y-67630952D01*
X98380952Y-67678571D01*
X98333333Y-67773809D01*
X98333333Y-68011904D01*
X98380952Y-68107142D01*
X98428571Y-68154761D01*
X98523809Y-68202380D01*
X98761904Y-68202380D01*
X98857142Y-68154761D01*
X98904761Y-68107142D01*
%TO.C,D9*%
X120952380Y-103761904D02*
X119952380Y-103761904D01*
X119952380Y-104000000D01*
X120000000Y-104142857D01*
X120095238Y-104238095D01*
X120190476Y-104285714D01*
X120380952Y-104333333D01*
X120523809Y-104333333D01*
X120714285Y-104285714D01*
X120809523Y-104238095D01*
X120904761Y-104142857D01*
X120952380Y-104000000D01*
X120952380Y-103761904D01*
X120952380Y-104809523D02*
X120952380Y-105000000D01*
X120904761Y-105095238D01*
X120857142Y-105142857D01*
X120714285Y-105238095D01*
X120523809Y-105285714D01*
X120142857Y-105285714D01*
X120047619Y-105238095D01*
X120000000Y-105190476D01*
X119952380Y-105095238D01*
X119952380Y-104904761D01*
X120000000Y-104809523D01*
X120047619Y-104761904D01*
X120142857Y-104714285D01*
X120380952Y-104714285D01*
X120476190Y-104761904D01*
X120523809Y-104809523D01*
X120571428Y-104904761D01*
X120571428Y-105095238D01*
X120523809Y-105190476D01*
X120476190Y-105238095D01*
X120380952Y-105285714D01*
%TO.C,C13*%
X125142857Y-108857142D02*
X125190476Y-108904761D01*
X125333333Y-108952380D01*
X125428571Y-108952380D01*
X125571428Y-108904761D01*
X125666666Y-108809523D01*
X125714285Y-108714285D01*
X125761904Y-108523809D01*
X125761904Y-108380952D01*
X125714285Y-108190476D01*
X125666666Y-108095238D01*
X125571428Y-108000000D01*
X125428571Y-107952380D01*
X125333333Y-107952380D01*
X125190476Y-108000000D01*
X125142857Y-108047619D01*
X124190476Y-108952380D02*
X124761904Y-108952380D01*
X124476190Y-108952380D02*
X124476190Y-107952380D01*
X124571428Y-108095238D01*
X124666666Y-108190476D01*
X124761904Y-108238095D01*
X123857142Y-107952380D02*
X123238095Y-107952380D01*
X123571428Y-108333333D01*
X123428571Y-108333333D01*
X123333333Y-108380952D01*
X123285714Y-108428571D01*
X123238095Y-108523809D01*
X123238095Y-108761904D01*
X123285714Y-108857142D01*
X123333333Y-108904761D01*
X123428571Y-108952380D01*
X123714285Y-108952380D01*
X123809523Y-108904761D01*
X123857142Y-108857142D01*
%TO.C,Q1*%
X102095238Y-62047619D02*
X102190476Y-62000000D01*
X102285714Y-61904761D01*
X102428571Y-61761904D01*
X102523809Y-61714285D01*
X102619047Y-61714285D01*
X102571428Y-61952380D02*
X102666666Y-61904761D01*
X102761904Y-61809523D01*
X102809523Y-61619047D01*
X102809523Y-61285714D01*
X102761904Y-61095238D01*
X102666666Y-61000000D01*
X102571428Y-60952380D01*
X102380952Y-60952380D01*
X102285714Y-61000000D01*
X102190476Y-61095238D01*
X102142857Y-61285714D01*
X102142857Y-61619047D01*
X102190476Y-61809523D01*
X102285714Y-61904761D01*
X102380952Y-61952380D01*
X102571428Y-61952380D01*
X101190476Y-61952380D02*
X101761904Y-61952380D01*
X101476190Y-61952380D02*
X101476190Y-60952380D01*
X101571428Y-61095238D01*
X101666666Y-61190476D01*
X101761904Y-61238095D01*
%TO.C,U3*%
X130452380Y-100238095D02*
X131261904Y-100238095D01*
X131357142Y-100285714D01*
X131404761Y-100333333D01*
X131452380Y-100428571D01*
X131452380Y-100619047D01*
X131404761Y-100714285D01*
X131357142Y-100761904D01*
X131261904Y-100809523D01*
X130452380Y-100809523D01*
X130452380Y-101190476D02*
X130452380Y-101809523D01*
X130833333Y-101476190D01*
X130833333Y-101619047D01*
X130880952Y-101714285D01*
X130928571Y-101761904D01*
X131023809Y-101809523D01*
X131261904Y-101809523D01*
X131357142Y-101761904D01*
X131404761Y-101714285D01*
X131452380Y-101619047D01*
X131452380Y-101333333D01*
X131404761Y-101238095D01*
X131357142Y-101190476D01*
%TO.C,R22*%
X108882380Y-64357142D02*
X108406190Y-64023809D01*
X108882380Y-63785714D02*
X107882380Y-63785714D01*
X107882380Y-64166666D01*
X107930000Y-64261904D01*
X107977619Y-64309523D01*
X108072857Y-64357142D01*
X108215714Y-64357142D01*
X108310952Y-64309523D01*
X108358571Y-64261904D01*
X108406190Y-64166666D01*
X108406190Y-63785714D01*
X107977619Y-64738095D02*
X107930000Y-64785714D01*
X107882380Y-64880952D01*
X107882380Y-65119047D01*
X107930000Y-65214285D01*
X107977619Y-65261904D01*
X108072857Y-65309523D01*
X108168095Y-65309523D01*
X108310952Y-65261904D01*
X108882380Y-64690476D01*
X108882380Y-65309523D01*
X107977619Y-65690476D02*
X107930000Y-65738095D01*
X107882380Y-65833333D01*
X107882380Y-66071428D01*
X107930000Y-66166666D01*
X107977619Y-66214285D01*
X108072857Y-66261904D01*
X108168095Y-66261904D01*
X108310952Y-66214285D01*
X108882380Y-65642857D01*
X108882380Y-66261904D01*
%TO.C,C6*%
X126357142Y-82833333D02*
X126404761Y-82785714D01*
X126452380Y-82642857D01*
X126452380Y-82547619D01*
X126404761Y-82404761D01*
X126309523Y-82309523D01*
X126214285Y-82261904D01*
X126023809Y-82214285D01*
X125880952Y-82214285D01*
X125690476Y-82261904D01*
X125595238Y-82309523D01*
X125500000Y-82404761D01*
X125452380Y-82547619D01*
X125452380Y-82642857D01*
X125500000Y-82785714D01*
X125547619Y-82833333D01*
X125452380Y-83690476D02*
X125452380Y-83500000D01*
X125500000Y-83404761D01*
X125547619Y-83357142D01*
X125690476Y-83261904D01*
X125880952Y-83214285D01*
X126261904Y-83214285D01*
X126357142Y-83261904D01*
X126404761Y-83309523D01*
X126452380Y-83404761D01*
X126452380Y-83595238D01*
X126404761Y-83690476D01*
X126357142Y-83738095D01*
X126261904Y-83785714D01*
X126023809Y-83785714D01*
X125928571Y-83738095D01*
X125880952Y-83690476D01*
X125833333Y-83595238D01*
X125833333Y-83404761D01*
X125880952Y-83309523D01*
X125928571Y-83261904D01*
X126023809Y-83214285D01*
%TO.C,R15*%
X128452380Y-107382142D02*
X127976190Y-107048809D01*
X128452380Y-106810714D02*
X127452380Y-106810714D01*
X127452380Y-107191666D01*
X127500000Y-107286904D01*
X127547619Y-107334523D01*
X127642857Y-107382142D01*
X127785714Y-107382142D01*
X127880952Y-107334523D01*
X127928571Y-107286904D01*
X127976190Y-107191666D01*
X127976190Y-106810714D01*
X128452380Y-108334523D02*
X128452380Y-107763095D01*
X128452380Y-108048809D02*
X127452380Y-108048809D01*
X127595238Y-107953571D01*
X127690476Y-107858333D01*
X127738095Y-107763095D01*
X127452380Y-109239285D02*
X127452380Y-108763095D01*
X127928571Y-108715476D01*
X127880952Y-108763095D01*
X127833333Y-108858333D01*
X127833333Y-109096428D01*
X127880952Y-109191666D01*
X127928571Y-109239285D01*
X128023809Y-109286904D01*
X128261904Y-109286904D01*
X128357142Y-109239285D01*
X128404761Y-109191666D01*
X128452380Y-109096428D01*
X128452380Y-108858333D01*
X128404761Y-108763095D01*
X128357142Y-108715476D01*
%TO.C,R8*%
X134166666Y-102952380D02*
X134500000Y-102476190D01*
X134738095Y-102952380D02*
X134738095Y-101952380D01*
X134357142Y-101952380D01*
X134261904Y-102000000D01*
X134214285Y-102047619D01*
X134166666Y-102142857D01*
X134166666Y-102285714D01*
X134214285Y-102380952D01*
X134261904Y-102428571D01*
X134357142Y-102476190D01*
X134738095Y-102476190D01*
X133595238Y-102380952D02*
X133690476Y-102333333D01*
X133738095Y-102285714D01*
X133785714Y-102190476D01*
X133785714Y-102142857D01*
X133738095Y-102047619D01*
X133690476Y-102000000D01*
X133595238Y-101952380D01*
X133404761Y-101952380D01*
X133309523Y-102000000D01*
X133261904Y-102047619D01*
X133214285Y-102142857D01*
X133214285Y-102190476D01*
X133261904Y-102285714D01*
X133309523Y-102333333D01*
X133404761Y-102380952D01*
X133595238Y-102380952D01*
X133690476Y-102428571D01*
X133738095Y-102476190D01*
X133785714Y-102571428D01*
X133785714Y-102761904D01*
X133738095Y-102857142D01*
X133690476Y-102904761D01*
X133595238Y-102952380D01*
X133404761Y-102952380D01*
X133309523Y-102904761D01*
X133261904Y-102857142D01*
X133214285Y-102761904D01*
X133214285Y-102571428D01*
X133261904Y-102476190D01*
X133309523Y-102428571D01*
X133404761Y-102380952D01*
%TO.C,U4*%
X119261904Y-108977380D02*
X119261904Y-109786904D01*
X119214285Y-109882142D01*
X119166666Y-109929761D01*
X119071428Y-109977380D01*
X118880952Y-109977380D01*
X118785714Y-109929761D01*
X118738095Y-109882142D01*
X118690476Y-109786904D01*
X118690476Y-108977380D01*
X117785714Y-109310714D02*
X117785714Y-109977380D01*
X118023809Y-108929761D02*
X118261904Y-109644047D01*
X117642857Y-109644047D01*
D11*
%TO.C,R19*%
X112522500Y-87237258D02*
X112522500Y-86762742D01*
X111477500Y-87237258D02*
X111477500Y-86762742D01*
%TO.C,R13*%
X106762742Y-105977500D02*
X107237258Y-105977500D01*
X106762742Y-107022500D02*
X107237258Y-107022500D01*
%TO.C,R14*%
X114977500Y-63937742D02*
X114977500Y-64412258D01*
X116022500Y-63937742D02*
X116022500Y-64412258D01*
%TO.C,R2*%
X118022500Y-93737258D02*
X118022500Y-93262742D01*
X116977500Y-93737258D02*
X116977500Y-93262742D01*
%TO.C,R5*%
X108022500Y-86262742D02*
X108022500Y-86737258D01*
X106977500Y-86262742D02*
X106977500Y-86737258D01*
%TO.C,R18*%
X107477500Y-70762742D02*
X107477500Y-71237258D01*
X108522500Y-70762742D02*
X108522500Y-71237258D01*
%TO.C,C2*%
X122859420Y-70490000D02*
X123140580Y-70490000D01*
X122859420Y-71510000D02*
X123140580Y-71510000D01*
%TO.C,R1*%
X116977500Y-85262742D02*
X116977500Y-85737258D01*
X118022500Y-85262742D02*
X118022500Y-85737258D01*
%TO.C,C11*%
X112490000Y-93359420D02*
X112490000Y-93640580D01*
X113510000Y-93359420D02*
X113510000Y-93640580D01*
%TO.C,R16*%
X127022500Y-105262258D02*
X127022500Y-104787742D01*
X125977500Y-105262258D02*
X125977500Y-104787742D01*
%TO.C,C7*%
X125410000Y-100211252D02*
X125410000Y-98788748D01*
X123590000Y-100211252D02*
X123590000Y-98788748D01*
%TO.C,R3*%
X113022500Y-58762742D02*
X113022500Y-59237258D01*
X111977500Y-58762742D02*
X111977500Y-59237258D01*
%TO.C,L1*%
X116450000Y-97950000D02*
X121550000Y-97950000D01*
X116450000Y-103050000D02*
X121550000Y-103050000D01*
%TO.C,R17*%
X131737258Y-103977500D02*
X131262742Y-103977500D01*
X131737258Y-105022500D02*
X131262742Y-105022500D01*
%TO.C,R9*%
X116522500Y-95237258D02*
X116522500Y-94762742D01*
X115477500Y-95237258D02*
X115477500Y-94762742D01*
%TO.C,U2*%
X122500000Y-96060000D02*
X124450000Y-96060000D01*
X122500000Y-90940000D02*
X125950000Y-90940000D01*
X122500000Y-96060000D02*
X120550000Y-96060000D01*
X122500000Y-90940000D02*
X120550000Y-90940000D01*
%TO.C,C8*%
X129211252Y-97090000D02*
X127788748Y-97090000D01*
X129211252Y-98910000D02*
X127788748Y-98910000D01*
%TO.C,C1*%
X126490000Y-93359420D02*
X126490000Y-93640580D01*
X127510000Y-93359420D02*
X127510000Y-93640580D01*
%TO.C,U1*%
X116390000Y-81160000D02*
X116390000Y-81610000D01*
X116390000Y-74840000D02*
X116390000Y-74390000D01*
X123610000Y-81160000D02*
X123610000Y-81610000D01*
X123610000Y-81610000D02*
X123160000Y-81610000D01*
X116390000Y-74390000D02*
X116840000Y-74390000D01*
X116390000Y-81610000D02*
X116840000Y-81610000D01*
X123610000Y-74390000D02*
X123160000Y-74390000D01*
X123610000Y-74840000D02*
X123610000Y-74390000D01*
X123160000Y-81610000D02*
X123160000Y-82900000D01*
%TO.C,C5*%
X114010000Y-74640580D02*
X114010000Y-74359420D01*
X112990000Y-74640580D02*
X112990000Y-74359420D01*
%TO.C,R26*%
X104762742Y-77022500D02*
X105237258Y-77022500D01*
X104762742Y-75977500D02*
X105237258Y-75977500D01*
%TO.C,C3*%
X118392164Y-104665000D02*
X118607836Y-104665000D01*
X118392164Y-105385000D02*
X118607836Y-105385000D01*
%TO.C,R24*%
X104762742Y-78977500D02*
X105237258Y-78977500D01*
X104762742Y-80022500D02*
X105237258Y-80022500D01*
%TO.C,R7*%
X105477500Y-86262742D02*
X105477500Y-86737258D01*
X106522500Y-86262742D02*
X106522500Y-86737258D01*
%TO.C,X1*%
X122300000Y-86700000D02*
X122300000Y-86300000D01*
X119700000Y-86300000D02*
X119700000Y-85900000D01*
X122300000Y-86300000D02*
X121500000Y-86300000D01*
X121500000Y-88700000D02*
X122300000Y-88700000D01*
X122300000Y-88700000D02*
X122300000Y-86700000D01*
X119700000Y-86300000D02*
X118700000Y-86300000D01*
X118500000Y-88700000D02*
X118500000Y-86700000D01*
X118700000Y-86700000D02*
X118700000Y-86300000D01*
X118500000Y-86700000D02*
X118500000Y-86300000D01*
X118700000Y-88700000D02*
X119700000Y-88700000D01*
X118700000Y-86700000D02*
X118700000Y-88700000D01*
%TO.C,R12*%
X108477500Y-60737258D02*
X108477500Y-60262742D01*
X109522500Y-60737258D02*
X109522500Y-60262742D01*
%TO.C,R6*%
X115022500Y-86762742D02*
X115022500Y-87237258D01*
X113977500Y-86762742D02*
X113977500Y-87237258D01*
%TO.C,R23*%
X104762742Y-81522500D02*
X105237258Y-81522500D01*
X104762742Y-80477500D02*
X105237258Y-80477500D01*
%TO.C,R11*%
X106977500Y-61737258D02*
X106977500Y-61262742D01*
X108022500Y-61737258D02*
X108022500Y-61262742D01*
%TO.C,R20*%
X107477500Y-67762742D02*
X107477500Y-68237258D01*
X108522500Y-67762742D02*
X108522500Y-68237258D01*
%TO.C,C12*%
X114910000Y-106288748D02*
X114910000Y-107711252D01*
X113090000Y-106288748D02*
X113090000Y-107711252D01*
%TO.C,R4*%
X113477500Y-58762742D02*
X113477500Y-59237258D01*
X114522500Y-58762742D02*
X114522500Y-59237258D01*
%TO.C,R27*%
X104762742Y-75522500D02*
X105237258Y-75522500D01*
X104762742Y-74477500D02*
X105237258Y-74477500D01*
%TO.C,C4*%
X128360000Y-104917164D02*
X128360000Y-105132836D01*
X127640000Y-104917164D02*
X127640000Y-105132836D01*
%TO.C,R10*%
X115022500Y-93737258D02*
X115022500Y-93262742D01*
X113977500Y-93737258D02*
X113977500Y-93262742D01*
%TO.C,R21*%
X104262742Y-59522500D02*
X104737258Y-59522500D01*
X104262742Y-58477500D02*
X104737258Y-58477500D01*
%TO.C,R25*%
X104762742Y-78522500D02*
X105237258Y-78522500D01*
X104762742Y-77477500D02*
X105237258Y-77477500D01*
%TO.C,JP1*%
X102300000Y-91500000D02*
X103700000Y-91500000D01*
X104400000Y-90800000D02*
X104400000Y-90200000D01*
X103700000Y-89500000D02*
X102300000Y-89500000D01*
X101600000Y-90200000D02*
X101600000Y-90800000D01*
X102300000Y-89500000D02*
G75*
G03*
X101600000Y-90200000I0J-700000D01*
G01*
X103700000Y-91500000D02*
G75*
G03*
X104400000Y-90800000I1J699999D01*
G01*
X101600000Y-90800000D02*
G75*
G03*
X102300000Y-91500000I700000J0D01*
G01*
X104400000Y-90200000D02*
G75*
G03*
X103700000Y-89500000I-699999J1D01*
G01*
%TO.C,D9*%
X121000000Y-106525000D02*
X121000000Y-103325000D01*
X123000000Y-103325000D02*
X123000000Y-106525000D01*
X123000000Y-103325000D02*
X121000000Y-103325000D01*
%TO.C,C13*%
X125410000Y-104813748D02*
X125410000Y-106236252D01*
X123590000Y-104813748D02*
X123590000Y-106236252D01*
%TO.C,Q1*%
X105000000Y-59940000D02*
X106675000Y-59940000D01*
X105000000Y-63060000D02*
X105650000Y-63060000D01*
X105000000Y-59940000D02*
X104350000Y-59940000D01*
X105000000Y-63060000D02*
X104350000Y-63060000D01*
%TO.C,U3*%
X130060000Y-101000000D02*
X130060000Y-101650000D01*
X126940000Y-101000000D02*
X126940000Y-99325000D01*
X130060000Y-101000000D02*
X130060000Y-100350000D01*
X126940000Y-101000000D02*
X126940000Y-101650000D01*
%TO.C,R22*%
X106477500Y-65237258D02*
X106477500Y-64762742D01*
X107522500Y-65237258D02*
X107522500Y-64762742D01*
%TO.C,C6*%
X125490000Y-80359420D02*
X125490000Y-80640580D01*
X126510000Y-80359420D02*
X126510000Y-80640580D01*
%TO.C,R15*%
X125977500Y-107787742D02*
X125977500Y-108262258D01*
X127022500Y-107787742D02*
X127022500Y-108262258D01*
%TO.C,R8*%
X131737258Y-103022500D02*
X131262742Y-103022500D01*
X131737258Y-101977500D02*
X131262742Y-101977500D01*
%TO.C,U4*%
X118500000Y-108585000D02*
X119300000Y-108585000D01*
X118500000Y-105465000D02*
X117700000Y-105465000D01*
X118500000Y-105465000D02*
X120300000Y-105465000D01*
X118500000Y-108585000D02*
X117700000Y-108585000D01*
%TD*%
M02*
