0
SECTION
2
HEADER
9
$INSUNITS
70
4
9
$ACADVER
1
AC1014
9
$HANDSEED
5
FFFF
0
ENDSEC
0
SECTION
2
TABLES
0
TABLE
2
VPORT
5
8
100
AcDbSymbolTable
0
ENDTAB
0
TABLE
2
LTYPE
5
5
100
AcDbSymbolTable
0
LTYPE
5
14
100
AcDbSymbolTableRecord
100
AcDbLinetypeTableRecord
2
BYBLOCK
70
0
0
LTYPE
5
15
100
AcDbSymbolTableRecord
100
AcDbLinetypeTableRecord
2
BYLAYER
70
0
0
ENDTAB
0
TABLE
2
LAYER
5
2
100
AcDbSymbolTable
70
2
0
LAYER
5
50
100
AcDbSymbolTableRecord
100
AcDbLayerTableRecord
2
0
70
0
6
CONTINUOUS
0
ENDTAB
0
TABLE
2
STYLE
5
3
100
AcDbSymbolTable
70
1
0
STYLE
5
11
100
AcDbSymbolTableRecord
100
AcDbTextStyleTableRecord
2
STANDARD
70
0
0
ENDTAB
0
TABLE
2
VIEW
5
6
100
AcDbSymbolTable
70
0
0
ENDTAB
0
TABLE
2
UCS
5
7
100
AcDbSymbolTable
70
0
0
ENDTAB
0
TABLE
2
APPID
5
9
100
AcDbSymbolTable
70
2
0
APPID
5
12
100
AcDbSymbolTableRecord
100
AcDbRegAppTableRecord
2
ACAD
70
0
0
ENDTAB
0
TABLE
2
DIMSTYLE
5
A
100
AcDbSymbolTable
70
1
0
ENDTAB
0
TABLE
2
BLOCK_RECORD
5
1
100
AcDbSymbolTable
70
1
0
BLOCK_RECORD
5
1F
100
AcDbSymbolTableRecord
100
AcDbBlockTableRecord
2
*MODEL_SPACE
0
BLOCK_RECORD
5
1B
100
AcDbSymbolTableRecord
100
AcDbBlockTableRecord
2
*PAPER_SPACE
0
ENDTAB
0
ENDSEC
0
SECTION
2
BLOCKS
0
BLOCK
5
20
100
AcDbEntity
100
AcDbBlockBegin
2
*MODEL_SPACE
0
ENDBLK
5
21
100
AcDbEntity
100
AcDbBlockEnd
0
BLOCK
5
1C
100
AcDbEntity
100
AcDbBlockBegin
2
*PAPER_SPACE
0
ENDBLK
5
1D
100
AcDbEntity
100
AcDbBlockEnd
0
ENDSEC
0
SECTION
2
ENTITIES
0
CIRCLE
5
100
100
AcDbEntity
8
0
100
AcDbCircle
10
-72
20
37.000000000180854
30
0
40
1.5000000000000002
210
0
220
-0
230
1
0
CIRCLE
5
101
100
AcDbEntity
8
0
100
AcDbCircle
10
-37.999999999975131
20
-27.000000000024869
30
0
40
1.5000000000000002
210
0
220
-0
230
1
0
LWPOLYLINE
5
102
100
AcDbEntity
8
0
100
AcDbPolyline
90
30
70
1
43
0.0
10
-72.653194598641704
20
40
42
0.64095374064624833
10
-74.929918761365983
20
35.046406621922685
42
-0.23978515695257552
10
-74.287159348031764
20
32.402439686179044
10
-76.128155501808607
20
24.617150150023129
42
-0.37789684043171451
10
-79.366956295607139
20
22.324566028731418
42
0.37620886762876965
10
-82.601624983347719
20
20.049228167448003
42
0.053660116704063454
10
-84.976164954201352
20
2.0128064180062966
42
0.37620886762876471
10
-82.440615701767143
20
-1.0221950467247294
42
-0.3778968404317129
10
-79.905538801921551
20
-4.0749245871488586
10
-80.142254274484202
20
-12.071421681817835
42
-0.2618353224822127
10
-81.658490351338017
20
-14.590783170907462
42
0.32730228250803844
10
-83.109309774435758
20
-17.828141485215674
42
0.031064138219516989
10
-80.260094555814334
20
-27.987804878048802
42
0.31902354960859275
10
-77.427385336197361
20
-30.000000000000007
10
-44.5
20
-30
10
-44.5
20
-27
10
-42.5
20
-27
10
-42.5
20
-30
10
-37.999999999975131
20
-30
42
0.41421356237309503
10
-35
20
-27.000000000024869
10
-35
20
-20.182069312380449
42
0.13165249758739564
10
-35.401923788645568
20
-18.682069312384613
10
-39.598076211363932
20
-11.414120119933127
42
-0.13165249758739525
10
-39.999999999999993
20
-9.9141201199727824
10
-40.000000000000014
20
19.999999999999531
42
0.36566538751888367
10
-42.496744451948452
20
22.957487760473825
10
-66.503255548232445
20
27.042512239706546
42
-0.36566538751888134
10
-69.000000000180847
20
30.000000000180851
10
-69.000000000180847
20
37.000000000180854
42
0.41421356237309503
10
-72
20
40
0
ENDSEC
0
SECTION
2
OBJECTS
0
DICTIONARY
5
C
100
AcDbDictionary
3
ACAD_GROUP
350
D
3
ACAD_MLINESTYLE
350
17
0
DICTIONARY
5
D
100
AcDbDictionary
0
DICTIONARY
5
1A
330
C
100
AcDbDictionary
0
DICTIONARY
5
17
100
AcDbDictionary
0
ENDSEC
0
EOF
