0
SECTION
2
HEADER
9
$INSUNITS
70
4
9
$ACADVER
1
AC1014
9
$HANDSEED
5
FFFF
0
ENDSEC
0
SECTION
2
TABLES
0
TABLE
2
VPORT
5
8
100
AcDbSymbolTable
0
ENDTAB
0
TABLE
2
LTYPE
5
5
100
AcDbSymbolTable
0
LTYPE
5
14
100
AcDbSymbolTableRecord
100
AcDbLinetypeTableRecord
2
BYBLOCK
70
0
0
LTYPE
5
15
100
AcDbSymbolTableRecord
100
AcDbLinetypeTableRecord
2
BYLAYER
70
0
0
ENDTAB
0
TABLE
2
LAYER
5
2
100
AcDbSymbolTable
70
2
0
LAYER
5
50
100
AcDbSymbolTableRecord
100
AcDbLayerTableRecord
2
0
70
0
6
CONTINUOUS
0
ENDTAB
0
TABLE
2
STYLE
5
3
100
AcDbSymbolTable
70
1
0
STYLE
5
11
100
AcDbSymbolTableRecord
100
AcDbTextStyleTableRecord
2
STANDARD
70
0
0
ENDTAB
0
TABLE
2
VIEW
5
6
100
AcDbSymbolTable
70
0
0
ENDTAB
0
TABLE
2
UCS
5
7
100
AcDbSymbolTable
70
0
0
ENDTAB
0
TABLE
2
APPID
5
9
100
AcDbSymbolTable
70
2
0
APPID
5
12
100
AcDbSymbolTableRecord
100
AcDbRegAppTableRecord
2
ACAD
70
0
0
ENDTAB
0
TABLE
2
DIMSTYLE
5
A
100
AcDbSymbolTable
70
1
0
ENDTAB
0
TABLE
2
BLOCK_RECORD
5
1
100
AcDbSymbolTable
70
1
0
BLOCK_RECORD
5
1F
100
AcDbSymbolTableRecord
100
AcDbBlockTableRecord
2
*MODEL_SPACE
0
BLOCK_RECORD
5
1B
100
AcDbSymbolTableRecord
100
AcDbBlockTableRecord
2
*PAPER_SPACE
0
ENDTAB
0
ENDSEC
0
SECTION
2
BLOCKS
0
BLOCK
5
20
100
AcDbEntity
100
AcDbBlockBegin
2
*MODEL_SPACE
0
ENDBLK
5
21
100
AcDbEntity
100
AcDbBlockEnd
0
BLOCK
5
1C
100
AcDbEntity
100
AcDbBlockBegin
2
*PAPER_SPACE
0
ENDBLK
5
1D
100
AcDbEntity
100
AcDbBlockEnd
0
ENDSEC
0
SECTION
2
ENTITIES
0
CIRCLE
5
100
100
AcDbEntity
8
0
100
AcDbCircle
10
-72
20
37.000000000180854
30
0
40
1.5000000000000002
210
0
220
-0
230
1
0
ARC
5
101
100
AcDbEntity
8
0
100
AcDbCircle
10
-72.653194598641704
20
37
30
0
40
3.0000000000000027
210
0
220
-0
230
1
100
AcDbArc
50
90
51
220.63197129961497
0
ARC
5
102
100
AcDbEntity
8
0
100
AcDbCircle
10
-77.206642924090247
20
33.09281324384537
30
0
40
3.0000000000000093
210
-0
220
0
230
1
100
AcDbArc
50
-13.304402822515144
51
40.631971299614804
0
LINE
5
103
100
AcDbEntity
8
0
100
AcDbLine
10
-74.287159348031764
20
32.402439686179044
30
0
11
-76.128155501808607
21
24.617150150023129
31
0
0
ARC
5
104
100
AcDbEntity
8
0
100
AcDbCircle
10
-79.047639077867075
20
25.307523707689445
30
0
40
2.9999999999999889
210
0
220
0
230
1
100
AcDbArc
50
263.88991597666836
51
346.69559717748501
0
ARC
5
105
100
AcDbEntity
8
0
100
AcDbCircle
10
-79.686273513347217
20
19.341608349773391
30
0
40
2.9999999999999849
210
0
220
-0
230
1
100
AcDbArc
50
83.889915976668078
51
166.35689521745184
0
ARC
5
106
100
AcDbEntity
8
0
100
AcDbCircle
10
0
20
0
30
0
40
85.000000000000014
210
0
220
0
230
1
100
AcDbArc
50
166.35689521745144
51
178.64310478254873
0
ARC
5
107
100
AcDbEntity
8
0
100
AcDbCircle
10
-81.977006191111883
20
1.941766191488431
30
0
40
3.0000000000000169
210
0
220
0
230
1
100
AcDbArc
50
178.64310478254873
51
261.11008402333158
0
ARC
5
108
100
AcDbEntity
8
0
100
AcDbCircle
10
-82.904225212422418
20
-3.9861562849378718
30
0
40
3.0000000000000004
210
-0
220
0
230
1
100
AcDbArc
50
-1.6955971774849923
51
81.11008402333124
0
LINE
5
109
100
AcDbEntity
8
0
100
AcDbLine
10
-79.905538801921551
20
-4.0749245871488586
30
0
11
-80.142254274484173
21
-12.071421681817839
31
0
0
ARC
5
110
100
AcDbEntity
8
0
100
AcDbCircle
10
-83.140940684985054
20
-11.982653379606855
30
0
40
2.9999999999999942
210
-0
220
0
230
1
100
AcDbArc
50
299.61372331221565
51
358.30440282251521
0
ARC
5
111
100
AcDbEntity
8
0
100
AcDbCircle
10
-80.176040017690923
20
-17.198912962208087
30
0
40
3.0000000000000364
210
0
220
0
230
1
100
AcDbArc
50
119.61372331221644
51
192.10728250118024
0
ARC
5
112
100
AcDbEntity
8
0
100
AcDbCircle
10
0
20
0
30
0
40
84.999999999999943
210
0
220
0
230
1
100
AcDbArc
50
192.10728250118089
51
199.22436986279604
0
ARC
5
113
100
AcDbEntity
8
0
100
AcDbCircle
10
-77.427385336197361
20
-26.999999999999996
30
0
40
3.0000000000000209
210
0
220
0
230
1
100
AcDbArc
50
199.2243698627951
51
270
0
LINE
5
114
100
AcDbEntity
8
0
100
AcDbLine
10
-77.427385336197361
20
-30
30
0
11
-68.066190378969068
21
-30
31
0
0
ARC
5
115
100
AcDbEntity
8
0
100
AcDbCircle
10
-42.000000000007461
20
-28
30
0
40
2.0000000000000018
210
-0
220
0
230
1
100
AcDbArc
50
270
51
360
0
LINE
5
116
100
AcDbEntity
8
0
100
AcDbLine
10
-40.000000000007468
20
-28.000000000000313
30
0
11
-40.000000000000014
21
19.999999999999531
31
0
0
ARC
5
117
100
AcDbEntity
8
0
100
AcDbCircle
10
-72
20
37.000000000180854
30
0
40
2.9999999998191473
210
0
220
-0
230
1
100
AcDbArc
50
0
51
90
0
LINE
5
118
100
AcDbEntity
8
0
100
AcDbLine
10
-72
20
40
30
0
11
-72.653194598641704
21
40
31
0
0
LINE
5
119
100
AcDbEntity
8
0
100
AcDbLine
10
-45.000000000000199
20
-29.000000000000089
30
0
11
-45
21
-26.999999999999996
31
0
0
LINE
5
120
100
AcDbEntity
8
0
100
AcDbLine
10
-45
20
-26.999999999999996
30
0
11
-43
21
-26.999999999999996
31
0
0
LINE
5
121
100
AcDbEntity
8
0
100
AcDbLine
10
-43
20
-26.999999999999996
30
0
11
-43
21
-29
31
0
0
ARC
5
122
100
AcDbEntity
8
0
100
AcDbCircle
10
-43.000000000000014
20
19.999999999999524
30
0
40
2.9999999999999982
210
0
220
-0
230
1
100
AcDbArc
50
0
51
80.342867527480507
0
LINE
5
123
100
AcDbEntity
8
0
100
AcDbLine
10
-42.496744451948452
20
22.957487760473825
30
0
11
-66.503255548232431
21
27.042512239706561
31
0
0
ARC
5
124
100
AcDbEntity
8
0
100
AcDbCircle
10
-66.000000000180847
20
30.000000000180854
30
0
40
3.0000000000000071
210
0
220
0
230
1
100
AcDbArc
50
180
51
260.34286752748011
0
LINE
5
125
100
AcDbEntity
8
0
100
AcDbLine
10
-69.000000000180847
20
30.000000000180851
30
0
11
-69.000000000180847
21
37.000000000180854
31
0
0
ARC
5
126
100
AcDbEntity
8
0
100
AcDbCircle
10
-42
20
-29.000000000000004
30
0
40
0.99999999999999645
210
0
220
0
230
1
100
AcDbArc
50
180
51
269.99999999957168
0
LINE
5
127
100
AcDbEntity
8
0
100
AcDbLine
10
-67.208697453256534
20
-30.485504244572475
30
0
11
-64.791302546743481
21
-34.514495755427525
31
0
0
LINE
5
128
100
AcDbEntity
8
0
100
AcDbLine
10
-63.933809621030946
20
-34.999999999999993
30
0
11
-51.5
21
-34.999999999999993
31
0
0
LINE
5
129
100
AcDbEntity
8
0
100
AcDbLine
10
-50.500000000000007
20
-33.999999999999993
30
0
11
-50.500000000000007
21
-29.999999999999993
31
0
0
LINE
5
130
100
AcDbEntity
8
0
100
AcDbLine
10
-50.500000000000007
20
-29.999999999999993
30
0
11
-46.000000000000199
21
-29.999999999999993
31
0
0
ARC
5
131
100
AcDbEntity
8
0
100
AcDbCircle
10
-63.933809621030946
20
-33.999999999999993
30
0
40
1.0000000000000013
210
0
220
0
230
1
100
AcDbArc
50
210.96375653207409
51
270
0
ARC
5
132
100
AcDbEntity
8
0
100
AcDbCircle
10
-51.500000000000014
20
-33.999999999999993
30
0
40
1.0000000000000009
210
0
220
0
230
1
100
AcDbArc
50
-89.99999999999919
51
0
0
ARC
5
133
100
AcDbEntity
8
0
100
AcDbCircle
10
-46.000000000000213
20
-28.999999999999989
30
0
40
1.0000000000000009
210
0
220
0
230
1
100
AcDbArc
50
270.0000000000008
51
360
0
ARC
5
134
100
AcDbEntity
8
0
100
AcDbCircle
10
-68.066190378969068
20
-31
30
0
40
0.99999999999999689
210
0
220
-0
230
1
100
AcDbArc
50
30.96375653207372
51
90
0
ENDSEC
0
SECTION
2
OBJECTS
0
DICTIONARY
5
C
100
AcDbDictionary
3
ACAD_GROUP
350
D
3
ACAD_MLINESTYLE
350
17
0
DICTIONARY
5
D
100
AcDbDictionary
0
DICTIONARY
5
1A
330
C
100
AcDbDictionary
0
DICTIONARY
5
17
100
AcDbDictionary
0
ENDSEC
0
EOF
