%TF.GenerationSoftware,KiCad,Pcbnew,8.0.6*%
%TF.CreationDate,2024-11-20T23:00:01+09:00*%
%TF.ProjectId,ORION_sub_v3,4f52494f-4e5f-4737-9562-5f76332e6b69,rev?*%
%TF.SameCoordinates,Original*%
%TF.FileFunction,Profile,NP*%
%FSLAX46Y46*%
G04 Gerber Fmt 4.6, Leading zero omitted, Abs format (unit mm)*
G04 Created by KiCad (PCBNEW 8.0.6) date 2024-11-20 23:00:01*
%MOMM*%
%LPD*%
G01*
G04 APERTURE LIST*
%TA.AperFunction,Profile*%
%ADD10C,0.200000*%
%TD*%
%TA.AperFunction,Profile*%
%ADD11C,0.100000*%
%TD*%
G04 APERTURE END LIST*
D10*
X98500000Y-55499999D02*
G75*
G02*
X99499998Y-54500000I1000000J-1D01*
G01*
X125500001Y-124500000D02*
G75*
G02*
X122500000Y-121499999I-1J3000000D01*
G01*
X122500000Y-114500001D02*
X122500000Y-121499999D01*
X135940616Y-83477805D02*
G75*
G02*
X133405473Y-80425075I463584J2964005D01*
G01*
X138476165Y-86512806D02*
G75*
G02*
X136101625Y-104549228I-84976165J2012806D01*
G01*
X127000000Y-121500000D02*
G75*
G02*
X124000000Y-121500000I-1500000J0D01*
G01*
X124000000Y-121500000D02*
G75*
G02*
X127000000Y-121500000I1500000J0D01*
G01*
X95500000Y-54500000D02*
G75*
G02*
X96500000Y-55499999I0J-1000000D01*
G01*
X93500000Y-56499999D02*
X93500000Y-104499999D01*
X133405539Y-80425077D02*
X133642254Y-72428577D01*
X130927385Y-54500000D02*
G75*
G02*
X133760108Y-56512191I15J-3000000D01*
G01*
X104000000Y-54500000D02*
X99499998Y-54500000D01*
X121566190Y-54500000D02*
G75*
G02*
X120708705Y-54014491I10J1000000D01*
G01*
X104000000Y-50499999D02*
X104000000Y-54500000D01*
X129628157Y-109117150D02*
G75*
G02*
X132866953Y-106824591I2919443J-690350D01*
G01*
X133642254Y-72428577D02*
G75*
G02*
X135158481Y-69909201I2998646J-88723D01*
G01*
X98500000Y-55499999D02*
X98500000Y-57500000D01*
X135940616Y-83477805D02*
G75*
G02*
X138476194Y-86512807I-463616J-2963995D01*
G01*
X129628157Y-109117150D02*
X129628156Y-109117150D01*
X136609310Y-66671859D02*
G75*
G02*
X135158507Y-69909246I-2933310J-629241D01*
G01*
X128429919Y-119546407D02*
G75*
G02*
X127787139Y-116902436I2276681J1953607D01*
G01*
X126153195Y-124499999D02*
X126153195Y-124500000D01*
X96500000Y-57500000D02*
X96500000Y-55499999D01*
X95996745Y-107457488D02*
G75*
G02*
X93500000Y-104499999I503255J2957488D01*
G01*
X136101625Y-104549228D02*
G75*
G02*
X132866960Y-106824531I-2915325J707628D01*
G01*
X95996745Y-107457488D02*
X120003254Y-111542512D01*
X98500000Y-57500000D02*
X96500000Y-57500000D01*
X93500000Y-56499999D02*
G75*
G02*
X95500000Y-54500000I2000000J-1D01*
G01*
X133760095Y-56512195D02*
G75*
G02*
X136609313Y-66671858I-80261095J-27988105D01*
G01*
X120003254Y-111542512D02*
G75*
G02*
X122500000Y-114500001I-503254J-2957488D01*
G01*
D11*
X120000000Y-66500000D02*
X122000000Y-66500000D01*
X122000000Y-69500000D01*
X120000000Y-69500000D01*
X120000000Y-66500000D01*
D10*
X125500001Y-124500000D02*
X126153195Y-124500000D01*
X130927385Y-54500000D02*
X121566190Y-54500000D01*
X127787159Y-116902441D02*
X129628156Y-109117150D01*
X128429919Y-119546407D02*
G75*
G02*
X126153195Y-124499996I-2276719J-1953593D01*
G01*
D11*
X131000000Y-66500000D02*
X133000000Y-66500000D01*
X133000000Y-69500000D01*
X131000000Y-69500000D01*
X131000000Y-66500000D01*
D10*
X120708697Y-54014496D02*
X118291303Y-49985504D01*
X117433810Y-49500000D02*
G75*
G02*
X118291295Y-49985509I-10J-1000000D01*
G01*
X104000000Y-50499999D02*
G75*
G02*
X104999998Y-49500000I1000000J-1D01*
G01*
X117433810Y-49500000D02*
X104999998Y-49500000D01*
M02*
