%TF.GenerationSoftware,KiCad,Pcbnew,8.0.6*%
%TF.CreationDate,2024-11-20T23:00:01+09:00*%
%TF.ProjectId,ORION_sub_v3,4f52494f-4e5f-4737-9562-5f76332e6b69,rev?*%
%TF.SameCoordinates,Original*%
%TF.FileFunction,Legend,Bot*%
%TF.FilePolarity,Positive*%
%FSLAX46Y46*%
G04 Gerber Fmt 4.6, Leading zero omitted, Abs format (unit mm)*
G04 Created by KiCad (PCBNEW 8.0.6) date 2024-11-20 23:00:01*
%MOMM*%
%LPD*%
G01*
G04 APERTURE LIST*
G04 Aperture macros list*
%AMRoundRect*
0 Rectangle with rounded corners*
0 $1 Rounding radius*
0 $2 $3 $4 $5 $6 $7 $8 $9 X,Y pos of 4 corners*
0 Add a 4 corners polygon primitive as box body*
4,1,4,$2,$3,$4,$5,$6,$7,$8,$9,$2,$3,0*
0 Add four circle primitives for the rounded corners*
1,1,$1+$1,$2,$3*
1,1,$1+$1,$4,$5*
1,1,$1+$1,$6,$7*
1,1,$1+$1,$8,$9*
0 Add four rect primitives between the rounded corners*
20,1,$1+$1,$2,$3,$4,$5,0*
20,1,$1+$1,$4,$5,$6,$7,0*
20,1,$1+$1,$6,$7,$8,$9,0*
20,1,$1+$1,$8,$9,$2,$3,0*%
G04 Aperture macros list end*
%ADD10C,0.150000*%
%ADD11C,0.120000*%
%ADD12R,1.700000X1.700000*%
%ADD13O,1.700000X1.700000*%
%ADD14RoundRect,0.225000X0.225000X0.475000X-0.225000X0.475000X-0.225000X-0.475000X0.225000X-0.475000X0*%
%ADD15O,0.900000X1.400000*%
%ADD16RoundRect,0.225000X0.475000X-0.225000X0.475000X0.225000X-0.475000X0.225000X-0.475000X-0.225000X0*%
%ADD17O,1.400000X0.900000*%
%ADD18RoundRect,0.225000X-0.225000X-0.475000X0.225000X-0.475000X0.225000X0.475000X-0.225000X0.475000X0*%
%ADD19RoundRect,0.250000X0.350000X0.625000X-0.350000X0.625000X-0.350000X-0.625000X0.350000X-0.625000X0*%
%ADD20O,1.200000X1.750000*%
%ADD21C,1.400000*%
%ADD22R,3.500000X3.500000*%
%ADD23C,3.500000*%
%ADD24RoundRect,0.225000X0.575000X-0.225000X0.575000X0.225000X-0.575000X0.225000X-0.575000X-0.225000X0*%
%ADD25RoundRect,0.200000X0.275000X-0.200000X0.275000X0.200000X-0.275000X0.200000X-0.275000X-0.200000X0*%
%ADD26RoundRect,0.200000X-0.200000X-0.275000X0.200000X-0.275000X0.200000X0.275000X-0.200000X0.275000X0*%
%ADD27RoundRect,0.200000X-0.275000X0.200000X-0.275000X-0.200000X0.275000X-0.200000X0.275000X0.200000X0*%
%ADD28RoundRect,0.375000X0.375000X0.375000X-0.375000X0.375000X-0.375000X-0.375000X0.375000X-0.375000X0*%
%ADD29RoundRect,0.500000X1.500000X0.500000X-1.500000X0.500000X-1.500000X-0.500000X1.500000X-0.500000X0*%
%ADD30RoundRect,0.200000X0.200000X0.275000X-0.200000X0.275000X-0.200000X-0.275000X0.200000X-0.275000X0*%
%ADD31RoundRect,0.225000X-0.225000X-0.250000X0.225000X-0.250000X0.225000X0.250000X-0.225000X0.250000X0*%
%ADD32RoundRect,0.225000X-0.250000X0.225000X-0.250000X-0.225000X0.250000X-0.225000X0.250000X0.225000X0*%
%ADD33RoundRect,0.250000X0.650000X-0.325000X0.650000X0.325000X-0.650000X0.325000X-0.650000X-0.325000X0*%
%ADD34R,4.000000X1.500000*%
%ADD35RoundRect,0.150000X0.725000X0.150000X-0.725000X0.150000X-0.725000X-0.150000X0.725000X-0.150000X0*%
%ADD36RoundRect,0.075000X0.075000X-0.662500X0.075000X0.662500X-0.075000X0.662500X-0.075000X-0.662500X0*%
%ADD37RoundRect,0.075000X0.662500X-0.075000X0.662500X0.075000X-0.662500X0.075000X-0.662500X-0.075000X0*%
%ADD38RoundRect,0.225000X0.250000X-0.225000X0.250000X0.225000X-0.250000X0.225000X-0.250000X-0.225000X0*%
%ADD39RoundRect,0.140000X0.170000X-0.140000X0.170000X0.140000X-0.170000X0.140000X-0.170000X-0.140000X0*%
%ADD40R,0.400000X1.900000*%
%ADD41RoundRect,0.150000X-0.150000X0.587500X-0.150000X-0.587500X0.150000X-0.587500X0.150000X0.587500X0*%
%ADD42RoundRect,0.250000X-0.325000X-0.650000X0.325000X-0.650000X0.325000X0.650000X-0.325000X0.650000X0*%
%ADD43RoundRect,0.140000X0.140000X0.170000X-0.140000X0.170000X-0.140000X-0.170000X0.140000X-0.170000X0*%
%ADD44RoundRect,0.250000X0.375000X0.625000X-0.375000X0.625000X-0.375000X-0.625000X0.375000X-0.625000X0*%
%ADD45R,2.400000X1.500000*%
%ADD46R,1.050000X1.500000*%
%ADD47RoundRect,0.150000X0.587500X0.150000X-0.587500X0.150000X-0.587500X-0.150000X0.587500X-0.150000X0*%
%ADD48RoundRect,0.150000X-0.512500X-0.150000X0.512500X-0.150000X0.512500X0.150000X-0.512500X0.150000X0*%
G04 APERTURE END LIST*
D10*
X112454819Y-85357142D02*
X111978628Y-85023809D01*
X112454819Y-84785714D02*
X111454819Y-84785714D01*
X111454819Y-84785714D02*
X111454819Y-85166666D01*
X111454819Y-85166666D02*
X111502438Y-85261904D01*
X111502438Y-85261904D02*
X111550057Y-85309523D01*
X111550057Y-85309523D02*
X111645295Y-85357142D01*
X111645295Y-85357142D02*
X111788152Y-85357142D01*
X111788152Y-85357142D02*
X111883390Y-85309523D01*
X111883390Y-85309523D02*
X111931009Y-85261904D01*
X111931009Y-85261904D02*
X111978628Y-85166666D01*
X111978628Y-85166666D02*
X111978628Y-84785714D01*
X112454819Y-86309523D02*
X112454819Y-85738095D01*
X112454819Y-86023809D02*
X111454819Y-86023809D01*
X111454819Y-86023809D02*
X111597676Y-85928571D01*
X111597676Y-85928571D02*
X111692914Y-85833333D01*
X111692914Y-85833333D02*
X111740533Y-85738095D01*
X112454819Y-86785714D02*
X112454819Y-86976190D01*
X112454819Y-86976190D02*
X112407200Y-87071428D01*
X112407200Y-87071428D02*
X112359580Y-87119047D01*
X112359580Y-87119047D02*
X112216723Y-87214285D01*
X112216723Y-87214285D02*
X112026247Y-87261904D01*
X112026247Y-87261904D02*
X111645295Y-87261904D01*
X111645295Y-87261904D02*
X111550057Y-87214285D01*
X111550057Y-87214285D02*
X111502438Y-87166666D01*
X111502438Y-87166666D02*
X111454819Y-87071428D01*
X111454819Y-87071428D02*
X111454819Y-86880952D01*
X111454819Y-86880952D02*
X111502438Y-86785714D01*
X111502438Y-86785714D02*
X111550057Y-86738095D01*
X111550057Y-86738095D02*
X111645295Y-86690476D01*
X111645295Y-86690476D02*
X111883390Y-86690476D01*
X111883390Y-86690476D02*
X111978628Y-86738095D01*
X111978628Y-86738095D02*
X112026247Y-86785714D01*
X112026247Y-86785714D02*
X112073866Y-86880952D01*
X112073866Y-86880952D02*
X112073866Y-87071428D01*
X112073866Y-87071428D02*
X112026247Y-87166666D01*
X112026247Y-87166666D02*
X111978628Y-87214285D01*
X111978628Y-87214285D02*
X111883390Y-87261904D01*
X107142857Y-106454819D02*
X107476190Y-105978628D01*
X107714285Y-106454819D02*
X107714285Y-105454819D01*
X107714285Y-105454819D02*
X107333333Y-105454819D01*
X107333333Y-105454819D02*
X107238095Y-105502438D01*
X107238095Y-105502438D02*
X107190476Y-105550057D01*
X107190476Y-105550057D02*
X107142857Y-105645295D01*
X107142857Y-105645295D02*
X107142857Y-105788152D01*
X107142857Y-105788152D02*
X107190476Y-105883390D01*
X107190476Y-105883390D02*
X107238095Y-105931009D01*
X107238095Y-105931009D02*
X107333333Y-105978628D01*
X107333333Y-105978628D02*
X107714285Y-105978628D01*
X106190476Y-106454819D02*
X106761904Y-106454819D01*
X106476190Y-106454819D02*
X106476190Y-105454819D01*
X106476190Y-105454819D02*
X106571428Y-105597676D01*
X106571428Y-105597676D02*
X106666666Y-105692914D01*
X106666666Y-105692914D02*
X106761904Y-105740533D01*
X105857142Y-105454819D02*
X105238095Y-105454819D01*
X105238095Y-105454819D02*
X105571428Y-105835771D01*
X105571428Y-105835771D02*
X105428571Y-105835771D01*
X105428571Y-105835771D02*
X105333333Y-105883390D01*
X105333333Y-105883390D02*
X105285714Y-105931009D01*
X105285714Y-105931009D02*
X105238095Y-106026247D01*
X105238095Y-106026247D02*
X105238095Y-106264342D01*
X105238095Y-106264342D02*
X105285714Y-106359580D01*
X105285714Y-106359580D02*
X105333333Y-106407200D01*
X105333333Y-106407200D02*
X105428571Y-106454819D01*
X105428571Y-106454819D02*
X105714285Y-106454819D01*
X105714285Y-106454819D02*
X105809523Y-106407200D01*
X105809523Y-106407200D02*
X105857142Y-106359580D01*
X121954819Y-63357142D02*
X121478628Y-63023809D01*
X121954819Y-62785714D02*
X120954819Y-62785714D01*
X120954819Y-62785714D02*
X120954819Y-63166666D01*
X120954819Y-63166666D02*
X121002438Y-63261904D01*
X121002438Y-63261904D02*
X121050057Y-63309523D01*
X121050057Y-63309523D02*
X121145295Y-63357142D01*
X121145295Y-63357142D02*
X121288152Y-63357142D01*
X121288152Y-63357142D02*
X121383390Y-63309523D01*
X121383390Y-63309523D02*
X121431009Y-63261904D01*
X121431009Y-63261904D02*
X121478628Y-63166666D01*
X121478628Y-63166666D02*
X121478628Y-62785714D01*
X121954819Y-64309523D02*
X121954819Y-63738095D01*
X121954819Y-64023809D02*
X120954819Y-64023809D01*
X120954819Y-64023809D02*
X121097676Y-63928571D01*
X121097676Y-63928571D02*
X121192914Y-63833333D01*
X121192914Y-63833333D02*
X121240533Y-63738095D01*
X121288152Y-65166666D02*
X121954819Y-65166666D01*
X120907200Y-64928571D02*
X121621485Y-64690476D01*
X121621485Y-64690476D02*
X121621485Y-65309523D01*
X117954819Y-95833333D02*
X117478628Y-95500000D01*
X117954819Y-95261905D02*
X116954819Y-95261905D01*
X116954819Y-95261905D02*
X116954819Y-95642857D01*
X116954819Y-95642857D02*
X117002438Y-95738095D01*
X117002438Y-95738095D02*
X117050057Y-95785714D01*
X117050057Y-95785714D02*
X117145295Y-95833333D01*
X117145295Y-95833333D02*
X117288152Y-95833333D01*
X117288152Y-95833333D02*
X117383390Y-95785714D01*
X117383390Y-95785714D02*
X117431009Y-95738095D01*
X117431009Y-95738095D02*
X117478628Y-95642857D01*
X117478628Y-95642857D02*
X117478628Y-95261905D01*
X117050057Y-96214286D02*
X117002438Y-96261905D01*
X117002438Y-96261905D02*
X116954819Y-96357143D01*
X116954819Y-96357143D02*
X116954819Y-96595238D01*
X116954819Y-96595238D02*
X117002438Y-96690476D01*
X117002438Y-96690476D02*
X117050057Y-96738095D01*
X117050057Y-96738095D02*
X117145295Y-96785714D01*
X117145295Y-96785714D02*
X117240533Y-96785714D01*
X117240533Y-96785714D02*
X117383390Y-96738095D01*
X117383390Y-96738095D02*
X117954819Y-96166667D01*
X117954819Y-96166667D02*
X117954819Y-96785714D01*
X99809523Y-64954819D02*
X99809523Y-65669104D01*
X99809523Y-65669104D02*
X99857142Y-65811961D01*
X99857142Y-65811961D02*
X99952380Y-65907200D01*
X99952380Y-65907200D02*
X100095237Y-65954819D01*
X100095237Y-65954819D02*
X100190475Y-65954819D01*
X98809523Y-65954819D02*
X99380951Y-65954819D01*
X99095237Y-65954819D02*
X99095237Y-64954819D01*
X99095237Y-64954819D02*
X99190475Y-65097676D01*
X99190475Y-65097676D02*
X99285713Y-65192914D01*
X99285713Y-65192914D02*
X99380951Y-65240533D01*
X98190475Y-64954819D02*
X98095237Y-64954819D01*
X98095237Y-64954819D02*
X97999999Y-65002438D01*
X97999999Y-65002438D02*
X97952380Y-65050057D01*
X97952380Y-65050057D02*
X97904761Y-65145295D01*
X97904761Y-65145295D02*
X97857142Y-65335771D01*
X97857142Y-65335771D02*
X97857142Y-65573866D01*
X97857142Y-65573866D02*
X97904761Y-65764342D01*
X97904761Y-65764342D02*
X97952380Y-65859580D01*
X97952380Y-65859580D02*
X97999999Y-65907200D01*
X97999999Y-65907200D02*
X98095237Y-65954819D01*
X98095237Y-65954819D02*
X98190475Y-65954819D01*
X98190475Y-65954819D02*
X98285713Y-65907200D01*
X98285713Y-65907200D02*
X98333332Y-65859580D01*
X98333332Y-65859580D02*
X98380951Y-65764342D01*
X98380951Y-65764342D02*
X98428570Y-65573866D01*
X98428570Y-65573866D02*
X98428570Y-65335771D01*
X98428570Y-65335771D02*
X98380951Y-65145295D01*
X98380951Y-65145295D02*
X98333332Y-65050057D01*
X98333332Y-65050057D02*
X98285713Y-65002438D01*
X98285713Y-65002438D02*
X98190475Y-64954819D01*
X130666666Y-103454819D02*
X130999999Y-102978628D01*
X131238094Y-103454819D02*
X131238094Y-102454819D01*
X131238094Y-102454819D02*
X130857142Y-102454819D01*
X130857142Y-102454819D02*
X130761904Y-102502438D01*
X130761904Y-102502438D02*
X130714285Y-102550057D01*
X130714285Y-102550057D02*
X130666666Y-102645295D01*
X130666666Y-102645295D02*
X130666666Y-102788152D01*
X130666666Y-102788152D02*
X130714285Y-102883390D01*
X130714285Y-102883390D02*
X130761904Y-102931009D01*
X130761904Y-102931009D02*
X130857142Y-102978628D01*
X130857142Y-102978628D02*
X131238094Y-102978628D01*
X129761904Y-102454819D02*
X130238094Y-102454819D01*
X130238094Y-102454819D02*
X130285713Y-102931009D01*
X130285713Y-102931009D02*
X130238094Y-102883390D01*
X130238094Y-102883390D02*
X130142856Y-102835771D01*
X130142856Y-102835771D02*
X129904761Y-102835771D01*
X129904761Y-102835771D02*
X129809523Y-102883390D01*
X129809523Y-102883390D02*
X129761904Y-102931009D01*
X129761904Y-102931009D02*
X129714285Y-103026247D01*
X129714285Y-103026247D02*
X129714285Y-103264342D01*
X129714285Y-103264342D02*
X129761904Y-103359580D01*
X129761904Y-103359580D02*
X129809523Y-103407200D01*
X129809523Y-103407200D02*
X129904761Y-103454819D01*
X129904761Y-103454819D02*
X130142856Y-103454819D01*
X130142856Y-103454819D02*
X130238094Y-103407200D01*
X130238094Y-103407200D02*
X130285713Y-103359580D01*
X98424819Y-60757142D02*
X97948628Y-60423809D01*
X98424819Y-60185714D02*
X97424819Y-60185714D01*
X97424819Y-60185714D02*
X97424819Y-60566666D01*
X97424819Y-60566666D02*
X97472438Y-60661904D01*
X97472438Y-60661904D02*
X97520057Y-60709523D01*
X97520057Y-60709523D02*
X97615295Y-60757142D01*
X97615295Y-60757142D02*
X97758152Y-60757142D01*
X97758152Y-60757142D02*
X97853390Y-60709523D01*
X97853390Y-60709523D02*
X97901009Y-60661904D01*
X97901009Y-60661904D02*
X97948628Y-60566666D01*
X97948628Y-60566666D02*
X97948628Y-60185714D01*
X98424819Y-61709523D02*
X98424819Y-61138095D01*
X98424819Y-61423809D02*
X97424819Y-61423809D01*
X97424819Y-61423809D02*
X97567676Y-61328571D01*
X97567676Y-61328571D02*
X97662914Y-61233333D01*
X97662914Y-61233333D02*
X97710533Y-61138095D01*
X97853390Y-62280952D02*
X97805771Y-62185714D01*
X97805771Y-62185714D02*
X97758152Y-62138095D01*
X97758152Y-62138095D02*
X97662914Y-62090476D01*
X97662914Y-62090476D02*
X97615295Y-62090476D01*
X97615295Y-62090476D02*
X97520057Y-62138095D01*
X97520057Y-62138095D02*
X97472438Y-62185714D01*
X97472438Y-62185714D02*
X97424819Y-62280952D01*
X97424819Y-62280952D02*
X97424819Y-62471428D01*
X97424819Y-62471428D02*
X97472438Y-62566666D01*
X97472438Y-62566666D02*
X97520057Y-62614285D01*
X97520057Y-62614285D02*
X97615295Y-62661904D01*
X97615295Y-62661904D02*
X97662914Y-62661904D01*
X97662914Y-62661904D02*
X97758152Y-62614285D01*
X97758152Y-62614285D02*
X97805771Y-62566666D01*
X97805771Y-62566666D02*
X97853390Y-62471428D01*
X97853390Y-62471428D02*
X97853390Y-62280952D01*
X97853390Y-62280952D02*
X97901009Y-62185714D01*
X97901009Y-62185714D02*
X97948628Y-62138095D01*
X97948628Y-62138095D02*
X98043866Y-62090476D01*
X98043866Y-62090476D02*
X98234342Y-62090476D01*
X98234342Y-62090476D02*
X98329580Y-62138095D01*
X98329580Y-62138095D02*
X98377200Y-62185714D01*
X98377200Y-62185714D02*
X98424819Y-62280952D01*
X98424819Y-62280952D02*
X98424819Y-62471428D01*
X98424819Y-62471428D02*
X98377200Y-62566666D01*
X98377200Y-62566666D02*
X98329580Y-62614285D01*
X98329580Y-62614285D02*
X98234342Y-62661904D01*
X98234342Y-62661904D02*
X98043866Y-62661904D01*
X98043866Y-62661904D02*
X97948628Y-62614285D01*
X97948628Y-62614285D02*
X97901009Y-62566666D01*
X97901009Y-62566666D02*
X97853390Y-62471428D01*
X125966666Y-72359580D02*
X126014285Y-72407200D01*
X126014285Y-72407200D02*
X126157142Y-72454819D01*
X126157142Y-72454819D02*
X126252380Y-72454819D01*
X126252380Y-72454819D02*
X126395237Y-72407200D01*
X126395237Y-72407200D02*
X126490475Y-72311961D01*
X126490475Y-72311961D02*
X126538094Y-72216723D01*
X126538094Y-72216723D02*
X126585713Y-72026247D01*
X126585713Y-72026247D02*
X126585713Y-71883390D01*
X126585713Y-71883390D02*
X126538094Y-71692914D01*
X126538094Y-71692914D02*
X126490475Y-71597676D01*
X126490475Y-71597676D02*
X126395237Y-71502438D01*
X126395237Y-71502438D02*
X126252380Y-71454819D01*
X126252380Y-71454819D02*
X126157142Y-71454819D01*
X126157142Y-71454819D02*
X126014285Y-71502438D01*
X126014285Y-71502438D02*
X125966666Y-71550057D01*
X125585713Y-71550057D02*
X125538094Y-71502438D01*
X125538094Y-71502438D02*
X125442856Y-71454819D01*
X125442856Y-71454819D02*
X125204761Y-71454819D01*
X125204761Y-71454819D02*
X125109523Y-71502438D01*
X125109523Y-71502438D02*
X125061904Y-71550057D01*
X125061904Y-71550057D02*
X125014285Y-71645295D01*
X125014285Y-71645295D02*
X125014285Y-71740533D01*
X125014285Y-71740533D02*
X125061904Y-71883390D01*
X125061904Y-71883390D02*
X125633332Y-72454819D01*
X125633332Y-72454819D02*
X125014285Y-72454819D01*
X130554819Y-96133333D02*
X130078628Y-95800000D01*
X130554819Y-95561905D02*
X129554819Y-95561905D01*
X129554819Y-95561905D02*
X129554819Y-95942857D01*
X129554819Y-95942857D02*
X129602438Y-96038095D01*
X129602438Y-96038095D02*
X129650057Y-96085714D01*
X129650057Y-96085714D02*
X129745295Y-96133333D01*
X129745295Y-96133333D02*
X129888152Y-96133333D01*
X129888152Y-96133333D02*
X129983390Y-96085714D01*
X129983390Y-96085714D02*
X130031009Y-96038095D01*
X130031009Y-96038095D02*
X130078628Y-95942857D01*
X130078628Y-95942857D02*
X130078628Y-95561905D01*
X130554819Y-97085714D02*
X130554819Y-96514286D01*
X130554819Y-96800000D02*
X129554819Y-96800000D01*
X129554819Y-96800000D02*
X129697676Y-96704762D01*
X129697676Y-96704762D02*
X129792914Y-96609524D01*
X129792914Y-96609524D02*
X129840533Y-96514286D01*
X111929580Y-92857142D02*
X111977200Y-92809523D01*
X111977200Y-92809523D02*
X112024819Y-92666666D01*
X112024819Y-92666666D02*
X112024819Y-92571428D01*
X112024819Y-92571428D02*
X111977200Y-92428571D01*
X111977200Y-92428571D02*
X111881961Y-92333333D01*
X111881961Y-92333333D02*
X111786723Y-92285714D01*
X111786723Y-92285714D02*
X111596247Y-92238095D01*
X111596247Y-92238095D02*
X111453390Y-92238095D01*
X111453390Y-92238095D02*
X111262914Y-92285714D01*
X111262914Y-92285714D02*
X111167676Y-92333333D01*
X111167676Y-92333333D02*
X111072438Y-92428571D01*
X111072438Y-92428571D02*
X111024819Y-92571428D01*
X111024819Y-92571428D02*
X111024819Y-92666666D01*
X111024819Y-92666666D02*
X111072438Y-92809523D01*
X111072438Y-92809523D02*
X111120057Y-92857142D01*
X112024819Y-93809523D02*
X112024819Y-93238095D01*
X112024819Y-93523809D02*
X111024819Y-93523809D01*
X111024819Y-93523809D02*
X111167676Y-93428571D01*
X111167676Y-93428571D02*
X111262914Y-93333333D01*
X111262914Y-93333333D02*
X111310533Y-93238095D01*
X112024819Y-94761904D02*
X112024819Y-94190476D01*
X112024819Y-94476190D02*
X111024819Y-94476190D01*
X111024819Y-94476190D02*
X111167676Y-94380952D01*
X111167676Y-94380952D02*
X111262914Y-94285714D01*
X111262914Y-94285714D02*
X111310533Y-94190476D01*
X95429819Y-100857142D02*
X94953628Y-100523809D01*
X95429819Y-100285714D02*
X94429819Y-100285714D01*
X94429819Y-100285714D02*
X94429819Y-100666666D01*
X94429819Y-100666666D02*
X94477438Y-100761904D01*
X94477438Y-100761904D02*
X94525057Y-100809523D01*
X94525057Y-100809523D02*
X94620295Y-100857142D01*
X94620295Y-100857142D02*
X94763152Y-100857142D01*
X94763152Y-100857142D02*
X94858390Y-100809523D01*
X94858390Y-100809523D02*
X94906009Y-100761904D01*
X94906009Y-100761904D02*
X94953628Y-100666666D01*
X94953628Y-100666666D02*
X94953628Y-100285714D01*
X95429819Y-101809523D02*
X95429819Y-101238095D01*
X95429819Y-101523809D02*
X94429819Y-101523809D01*
X94429819Y-101523809D02*
X94572676Y-101428571D01*
X94572676Y-101428571D02*
X94667914Y-101333333D01*
X94667914Y-101333333D02*
X94715533Y-101238095D01*
X94429819Y-102666666D02*
X94429819Y-102476190D01*
X94429819Y-102476190D02*
X94477438Y-102380952D01*
X94477438Y-102380952D02*
X94525057Y-102333333D01*
X94525057Y-102333333D02*
X94667914Y-102238095D01*
X94667914Y-102238095D02*
X94858390Y-102190476D01*
X94858390Y-102190476D02*
X95239342Y-102190476D01*
X95239342Y-102190476D02*
X95334580Y-102238095D01*
X95334580Y-102238095D02*
X95382200Y-102285714D01*
X95382200Y-102285714D02*
X95429819Y-102380952D01*
X95429819Y-102380952D02*
X95429819Y-102571428D01*
X95429819Y-102571428D02*
X95382200Y-102666666D01*
X95382200Y-102666666D02*
X95334580Y-102714285D01*
X95334580Y-102714285D02*
X95239342Y-102761904D01*
X95239342Y-102761904D02*
X95001247Y-102761904D01*
X95001247Y-102761904D02*
X94906009Y-102714285D01*
X94906009Y-102714285D02*
X94858390Y-102666666D01*
X94858390Y-102666666D02*
X94810771Y-102571428D01*
X94810771Y-102571428D02*
X94810771Y-102380952D01*
X94810771Y-102380952D02*
X94858390Y-102285714D01*
X94858390Y-102285714D02*
X94906009Y-102238095D01*
X94906009Y-102238095D02*
X95001247Y-102190476D01*
X119116666Y-103859580D02*
X119164285Y-103907200D01*
X119164285Y-103907200D02*
X119307142Y-103954819D01*
X119307142Y-103954819D02*
X119402380Y-103954819D01*
X119402380Y-103954819D02*
X119545237Y-103907200D01*
X119545237Y-103907200D02*
X119640475Y-103811961D01*
X119640475Y-103811961D02*
X119688094Y-103716723D01*
X119688094Y-103716723D02*
X119735713Y-103526247D01*
X119735713Y-103526247D02*
X119735713Y-103383390D01*
X119735713Y-103383390D02*
X119688094Y-103192914D01*
X119688094Y-103192914D02*
X119640475Y-103097676D01*
X119640475Y-103097676D02*
X119545237Y-103002438D01*
X119545237Y-103002438D02*
X119402380Y-102954819D01*
X119402380Y-102954819D02*
X119307142Y-102954819D01*
X119307142Y-102954819D02*
X119164285Y-103002438D01*
X119164285Y-103002438D02*
X119116666Y-103050057D01*
X118783332Y-102954819D02*
X118116666Y-102954819D01*
X118116666Y-102954819D02*
X118545237Y-103954819D01*
X109454819Y-53833333D02*
X108978628Y-53500000D01*
X109454819Y-53261905D02*
X108454819Y-53261905D01*
X108454819Y-53261905D02*
X108454819Y-53642857D01*
X108454819Y-53642857D02*
X108502438Y-53738095D01*
X108502438Y-53738095D02*
X108550057Y-53785714D01*
X108550057Y-53785714D02*
X108645295Y-53833333D01*
X108645295Y-53833333D02*
X108788152Y-53833333D01*
X108788152Y-53833333D02*
X108883390Y-53785714D01*
X108883390Y-53785714D02*
X108931009Y-53738095D01*
X108931009Y-53738095D02*
X108978628Y-53642857D01*
X108978628Y-53642857D02*
X108978628Y-53261905D01*
X108454819Y-54166667D02*
X108454819Y-54785714D01*
X108454819Y-54785714D02*
X108835771Y-54452381D01*
X108835771Y-54452381D02*
X108835771Y-54595238D01*
X108835771Y-54595238D02*
X108883390Y-54690476D01*
X108883390Y-54690476D02*
X108931009Y-54738095D01*
X108931009Y-54738095D02*
X109026247Y-54785714D01*
X109026247Y-54785714D02*
X109264342Y-54785714D01*
X109264342Y-54785714D02*
X109359580Y-54738095D01*
X109359580Y-54738095D02*
X109407200Y-54690476D01*
X109407200Y-54690476D02*
X109454819Y-54595238D01*
X109454819Y-54595238D02*
X109454819Y-54309524D01*
X109454819Y-54309524D02*
X109407200Y-54214286D01*
X109407200Y-54214286D02*
X109359580Y-54166667D01*
X100954819Y-102333333D02*
X100954819Y-101857143D01*
X100954819Y-101857143D02*
X99954819Y-101857143D01*
X100954819Y-103190476D02*
X100954819Y-102619048D01*
X100954819Y-102904762D02*
X99954819Y-102904762D01*
X99954819Y-102904762D02*
X100097676Y-102809524D01*
X100097676Y-102809524D02*
X100192914Y-102714286D01*
X100192914Y-102714286D02*
X100240533Y-102619048D01*
X118454819Y-97357142D02*
X117978628Y-97023809D01*
X118454819Y-96785714D02*
X117454819Y-96785714D01*
X117454819Y-96785714D02*
X117454819Y-97166666D01*
X117454819Y-97166666D02*
X117502438Y-97261904D01*
X117502438Y-97261904D02*
X117550057Y-97309523D01*
X117550057Y-97309523D02*
X117645295Y-97357142D01*
X117645295Y-97357142D02*
X117788152Y-97357142D01*
X117788152Y-97357142D02*
X117883390Y-97309523D01*
X117883390Y-97309523D02*
X117931009Y-97261904D01*
X117931009Y-97261904D02*
X117978628Y-97166666D01*
X117978628Y-97166666D02*
X117978628Y-96785714D01*
X118454819Y-98309523D02*
X118454819Y-97738095D01*
X118454819Y-98023809D02*
X117454819Y-98023809D01*
X117454819Y-98023809D02*
X117597676Y-97928571D01*
X117597676Y-97928571D02*
X117692914Y-97833333D01*
X117692914Y-97833333D02*
X117740533Y-97738095D01*
X117454819Y-98642857D02*
X117454819Y-99309523D01*
X117454819Y-99309523D02*
X118454819Y-98880952D01*
X116454819Y-97333333D02*
X115978628Y-97000000D01*
X116454819Y-96761905D02*
X115454819Y-96761905D01*
X115454819Y-96761905D02*
X115454819Y-97142857D01*
X115454819Y-97142857D02*
X115502438Y-97238095D01*
X115502438Y-97238095D02*
X115550057Y-97285714D01*
X115550057Y-97285714D02*
X115645295Y-97333333D01*
X115645295Y-97333333D02*
X115788152Y-97333333D01*
X115788152Y-97333333D02*
X115883390Y-97285714D01*
X115883390Y-97285714D02*
X115931009Y-97238095D01*
X115931009Y-97238095D02*
X115978628Y-97142857D01*
X115978628Y-97142857D02*
X115978628Y-96761905D01*
X116454819Y-97809524D02*
X116454819Y-98000000D01*
X116454819Y-98000000D02*
X116407200Y-98095238D01*
X116407200Y-98095238D02*
X116359580Y-98142857D01*
X116359580Y-98142857D02*
X116216723Y-98238095D01*
X116216723Y-98238095D02*
X116026247Y-98285714D01*
X116026247Y-98285714D02*
X115645295Y-98285714D01*
X115645295Y-98285714D02*
X115550057Y-98238095D01*
X115550057Y-98238095D02*
X115502438Y-98190476D01*
X115502438Y-98190476D02*
X115454819Y-98095238D01*
X115454819Y-98095238D02*
X115454819Y-97904762D01*
X115454819Y-97904762D02*
X115502438Y-97809524D01*
X115502438Y-97809524D02*
X115550057Y-97761905D01*
X115550057Y-97761905D02*
X115645295Y-97714286D01*
X115645295Y-97714286D02*
X115883390Y-97714286D01*
X115883390Y-97714286D02*
X115978628Y-97761905D01*
X115978628Y-97761905D02*
X116026247Y-97809524D01*
X116026247Y-97809524D02*
X116073866Y-97904762D01*
X116073866Y-97904762D02*
X116073866Y-98095238D01*
X116073866Y-98095238D02*
X116026247Y-98190476D01*
X116026247Y-98190476D02*
X115978628Y-98238095D01*
X115978628Y-98238095D02*
X115883390Y-98285714D01*
X123261904Y-89554819D02*
X123261904Y-90364342D01*
X123261904Y-90364342D02*
X123214285Y-90459580D01*
X123214285Y-90459580D02*
X123166666Y-90507200D01*
X123166666Y-90507200D02*
X123071428Y-90554819D01*
X123071428Y-90554819D02*
X122880952Y-90554819D01*
X122880952Y-90554819D02*
X122785714Y-90507200D01*
X122785714Y-90507200D02*
X122738095Y-90459580D01*
X122738095Y-90459580D02*
X122690476Y-90364342D01*
X122690476Y-90364342D02*
X122690476Y-89554819D01*
X122261904Y-89650057D02*
X122214285Y-89602438D01*
X122214285Y-89602438D02*
X122119047Y-89554819D01*
X122119047Y-89554819D02*
X121880952Y-89554819D01*
X121880952Y-89554819D02*
X121785714Y-89602438D01*
X121785714Y-89602438D02*
X121738095Y-89650057D01*
X121738095Y-89650057D02*
X121690476Y-89745295D01*
X121690476Y-89745295D02*
X121690476Y-89840533D01*
X121690476Y-89840533D02*
X121738095Y-89983390D01*
X121738095Y-89983390D02*
X122309523Y-90554819D01*
X122309523Y-90554819D02*
X121690476Y-90554819D01*
X126166666Y-102859580D02*
X126214285Y-102907200D01*
X126214285Y-102907200D02*
X126357142Y-102954819D01*
X126357142Y-102954819D02*
X126452380Y-102954819D01*
X126452380Y-102954819D02*
X126595237Y-102907200D01*
X126595237Y-102907200D02*
X126690475Y-102811961D01*
X126690475Y-102811961D02*
X126738094Y-102716723D01*
X126738094Y-102716723D02*
X126785713Y-102526247D01*
X126785713Y-102526247D02*
X126785713Y-102383390D01*
X126785713Y-102383390D02*
X126738094Y-102192914D01*
X126738094Y-102192914D02*
X126690475Y-102097676D01*
X126690475Y-102097676D02*
X126595237Y-102002438D01*
X126595237Y-102002438D02*
X126452380Y-101954819D01*
X126452380Y-101954819D02*
X126357142Y-101954819D01*
X126357142Y-101954819D02*
X126214285Y-102002438D01*
X126214285Y-102002438D02*
X126166666Y-102050057D01*
X125595237Y-102383390D02*
X125690475Y-102335771D01*
X125690475Y-102335771D02*
X125738094Y-102288152D01*
X125738094Y-102288152D02*
X125785713Y-102192914D01*
X125785713Y-102192914D02*
X125785713Y-102145295D01*
X125785713Y-102145295D02*
X125738094Y-102050057D01*
X125738094Y-102050057D02*
X125690475Y-102002438D01*
X125690475Y-102002438D02*
X125595237Y-101954819D01*
X125595237Y-101954819D02*
X125404761Y-101954819D01*
X125404761Y-101954819D02*
X125309523Y-102002438D01*
X125309523Y-102002438D02*
X125261904Y-102050057D01*
X125261904Y-102050057D02*
X125214285Y-102145295D01*
X125214285Y-102145295D02*
X125214285Y-102192914D01*
X125214285Y-102192914D02*
X125261904Y-102288152D01*
X125261904Y-102288152D02*
X125309523Y-102335771D01*
X125309523Y-102335771D02*
X125404761Y-102383390D01*
X125404761Y-102383390D02*
X125595237Y-102383390D01*
X125595237Y-102383390D02*
X125690475Y-102431009D01*
X125690475Y-102431009D02*
X125738094Y-102478628D01*
X125738094Y-102478628D02*
X125785713Y-102573866D01*
X125785713Y-102573866D02*
X125785713Y-102764342D01*
X125785713Y-102764342D02*
X125738094Y-102859580D01*
X125738094Y-102859580D02*
X125690475Y-102907200D01*
X125690475Y-102907200D02*
X125595237Y-102954819D01*
X125595237Y-102954819D02*
X125404761Y-102954819D01*
X125404761Y-102954819D02*
X125309523Y-102907200D01*
X125309523Y-102907200D02*
X125261904Y-102859580D01*
X125261904Y-102859580D02*
X125214285Y-102764342D01*
X125214285Y-102764342D02*
X125214285Y-102573866D01*
X125214285Y-102573866D02*
X125261904Y-102478628D01*
X125261904Y-102478628D02*
X125309523Y-102431009D01*
X125309523Y-102431009D02*
X125404761Y-102383390D01*
X128859580Y-93333333D02*
X128907200Y-93285714D01*
X128907200Y-93285714D02*
X128954819Y-93142857D01*
X128954819Y-93142857D02*
X128954819Y-93047619D01*
X128954819Y-93047619D02*
X128907200Y-92904762D01*
X128907200Y-92904762D02*
X128811961Y-92809524D01*
X128811961Y-92809524D02*
X128716723Y-92761905D01*
X128716723Y-92761905D02*
X128526247Y-92714286D01*
X128526247Y-92714286D02*
X128383390Y-92714286D01*
X128383390Y-92714286D02*
X128192914Y-92761905D01*
X128192914Y-92761905D02*
X128097676Y-92809524D01*
X128097676Y-92809524D02*
X128002438Y-92904762D01*
X128002438Y-92904762D02*
X127954819Y-93047619D01*
X127954819Y-93047619D02*
X127954819Y-93142857D01*
X127954819Y-93142857D02*
X128002438Y-93285714D01*
X128002438Y-93285714D02*
X128050057Y-93333333D01*
X128954819Y-94285714D02*
X128954819Y-93714286D01*
X128954819Y-94000000D02*
X127954819Y-94000000D01*
X127954819Y-94000000D02*
X128097676Y-93904762D01*
X128097676Y-93904762D02*
X128192914Y-93809524D01*
X128192914Y-93809524D02*
X128240533Y-93714286D01*
X125304819Y-77238095D02*
X126114342Y-77238095D01*
X126114342Y-77238095D02*
X126209580Y-77285714D01*
X126209580Y-77285714D02*
X126257200Y-77333333D01*
X126257200Y-77333333D02*
X126304819Y-77428571D01*
X126304819Y-77428571D02*
X126304819Y-77619047D01*
X126304819Y-77619047D02*
X126257200Y-77714285D01*
X126257200Y-77714285D02*
X126209580Y-77761904D01*
X126209580Y-77761904D02*
X126114342Y-77809523D01*
X126114342Y-77809523D02*
X125304819Y-77809523D01*
X126304819Y-78809523D02*
X126304819Y-78238095D01*
X126304819Y-78523809D02*
X125304819Y-78523809D01*
X125304819Y-78523809D02*
X125447676Y-78428571D01*
X125447676Y-78428571D02*
X125542914Y-78333333D01*
X125542914Y-78333333D02*
X125590533Y-78238095D01*
X113859580Y-71833333D02*
X113907200Y-71785714D01*
X113907200Y-71785714D02*
X113954819Y-71642857D01*
X113954819Y-71642857D02*
X113954819Y-71547619D01*
X113954819Y-71547619D02*
X113907200Y-71404762D01*
X113907200Y-71404762D02*
X113811961Y-71309524D01*
X113811961Y-71309524D02*
X113716723Y-71261905D01*
X113716723Y-71261905D02*
X113526247Y-71214286D01*
X113526247Y-71214286D02*
X113383390Y-71214286D01*
X113383390Y-71214286D02*
X113192914Y-71261905D01*
X113192914Y-71261905D02*
X113097676Y-71309524D01*
X113097676Y-71309524D02*
X113002438Y-71404762D01*
X113002438Y-71404762D02*
X112954819Y-71547619D01*
X112954819Y-71547619D02*
X112954819Y-71642857D01*
X112954819Y-71642857D02*
X113002438Y-71785714D01*
X113002438Y-71785714D02*
X113050057Y-71833333D01*
X112954819Y-72738095D02*
X112954819Y-72261905D01*
X112954819Y-72261905D02*
X113431009Y-72214286D01*
X113431009Y-72214286D02*
X113383390Y-72261905D01*
X113383390Y-72261905D02*
X113335771Y-72357143D01*
X113335771Y-72357143D02*
X113335771Y-72595238D01*
X113335771Y-72595238D02*
X113383390Y-72690476D01*
X113383390Y-72690476D02*
X113431009Y-72738095D01*
X113431009Y-72738095D02*
X113526247Y-72785714D01*
X113526247Y-72785714D02*
X113764342Y-72785714D01*
X113764342Y-72785714D02*
X113859580Y-72738095D01*
X113859580Y-72738095D02*
X113907200Y-72690476D01*
X113907200Y-72690476D02*
X113954819Y-72595238D01*
X113954819Y-72595238D02*
X113954819Y-72357143D01*
X113954819Y-72357143D02*
X113907200Y-72261905D01*
X113907200Y-72261905D02*
X113859580Y-72214286D01*
X95859580Y-98833333D02*
X95907200Y-98785714D01*
X95907200Y-98785714D02*
X95954819Y-98642857D01*
X95954819Y-98642857D02*
X95954819Y-98547619D01*
X95954819Y-98547619D02*
X95907200Y-98404762D01*
X95907200Y-98404762D02*
X95811961Y-98309524D01*
X95811961Y-98309524D02*
X95716723Y-98261905D01*
X95716723Y-98261905D02*
X95526247Y-98214286D01*
X95526247Y-98214286D02*
X95383390Y-98214286D01*
X95383390Y-98214286D02*
X95192914Y-98261905D01*
X95192914Y-98261905D02*
X95097676Y-98309524D01*
X95097676Y-98309524D02*
X95002438Y-98404762D01*
X95002438Y-98404762D02*
X94954819Y-98547619D01*
X94954819Y-98547619D02*
X94954819Y-98642857D01*
X94954819Y-98642857D02*
X95002438Y-98785714D01*
X95002438Y-98785714D02*
X95050057Y-98833333D01*
X94954819Y-99166667D02*
X94954819Y-99785714D01*
X94954819Y-99785714D02*
X95335771Y-99452381D01*
X95335771Y-99452381D02*
X95335771Y-99595238D01*
X95335771Y-99595238D02*
X95383390Y-99690476D01*
X95383390Y-99690476D02*
X95431009Y-99738095D01*
X95431009Y-99738095D02*
X95526247Y-99785714D01*
X95526247Y-99785714D02*
X95764342Y-99785714D01*
X95764342Y-99785714D02*
X95859580Y-99738095D01*
X95859580Y-99738095D02*
X95907200Y-99690476D01*
X95907200Y-99690476D02*
X95954819Y-99595238D01*
X95954819Y-99595238D02*
X95954819Y-99309524D01*
X95954819Y-99309524D02*
X95907200Y-99214286D01*
X95907200Y-99214286D02*
X95859580Y-99166667D01*
X105954819Y-83833333D02*
X105478628Y-83500000D01*
X105954819Y-83261905D02*
X104954819Y-83261905D01*
X104954819Y-83261905D02*
X104954819Y-83642857D01*
X104954819Y-83642857D02*
X105002438Y-83738095D01*
X105002438Y-83738095D02*
X105050057Y-83785714D01*
X105050057Y-83785714D02*
X105145295Y-83833333D01*
X105145295Y-83833333D02*
X105288152Y-83833333D01*
X105288152Y-83833333D02*
X105383390Y-83785714D01*
X105383390Y-83785714D02*
X105431009Y-83738095D01*
X105431009Y-83738095D02*
X105478628Y-83642857D01*
X105478628Y-83642857D02*
X105478628Y-83261905D01*
X104954819Y-84166667D02*
X104954819Y-84833333D01*
X104954819Y-84833333D02*
X105954819Y-84404762D01*
X121309523Y-84954819D02*
X120642857Y-85954819D01*
X120642857Y-84954819D02*
X121309523Y-85954819D01*
X119738095Y-85954819D02*
X120309523Y-85954819D01*
X120023809Y-85954819D02*
X120023809Y-84954819D01*
X120023809Y-84954819D02*
X120119047Y-85097676D01*
X120119047Y-85097676D02*
X120214285Y-85192914D01*
X120214285Y-85192914D02*
X120309523Y-85240533D01*
X110454819Y-59357142D02*
X109978628Y-59023809D01*
X110454819Y-58785714D02*
X109454819Y-58785714D01*
X109454819Y-58785714D02*
X109454819Y-59166666D01*
X109454819Y-59166666D02*
X109502438Y-59261904D01*
X109502438Y-59261904D02*
X109550057Y-59309523D01*
X109550057Y-59309523D02*
X109645295Y-59357142D01*
X109645295Y-59357142D02*
X109788152Y-59357142D01*
X109788152Y-59357142D02*
X109883390Y-59309523D01*
X109883390Y-59309523D02*
X109931009Y-59261904D01*
X109931009Y-59261904D02*
X109978628Y-59166666D01*
X109978628Y-59166666D02*
X109978628Y-58785714D01*
X110454819Y-60309523D02*
X110454819Y-59738095D01*
X110454819Y-60023809D02*
X109454819Y-60023809D01*
X109454819Y-60023809D02*
X109597676Y-59928571D01*
X109597676Y-59928571D02*
X109692914Y-59833333D01*
X109692914Y-59833333D02*
X109740533Y-59738095D01*
X109550057Y-60690476D02*
X109502438Y-60738095D01*
X109502438Y-60738095D02*
X109454819Y-60833333D01*
X109454819Y-60833333D02*
X109454819Y-61071428D01*
X109454819Y-61071428D02*
X109502438Y-61166666D01*
X109502438Y-61166666D02*
X109550057Y-61214285D01*
X109550057Y-61214285D02*
X109645295Y-61261904D01*
X109645295Y-61261904D02*
X109740533Y-61261904D01*
X109740533Y-61261904D02*
X109883390Y-61214285D01*
X109883390Y-61214285D02*
X110454819Y-60642857D01*
X110454819Y-60642857D02*
X110454819Y-61261904D01*
X102650057Y-60404761D02*
X102602438Y-60309523D01*
X102602438Y-60309523D02*
X102507200Y-60214285D01*
X102507200Y-60214285D02*
X102364342Y-60071428D01*
X102364342Y-60071428D02*
X102316723Y-59976190D01*
X102316723Y-59976190D02*
X102316723Y-59880952D01*
X102554819Y-59928571D02*
X102507200Y-59833333D01*
X102507200Y-59833333D02*
X102411961Y-59738095D01*
X102411961Y-59738095D02*
X102221485Y-59690476D01*
X102221485Y-59690476D02*
X101888152Y-59690476D01*
X101888152Y-59690476D02*
X101697676Y-59738095D01*
X101697676Y-59738095D02*
X101602438Y-59833333D01*
X101602438Y-59833333D02*
X101554819Y-59928571D01*
X101554819Y-59928571D02*
X101554819Y-60119047D01*
X101554819Y-60119047D02*
X101602438Y-60214285D01*
X101602438Y-60214285D02*
X101697676Y-60309523D01*
X101697676Y-60309523D02*
X101888152Y-60357142D01*
X101888152Y-60357142D02*
X102221485Y-60357142D01*
X102221485Y-60357142D02*
X102411961Y-60309523D01*
X102411961Y-60309523D02*
X102507200Y-60214285D01*
X102507200Y-60214285D02*
X102554819Y-60119047D01*
X102554819Y-60119047D02*
X102554819Y-59928571D01*
X102554819Y-61309523D02*
X102554819Y-60738095D01*
X102554819Y-61023809D02*
X101554819Y-61023809D01*
X101554819Y-61023809D02*
X101697676Y-60928571D01*
X101697676Y-60928571D02*
X101792914Y-60833333D01*
X101792914Y-60833333D02*
X101840533Y-60738095D01*
X116954819Y-85833333D02*
X116478628Y-85500000D01*
X116954819Y-85261905D02*
X115954819Y-85261905D01*
X115954819Y-85261905D02*
X115954819Y-85642857D01*
X115954819Y-85642857D02*
X116002438Y-85738095D01*
X116002438Y-85738095D02*
X116050057Y-85785714D01*
X116050057Y-85785714D02*
X116145295Y-85833333D01*
X116145295Y-85833333D02*
X116288152Y-85833333D01*
X116288152Y-85833333D02*
X116383390Y-85785714D01*
X116383390Y-85785714D02*
X116431009Y-85738095D01*
X116431009Y-85738095D02*
X116478628Y-85642857D01*
X116478628Y-85642857D02*
X116478628Y-85261905D01*
X115954819Y-86690476D02*
X115954819Y-86500000D01*
X115954819Y-86500000D02*
X116002438Y-86404762D01*
X116002438Y-86404762D02*
X116050057Y-86357143D01*
X116050057Y-86357143D02*
X116192914Y-86261905D01*
X116192914Y-86261905D02*
X116383390Y-86214286D01*
X116383390Y-86214286D02*
X116764342Y-86214286D01*
X116764342Y-86214286D02*
X116859580Y-86261905D01*
X116859580Y-86261905D02*
X116907200Y-86309524D01*
X116907200Y-86309524D02*
X116954819Y-86404762D01*
X116954819Y-86404762D02*
X116954819Y-86595238D01*
X116954819Y-86595238D02*
X116907200Y-86690476D01*
X116907200Y-86690476D02*
X116859580Y-86738095D01*
X116859580Y-86738095D02*
X116764342Y-86785714D01*
X116764342Y-86785714D02*
X116526247Y-86785714D01*
X116526247Y-86785714D02*
X116431009Y-86738095D01*
X116431009Y-86738095D02*
X116383390Y-86690476D01*
X116383390Y-86690476D02*
X116335771Y-86595238D01*
X116335771Y-86595238D02*
X116335771Y-86404762D01*
X116335771Y-86404762D02*
X116383390Y-86309524D01*
X116383390Y-86309524D02*
X116431009Y-86261905D01*
X116431009Y-86261905D02*
X116526247Y-86214286D01*
X107454819Y-56357142D02*
X106978628Y-56023809D01*
X107454819Y-55785714D02*
X106454819Y-55785714D01*
X106454819Y-55785714D02*
X106454819Y-56166666D01*
X106454819Y-56166666D02*
X106502438Y-56261904D01*
X106502438Y-56261904D02*
X106550057Y-56309523D01*
X106550057Y-56309523D02*
X106645295Y-56357142D01*
X106645295Y-56357142D02*
X106788152Y-56357142D01*
X106788152Y-56357142D02*
X106883390Y-56309523D01*
X106883390Y-56309523D02*
X106931009Y-56261904D01*
X106931009Y-56261904D02*
X106978628Y-56166666D01*
X106978628Y-56166666D02*
X106978628Y-55785714D01*
X107454819Y-57309523D02*
X107454819Y-56738095D01*
X107454819Y-57023809D02*
X106454819Y-57023809D01*
X106454819Y-57023809D02*
X106597676Y-56928571D01*
X106597676Y-56928571D02*
X106692914Y-56833333D01*
X106692914Y-56833333D02*
X106740533Y-56738095D01*
X107454819Y-58261904D02*
X107454819Y-57690476D01*
X107454819Y-57976190D02*
X106454819Y-57976190D01*
X106454819Y-57976190D02*
X106597676Y-57880952D01*
X106597676Y-57880952D02*
X106692914Y-57785714D01*
X106692914Y-57785714D02*
X106740533Y-57690476D01*
X105524819Y-62857142D02*
X105048628Y-62523809D01*
X105524819Y-62285714D02*
X104524819Y-62285714D01*
X104524819Y-62285714D02*
X104524819Y-62666666D01*
X104524819Y-62666666D02*
X104572438Y-62761904D01*
X104572438Y-62761904D02*
X104620057Y-62809523D01*
X104620057Y-62809523D02*
X104715295Y-62857142D01*
X104715295Y-62857142D02*
X104858152Y-62857142D01*
X104858152Y-62857142D02*
X104953390Y-62809523D01*
X104953390Y-62809523D02*
X105001009Y-62761904D01*
X105001009Y-62761904D02*
X105048628Y-62666666D01*
X105048628Y-62666666D02*
X105048628Y-62285714D01*
X104620057Y-63238095D02*
X104572438Y-63285714D01*
X104572438Y-63285714D02*
X104524819Y-63380952D01*
X104524819Y-63380952D02*
X104524819Y-63619047D01*
X104524819Y-63619047D02*
X104572438Y-63714285D01*
X104572438Y-63714285D02*
X104620057Y-63761904D01*
X104620057Y-63761904D02*
X104715295Y-63809523D01*
X104715295Y-63809523D02*
X104810533Y-63809523D01*
X104810533Y-63809523D02*
X104953390Y-63761904D01*
X104953390Y-63761904D02*
X105524819Y-63190476D01*
X105524819Y-63190476D02*
X105524819Y-63809523D01*
X104524819Y-64428571D02*
X104524819Y-64523809D01*
X104524819Y-64523809D02*
X104572438Y-64619047D01*
X104572438Y-64619047D02*
X104620057Y-64666666D01*
X104620057Y-64666666D02*
X104715295Y-64714285D01*
X104715295Y-64714285D02*
X104905771Y-64761904D01*
X104905771Y-64761904D02*
X105143866Y-64761904D01*
X105143866Y-64761904D02*
X105334342Y-64714285D01*
X105334342Y-64714285D02*
X105429580Y-64666666D01*
X105429580Y-64666666D02*
X105477200Y-64619047D01*
X105477200Y-64619047D02*
X105524819Y-64523809D01*
X105524819Y-64523809D02*
X105524819Y-64428571D01*
X105524819Y-64428571D02*
X105477200Y-64333333D01*
X105477200Y-64333333D02*
X105429580Y-64285714D01*
X105429580Y-64285714D02*
X105334342Y-64238095D01*
X105334342Y-64238095D02*
X105143866Y-64190476D01*
X105143866Y-64190476D02*
X104905771Y-64190476D01*
X104905771Y-64190476D02*
X104715295Y-64238095D01*
X104715295Y-64238095D02*
X104620057Y-64285714D01*
X104620057Y-64285714D02*
X104572438Y-64333333D01*
X104572438Y-64333333D02*
X104524819Y-64428571D01*
X107667857Y-95884580D02*
X107715476Y-95932200D01*
X107715476Y-95932200D02*
X107858333Y-95979819D01*
X107858333Y-95979819D02*
X107953571Y-95979819D01*
X107953571Y-95979819D02*
X108096428Y-95932200D01*
X108096428Y-95932200D02*
X108191666Y-95836961D01*
X108191666Y-95836961D02*
X108239285Y-95741723D01*
X108239285Y-95741723D02*
X108286904Y-95551247D01*
X108286904Y-95551247D02*
X108286904Y-95408390D01*
X108286904Y-95408390D02*
X108239285Y-95217914D01*
X108239285Y-95217914D02*
X108191666Y-95122676D01*
X108191666Y-95122676D02*
X108096428Y-95027438D01*
X108096428Y-95027438D02*
X107953571Y-94979819D01*
X107953571Y-94979819D02*
X107858333Y-94979819D01*
X107858333Y-94979819D02*
X107715476Y-95027438D01*
X107715476Y-95027438D02*
X107667857Y-95075057D01*
X106715476Y-95979819D02*
X107286904Y-95979819D01*
X107001190Y-95979819D02*
X107001190Y-94979819D01*
X107001190Y-94979819D02*
X107096428Y-95122676D01*
X107096428Y-95122676D02*
X107191666Y-95217914D01*
X107191666Y-95217914D02*
X107286904Y-95265533D01*
X106334523Y-95075057D02*
X106286904Y-95027438D01*
X106286904Y-95027438D02*
X106191666Y-94979819D01*
X106191666Y-94979819D02*
X105953571Y-94979819D01*
X105953571Y-94979819D02*
X105858333Y-95027438D01*
X105858333Y-95027438D02*
X105810714Y-95075057D01*
X105810714Y-95075057D02*
X105763095Y-95170295D01*
X105763095Y-95170295D02*
X105763095Y-95265533D01*
X105763095Y-95265533D02*
X105810714Y-95408390D01*
X105810714Y-95408390D02*
X106382142Y-95979819D01*
X106382142Y-95979819D02*
X105763095Y-95979819D01*
X114166666Y-56954819D02*
X114499999Y-56478628D01*
X114738094Y-56954819D02*
X114738094Y-55954819D01*
X114738094Y-55954819D02*
X114357142Y-55954819D01*
X114357142Y-55954819D02*
X114261904Y-56002438D01*
X114261904Y-56002438D02*
X114214285Y-56050057D01*
X114214285Y-56050057D02*
X114166666Y-56145295D01*
X114166666Y-56145295D02*
X114166666Y-56288152D01*
X114166666Y-56288152D02*
X114214285Y-56383390D01*
X114214285Y-56383390D02*
X114261904Y-56431009D01*
X114261904Y-56431009D02*
X114357142Y-56478628D01*
X114357142Y-56478628D02*
X114738094Y-56478628D01*
X113309523Y-56288152D02*
X113309523Y-56954819D01*
X113547618Y-55907200D02*
X113785713Y-56621485D01*
X113785713Y-56621485D02*
X113166666Y-56621485D01*
X97691666Y-104859580D02*
X97739285Y-104907200D01*
X97739285Y-104907200D02*
X97882142Y-104954819D01*
X97882142Y-104954819D02*
X97977380Y-104954819D01*
X97977380Y-104954819D02*
X98120237Y-104907200D01*
X98120237Y-104907200D02*
X98215475Y-104811961D01*
X98215475Y-104811961D02*
X98263094Y-104716723D01*
X98263094Y-104716723D02*
X98310713Y-104526247D01*
X98310713Y-104526247D02*
X98310713Y-104383390D01*
X98310713Y-104383390D02*
X98263094Y-104192914D01*
X98263094Y-104192914D02*
X98215475Y-104097676D01*
X98215475Y-104097676D02*
X98120237Y-104002438D01*
X98120237Y-104002438D02*
X97977380Y-103954819D01*
X97977380Y-103954819D02*
X97882142Y-103954819D01*
X97882142Y-103954819D02*
X97739285Y-104002438D01*
X97739285Y-104002438D02*
X97691666Y-104050057D01*
X96834523Y-104288152D02*
X96834523Y-104954819D01*
X97072618Y-103907200D02*
X97310713Y-104621485D01*
X97310713Y-104621485D02*
X96691666Y-104621485D01*
X116454819Y-91357142D02*
X115978628Y-91023809D01*
X116454819Y-90785714D02*
X115454819Y-90785714D01*
X115454819Y-90785714D02*
X115454819Y-91166666D01*
X115454819Y-91166666D02*
X115502438Y-91261904D01*
X115502438Y-91261904D02*
X115550057Y-91309523D01*
X115550057Y-91309523D02*
X115645295Y-91357142D01*
X115645295Y-91357142D02*
X115788152Y-91357142D01*
X115788152Y-91357142D02*
X115883390Y-91309523D01*
X115883390Y-91309523D02*
X115931009Y-91261904D01*
X115931009Y-91261904D02*
X115978628Y-91166666D01*
X115978628Y-91166666D02*
X115978628Y-90785714D01*
X116454819Y-92309523D02*
X116454819Y-91738095D01*
X116454819Y-92023809D02*
X115454819Y-92023809D01*
X115454819Y-92023809D02*
X115597676Y-91928571D01*
X115597676Y-91928571D02*
X115692914Y-91833333D01*
X115692914Y-91833333D02*
X115740533Y-91738095D01*
X115454819Y-92928571D02*
X115454819Y-93023809D01*
X115454819Y-93023809D02*
X115502438Y-93119047D01*
X115502438Y-93119047D02*
X115550057Y-93166666D01*
X115550057Y-93166666D02*
X115645295Y-93214285D01*
X115645295Y-93214285D02*
X115835771Y-93261904D01*
X115835771Y-93261904D02*
X116073866Y-93261904D01*
X116073866Y-93261904D02*
X116264342Y-93214285D01*
X116264342Y-93214285D02*
X116359580Y-93166666D01*
X116359580Y-93166666D02*
X116407200Y-93119047D01*
X116407200Y-93119047D02*
X116454819Y-93023809D01*
X116454819Y-93023809D02*
X116454819Y-92928571D01*
X116454819Y-92928571D02*
X116407200Y-92833333D01*
X116407200Y-92833333D02*
X116359580Y-92785714D01*
X116359580Y-92785714D02*
X116264342Y-92738095D01*
X116264342Y-92738095D02*
X116073866Y-92690476D01*
X116073866Y-92690476D02*
X115835771Y-92690476D01*
X115835771Y-92690476D02*
X115645295Y-92738095D01*
X115645295Y-92738095D02*
X115550057Y-92785714D01*
X115550057Y-92785714D02*
X115502438Y-92833333D01*
X115502438Y-92833333D02*
X115454819Y-92928571D01*
X99333333Y-69454819D02*
X99333333Y-70169104D01*
X99333333Y-70169104D02*
X99380952Y-70311961D01*
X99380952Y-70311961D02*
X99476190Y-70407200D01*
X99476190Y-70407200D02*
X99619047Y-70454819D01*
X99619047Y-70454819D02*
X99714285Y-70454819D01*
X98809523Y-70454819D02*
X98619047Y-70454819D01*
X98619047Y-70454819D02*
X98523809Y-70407200D01*
X98523809Y-70407200D02*
X98476190Y-70359580D01*
X98476190Y-70359580D02*
X98380952Y-70216723D01*
X98380952Y-70216723D02*
X98333333Y-70026247D01*
X98333333Y-70026247D02*
X98333333Y-69645295D01*
X98333333Y-69645295D02*
X98380952Y-69550057D01*
X98380952Y-69550057D02*
X98428571Y-69502438D01*
X98428571Y-69502438D02*
X98523809Y-69454819D01*
X98523809Y-69454819D02*
X98714285Y-69454819D01*
X98714285Y-69454819D02*
X98809523Y-69502438D01*
X98809523Y-69502438D02*
X98857142Y-69550057D01*
X98857142Y-69550057D02*
X98904761Y-69645295D01*
X98904761Y-69645295D02*
X98904761Y-69883390D01*
X98904761Y-69883390D02*
X98857142Y-69978628D01*
X98857142Y-69978628D02*
X98809523Y-70026247D01*
X98809523Y-70026247D02*
X98714285Y-70073866D01*
X98714285Y-70073866D02*
X98523809Y-70073866D01*
X98523809Y-70073866D02*
X98428571Y-70026247D01*
X98428571Y-70026247D02*
X98380952Y-69978628D01*
X98380952Y-69978628D02*
X98333333Y-69883390D01*
X103142857Y-55954819D02*
X103476190Y-55478628D01*
X103714285Y-55954819D02*
X103714285Y-54954819D01*
X103714285Y-54954819D02*
X103333333Y-54954819D01*
X103333333Y-54954819D02*
X103238095Y-55002438D01*
X103238095Y-55002438D02*
X103190476Y-55050057D01*
X103190476Y-55050057D02*
X103142857Y-55145295D01*
X103142857Y-55145295D02*
X103142857Y-55288152D01*
X103142857Y-55288152D02*
X103190476Y-55383390D01*
X103190476Y-55383390D02*
X103238095Y-55431009D01*
X103238095Y-55431009D02*
X103333333Y-55478628D01*
X103333333Y-55478628D02*
X103714285Y-55478628D01*
X102761904Y-55050057D02*
X102714285Y-55002438D01*
X102714285Y-55002438D02*
X102619047Y-54954819D01*
X102619047Y-54954819D02*
X102380952Y-54954819D01*
X102380952Y-54954819D02*
X102285714Y-55002438D01*
X102285714Y-55002438D02*
X102238095Y-55050057D01*
X102238095Y-55050057D02*
X102190476Y-55145295D01*
X102190476Y-55145295D02*
X102190476Y-55240533D01*
X102190476Y-55240533D02*
X102238095Y-55383390D01*
X102238095Y-55383390D02*
X102809523Y-55954819D01*
X102809523Y-55954819D02*
X102190476Y-55954819D01*
X101238095Y-55954819D02*
X101809523Y-55954819D01*
X101523809Y-55954819D02*
X101523809Y-54954819D01*
X101523809Y-54954819D02*
X101619047Y-55097676D01*
X101619047Y-55097676D02*
X101714285Y-55192914D01*
X101714285Y-55192914D02*
X101809523Y-55240533D01*
X110333333Y-101611009D02*
X110666666Y-101611009D01*
X110666666Y-102134819D02*
X110666666Y-101134819D01*
X110666666Y-101134819D02*
X110190476Y-101134819D01*
X109285714Y-102134819D02*
X109857142Y-102134819D01*
X109571428Y-102134819D02*
X109571428Y-101134819D01*
X109571428Y-101134819D02*
X109666666Y-101277676D01*
X109666666Y-101277676D02*
X109761904Y-101372914D01*
X109761904Y-101372914D02*
X109857142Y-101420533D01*
X99333333Y-67204819D02*
X99333333Y-67919104D01*
X99333333Y-67919104D02*
X99380952Y-68061961D01*
X99380952Y-68061961D02*
X99476190Y-68157200D01*
X99476190Y-68157200D02*
X99619047Y-68204819D01*
X99619047Y-68204819D02*
X99714285Y-68204819D01*
X98380952Y-67204819D02*
X98857142Y-67204819D01*
X98857142Y-67204819D02*
X98904761Y-67681009D01*
X98904761Y-67681009D02*
X98857142Y-67633390D01*
X98857142Y-67633390D02*
X98761904Y-67585771D01*
X98761904Y-67585771D02*
X98523809Y-67585771D01*
X98523809Y-67585771D02*
X98428571Y-67633390D01*
X98428571Y-67633390D02*
X98380952Y-67681009D01*
X98380952Y-67681009D02*
X98333333Y-67776247D01*
X98333333Y-67776247D02*
X98333333Y-68014342D01*
X98333333Y-68014342D02*
X98380952Y-68109580D01*
X98380952Y-68109580D02*
X98428571Y-68157200D01*
X98428571Y-68157200D02*
X98523809Y-68204819D01*
X98523809Y-68204819D02*
X98761904Y-68204819D01*
X98761904Y-68204819D02*
X98857142Y-68157200D01*
X98857142Y-68157200D02*
X98904761Y-68109580D01*
X106213094Y-102479819D02*
X106213094Y-101479819D01*
X106213094Y-101479819D02*
X105974999Y-101479819D01*
X105974999Y-101479819D02*
X105832142Y-101527438D01*
X105832142Y-101527438D02*
X105736904Y-101622676D01*
X105736904Y-101622676D02*
X105689285Y-101717914D01*
X105689285Y-101717914D02*
X105641666Y-101908390D01*
X105641666Y-101908390D02*
X105641666Y-102051247D01*
X105641666Y-102051247D02*
X105689285Y-102241723D01*
X105689285Y-102241723D02*
X105736904Y-102336961D01*
X105736904Y-102336961D02*
X105832142Y-102432200D01*
X105832142Y-102432200D02*
X105974999Y-102479819D01*
X105974999Y-102479819D02*
X106213094Y-102479819D01*
X105165475Y-102479819D02*
X104974999Y-102479819D01*
X104974999Y-102479819D02*
X104879761Y-102432200D01*
X104879761Y-102432200D02*
X104832142Y-102384580D01*
X104832142Y-102384580D02*
X104736904Y-102241723D01*
X104736904Y-102241723D02*
X104689285Y-102051247D01*
X104689285Y-102051247D02*
X104689285Y-101670295D01*
X104689285Y-101670295D02*
X104736904Y-101575057D01*
X104736904Y-101575057D02*
X104784523Y-101527438D01*
X104784523Y-101527438D02*
X104879761Y-101479819D01*
X104879761Y-101479819D02*
X105070237Y-101479819D01*
X105070237Y-101479819D02*
X105165475Y-101527438D01*
X105165475Y-101527438D02*
X105213094Y-101575057D01*
X105213094Y-101575057D02*
X105260713Y-101670295D01*
X105260713Y-101670295D02*
X105260713Y-101908390D01*
X105260713Y-101908390D02*
X105213094Y-102003628D01*
X105213094Y-102003628D02*
X105165475Y-102051247D01*
X105165475Y-102051247D02*
X105070237Y-102098866D01*
X105070237Y-102098866D02*
X104879761Y-102098866D01*
X104879761Y-102098866D02*
X104784523Y-102051247D01*
X104784523Y-102051247D02*
X104736904Y-102003628D01*
X104736904Y-102003628D02*
X104689285Y-101908390D01*
X108834580Y-101857142D02*
X108882200Y-101809523D01*
X108882200Y-101809523D02*
X108929819Y-101666666D01*
X108929819Y-101666666D02*
X108929819Y-101571428D01*
X108929819Y-101571428D02*
X108882200Y-101428571D01*
X108882200Y-101428571D02*
X108786961Y-101333333D01*
X108786961Y-101333333D02*
X108691723Y-101285714D01*
X108691723Y-101285714D02*
X108501247Y-101238095D01*
X108501247Y-101238095D02*
X108358390Y-101238095D01*
X108358390Y-101238095D02*
X108167914Y-101285714D01*
X108167914Y-101285714D02*
X108072676Y-101333333D01*
X108072676Y-101333333D02*
X107977438Y-101428571D01*
X107977438Y-101428571D02*
X107929819Y-101571428D01*
X107929819Y-101571428D02*
X107929819Y-101666666D01*
X107929819Y-101666666D02*
X107977438Y-101809523D01*
X107977438Y-101809523D02*
X108025057Y-101857142D01*
X108929819Y-102809523D02*
X108929819Y-102238095D01*
X108929819Y-102523809D02*
X107929819Y-102523809D01*
X107929819Y-102523809D02*
X108072676Y-102428571D01*
X108072676Y-102428571D02*
X108167914Y-102333333D01*
X108167914Y-102333333D02*
X108215533Y-102238095D01*
X107929819Y-103142857D02*
X107929819Y-103761904D01*
X107929819Y-103761904D02*
X108310771Y-103428571D01*
X108310771Y-103428571D02*
X108310771Y-103571428D01*
X108310771Y-103571428D02*
X108358390Y-103666666D01*
X108358390Y-103666666D02*
X108406009Y-103714285D01*
X108406009Y-103714285D02*
X108501247Y-103761904D01*
X108501247Y-103761904D02*
X108739342Y-103761904D01*
X108739342Y-103761904D02*
X108834580Y-103714285D01*
X108834580Y-103714285D02*
X108882200Y-103666666D01*
X108882200Y-103666666D02*
X108929819Y-103571428D01*
X108929819Y-103571428D02*
X108929819Y-103285714D01*
X108929819Y-103285714D02*
X108882200Y-103190476D01*
X108882200Y-103190476D02*
X108834580Y-103142857D01*
X123261904Y-103954819D02*
X123261904Y-104764342D01*
X123261904Y-104764342D02*
X123214285Y-104859580D01*
X123214285Y-104859580D02*
X123166666Y-104907200D01*
X123166666Y-104907200D02*
X123071428Y-104954819D01*
X123071428Y-104954819D02*
X122880952Y-104954819D01*
X122880952Y-104954819D02*
X122785714Y-104907200D01*
X122785714Y-104907200D02*
X122738095Y-104859580D01*
X122738095Y-104859580D02*
X122690476Y-104764342D01*
X122690476Y-104764342D02*
X122690476Y-103954819D01*
X122309523Y-103954819D02*
X121690476Y-103954819D01*
X121690476Y-103954819D02*
X122023809Y-104335771D01*
X122023809Y-104335771D02*
X121880952Y-104335771D01*
X121880952Y-104335771D02*
X121785714Y-104383390D01*
X121785714Y-104383390D02*
X121738095Y-104431009D01*
X121738095Y-104431009D02*
X121690476Y-104526247D01*
X121690476Y-104526247D02*
X121690476Y-104764342D01*
X121690476Y-104764342D02*
X121738095Y-104859580D01*
X121738095Y-104859580D02*
X121785714Y-104907200D01*
X121785714Y-104907200D02*
X121880952Y-104954819D01*
X121880952Y-104954819D02*
X122166666Y-104954819D01*
X122166666Y-104954819D02*
X122261904Y-104907200D01*
X122261904Y-104907200D02*
X122309523Y-104859580D01*
X109884819Y-62857142D02*
X109408628Y-62523809D01*
X109884819Y-62285714D02*
X108884819Y-62285714D01*
X108884819Y-62285714D02*
X108884819Y-62666666D01*
X108884819Y-62666666D02*
X108932438Y-62761904D01*
X108932438Y-62761904D02*
X108980057Y-62809523D01*
X108980057Y-62809523D02*
X109075295Y-62857142D01*
X109075295Y-62857142D02*
X109218152Y-62857142D01*
X109218152Y-62857142D02*
X109313390Y-62809523D01*
X109313390Y-62809523D02*
X109361009Y-62761904D01*
X109361009Y-62761904D02*
X109408628Y-62666666D01*
X109408628Y-62666666D02*
X109408628Y-62285714D01*
X108980057Y-63238095D02*
X108932438Y-63285714D01*
X108932438Y-63285714D02*
X108884819Y-63380952D01*
X108884819Y-63380952D02*
X108884819Y-63619047D01*
X108884819Y-63619047D02*
X108932438Y-63714285D01*
X108932438Y-63714285D02*
X108980057Y-63761904D01*
X108980057Y-63761904D02*
X109075295Y-63809523D01*
X109075295Y-63809523D02*
X109170533Y-63809523D01*
X109170533Y-63809523D02*
X109313390Y-63761904D01*
X109313390Y-63761904D02*
X109884819Y-63190476D01*
X109884819Y-63190476D02*
X109884819Y-63809523D01*
X108980057Y-64190476D02*
X108932438Y-64238095D01*
X108932438Y-64238095D02*
X108884819Y-64333333D01*
X108884819Y-64333333D02*
X108884819Y-64571428D01*
X108884819Y-64571428D02*
X108932438Y-64666666D01*
X108932438Y-64666666D02*
X108980057Y-64714285D01*
X108980057Y-64714285D02*
X109075295Y-64761904D01*
X109075295Y-64761904D02*
X109170533Y-64761904D01*
X109170533Y-64761904D02*
X109313390Y-64714285D01*
X109313390Y-64714285D02*
X109884819Y-64142857D01*
X109884819Y-64142857D02*
X109884819Y-64761904D01*
X127359580Y-83833333D02*
X127407200Y-83785714D01*
X127407200Y-83785714D02*
X127454819Y-83642857D01*
X127454819Y-83642857D02*
X127454819Y-83547619D01*
X127454819Y-83547619D02*
X127407200Y-83404762D01*
X127407200Y-83404762D02*
X127311961Y-83309524D01*
X127311961Y-83309524D02*
X127216723Y-83261905D01*
X127216723Y-83261905D02*
X127026247Y-83214286D01*
X127026247Y-83214286D02*
X126883390Y-83214286D01*
X126883390Y-83214286D02*
X126692914Y-83261905D01*
X126692914Y-83261905D02*
X126597676Y-83309524D01*
X126597676Y-83309524D02*
X126502438Y-83404762D01*
X126502438Y-83404762D02*
X126454819Y-83547619D01*
X126454819Y-83547619D02*
X126454819Y-83642857D01*
X126454819Y-83642857D02*
X126502438Y-83785714D01*
X126502438Y-83785714D02*
X126550057Y-83833333D01*
X126454819Y-84690476D02*
X126454819Y-84500000D01*
X126454819Y-84500000D02*
X126502438Y-84404762D01*
X126502438Y-84404762D02*
X126550057Y-84357143D01*
X126550057Y-84357143D02*
X126692914Y-84261905D01*
X126692914Y-84261905D02*
X126883390Y-84214286D01*
X126883390Y-84214286D02*
X127264342Y-84214286D01*
X127264342Y-84214286D02*
X127359580Y-84261905D01*
X127359580Y-84261905D02*
X127407200Y-84309524D01*
X127407200Y-84309524D02*
X127454819Y-84404762D01*
X127454819Y-84404762D02*
X127454819Y-84595238D01*
X127454819Y-84595238D02*
X127407200Y-84690476D01*
X127407200Y-84690476D02*
X127359580Y-84738095D01*
X127359580Y-84738095D02*
X127264342Y-84785714D01*
X127264342Y-84785714D02*
X127026247Y-84785714D01*
X127026247Y-84785714D02*
X126931009Y-84738095D01*
X126931009Y-84738095D02*
X126883390Y-84690476D01*
X126883390Y-84690476D02*
X126835771Y-84595238D01*
X126835771Y-84595238D02*
X126835771Y-84404762D01*
X126835771Y-84404762D02*
X126883390Y-84309524D01*
X126883390Y-84309524D02*
X126931009Y-84261905D01*
X126931009Y-84261905D02*
X127026247Y-84214286D01*
X95454819Y-95857142D02*
X94978628Y-95523809D01*
X95454819Y-95285714D02*
X94454819Y-95285714D01*
X94454819Y-95285714D02*
X94454819Y-95666666D01*
X94454819Y-95666666D02*
X94502438Y-95761904D01*
X94502438Y-95761904D02*
X94550057Y-95809523D01*
X94550057Y-95809523D02*
X94645295Y-95857142D01*
X94645295Y-95857142D02*
X94788152Y-95857142D01*
X94788152Y-95857142D02*
X94883390Y-95809523D01*
X94883390Y-95809523D02*
X94931009Y-95761904D01*
X94931009Y-95761904D02*
X94978628Y-95666666D01*
X94978628Y-95666666D02*
X94978628Y-95285714D01*
X95454819Y-96809523D02*
X95454819Y-96238095D01*
X95454819Y-96523809D02*
X94454819Y-96523809D01*
X94454819Y-96523809D02*
X94597676Y-96428571D01*
X94597676Y-96428571D02*
X94692914Y-96333333D01*
X94692914Y-96333333D02*
X94740533Y-96238095D01*
X94454819Y-97714285D02*
X94454819Y-97238095D01*
X94454819Y-97238095D02*
X94931009Y-97190476D01*
X94931009Y-97190476D02*
X94883390Y-97238095D01*
X94883390Y-97238095D02*
X94835771Y-97333333D01*
X94835771Y-97333333D02*
X94835771Y-97571428D01*
X94835771Y-97571428D02*
X94883390Y-97666666D01*
X94883390Y-97666666D02*
X94931009Y-97714285D01*
X94931009Y-97714285D02*
X95026247Y-97761904D01*
X95026247Y-97761904D02*
X95264342Y-97761904D01*
X95264342Y-97761904D02*
X95359580Y-97714285D01*
X95359580Y-97714285D02*
X95407200Y-97666666D01*
X95407200Y-97666666D02*
X95454819Y-97571428D01*
X95454819Y-97571428D02*
X95454819Y-97333333D01*
X95454819Y-97333333D02*
X95407200Y-97238095D01*
X95407200Y-97238095D02*
X95359580Y-97190476D01*
X124454819Y-97833333D02*
X123978628Y-97500000D01*
X124454819Y-97261905D02*
X123454819Y-97261905D01*
X123454819Y-97261905D02*
X123454819Y-97642857D01*
X123454819Y-97642857D02*
X123502438Y-97738095D01*
X123502438Y-97738095D02*
X123550057Y-97785714D01*
X123550057Y-97785714D02*
X123645295Y-97833333D01*
X123645295Y-97833333D02*
X123788152Y-97833333D01*
X123788152Y-97833333D02*
X123883390Y-97785714D01*
X123883390Y-97785714D02*
X123931009Y-97738095D01*
X123931009Y-97738095D02*
X123978628Y-97642857D01*
X123978628Y-97642857D02*
X123978628Y-97261905D01*
X123883390Y-98404762D02*
X123835771Y-98309524D01*
X123835771Y-98309524D02*
X123788152Y-98261905D01*
X123788152Y-98261905D02*
X123692914Y-98214286D01*
X123692914Y-98214286D02*
X123645295Y-98214286D01*
X123645295Y-98214286D02*
X123550057Y-98261905D01*
X123550057Y-98261905D02*
X123502438Y-98309524D01*
X123502438Y-98309524D02*
X123454819Y-98404762D01*
X123454819Y-98404762D02*
X123454819Y-98595238D01*
X123454819Y-98595238D02*
X123502438Y-98690476D01*
X123502438Y-98690476D02*
X123550057Y-98738095D01*
X123550057Y-98738095D02*
X123645295Y-98785714D01*
X123645295Y-98785714D02*
X123692914Y-98785714D01*
X123692914Y-98785714D02*
X123788152Y-98738095D01*
X123788152Y-98738095D02*
X123835771Y-98690476D01*
X123835771Y-98690476D02*
X123883390Y-98595238D01*
X123883390Y-98595238D02*
X123883390Y-98404762D01*
X123883390Y-98404762D02*
X123931009Y-98309524D01*
X123931009Y-98309524D02*
X123978628Y-98261905D01*
X123978628Y-98261905D02*
X124073866Y-98214286D01*
X124073866Y-98214286D02*
X124264342Y-98214286D01*
X124264342Y-98214286D02*
X124359580Y-98261905D01*
X124359580Y-98261905D02*
X124407200Y-98309524D01*
X124407200Y-98309524D02*
X124454819Y-98404762D01*
X124454819Y-98404762D02*
X124454819Y-98595238D01*
X124454819Y-98595238D02*
X124407200Y-98690476D01*
X124407200Y-98690476D02*
X124359580Y-98738095D01*
X124359580Y-98738095D02*
X124264342Y-98785714D01*
X124264342Y-98785714D02*
X124073866Y-98785714D01*
X124073866Y-98785714D02*
X123978628Y-98738095D01*
X123978628Y-98738095D02*
X123931009Y-98690476D01*
X123931009Y-98690476D02*
X123883390Y-98595238D01*
X100761904Y-93954819D02*
X100761904Y-94764342D01*
X100761904Y-94764342D02*
X100714285Y-94859580D01*
X100714285Y-94859580D02*
X100666666Y-94907200D01*
X100666666Y-94907200D02*
X100571428Y-94954819D01*
X100571428Y-94954819D02*
X100380952Y-94954819D01*
X100380952Y-94954819D02*
X100285714Y-94907200D01*
X100285714Y-94907200D02*
X100238095Y-94859580D01*
X100238095Y-94859580D02*
X100190476Y-94764342D01*
X100190476Y-94764342D02*
X100190476Y-93954819D01*
X99285714Y-94288152D02*
X99285714Y-94954819D01*
X99523809Y-93907200D02*
X99761904Y-94621485D01*
X99761904Y-94621485D02*
X99142857Y-94621485D01*
D11*
%TO.C,R19*%
X112977500Y-86237258D02*
X112977500Y-85762742D01*
X114022500Y-86237258D02*
X114022500Y-85762742D01*
%TO.C,R13*%
X106262742Y-106977500D02*
X106737258Y-106977500D01*
X106262742Y-108022500D02*
X106737258Y-108022500D01*
%TO.C,R14*%
X122477500Y-63762742D02*
X122477500Y-64237258D01*
X123522500Y-63762742D02*
X123522500Y-64237258D01*
%TO.C,R2*%
X116977500Y-93737258D02*
X116977500Y-93262742D01*
X118022500Y-93737258D02*
X118022500Y-93262742D01*
%TO.C,R5*%
X128237258Y-102477500D02*
X127762742Y-102477500D01*
X128237258Y-103522500D02*
X127762742Y-103522500D01*
%TO.C,R18*%
X98877500Y-61162742D02*
X98877500Y-61637258D01*
X99922500Y-61162742D02*
X99922500Y-61637258D01*
%TO.C,C2*%
X123159420Y-71490000D02*
X123440580Y-71490000D01*
X123159420Y-72510000D02*
X123440580Y-72510000D01*
%TO.C,R1*%
X129577500Y-99037258D02*
X129577500Y-98562742D01*
X130622500Y-99037258D02*
X130622500Y-98562742D01*
%TO.C,C11*%
X112490000Y-93359420D02*
X112490000Y-93640580D01*
X113510000Y-93359420D02*
X113510000Y-93640580D01*
%TO.C,R16*%
X95977500Y-101712258D02*
X95977500Y-101237742D01*
X97022500Y-101712258D02*
X97022500Y-101237742D01*
%TO.C,C7*%
X118090000Y-102711252D02*
X118090000Y-101288748D01*
X119910000Y-102711252D02*
X119910000Y-101288748D01*
%TO.C,R3*%
X108477500Y-56262742D02*
X108477500Y-56737258D01*
X109522500Y-56262742D02*
X109522500Y-56737258D01*
%TO.C,L1*%
X97950000Y-99950000D02*
X97950000Y-105050000D01*
X103050000Y-99950000D02*
X103050000Y-105050000D01*
%TO.C,R17*%
X118977500Y-98474516D02*
X118977500Y-98000000D01*
X120022500Y-98474516D02*
X120022500Y-98000000D01*
%TO.C,R9*%
X115477500Y-95237258D02*
X115477500Y-94762742D01*
X116522500Y-95237258D02*
X116522500Y-94762742D01*
%TO.C,U2*%
X122500000Y-90940000D02*
X120550000Y-90940000D01*
X122500000Y-90940000D02*
X125950000Y-90940000D01*
X122500000Y-96060000D02*
X120550000Y-96060000D01*
X122500000Y-96060000D02*
X124450000Y-96060000D01*
%TO.C,C8*%
X125090000Y-100211252D02*
X125090000Y-98788748D01*
X126910000Y-100211252D02*
X126910000Y-98788748D01*
%TO.C,C1*%
X126490000Y-93359420D02*
X126490000Y-93640580D01*
X127510000Y-93359420D02*
X127510000Y-93640580D01*
%TO.C,U1*%
X116390000Y-74390000D02*
X116840000Y-74390000D01*
X116390000Y-74840000D02*
X116390000Y-74390000D01*
X116390000Y-81160000D02*
X116390000Y-81610000D01*
X116390000Y-81610000D02*
X116840000Y-81610000D01*
X123160000Y-81610000D02*
X123160000Y-82900000D01*
X123610000Y-74390000D02*
X123160000Y-74390000D01*
X123610000Y-74840000D02*
X123610000Y-74390000D01*
X123610000Y-81160000D02*
X123610000Y-81610000D01*
X123610000Y-81610000D02*
X123160000Y-81610000D01*
%TO.C,C5*%
X112990000Y-74640580D02*
X112990000Y-74359420D01*
X114010000Y-74640580D02*
X114010000Y-74359420D01*
%TO.C,C3*%
X96665000Y-99082836D02*
X96665000Y-98867164D01*
X97385000Y-99082836D02*
X97385000Y-98867164D01*
%TO.C,R7*%
X104977500Y-86262742D02*
X104977500Y-86737258D01*
X106022500Y-86262742D02*
X106022500Y-86737258D01*
%TO.C,X1*%
X118500000Y-86700000D02*
X118500000Y-86300000D01*
X118500000Y-88700000D02*
X118500000Y-86700000D01*
X118700000Y-86700000D02*
X118700000Y-86300000D01*
X118700000Y-86700000D02*
X118700000Y-88700000D01*
X118700000Y-88700000D02*
X119700000Y-88700000D01*
X119700000Y-86300000D02*
X118700000Y-86300000D01*
X119700000Y-86300000D02*
X119700000Y-85900000D01*
X121500000Y-88700000D02*
X122300000Y-88700000D01*
X122300000Y-86300000D02*
X121500000Y-86300000D01*
X122300000Y-86700000D02*
X122300000Y-86300000D01*
X122300000Y-88700000D02*
X122300000Y-86700000D01*
%TO.C,R12*%
X107977500Y-60237258D02*
X107977500Y-59762742D01*
X109022500Y-60237258D02*
X109022500Y-59762742D01*
%TO.C,Q1*%
X102940000Y-60500000D02*
X102940000Y-58825000D01*
X102940000Y-60500000D02*
X102940000Y-61150000D01*
X106060000Y-60500000D02*
X106060000Y-59850000D01*
X106060000Y-60500000D02*
X106060000Y-61150000D01*
%TO.C,R6*%
X114477500Y-85762742D02*
X114477500Y-86237258D01*
X115522500Y-85762742D02*
X115522500Y-86237258D01*
%TO.C,R11*%
X106477500Y-60237258D02*
X106477500Y-59762742D01*
X107522500Y-60237258D02*
X107522500Y-59762742D01*
%TO.C,R20*%
X105977500Y-63262742D02*
X105977500Y-63737258D01*
X107022500Y-63262742D02*
X107022500Y-63737258D01*
%TO.C,C12*%
X106313748Y-96590000D02*
X107736252Y-96590000D01*
X106313748Y-98410000D02*
X107736252Y-98410000D01*
%TO.C,R4*%
X111737258Y-55977500D02*
X111262742Y-55977500D01*
X111737258Y-57022500D02*
X111262742Y-57022500D01*
%TO.C,C4*%
X97607836Y-103140000D02*
X97392164Y-103140000D01*
X97607836Y-103860000D02*
X97392164Y-103860000D01*
%TO.C,R10*%
X113977500Y-93737258D02*
X113977500Y-93262742D01*
X115022500Y-93737258D02*
X115022500Y-93262742D01*
%TO.C,R21*%
X102262742Y-56477500D02*
X102737258Y-56477500D01*
X102262742Y-57522500D02*
X102737258Y-57522500D01*
%TO.C,F1*%
X110602064Y-102590000D02*
X109397936Y-102590000D01*
X110602064Y-104410000D02*
X109397936Y-104410000D01*
%TO.C,D9*%
X103300000Y-99000000D02*
X103300000Y-101000000D01*
X103300000Y-99000000D02*
X106500000Y-99000000D01*
X106500000Y-101000000D02*
X103300000Y-101000000D01*
%TO.C,C13*%
X104788748Y-101590000D02*
X106211252Y-101590000D01*
X104788748Y-103410000D02*
X106211252Y-103410000D01*
%TO.C,U3*%
X122500000Y-100440000D02*
X121850000Y-100440000D01*
X122500000Y-100440000D02*
X124175000Y-100440000D01*
X122500000Y-103560000D02*
X121850000Y-103560000D01*
X122500000Y-103560000D02*
X123150000Y-103560000D01*
%TO.C,R22*%
X107477500Y-63737258D02*
X107477500Y-63262742D01*
X108522500Y-63737258D02*
X108522500Y-63262742D01*
%TO.C,C6*%
X126490000Y-81359420D02*
X126490000Y-81640580D01*
X127510000Y-81359420D02*
X127510000Y-81640580D01*
%TO.C,R15*%
X95977500Y-96737258D02*
X95977500Y-96262742D01*
X97022500Y-96737258D02*
X97022500Y-96262742D01*
%TO.C,R8*%
X121977500Y-98474516D02*
X121977500Y-98000000D01*
X123022500Y-98474516D02*
X123022500Y-98000000D01*
%TO.C,U4*%
X100000000Y-95440000D02*
X99200000Y-95440000D01*
X100000000Y-95440000D02*
X100800000Y-95440000D01*
X100000000Y-98560000D02*
X98200000Y-98560000D01*
X100000000Y-98560000D02*
X100800000Y-98560000D01*
%TD*%
%LPC*%
D10*
X126550057Y-59333333D02*
X126502438Y-59380952D01*
X126502438Y-59380952D02*
X126454819Y-59476190D01*
X126454819Y-59476190D02*
X126454819Y-59714285D01*
X126454819Y-59714285D02*
X126502438Y-59809523D01*
X126502438Y-59809523D02*
X126550057Y-59857142D01*
X126550057Y-59857142D02*
X126645295Y-59904761D01*
X126645295Y-59904761D02*
X126740533Y-59904761D01*
X126740533Y-59904761D02*
X126883390Y-59857142D01*
X126883390Y-59857142D02*
X127454819Y-59285714D01*
X127454819Y-59285714D02*
X127454819Y-59904761D01*
X126454819Y-60523809D02*
X126454819Y-60619047D01*
X126454819Y-60619047D02*
X126502438Y-60714285D01*
X126502438Y-60714285D02*
X126550057Y-60761904D01*
X126550057Y-60761904D02*
X126645295Y-60809523D01*
X126645295Y-60809523D02*
X126835771Y-60857142D01*
X126835771Y-60857142D02*
X127073866Y-60857142D01*
X127073866Y-60857142D02*
X127264342Y-60809523D01*
X127264342Y-60809523D02*
X127359580Y-60761904D01*
X127359580Y-60761904D02*
X127407200Y-60714285D01*
X127407200Y-60714285D02*
X127454819Y-60619047D01*
X127454819Y-60619047D02*
X127454819Y-60523809D01*
X127454819Y-60523809D02*
X127407200Y-60428571D01*
X127407200Y-60428571D02*
X127359580Y-60380952D01*
X127359580Y-60380952D02*
X127264342Y-60333333D01*
X127264342Y-60333333D02*
X127073866Y-60285714D01*
X127073866Y-60285714D02*
X126835771Y-60285714D01*
X126835771Y-60285714D02*
X126645295Y-60333333D01*
X126645295Y-60333333D02*
X126550057Y-60380952D01*
X126550057Y-60380952D02*
X126502438Y-60428571D01*
X126502438Y-60428571D02*
X126454819Y-60523809D01*
X126550057Y-61238095D02*
X126502438Y-61285714D01*
X126502438Y-61285714D02*
X126454819Y-61380952D01*
X126454819Y-61380952D02*
X126454819Y-61619047D01*
X126454819Y-61619047D02*
X126502438Y-61714285D01*
X126502438Y-61714285D02*
X126550057Y-61761904D01*
X126550057Y-61761904D02*
X126645295Y-61809523D01*
X126645295Y-61809523D02*
X126740533Y-61809523D01*
X126740533Y-61809523D02*
X126883390Y-61761904D01*
X126883390Y-61761904D02*
X127454819Y-61190476D01*
X127454819Y-61190476D02*
X127454819Y-61809523D01*
X126788152Y-62666666D02*
X127454819Y-62666666D01*
X126407200Y-62428571D02*
X127121485Y-62190476D01*
X127121485Y-62190476D02*
X127121485Y-62809523D01*
X126407200Y-63904761D02*
X127692914Y-63047619D01*
X127454819Y-64761904D02*
X127454819Y-64190476D01*
X127454819Y-64476190D02*
X126454819Y-64476190D01*
X126454819Y-64476190D02*
X126597676Y-64380952D01*
X126597676Y-64380952D02*
X126692914Y-64285714D01*
X126692914Y-64285714D02*
X126740533Y-64190476D01*
X127454819Y-65714285D02*
X127454819Y-65142857D01*
X127454819Y-65428571D02*
X126454819Y-65428571D01*
X126454819Y-65428571D02*
X126597676Y-65333333D01*
X126597676Y-65333333D02*
X126692914Y-65238095D01*
X126692914Y-65238095D02*
X126740533Y-65142857D01*
X126407200Y-66857142D02*
X127692914Y-66000000D01*
X126550057Y-67142857D02*
X126502438Y-67190476D01*
X126502438Y-67190476D02*
X126454819Y-67285714D01*
X126454819Y-67285714D02*
X126454819Y-67523809D01*
X126454819Y-67523809D02*
X126502438Y-67619047D01*
X126502438Y-67619047D02*
X126550057Y-67666666D01*
X126550057Y-67666666D02*
X126645295Y-67714285D01*
X126645295Y-67714285D02*
X126740533Y-67714285D01*
X126740533Y-67714285D02*
X126883390Y-67666666D01*
X126883390Y-67666666D02*
X127454819Y-67095238D01*
X127454819Y-67095238D02*
X127454819Y-67714285D01*
X126454819Y-68333333D02*
X126454819Y-68428571D01*
X126454819Y-68428571D02*
X126502438Y-68523809D01*
X126502438Y-68523809D02*
X126550057Y-68571428D01*
X126550057Y-68571428D02*
X126645295Y-68619047D01*
X126645295Y-68619047D02*
X126835771Y-68666666D01*
X126835771Y-68666666D02*
X127073866Y-68666666D01*
X127073866Y-68666666D02*
X127264342Y-68619047D01*
X127264342Y-68619047D02*
X127359580Y-68571428D01*
X127359580Y-68571428D02*
X127407200Y-68523809D01*
X127407200Y-68523809D02*
X127454819Y-68428571D01*
X127454819Y-68428571D02*
X127454819Y-68333333D01*
X127454819Y-68333333D02*
X127407200Y-68238095D01*
X127407200Y-68238095D02*
X127359580Y-68190476D01*
X127359580Y-68190476D02*
X127264342Y-68142857D01*
X127264342Y-68142857D02*
X127073866Y-68095238D01*
X127073866Y-68095238D02*
X126835771Y-68095238D01*
X126835771Y-68095238D02*
X126645295Y-68142857D01*
X126645295Y-68142857D02*
X126550057Y-68190476D01*
X126550057Y-68190476D02*
X126502438Y-68238095D01*
X126502438Y-68238095D02*
X126454819Y-68333333D01*
X125907200Y-61642857D02*
X125954819Y-61738095D01*
X125954819Y-61738095D02*
X125954819Y-61928571D01*
X125954819Y-61928571D02*
X125907200Y-62023809D01*
X125907200Y-62023809D02*
X125811961Y-62071428D01*
X125811961Y-62071428D02*
X125764342Y-62071428D01*
X125764342Y-62071428D02*
X125669104Y-62023809D01*
X125669104Y-62023809D02*
X125621485Y-61928571D01*
X125621485Y-61928571D02*
X125621485Y-61785714D01*
X125621485Y-61785714D02*
X125573866Y-61690476D01*
X125573866Y-61690476D02*
X125478628Y-61642857D01*
X125478628Y-61642857D02*
X125431009Y-61642857D01*
X125431009Y-61642857D02*
X125335771Y-61690476D01*
X125335771Y-61690476D02*
X125288152Y-61785714D01*
X125288152Y-61785714D02*
X125288152Y-61928571D01*
X125288152Y-61928571D02*
X125335771Y-62023809D01*
X125288152Y-62928571D02*
X125954819Y-62928571D01*
X125288152Y-62500000D02*
X125811961Y-62500000D01*
X125811961Y-62500000D02*
X125907200Y-62547619D01*
X125907200Y-62547619D02*
X125954819Y-62642857D01*
X125954819Y-62642857D02*
X125954819Y-62785714D01*
X125954819Y-62785714D02*
X125907200Y-62880952D01*
X125907200Y-62880952D02*
X125859580Y-62928571D01*
X125954819Y-63404762D02*
X124954819Y-63404762D01*
X125335771Y-63404762D02*
X125288152Y-63500000D01*
X125288152Y-63500000D02*
X125288152Y-63690476D01*
X125288152Y-63690476D02*
X125335771Y-63785714D01*
X125335771Y-63785714D02*
X125383390Y-63833333D01*
X125383390Y-63833333D02*
X125478628Y-63880952D01*
X125478628Y-63880952D02*
X125764342Y-63880952D01*
X125764342Y-63880952D02*
X125859580Y-63833333D01*
X125859580Y-63833333D02*
X125907200Y-63785714D01*
X125907200Y-63785714D02*
X125954819Y-63690476D01*
X125954819Y-63690476D02*
X125954819Y-63500000D01*
X125954819Y-63500000D02*
X125907200Y-63404762D01*
X125288152Y-64976191D02*
X125954819Y-65214286D01*
X125954819Y-65214286D02*
X125288152Y-65452381D01*
X125288152Y-66261905D02*
X125954819Y-66261905D01*
X124907200Y-66023810D02*
X125621485Y-65785715D01*
X125621485Y-65785715D02*
X125621485Y-66404762D01*
X131649847Y-57142856D02*
X130649847Y-57142856D01*
X131602228Y-57142856D02*
X131649847Y-57047618D01*
X131649847Y-57047618D02*
X131649847Y-56857142D01*
X131649847Y-56857142D02*
X131602228Y-56761904D01*
X131602228Y-56761904D02*
X131554608Y-56714285D01*
X131554608Y-56714285D02*
X131459370Y-56666666D01*
X131459370Y-56666666D02*
X131173656Y-56666666D01*
X131173656Y-56666666D02*
X131078418Y-56714285D01*
X131078418Y-56714285D02*
X131030799Y-56761904D01*
X131030799Y-56761904D02*
X130983180Y-56857142D01*
X130983180Y-56857142D02*
X130983180Y-57047618D01*
X130983180Y-57047618D02*
X131030799Y-57142856D01*
X131602228Y-57999999D02*
X131649847Y-57904761D01*
X131649847Y-57904761D02*
X131649847Y-57714285D01*
X131649847Y-57714285D02*
X131602228Y-57619047D01*
X131602228Y-57619047D02*
X131506989Y-57571428D01*
X131506989Y-57571428D02*
X131126037Y-57571428D01*
X131126037Y-57571428D02*
X131030799Y-57619047D01*
X131030799Y-57619047D02*
X130983180Y-57714285D01*
X130983180Y-57714285D02*
X130983180Y-57904761D01*
X130983180Y-57904761D02*
X131030799Y-57999999D01*
X131030799Y-57999999D02*
X131126037Y-58047618D01*
X131126037Y-58047618D02*
X131221275Y-58047618D01*
X131221275Y-58047618D02*
X131316513Y-57571428D01*
X131602228Y-58428571D02*
X131649847Y-58523809D01*
X131649847Y-58523809D02*
X131649847Y-58714285D01*
X131649847Y-58714285D02*
X131602228Y-58809523D01*
X131602228Y-58809523D02*
X131506989Y-58857142D01*
X131506989Y-58857142D02*
X131459370Y-58857142D01*
X131459370Y-58857142D02*
X131364132Y-58809523D01*
X131364132Y-58809523D02*
X131316513Y-58714285D01*
X131316513Y-58714285D02*
X131316513Y-58571428D01*
X131316513Y-58571428D02*
X131268894Y-58476190D01*
X131268894Y-58476190D02*
X131173656Y-58428571D01*
X131173656Y-58428571D02*
X131126037Y-58428571D01*
X131126037Y-58428571D02*
X131030799Y-58476190D01*
X131030799Y-58476190D02*
X130983180Y-58571428D01*
X130983180Y-58571428D02*
X130983180Y-58714285D01*
X130983180Y-58714285D02*
X131030799Y-58809523D01*
X131649847Y-59285714D02*
X130983180Y-59285714D01*
X130649847Y-59285714D02*
X130697466Y-59238095D01*
X130697466Y-59238095D02*
X130745085Y-59285714D01*
X130745085Y-59285714D02*
X130697466Y-59333333D01*
X130697466Y-59333333D02*
X130649847Y-59285714D01*
X130649847Y-59285714D02*
X130745085Y-59285714D01*
X130983180Y-60190475D02*
X131792704Y-60190475D01*
X131792704Y-60190475D02*
X131887942Y-60142856D01*
X131887942Y-60142856D02*
X131935561Y-60095237D01*
X131935561Y-60095237D02*
X131983180Y-59999999D01*
X131983180Y-59999999D02*
X131983180Y-59857142D01*
X131983180Y-59857142D02*
X131935561Y-59761904D01*
X131602228Y-60190475D02*
X131649847Y-60095237D01*
X131649847Y-60095237D02*
X131649847Y-59904761D01*
X131649847Y-59904761D02*
X131602228Y-59809523D01*
X131602228Y-59809523D02*
X131554608Y-59761904D01*
X131554608Y-59761904D02*
X131459370Y-59714285D01*
X131459370Y-59714285D02*
X131173656Y-59714285D01*
X131173656Y-59714285D02*
X131078418Y-59761904D01*
X131078418Y-59761904D02*
X131030799Y-59809523D01*
X131030799Y-59809523D02*
X130983180Y-59904761D01*
X130983180Y-59904761D02*
X130983180Y-60095237D01*
X130983180Y-60095237D02*
X131030799Y-60190475D01*
X130983180Y-60666666D02*
X131649847Y-60666666D01*
X131078418Y-60666666D02*
X131030799Y-60714285D01*
X131030799Y-60714285D02*
X130983180Y-60809523D01*
X130983180Y-60809523D02*
X130983180Y-60952380D01*
X130983180Y-60952380D02*
X131030799Y-61047618D01*
X131030799Y-61047618D02*
X131126037Y-61095237D01*
X131126037Y-61095237D02*
X131649847Y-61095237D01*
X131602228Y-61952380D02*
X131649847Y-61857142D01*
X131649847Y-61857142D02*
X131649847Y-61666666D01*
X131649847Y-61666666D02*
X131602228Y-61571428D01*
X131602228Y-61571428D02*
X131506989Y-61523809D01*
X131506989Y-61523809D02*
X131126037Y-61523809D01*
X131126037Y-61523809D02*
X131030799Y-61571428D01*
X131030799Y-61571428D02*
X130983180Y-61666666D01*
X130983180Y-61666666D02*
X130983180Y-61857142D01*
X130983180Y-61857142D02*
X131030799Y-61952380D01*
X131030799Y-61952380D02*
X131126037Y-61999999D01*
X131126037Y-61999999D02*
X131221275Y-61999999D01*
X131221275Y-61999999D02*
X131316513Y-61523809D01*
X131649847Y-62857142D02*
X130649847Y-62857142D01*
X131602228Y-62857142D02*
X131649847Y-62761904D01*
X131649847Y-62761904D02*
X131649847Y-62571428D01*
X131649847Y-62571428D02*
X131602228Y-62476190D01*
X131602228Y-62476190D02*
X131554608Y-62428571D01*
X131554608Y-62428571D02*
X131459370Y-62380952D01*
X131459370Y-62380952D02*
X131173656Y-62380952D01*
X131173656Y-62380952D02*
X131078418Y-62428571D01*
X131078418Y-62428571D02*
X131030799Y-62476190D01*
X131030799Y-62476190D02*
X130983180Y-62571428D01*
X130983180Y-62571428D02*
X130983180Y-62761904D01*
X130983180Y-62761904D02*
X131030799Y-62857142D01*
X131649847Y-64095238D02*
X130649847Y-64095238D01*
X131030799Y-64095238D02*
X130983180Y-64190476D01*
X130983180Y-64190476D02*
X130983180Y-64380952D01*
X130983180Y-64380952D02*
X131030799Y-64476190D01*
X131030799Y-64476190D02*
X131078418Y-64523809D01*
X131078418Y-64523809D02*
X131173656Y-64571428D01*
X131173656Y-64571428D02*
X131459370Y-64571428D01*
X131459370Y-64571428D02*
X131554608Y-64523809D01*
X131554608Y-64523809D02*
X131602228Y-64476190D01*
X131602228Y-64476190D02*
X131649847Y-64380952D01*
X131649847Y-64380952D02*
X131649847Y-64190476D01*
X131649847Y-64190476D02*
X131602228Y-64095238D01*
X130983180Y-64904762D02*
X131649847Y-65142857D01*
X130983180Y-65380952D02*
X131649847Y-65142857D01*
X131649847Y-65142857D02*
X131887942Y-65047619D01*
X131887942Y-65047619D02*
X131935561Y-65000000D01*
X131935561Y-65000000D02*
X131983180Y-64904762D01*
X132593124Y-57928572D02*
X132593124Y-58309524D01*
X132259791Y-58071429D02*
X133116933Y-58071429D01*
X133116933Y-58071429D02*
X133212172Y-58119048D01*
X133212172Y-58119048D02*
X133259791Y-58214286D01*
X133259791Y-58214286D02*
X133259791Y-58309524D01*
X133212172Y-59023810D02*
X133259791Y-58928572D01*
X133259791Y-58928572D02*
X133259791Y-58738096D01*
X133259791Y-58738096D02*
X133212172Y-58642858D01*
X133212172Y-58642858D02*
X133116933Y-58595239D01*
X133116933Y-58595239D02*
X132735981Y-58595239D01*
X132735981Y-58595239D02*
X132640743Y-58642858D01*
X132640743Y-58642858D02*
X132593124Y-58738096D01*
X132593124Y-58738096D02*
X132593124Y-58928572D01*
X132593124Y-58928572D02*
X132640743Y-59023810D01*
X132640743Y-59023810D02*
X132735981Y-59071429D01*
X132735981Y-59071429D02*
X132831219Y-59071429D01*
X132831219Y-59071429D02*
X132926457Y-58595239D01*
X133259791Y-59928572D02*
X132735981Y-59928572D01*
X132735981Y-59928572D02*
X132640743Y-59880953D01*
X132640743Y-59880953D02*
X132593124Y-59785715D01*
X132593124Y-59785715D02*
X132593124Y-59595239D01*
X132593124Y-59595239D02*
X132640743Y-59500001D01*
X133212172Y-59928572D02*
X133259791Y-59833334D01*
X133259791Y-59833334D02*
X133259791Y-59595239D01*
X133259791Y-59595239D02*
X133212172Y-59500001D01*
X133212172Y-59500001D02*
X133116933Y-59452382D01*
X133116933Y-59452382D02*
X133021695Y-59452382D01*
X133021695Y-59452382D02*
X132926457Y-59500001D01*
X132926457Y-59500001D02*
X132878838Y-59595239D01*
X132878838Y-59595239D02*
X132878838Y-59833334D01*
X132878838Y-59833334D02*
X132831219Y-59928572D01*
X133259791Y-60404763D02*
X132593124Y-60404763D01*
X132688362Y-60404763D02*
X132640743Y-60452382D01*
X132640743Y-60452382D02*
X132593124Y-60547620D01*
X132593124Y-60547620D02*
X132593124Y-60690477D01*
X132593124Y-60690477D02*
X132640743Y-60785715D01*
X132640743Y-60785715D02*
X132735981Y-60833334D01*
X132735981Y-60833334D02*
X133259791Y-60833334D01*
X132735981Y-60833334D02*
X132640743Y-60880953D01*
X132640743Y-60880953D02*
X132593124Y-60976191D01*
X132593124Y-60976191D02*
X132593124Y-61119048D01*
X132593124Y-61119048D02*
X132640743Y-61214287D01*
X132640743Y-61214287D02*
X132735981Y-61261906D01*
X132735981Y-61261906D02*
X133259791Y-61261906D01*
X133259791Y-62500001D02*
X132593124Y-62500001D01*
X132259791Y-62500001D02*
X132307410Y-62452382D01*
X132307410Y-62452382D02*
X132355029Y-62500001D01*
X132355029Y-62500001D02*
X132307410Y-62547620D01*
X132307410Y-62547620D02*
X132259791Y-62500001D01*
X132259791Y-62500001D02*
X132355029Y-62500001D01*
X133259791Y-62976191D02*
X132259791Y-62976191D01*
X132640743Y-62976191D02*
X132593124Y-63071429D01*
X132593124Y-63071429D02*
X132593124Y-63261905D01*
X132593124Y-63261905D02*
X132640743Y-63357143D01*
X132640743Y-63357143D02*
X132688362Y-63404762D01*
X132688362Y-63404762D02*
X132783600Y-63452381D01*
X132783600Y-63452381D02*
X133069314Y-63452381D01*
X133069314Y-63452381D02*
X133164552Y-63404762D01*
X133164552Y-63404762D02*
X133212172Y-63357143D01*
X133212172Y-63357143D02*
X133259791Y-63261905D01*
X133259791Y-63261905D02*
X133259791Y-63071429D01*
X133259791Y-63071429D02*
X133212172Y-62976191D01*
X133259791Y-63880953D02*
X132593124Y-63880953D01*
X132259791Y-63880953D02*
X132307410Y-63833334D01*
X132307410Y-63833334D02*
X132355029Y-63880953D01*
X132355029Y-63880953D02*
X132307410Y-63928572D01*
X132307410Y-63928572D02*
X132259791Y-63880953D01*
X132259791Y-63880953D02*
X132355029Y-63880953D01*
X133212172Y-64309524D02*
X133259791Y-64404762D01*
X133259791Y-64404762D02*
X133259791Y-64595238D01*
X133259791Y-64595238D02*
X133212172Y-64690476D01*
X133212172Y-64690476D02*
X133116933Y-64738095D01*
X133116933Y-64738095D02*
X133069314Y-64738095D01*
X133069314Y-64738095D02*
X132974076Y-64690476D01*
X132974076Y-64690476D02*
X132926457Y-64595238D01*
X132926457Y-64595238D02*
X132926457Y-64452381D01*
X132926457Y-64452381D02*
X132878838Y-64357143D01*
X132878838Y-64357143D02*
X132783600Y-64309524D01*
X132783600Y-64309524D02*
X132735981Y-64309524D01*
X132735981Y-64309524D02*
X132640743Y-64357143D01*
X132640743Y-64357143D02*
X132593124Y-64452381D01*
X132593124Y-64452381D02*
X132593124Y-64595238D01*
X132593124Y-64595238D02*
X132640743Y-64690476D01*
D12*
%TO.C,J12*%
X111420000Y-59000000D03*
D13*
X113960000Y-59000000D03*
X116500000Y-59000000D03*
X119040000Y-59000000D03*
%TD*%
D14*
%TO.C,J1*%
X126625000Y-107500000D03*
D15*
X125375000Y-107500000D03*
%TD*%
D16*
%TO.C,J6*%
X100000000Y-92000000D03*
D17*
X100000000Y-90750000D03*
X100000000Y-89500000D03*
X100000000Y-88250000D03*
%TD*%
D14*
%TO.C,J3*%
X101875000Y-59000000D03*
D15*
X100625000Y-59000000D03*
X99375000Y-59000000D03*
X98125000Y-59000000D03*
%TD*%
D18*
%TO.C,J7*%
X109000000Y-54000000D03*
D15*
X110250000Y-54000000D03*
X111500000Y-54000000D03*
%TD*%
D19*
%TO.C,J2*%
X119500000Y-56000000D03*
D20*
X117500000Y-56000000D03*
X115500000Y-56000000D03*
%TD*%
D21*
%TO.C,J4*%
X103000000Y-106000000D03*
X103000000Y-95000000D03*
D22*
X113000000Y-98000000D03*
D23*
X113000000Y-103000000D03*
%TD*%
D16*
%TO.C,J8*%
X96000000Y-92000000D03*
D17*
X96000000Y-90750000D03*
X96000000Y-89500000D03*
X96000000Y-88250000D03*
%TD*%
D24*
%TO.C,P1*%
X133000000Y-93000000D03*
X133000000Y-91500000D03*
X133000000Y-90000000D03*
X133000000Y-88500000D03*
X133000000Y-87000000D03*
X133000000Y-85500000D03*
%TD*%
D25*
%TO.C,R19*%
X113500000Y-86825000D03*
X113500000Y-85175000D03*
%TD*%
D26*
%TO.C,R13*%
X105675000Y-107500000D03*
X107325000Y-107500000D03*
%TD*%
D27*
%TO.C,R14*%
X123000000Y-63175000D03*
X123000000Y-64825000D03*
%TD*%
D25*
%TO.C,R2*%
X117500000Y-94325000D03*
X117500000Y-92675000D03*
%TD*%
D28*
%TO.C,J10*%
X103600000Y-65500000D03*
D29*
X102400000Y-65500000D03*
D28*
X101200000Y-65500000D03*
%TD*%
D30*
%TO.C,R5*%
X128825000Y-103000000D03*
X127175000Y-103000000D03*
%TD*%
D27*
%TO.C,R18*%
X99400000Y-60575000D03*
X99400000Y-62225000D03*
%TD*%
D31*
%TO.C,C2*%
X122525000Y-72000000D03*
X124075000Y-72000000D03*
%TD*%
D25*
%TO.C,R1*%
X130100000Y-99625000D03*
X130100000Y-97975000D03*
%TD*%
D32*
%TO.C,C11*%
X113000000Y-92725000D03*
X113000000Y-94275000D03*
%TD*%
D25*
%TO.C,R16*%
X96500000Y-102300000D03*
X96500000Y-100650000D03*
%TD*%
D33*
%TO.C,C7*%
X119000000Y-103475000D03*
X119000000Y-100525000D03*
%TD*%
D27*
%TO.C,R3*%
X109000000Y-55675000D03*
X109000000Y-57325000D03*
%TD*%
D34*
%TO.C,L1*%
X100500000Y-100700000D03*
X100500000Y-104300000D03*
%TD*%
D25*
%TO.C,R17*%
X119500000Y-99062258D03*
X119500000Y-97412258D03*
%TD*%
%TO.C,R9*%
X116000000Y-95825000D03*
X116000000Y-94175000D03*
%TD*%
D35*
%TO.C,U2*%
X125075000Y-91595000D03*
X125075000Y-92865000D03*
X125075000Y-94135000D03*
X125075000Y-95405000D03*
X119925000Y-95405000D03*
X119925000Y-94135000D03*
X119925000Y-92865000D03*
X119925000Y-91595000D03*
%TD*%
D33*
%TO.C,C8*%
X126000000Y-100975000D03*
X126000000Y-98025000D03*
%TD*%
D32*
%TO.C,C1*%
X127000000Y-92725000D03*
X127000000Y-94275000D03*
%TD*%
D36*
%TO.C,U1*%
X122750000Y-82162500D03*
X122250000Y-82162500D03*
X121750000Y-82162500D03*
X121250000Y-82162500D03*
X120750000Y-82162500D03*
X120250000Y-82162500D03*
X119750000Y-82162500D03*
X119250000Y-82162500D03*
X118750000Y-82162500D03*
X118250000Y-82162500D03*
X117750000Y-82162500D03*
X117250000Y-82162500D03*
D37*
X115837500Y-80750000D03*
X115837500Y-80250000D03*
X115837500Y-79750000D03*
X115837500Y-79250000D03*
X115837500Y-78750000D03*
X115837500Y-78250000D03*
X115837500Y-77750000D03*
X115837500Y-77250000D03*
X115837500Y-76750000D03*
X115837500Y-76250000D03*
X115837500Y-75750000D03*
X115837500Y-75250000D03*
D36*
X117250000Y-73837500D03*
X117750000Y-73837500D03*
X118250000Y-73837500D03*
X118750000Y-73837500D03*
X119250000Y-73837500D03*
X119750000Y-73837500D03*
X120250000Y-73837500D03*
X120750000Y-73837500D03*
X121250000Y-73837500D03*
X121750000Y-73837500D03*
X122250000Y-73837500D03*
X122750000Y-73837500D03*
D37*
X124162500Y-75250000D03*
X124162500Y-75750000D03*
X124162500Y-76250000D03*
X124162500Y-76750000D03*
X124162500Y-77250000D03*
X124162500Y-77750000D03*
X124162500Y-78250000D03*
X124162500Y-78750000D03*
X124162500Y-79250000D03*
X124162500Y-79750000D03*
X124162500Y-80250000D03*
X124162500Y-80750000D03*
%TD*%
D38*
%TO.C,C5*%
X113500000Y-75275000D03*
X113500000Y-73725000D03*
%TD*%
D39*
%TO.C,C3*%
X97025000Y-99455000D03*
X97025000Y-98495000D03*
%TD*%
D27*
%TO.C,R7*%
X105500000Y-85675000D03*
X105500000Y-87325000D03*
%TD*%
D40*
%TO.C,X1*%
X119300000Y-87500000D03*
X120500000Y-87500000D03*
X121700000Y-87500000D03*
%TD*%
D25*
%TO.C,R12*%
X108500000Y-60825000D03*
X108500000Y-59175000D03*
%TD*%
D41*
%TO.C,Q1*%
X103550000Y-59562500D03*
X105450000Y-59562500D03*
X104500000Y-61437500D03*
%TD*%
D27*
%TO.C,R6*%
X115000000Y-85175000D03*
X115000000Y-86825000D03*
%TD*%
D25*
%TO.C,R11*%
X107000000Y-60825000D03*
X107000000Y-59175000D03*
%TD*%
D27*
%TO.C,R20*%
X106500000Y-62675000D03*
X106500000Y-64325000D03*
%TD*%
D42*
%TO.C,C12*%
X105550000Y-97500000D03*
X108500000Y-97500000D03*
%TD*%
D30*
%TO.C,R4*%
X112325000Y-56500000D03*
X110675000Y-56500000D03*
%TD*%
D43*
%TO.C,C4*%
X97980000Y-103500000D03*
X97020000Y-103500000D03*
%TD*%
D25*
%TO.C,R10*%
X114500000Y-94325000D03*
X114500000Y-92675000D03*
%TD*%
D28*
%TO.C,J9*%
X103600000Y-70000000D03*
D29*
X102400000Y-70000000D03*
D28*
X101200000Y-70000000D03*
%TD*%
D26*
%TO.C,R21*%
X101675000Y-57000000D03*
X103325000Y-57000000D03*
%TD*%
D44*
%TO.C,F1*%
X111400000Y-103500000D03*
X108600000Y-103500000D03*
%TD*%
D28*
%TO.C,J5*%
X103600000Y-67750000D03*
D29*
X102400000Y-67750000D03*
D28*
X101200000Y-67750000D03*
%TD*%
D45*
%TO.C,D9*%
X104650000Y-100000000D03*
D46*
X107025000Y-100000000D03*
%TD*%
D42*
%TO.C,C13*%
X104025000Y-102500000D03*
X106975000Y-102500000D03*
%TD*%
D47*
%TO.C,U3*%
X123437500Y-101050000D03*
X123437500Y-102950000D03*
X121562500Y-102000000D03*
%TD*%
D25*
%TO.C,R22*%
X108000000Y-64325000D03*
X108000000Y-62675000D03*
%TD*%
D32*
%TO.C,C6*%
X127000000Y-80725000D03*
X127000000Y-82275000D03*
%TD*%
D25*
%TO.C,R15*%
X96500000Y-97325000D03*
X96500000Y-95675000D03*
%TD*%
%TO.C,R8*%
X122500000Y-99062258D03*
X122500000Y-97412258D03*
%TD*%
D48*
%TO.C,U4*%
X98862500Y-97950000D03*
X98862500Y-97000000D03*
X98862500Y-96050000D03*
X101137500Y-96050000D03*
X101137500Y-97000000D03*
X101137500Y-97950000D03*
%TD*%
%LPD*%
M02*
