%TF.GenerationSoftware,KiCad,Pcbnew,8.0.6*%
%TF.CreationDate,2024-11-20T23:00:01+09:00*%
%TF.ProjectId,ORION_sub_v3,4f52494f-4e5f-4737-9562-5f76332e6b69,rev?*%
%TF.SameCoordinates,Original*%
%TF.FileFunction,Copper,L1,Top*%
%TF.FilePolarity,Positive*%
%FSLAX46Y46*%
G04 Gerber Fmt 4.6, Leading zero omitted, Abs format (unit mm)*
G04 Created by KiCad (PCBNEW 8.0.6) date 2024-11-20 23:00:01*
%MOMM*%
%LPD*%
G01*
G04 APERTURE LIST*
G04 Aperture macros list*
%AMRoundRect*
0 Rectangle with rounded corners*
0 $1 Rounding radius*
0 $2 $3 $4 $5 $6 $7 $8 $9 X,Y pos of 4 corners*
0 Add a 4 corners polygon primitive as box body*
4,1,4,$2,$3,$4,$5,$6,$7,$8,$9,$2,$3,0*
0 Add four circle primitives for the rounded corners*
1,1,$1+$1,$2,$3*
1,1,$1+$1,$4,$5*
1,1,$1+$1,$6,$7*
1,1,$1+$1,$8,$9*
0 Add four rect primitives between the rounded corners*
20,1,$1+$1,$2,$3,$4,$5,0*
20,1,$1+$1,$4,$5,$6,$7,0*
20,1,$1+$1,$6,$7,$8,$9,0*
20,1,$1+$1,$8,$9,$2,$3,0*%
G04 Aperture macros list end*
%TA.AperFunction,SMDPad,CuDef*%
%ADD10RoundRect,0.200000X-0.200000X-0.800000X0.200000X-0.800000X0.200000X0.800000X-0.200000X0.800000X0*%
%TD*%
%TA.AperFunction,SMDPad,CuDef*%
%ADD11RoundRect,0.218750X0.256250X-0.218750X0.256250X0.218750X-0.256250X0.218750X-0.256250X-0.218750X0*%
%TD*%
%TA.AperFunction,SMDPad,CuDef*%
%ADD12RoundRect,0.218750X-0.218750X-0.256250X0.218750X-0.256250X0.218750X0.256250X-0.218750X0.256250X0*%
%TD*%
%TA.AperFunction,SMDPad,CuDef*%
%ADD13RoundRect,0.200000X0.800000X-0.200000X0.800000X0.200000X-0.800000X0.200000X-0.800000X-0.200000X0*%
%TD*%
%TA.AperFunction,ComponentPad*%
%ADD14R,1.700000X1.700000*%
%TD*%
%TA.AperFunction,ComponentPad*%
%ADD15O,1.700000X1.700000*%
%TD*%
%TA.AperFunction,ComponentPad*%
%ADD16RoundRect,0.225000X0.225000X0.475000X-0.225000X0.475000X-0.225000X-0.475000X0.225000X-0.475000X0*%
%TD*%
%TA.AperFunction,ComponentPad*%
%ADD17O,0.900000X1.400000*%
%TD*%
%TA.AperFunction,SMDPad,CuDef*%
%ADD18RoundRect,0.218750X-0.256250X0.218750X-0.256250X-0.218750X0.256250X-0.218750X0.256250X0.218750X0*%
%TD*%
%TA.AperFunction,SMDPad,CuDef*%
%ADD19R,1.450000X1.100000*%
%TD*%
%TA.AperFunction,SMDPad,CuDef*%
%ADD20R,2.899999X1.350000*%
%TD*%
%TA.AperFunction,ComponentPad*%
%ADD21RoundRect,0.225000X0.475000X-0.225000X0.475000X0.225000X-0.475000X0.225000X-0.475000X-0.225000X0*%
%TD*%
%TA.AperFunction,ComponentPad*%
%ADD22O,1.400000X0.900000*%
%TD*%
%TA.AperFunction,ComponentPad*%
%ADD23RoundRect,0.225000X-0.225000X-0.475000X0.225000X-0.475000X0.225000X0.475000X-0.225000X0.475000X0*%
%TD*%
%TA.AperFunction,ComponentPad*%
%ADD24RoundRect,0.250000X0.350000X0.625000X-0.350000X0.625000X-0.350000X-0.625000X0.350000X-0.625000X0*%
%TD*%
%TA.AperFunction,ComponentPad*%
%ADD25O,1.200000X1.750000*%
%TD*%
%TA.AperFunction,ComponentPad*%
%ADD26C,1.400000*%
%TD*%
%TA.AperFunction,ComponentPad*%
%ADD27R,3.500000X3.500000*%
%TD*%
%TA.AperFunction,ComponentPad*%
%ADD28C,3.500000*%
%TD*%
%TA.AperFunction,SMDPad,CuDef*%
%ADD29RoundRect,0.218750X0.218750X0.256250X-0.218750X0.256250X-0.218750X-0.256250X0.218750X-0.256250X0*%
%TD*%
%TA.AperFunction,ComponentPad*%
%ADD30RoundRect,0.225000X0.575000X-0.225000X0.575000X0.225000X-0.575000X0.225000X-0.575000X-0.225000X0*%
%TD*%
%TA.AperFunction,ComponentPad*%
%ADD31RoundRect,0.375000X0.375000X0.375000X-0.375000X0.375000X-0.375000X-0.375000X0.375000X-0.375000X0*%
%TD*%
%TA.AperFunction,ComponentPad*%
%ADD32RoundRect,0.500000X1.500000X0.500000X-1.500000X0.500000X-1.500000X-0.500000X1.500000X-0.500000X0*%
%TD*%
%TA.AperFunction,ViaPad*%
%ADD33C,0.500000*%
%TD*%
%TA.AperFunction,ViaPad*%
%ADD34C,0.800000*%
%TD*%
%TA.AperFunction,ViaPad*%
%ADD35C,0.400000*%
%TD*%
%TA.AperFunction,Conductor*%
%ADD36C,0.250000*%
%TD*%
%TA.AperFunction,Conductor*%
%ADD37C,1.000000*%
%TD*%
%TA.AperFunction,Conductor*%
%ADD38C,0.500000*%
%TD*%
G04 APERTURE END LIST*
D10*
%TO.P,SW2,1,1*%
%TO.N,GND*%
X95400000Y-84500000D03*
%TO.P,SW2,2,2*%
%TO.N,/SW_0*%
X99600000Y-84500000D03*
%TD*%
D11*
%TO.P,D6,1,K*%
%TO.N,Net-(D6-K)*%
X107000000Y-58287500D03*
%TO.P,D6,2,A*%
%TO.N,/LED_4*%
X107000000Y-56712500D03*
%TD*%
D12*
%TO.P,D7,1,K*%
%TO.N,Net-(D7-K)*%
X109212500Y-108000000D03*
%TO.P,D7,2,A*%
%TO.N,+BATT*%
X110787500Y-108000000D03*
%TD*%
D13*
%TO.P,SW5,1,1*%
%TO.N,GND*%
X102000000Y-82100000D03*
%TO.P,SW5,2,2*%
%TO.N,/SW_3*%
X102000000Y-77900000D03*
%TD*%
D11*
%TO.P,D5,1,K*%
%TO.N,Net-(D5-K)*%
X105000000Y-58287500D03*
%TO.P,D5,2,A*%
%TO.N,/LED_3*%
X105000000Y-56712500D03*
%TD*%
D10*
%TO.P,SW3,1,1*%
%TO.N,GND*%
X95400000Y-75500000D03*
%TO.P,SW3,2,2*%
%TO.N,/SW_1*%
X99600000Y-75500000D03*
%TD*%
D14*
%TO.P,J12,1,Pin_1*%
%TO.N,GND*%
X111420000Y-59000000D03*
D15*
%TO.P,J12,2,Pin_2*%
%TO.N,+5V*%
X113960000Y-59000000D03*
%TO.P,J12,3,Pin_3*%
%TO.N,/LCD_I2C_SCL*%
X116500000Y-59000000D03*
%TO.P,J12,4,Pin_4*%
%TO.N,/LCD_I2C_SDA*%
X119040000Y-59000000D03*
%TD*%
D16*
%TO.P,J1,1,Pin_1*%
%TO.N,Net-(J1-Pin_1)*%
X126625000Y-107500000D03*
D17*
%TO.P,J1,2,Pin_2*%
%TO.N,/ESC_TLM*%
X125375000Y-107500000D03*
%TD*%
D18*
%TO.P,D10,1,K*%
%TO.N,Net-(D10-K)*%
X117500000Y-99712500D03*
%TO.P,D10,2,A*%
%TO.N,+5V*%
X117500000Y-101287500D03*
%TD*%
D19*
%TO.P,J11,1,Pin_1*%
%TO.N,Net-(J10-Pin_1)*%
X102050000Y-65771500D03*
%TO.P,J11,2,Pin_2*%
%TO.N,Net-(J11-Pin_2)*%
X102050000Y-67771501D03*
%TO.P,J11,3,Pin_3*%
%TO.N,Net-(J11-Pin_3)*%
X102050000Y-69771500D03*
D20*
%TO.P,J11,4,Pin_4*%
%TO.N,GND*%
X96075001Y-62876502D03*
%TO.P,J11,5,Pin_5*%
X96075001Y-72666498D03*
%TD*%
D18*
%TO.P,D3,1,K*%
%TO.N,Net-(D3-K)*%
X105500000Y-88747500D03*
%TO.P,D3,2,A*%
%TO.N,/LED_2*%
X105500000Y-90322500D03*
%TD*%
D10*
%TO.P,SW4,1,1*%
%TO.N,GND*%
X95400000Y-80000000D03*
%TO.P,SW4,2,2*%
%TO.N,/SW_2*%
X99600000Y-80000000D03*
%TD*%
D21*
%TO.P,J6,1,Pin_1*%
%TO.N,GND*%
X100000000Y-92000000D03*
D22*
%TO.P,J6,2,Pin_2*%
%TO.N,Net-(J6-Pin_2)*%
X100000000Y-90750000D03*
%TO.P,J6,3,Pin_3*%
%TO.N,/CAN_H*%
X100000000Y-89500000D03*
%TO.P,J6,4,Pin_4*%
%TO.N,/CAN_L*%
X100000000Y-88250000D03*
%TD*%
D18*
%TO.P,D2,1,K*%
%TO.N,Net-(D2-K)*%
X107500000Y-88712500D03*
%TO.P,D2,2,A*%
%TO.N,/LED_1*%
X107500000Y-90287500D03*
%TD*%
D16*
%TO.P,J3,1,Pin_1*%
%TO.N,Net-(J3-Pin_1)*%
X101875000Y-59000000D03*
D17*
%TO.P,J3,2,Pin_2*%
%TO.N,Net-(J3-Pin_2)*%
X100625000Y-59000000D03*
%TO.P,J3,3,Pin_3*%
%TO.N,Net-(J3-Pin_3)*%
X99375000Y-59000000D03*
%TO.P,J3,4,Pin_4*%
%TO.N,GND*%
X98125000Y-59000000D03*
%TD*%
D23*
%TO.P,J7,1,Pin_1*%
%TO.N,GND*%
X109000000Y-54000000D03*
D17*
%TO.P,J7,2,Pin_2*%
%TO.N,Net-(J7-Pin_2)*%
X110250000Y-54000000D03*
%TO.P,J7,3,Pin_3*%
%TO.N,Net-(J7-Pin_3)*%
X111500000Y-54000000D03*
%TD*%
D18*
%TO.P,D4,1,K*%
%TO.N,Net-(D4-K)*%
X120500000Y-99712500D03*
%TO.P,D4,2,A*%
%TO.N,+3.3V*%
X120500000Y-101287500D03*
%TD*%
D13*
%TO.P,SW1,1,1*%
%TO.N,/NRST*%
X133400000Y-99600000D03*
%TO.P,SW1,2,2*%
%TO.N,GND*%
X133400000Y-95400000D03*
%TD*%
D24*
%TO.P,J2,1,Pin_1*%
%TO.N,GND*%
X119500000Y-56000000D03*
D25*
%TO.P,J2,2,Pin_2*%
%TO.N,+5V*%
X117500000Y-56000000D03*
%TO.P,J2,3,Pin_3*%
%TO.N,Net-(J2-Pin_3)*%
X115500000Y-56000000D03*
%TD*%
D26*
%TO.P,J4,*%
%TO.N,*%
X103000000Y-106000000D03*
X103000000Y-95000000D03*
D27*
%TO.P,J4,1,Pin_1*%
%TO.N,GND*%
X113000000Y-98000000D03*
D28*
%TO.P,J4,2,Pin_2*%
%TO.N,+BATT*%
X113000000Y-103000000D03*
%TD*%
D21*
%TO.P,J8,1,Pin_1*%
%TO.N,GND*%
X96000000Y-92000000D03*
D22*
%TO.P,J8,2,Pin_2*%
%TO.N,Net-(J6-Pin_2)*%
X96000000Y-90750000D03*
%TO.P,J8,3,Pin_3*%
%TO.N,/CAN_H*%
X96000000Y-89500000D03*
%TO.P,J8,4,Pin_4*%
%TO.N,/CAN_L*%
X96000000Y-88250000D03*
%TD*%
D29*
%TO.P,D1,1,K*%
%TO.N,Net-(D1-K)*%
X126787500Y-105000000D03*
%TO.P,D1,2,A*%
%TO.N,/LED_0*%
X125212500Y-105000000D03*
%TD*%
D30*
%TO.P,P1,1,P1*%
%TO.N,GND*%
X133000000Y-93000000D03*
%TO.P,P1,2,P2*%
%TO.N,unconnected-(P1-P2-Pad2)*%
X133000000Y-91500000D03*
%TO.P,P1,3,P3*%
%TO.N,/SWCLK*%
X133000000Y-90000000D03*
%TO.P,P1,4,P4*%
%TO.N,/SWDIO*%
X133000000Y-88500000D03*
%TO.P,P1,5,P5*%
%TO.N,/USART_TX*%
X133000000Y-87000000D03*
%TO.P,P1,6,P6*%
%TO.N,/USART_RX*%
X133000000Y-85500000D03*
%TD*%
D31*
%TO.P,J10,1,Pin_1*%
%TO.N,Net-(J10-Pin_1)*%
X103600000Y-65500000D03*
D32*
X102400000Y-65500000D03*
D31*
X101200000Y-65500000D03*
%TD*%
%TO.P,J9,1,Pin_1*%
%TO.N,Net-(J11-Pin_3)*%
X103600000Y-70000000D03*
D32*
X102400000Y-70000000D03*
D31*
X101200000Y-70000000D03*
%TD*%
%TO.P,J5,1,Pin_1*%
%TO.N,Net-(J11-Pin_2)*%
X103600000Y-67750000D03*
D32*
X102400000Y-67750000D03*
D31*
X101200000Y-67750000D03*
%TD*%
D33*
%TO.N,GND*%
X120000001Y-78812467D03*
X120812466Y-78000000D03*
X98500000Y-94000000D03*
X112500000Y-74500000D03*
X114543733Y-73956267D03*
X120000000Y-77187534D03*
X99000000Y-73000000D03*
X97500000Y-94000000D03*
X105500000Y-84500000D03*
X102000000Y-83000000D03*
X119187533Y-78000001D03*
X120500000Y-86000000D03*
X98500000Y-93000000D03*
X106500000Y-104500000D03*
X97500000Y-93000000D03*
X102000000Y-93000000D03*
X121500000Y-91500000D03*
X116500000Y-73500000D03*
X125500000Y-99000000D03*
X126500000Y-99000000D03*
X101000000Y-93000000D03*
X105000000Y-107500000D03*
X108550000Y-98950000D03*
X129250000Y-101475000D03*
X101000000Y-94000000D03*
X126500000Y-92225000D03*
D34*
%TO.N,+3.3V*%
X123000000Y-81000000D03*
D33*
X123000000Y-102000000D03*
D34*
X126100000Y-86500000D03*
D33*
%TO.N,/ESC_TLM*%
X109500000Y-95075000D03*
D35*
%TO.N,+5V*%
X119000000Y-102000000D03*
D33*
%TO.N,/SERVO_PWM*%
X117437179Y-77062821D03*
X123000000Y-67000000D03*
%TO.N,/SWCLK*%
X128900000Y-76300000D03*
%TO.N,/SWDIO*%
X128600000Y-72100000D03*
%TO.N,/USART_TX*%
X129700000Y-71200000D03*
%TO.N,/USART_RX*%
X130300000Y-72800000D03*
%TO.N,/NRST*%
X120400000Y-80500000D03*
X130100000Y-97100000D03*
X127100000Y-87600000D03*
%TO.N,/CAN_L*%
X117000000Y-95000000D03*
%TO.N,/CAN_H*%
X118000000Y-96000000D03*
%TO.N,/LED_1*%
X124225000Y-88500000D03*
%TO.N,/LED_2*%
X122000000Y-93500000D03*
%TO.N,/LED_3*%
X114000000Y-79800000D03*
%TO.N,/CAN_RX*%
X120500000Y-75500000D03*
X125000000Y-82300000D03*
%TO.N,/CAN_TX*%
X125000000Y-81400000D03*
X121500000Y-75500000D03*
%TO.N,/SW_1*%
X101000000Y-75000000D03*
X120000000Y-71000000D03*
X110533359Y-74528355D03*
%TO.N,Net-(D1-K)*%
X126500000Y-103500000D03*
%TO.N,Net-(D2-K)*%
X115000000Y-88000000D03*
%TO.N,/LED_0*%
X127000000Y-89500000D03*
X129000000Y-100325000D03*
X122000000Y-81000000D03*
%TO.N,Net-(D3-K)*%
X105500000Y-88000000D03*
%TO.N,Net-(D4-K)*%
X121000000Y-98362258D03*
%TO.N,Net-(D5-K)*%
X106075000Y-57500000D03*
%TO.N,Net-(D6-K)*%
X107000465Y-57599999D03*
%TO.N,Net-(D7-K)*%
X108000000Y-107500000D03*
%TO.N,/LED_4*%
X117250000Y-78250000D03*
%TO.N,Net-(D10-K)*%
X118750000Y-98250000D03*
%TO.N,Net-(J1-Pin_1)*%
X110500000Y-95075000D03*
%TO.N,/SW_0*%
X97200000Y-75600000D03*
X119250000Y-70750000D03*
X110000000Y-74075000D03*
%TO.N,/LCD_I2C_SCL*%
X125925000Y-77500000D03*
%TO.N,/LCD_I2C_SDA*%
X126500000Y-78500000D03*
%TO.N,/LED_SW*%
X111300000Y-76575000D03*
X112575000Y-77244016D03*
%TO.N,/INTALAPTER_OUT*%
X105500000Y-61950000D03*
X112575000Y-78000000D03*
%TO.N,unconnected-(U1-PA0-Pad10)*%
X118000000Y-81000000D03*
%TO.N,/SW_2*%
X116000000Y-72500000D03*
X106000000Y-72000000D03*
X112500000Y-72500000D03*
D34*
%TO.N,/BATT_fuse*%
X109500000Y-102500000D03*
X106500000Y-98500000D03*
X109500000Y-103500000D03*
X106500000Y-97500000D03*
D33*
%TO.N,/SW_3*%
X113859306Y-82000000D03*
%TD*%
D36*
%TO.N,/INTALAPTER_OUT*%
X109000000Y-78000000D02*
X112575000Y-78000000D01*
X108000000Y-77000000D02*
X109000000Y-78000000D01*
X108000000Y-65136396D02*
X108000000Y-77000000D01*
X107550000Y-64686396D02*
X108000000Y-65136396D01*
X107550000Y-64550000D02*
X107550000Y-64686396D01*
X105500000Y-61950000D02*
X105500000Y-62500000D01*
X105500000Y-62500000D02*
X107550000Y-64550000D01*
%TO.N,/LED_3*%
X109400000Y-79800000D02*
X114000000Y-79800000D01*
X107500000Y-77900000D02*
X109400000Y-79800000D01*
X107500000Y-65500000D02*
X107500000Y-77900000D01*
X104000000Y-57712500D02*
X104000000Y-62000000D01*
X104000000Y-62000000D02*
X107500000Y-65500000D01*
X105000000Y-56712500D02*
X104000000Y-57712500D01*
%TO.N,/SW_0*%
X110000000Y-73425000D02*
X110000000Y-74075000D01*
X112425000Y-71000000D02*
X110000000Y-73425000D01*
X119250000Y-70750000D02*
X119000000Y-71000000D01*
X119000000Y-71000000D02*
X112425000Y-71000000D01*
%TO.N,/LED_4*%
X108000000Y-57712500D02*
X107000000Y-56712500D01*
X109000000Y-76000000D02*
X108500000Y-75500000D01*
X108000000Y-64500000D02*
X108000000Y-57712500D01*
X108500000Y-65000000D02*
X108000000Y-64500000D01*
X115000000Y-76000000D02*
X109000000Y-76000000D01*
X117250000Y-78250000D02*
X115000000Y-76000000D01*
X108500000Y-75500000D02*
X108500000Y-65000000D01*
%TO.N,/SERVO_PWM*%
X123000000Y-71500000D02*
X123000000Y-67000000D01*
X117437179Y-77062821D02*
X123000000Y-71500000D01*
%TO.N,/SW_2*%
X98000000Y-78400000D02*
X99600000Y-80000000D01*
X98000000Y-75351996D02*
X98000000Y-78400000D01*
X106000000Y-72000000D02*
X101351996Y-72000000D01*
X101351996Y-72000000D02*
X98000000Y-75351996D01*
D37*
%TO.N,GND*%
X119500000Y-56000000D02*
X125000000Y-56000000D01*
D36*
X133000000Y-94300000D02*
X133000000Y-93000000D01*
D38*
X119500000Y-56000000D02*
X118000000Y-54500000D01*
D36*
X130000000Y-99968198D02*
X129000000Y-98968198D01*
X95400000Y-75500000D02*
X95400000Y-80000000D01*
X105000000Y-107500000D02*
X105000000Y-106000000D01*
D38*
X110080000Y-57080000D02*
X111420000Y-57080000D01*
D36*
X120000001Y-78812467D02*
X119187533Y-78000001D01*
D37*
X128200000Y-71156497D02*
X127650000Y-71706497D01*
X125000000Y-56000000D02*
X128200000Y-59200000D01*
X128075000Y-91500000D02*
X128075000Y-93000000D01*
D36*
X129000000Y-98968198D02*
X129000000Y-96693414D01*
X121500000Y-91500000D02*
X126500000Y-91500000D01*
X130293414Y-95400000D02*
X133400000Y-95400000D01*
X133400000Y-94700000D02*
X133000000Y-94300000D01*
X126500000Y-91500000D02*
X128075000Y-91500000D01*
X102000000Y-82100000D02*
X102000000Y-83000000D01*
X105000000Y-106000000D02*
X106500000Y-104500000D01*
X119187533Y-78000001D02*
X120000000Y-77187534D01*
X95400000Y-80000000D02*
X95400000Y-84500000D01*
D38*
X109000000Y-54000000D02*
X109000000Y-56000000D01*
D37*
X127650000Y-76393503D02*
X128075000Y-76818503D01*
D36*
X133000000Y-93000000D02*
X128075000Y-93000000D01*
D37*
X128075000Y-76818503D02*
X128075000Y-91500000D01*
D36*
X129000000Y-96693414D02*
X130293414Y-95400000D01*
D38*
X111420000Y-57080000D02*
X114000000Y-54500000D01*
X109000000Y-56000000D02*
X110080000Y-57080000D01*
D36*
X126500000Y-91500000D02*
X126500000Y-92225000D01*
X129250000Y-101475000D02*
X130000000Y-100725000D01*
D37*
X128075000Y-93000000D02*
X128075000Y-94425000D01*
D38*
X111420000Y-59000000D02*
X111420000Y-57080000D01*
D37*
X128200000Y-59200000D02*
X128200000Y-71156497D01*
D36*
X130000000Y-100725000D02*
X130000000Y-99968198D01*
X133400000Y-95400000D02*
X133400000Y-94700000D01*
D38*
X114000000Y-54500000D02*
X118000000Y-54500000D01*
D36*
X120000001Y-78812467D02*
X120812466Y-78000000D01*
X114543733Y-73956267D02*
X113043733Y-73956267D01*
D37*
X125500000Y-97000000D02*
X114000000Y-97000000D01*
X114000000Y-97000000D02*
X113000000Y-98000000D01*
X128075000Y-94425000D02*
X125500000Y-97000000D01*
X127650000Y-71706497D02*
X127650000Y-76393503D01*
D36*
X113043733Y-73956267D02*
X112500000Y-74500000D01*
D38*
%TO.N,+3.3V*%
X126100000Y-86500000D02*
X123000000Y-83400000D01*
D36*
X123000000Y-102000000D02*
X122000000Y-102000000D01*
D38*
X123000000Y-83400000D02*
X123000000Y-81000000D01*
D36*
X122000000Y-102000000D02*
X121287500Y-101287500D01*
X121287500Y-101287500D02*
X120500000Y-101287500D01*
%TO.N,/ESC_TLM*%
X116000000Y-104136396D02*
X116863604Y-105000000D01*
X110700000Y-100800000D02*
X114800000Y-100800000D01*
X110000000Y-100100000D02*
X110700000Y-100800000D01*
X114800000Y-100800000D02*
X116000000Y-102000000D01*
X109500000Y-95075000D02*
X109500000Y-96000000D01*
X116000000Y-102000000D02*
X116000000Y-104136396D01*
X121000000Y-107500000D02*
X118500000Y-105000000D01*
X125375000Y-107500000D02*
X121000000Y-107500000D01*
X116863604Y-105000000D02*
X118500000Y-105000000D01*
X109500000Y-96000000D02*
X110000000Y-96500000D01*
X110000000Y-96500000D02*
X110000000Y-100100000D01*
%TO.N,+5V*%
X117500000Y-101287500D02*
X118287500Y-101287500D01*
X118287500Y-101287500D02*
X119000000Y-102000000D01*
%TO.N,+BATT*%
X113000000Y-103000000D02*
X113000000Y-106000000D01*
X113000000Y-106000000D02*
X111000000Y-108000000D01*
X111000000Y-108000000D02*
X110787500Y-108000000D01*
%TO.N,/SWCLK*%
X128900000Y-85977817D02*
X128900000Y-76300000D01*
X133000000Y-90000000D02*
X132922183Y-90000000D01*
X132922183Y-90000000D02*
X128900000Y-85977817D01*
%TO.N,/SWDIO*%
X132500000Y-88500000D02*
X133000000Y-88500000D01*
X128600000Y-74433274D02*
X129600000Y-75433274D01*
X129600000Y-75433274D02*
X129600000Y-85600000D01*
X129600000Y-85600000D02*
X132500000Y-88500000D01*
X128600000Y-72100000D02*
X128600000Y-74433274D01*
%TO.N,/USART_TX*%
X130050000Y-73363173D02*
X130050000Y-84350000D01*
X129700000Y-71200000D02*
X129700000Y-73013173D01*
X132700000Y-87000000D02*
X133000000Y-87000000D01*
X130050000Y-84350000D02*
X132700000Y-87000000D01*
X129700000Y-73013173D02*
X130050000Y-73363173D01*
%TO.N,/USART_RX*%
X130500000Y-73000000D02*
X130500000Y-83000000D01*
X130300000Y-72800000D02*
X130500000Y-73000000D01*
X130500000Y-83000000D02*
X133000000Y-85500000D01*
%TO.N,/NRST*%
X130800000Y-99600000D02*
X130100000Y-98900000D01*
X123325000Y-80275000D02*
X120625000Y-80275000D01*
X120625000Y-80275000D02*
X120400000Y-80500000D01*
X133400000Y-99600000D02*
X130800000Y-99600000D01*
X123725000Y-82725000D02*
X123725000Y-80675000D01*
X123725000Y-80675000D02*
X123325000Y-80275000D01*
X127100000Y-87600000D02*
X127100000Y-86100000D01*
X127100000Y-86100000D02*
X123725000Y-82725000D01*
X130100000Y-98900000D02*
X130100000Y-97100000D01*
%TO.N,/CAN_L*%
X100000000Y-88250000D02*
X96000000Y-88250000D01*
X102750000Y-88250000D02*
X100000000Y-88250000D01*
X116500000Y-95000000D02*
X115500000Y-94000000D01*
X117000000Y-95000000D02*
X116500000Y-95000000D01*
X106500000Y-94000000D02*
X103500000Y-91000000D01*
X103500000Y-89000000D02*
X102750000Y-88250000D01*
X115500000Y-94000000D02*
X106500000Y-94000000D01*
X103500000Y-91000000D02*
X103500000Y-89000000D01*
%TO.N,/CAN_H*%
X115000000Y-94500000D02*
X106363604Y-94500000D01*
X103050000Y-91186396D02*
X103050000Y-90050000D01*
X96000000Y-89500000D02*
X100000000Y-89500000D01*
X106363604Y-94500000D02*
X103050000Y-91186396D01*
X102500000Y-89500000D02*
X100000000Y-89500000D01*
X116500000Y-96000000D02*
X115000000Y-94500000D01*
X118000000Y-96000000D02*
X116500000Y-96000000D01*
X103050000Y-90050000D02*
X102500000Y-89500000D01*
%TO.N,/LED_1*%
X107500000Y-90287500D02*
X122437500Y-90287500D01*
X122437500Y-90287500D02*
X124225000Y-88500000D01*
%TO.N,/LED_2*%
X105500000Y-92000000D02*
X105500000Y-90322500D01*
X107000000Y-93500000D02*
X105500000Y-92000000D01*
X122000000Y-93500000D02*
X107000000Y-93500000D01*
%TO.N,/CAN_RX*%
X124200000Y-81500000D02*
X124200000Y-79200000D01*
X125000000Y-82300000D02*
X124200000Y-81500000D01*
X124200000Y-79200000D02*
X120500000Y-75500000D01*
%TO.N,/CAN_TX*%
X125000000Y-81400000D02*
X124650000Y-81050000D01*
X124650000Y-79013604D02*
X121500000Y-75863604D01*
X121500000Y-75863604D02*
X121500000Y-75500000D01*
X124650000Y-81050000D02*
X124650000Y-79013604D01*
%TO.N,/SW_1*%
X110575000Y-73611827D02*
X112686827Y-71500000D01*
X112686827Y-71500000D02*
X119500000Y-71500000D01*
X119500000Y-71500000D02*
X120000000Y-71000000D01*
X101000000Y-75000000D02*
X100100000Y-75000000D01*
X110533359Y-74528355D02*
X110575000Y-74486714D01*
X110575000Y-74486714D02*
X110575000Y-73611827D01*
X100100000Y-75000000D02*
X99600000Y-75500000D01*
%TO.N,Net-(D1-K)*%
X126787500Y-103787500D02*
X126787500Y-105000000D01*
X126500000Y-103500000D02*
X126787500Y-103787500D01*
%TO.N,Net-(D2-K)*%
X110500000Y-88000000D02*
X115000000Y-88000000D01*
X107500000Y-88712500D02*
X109787500Y-88712500D01*
X109787500Y-88712500D02*
X110500000Y-88000000D01*
%TO.N,/LED_0*%
X125000000Y-87500000D02*
X127000000Y-89500000D01*
X125000000Y-86363604D02*
X125000000Y-87500000D01*
X122000000Y-83363604D02*
X125000000Y-86363604D01*
X125212500Y-102787500D02*
X127675000Y-100325000D01*
X122000000Y-81000000D02*
X122000000Y-83363604D01*
X125212500Y-105000000D02*
X125212500Y-102787500D01*
X127675000Y-100325000D02*
X129000000Y-100325000D01*
%TO.N,Net-(D3-K)*%
X105500000Y-88000000D02*
X105500000Y-88747500D01*
%TO.N,Net-(D4-K)*%
X120500000Y-98862258D02*
X120500000Y-99712500D01*
X121000000Y-98362258D02*
X120500000Y-98862258D01*
%TO.N,Net-(D5-K)*%
X106075000Y-57500000D02*
X105287500Y-58287500D01*
X105287500Y-58287500D02*
X105000000Y-58287500D01*
%TO.N,Net-(D6-K)*%
X107000465Y-58287035D02*
X107000000Y-58287500D01*
X107000465Y-57599999D02*
X107000465Y-58287035D01*
%TO.N,Net-(D7-K)*%
X108712500Y-107500000D02*
X109212500Y-108000000D01*
X108000000Y-107500000D02*
X108712500Y-107500000D01*
%TO.N,Net-(D10-K)*%
X118750000Y-98250000D02*
X117500000Y-99500000D01*
X117500000Y-99500000D02*
X117500000Y-99712500D01*
%TO.N,Net-(J1-Pin_1)*%
X126625000Y-107500000D02*
X126625000Y-106800000D01*
X110500000Y-95075000D02*
X110500000Y-99650000D01*
X111150000Y-100300000D02*
X115100000Y-100300000D01*
X126625000Y-106800000D02*
X125825000Y-106000000D01*
X116500000Y-101700000D02*
X116500000Y-102500000D01*
X116500000Y-104000000D02*
X117000000Y-104500000D01*
X116500000Y-102500000D02*
X116500000Y-102363604D01*
X110500000Y-99650000D02*
X111150000Y-100300000D01*
X116500000Y-102363604D02*
X116500000Y-102000000D01*
X116500000Y-102500000D02*
X116500000Y-104000000D01*
X115100000Y-100300000D02*
X116500000Y-101700000D01*
X125825000Y-106000000D02*
X120500000Y-106000000D01*
X117000000Y-104500000D02*
X119000000Y-104500000D01*
X120500000Y-106000000D02*
X119000000Y-104500000D01*
%TO.N,/SW_0*%
X97200000Y-82100000D02*
X99600000Y-84500000D01*
X97200000Y-75600000D02*
X97200000Y-82100000D01*
%TO.N,/LCD_I2C_SCL*%
X125925000Y-77500000D02*
X125925000Y-67021396D01*
X116500000Y-61000000D02*
X116500000Y-59000000D01*
X120903604Y-62000000D02*
X117500000Y-62000000D01*
X125925000Y-67021396D02*
X120903604Y-62000000D01*
X117500000Y-62000000D02*
X116500000Y-61000000D01*
%TO.N,/LCD_I2C_SDA*%
X121020000Y-61480000D02*
X126500000Y-66960000D01*
X126500000Y-66960000D02*
X126500000Y-78500000D01*
X119040000Y-61040000D02*
X119480000Y-61480000D01*
X119040000Y-59000000D02*
X119040000Y-61040000D01*
X119480000Y-61480000D02*
X121020000Y-61480000D01*
%TO.N,/LED_SW*%
X112575000Y-77244016D02*
X111969016Y-77244016D01*
X111969016Y-77244016D02*
X111300000Y-76575000D01*
%TO.N,/SW_2*%
X112500000Y-72500000D02*
X116000000Y-72500000D01*
D37*
%TO.N,/BATT_fuse*%
X106500000Y-97500000D02*
X106500000Y-100500000D01*
X106500000Y-98500000D02*
X107500000Y-98500000D01*
X107500000Y-98500000D02*
X107500000Y-100500000D01*
X107500000Y-100500000D02*
X109500000Y-102500000D01*
X109500000Y-103500000D02*
X106500000Y-100500000D01*
X106500000Y-97500000D02*
X107500000Y-98500000D01*
D36*
%TO.N,/SW_3*%
X109500000Y-82000000D02*
X105400000Y-77900000D01*
X105400000Y-77900000D02*
X102000000Y-77900000D01*
X113859306Y-82000000D02*
X109500000Y-82000000D01*
%TD*%
%TA.AperFunction,Conductor*%
%TO.N,GND*%
G36*
X117435020Y-49500030D02*
G01*
X117527956Y-49502334D01*
X117545760Y-49504399D01*
X117728845Y-49542672D01*
X117748233Y-49548864D01*
X117918492Y-49623301D01*
X117936209Y-49633333D01*
X118057640Y-49719701D01*
X118087620Y-49741024D01*
X118102913Y-49754471D01*
X118229930Y-49891777D01*
X118240857Y-49905977D01*
X118290644Y-49984467D01*
X118291936Y-49986560D01*
X120708705Y-54014510D01*
X120763962Y-54101607D01*
X120763966Y-54101611D01*
X120763967Y-54101613D01*
X120904042Y-54253036D01*
X121072138Y-54372593D01*
X121261140Y-54455225D01*
X121371958Y-54478391D01*
X121463051Y-54497435D01*
X121566173Y-54500000D01*
X121566190Y-54500000D01*
X130926698Y-54500000D01*
X130928045Y-54500009D01*
X130933705Y-54500086D01*
X131090995Y-54502227D01*
X131100725Y-54502840D01*
X131425223Y-54539432D01*
X131436165Y-54541293D01*
X131565343Y-54570803D01*
X131753847Y-54613866D01*
X131764523Y-54616945D01*
X131954101Y-54683342D01*
X132072070Y-54724659D01*
X132082324Y-54728911D01*
X132375869Y-54870414D01*
X132385579Y-54875786D01*
X132590677Y-55004795D01*
X132661421Y-55049294D01*
X132670470Y-55055721D01*
X132925135Y-55259052D01*
X132933397Y-55266446D01*
X133163669Y-55497031D01*
X133171057Y-55505309D01*
X133283203Y-55646159D01*
X133374036Y-55760241D01*
X133380455Y-55769304D01*
X133553588Y-56045379D01*
X133558947Y-56055097D01*
X133604701Y-56150341D01*
X133700346Y-56349446D01*
X133704137Y-56358454D01*
X133759816Y-56511429D01*
X133760350Y-56512933D01*
X134047371Y-57342907D01*
X134047942Y-57344608D01*
X134592245Y-59016011D01*
X134592860Y-59017966D01*
X135102436Y-60700244D01*
X135103009Y-60702211D01*
X135577626Y-62394588D01*
X135578159Y-62396567D01*
X136017649Y-64098438D01*
X136018141Y-64100428D01*
X136422333Y-65811145D01*
X136422730Y-65812895D01*
X136609137Y-66671065D01*
X136609476Y-66672693D01*
X136642130Y-66836221D01*
X136643588Y-66846089D01*
X136675744Y-67179007D01*
X136676186Y-67190379D01*
X136669934Y-67524098D01*
X136669067Y-67535446D01*
X136624558Y-67866237D01*
X136622394Y-67877410D01*
X136540218Y-68200892D01*
X136536787Y-68211743D01*
X136418019Y-68523682D01*
X136413364Y-68534069D01*
X136259592Y-68830290D01*
X136253777Y-68840072D01*
X136067016Y-69116703D01*
X136060116Y-69125754D01*
X135842842Y-69379120D01*
X135834949Y-69387319D01*
X135590037Y-69614070D01*
X135581256Y-69621309D01*
X135311372Y-69818869D01*
X135303020Y-69824357D01*
X135158490Y-69909216D01*
X135158486Y-69909219D01*
X135011201Y-69995684D01*
X134735377Y-70197076D01*
X134735360Y-70197090D01*
X134484181Y-70428514D01*
X134484181Y-70428515D01*
X134260906Y-70686975D01*
X134068425Y-70969130D01*
X133909248Y-71271289D01*
X133909239Y-71271310D01*
X133785411Y-71589592D01*
X133785407Y-71589605D01*
X133698523Y-71919906D01*
X133649714Y-72257946D01*
X133649714Y-72257951D01*
X133642254Y-72428577D01*
X133405539Y-80425077D01*
X133402812Y-80591874D01*
X133425372Y-80867758D01*
X133430003Y-80924382D01*
X133430004Y-80924389D01*
X133493489Y-81249633D01*
X133493913Y-81251804D01*
X133544786Y-81414001D01*
X133593754Y-81570124D01*
X133627221Y-81646061D01*
X133728295Y-81875400D01*
X133895873Y-82163866D01*
X134094420Y-82431960D01*
X134094423Y-82431963D01*
X134321478Y-82676366D01*
X134574259Y-82894081D01*
X134574262Y-82894083D01*
X134849633Y-83082407D01*
X134849637Y-83082409D01*
X135076933Y-83203256D01*
X135144197Y-83239018D01*
X135454318Y-83361983D01*
X135776166Y-83449783D01*
X135776173Y-83449784D01*
X135776176Y-83449785D01*
X135876455Y-83466872D01*
X135940488Y-83477783D01*
X135940607Y-83477845D01*
X135940615Y-83477805D01*
X135996108Y-83487335D01*
X136112893Y-83507391D01*
X136123014Y-83509682D01*
X136458702Y-83604433D01*
X136469890Y-83608328D01*
X136791155Y-83742284D01*
X136801793Y-83747488D01*
X137104720Y-83918922D01*
X137114679Y-83925376D01*
X137394895Y-84131809D01*
X137404010Y-84139407D01*
X137657519Y-84377891D01*
X137665660Y-84386526D01*
X137888811Y-84653630D01*
X137895859Y-84663175D01*
X138027131Y-84865281D01*
X138085446Y-84955061D01*
X138091301Y-84965380D01*
X138155293Y-85095815D01*
X138244603Y-85277858D01*
X138249182Y-85288807D01*
X138363990Y-85617376D01*
X138367226Y-85628793D01*
X138441894Y-85968740D01*
X138443741Y-85980463D01*
X138477268Y-86327640D01*
X138477722Y-86338038D01*
X138476172Y-86511914D01*
X138476142Y-86513642D01*
X138452165Y-87422954D01*
X138452098Y-87424810D01*
X138369966Y-89243625D01*
X138369848Y-89245744D01*
X138248741Y-91062325D01*
X138248577Y-91064442D01*
X138088550Y-92877970D01*
X138088341Y-92880083D01*
X137889460Y-94689817D01*
X137889205Y-94691924D01*
X137651572Y-96496928D01*
X137651272Y-96499030D01*
X137374994Y-98298497D01*
X137374650Y-98300591D01*
X137059838Y-100093805D01*
X137059448Y-100095892D01*
X136706274Y-101881869D01*
X136705840Y-101883947D01*
X136314421Y-103662076D01*
X136314005Y-103663887D01*
X136101819Y-104548417D01*
X136101406Y-104550074D01*
X136057931Y-104718448D01*
X136054796Y-104728393D01*
X135932560Y-105055055D01*
X135927742Y-105065900D01*
X135767632Y-105374942D01*
X135761551Y-105385133D01*
X135565614Y-105672795D01*
X135558358Y-105682185D01*
X135329406Y-105944338D01*
X135321078Y-105952793D01*
X135062399Y-106185671D01*
X135053119Y-106193068D01*
X134768435Y-106393318D01*
X134758337Y-106399551D01*
X134451745Y-106564295D01*
X134440973Y-106569276D01*
X134116864Y-106696152D01*
X134105574Y-106699808D01*
X133768616Y-106786990D01*
X133756970Y-106789269D01*
X133411987Y-106835508D01*
X133400151Y-106836376D01*
X133051398Y-106841012D01*
X133040998Y-106840603D01*
X132866956Y-106824566D01*
X132866859Y-106824557D01*
X132700855Y-106809095D01*
X132367260Y-106810602D01*
X132367251Y-106810603D01*
X132035891Y-106849109D01*
X132035883Y-106849111D01*
X131710821Y-106924148D01*
X131396108Y-107034778D01*
X131396095Y-107034783D01*
X131095591Y-107179651D01*
X130813001Y-107356972D01*
X130812998Y-107356974D01*
X130551855Y-107564529D01*
X130551837Y-107564544D01*
X130315324Y-107799799D01*
X130315318Y-107799805D01*
X130106357Y-108059856D01*
X129937079Y-108326461D01*
X129927539Y-108341486D01*
X129849741Y-108500686D01*
X129781067Y-108641218D01*
X129668755Y-108955343D01*
X129668754Y-108955344D01*
X129636351Y-109084491D01*
X129635592Y-109085700D01*
X127787154Y-116902458D01*
X127748996Y-117074843D01*
X127748995Y-117074848D01*
X127708641Y-117425650D01*
X127708641Y-117425653D01*
X127709750Y-117778776D01*
X127709751Y-117778782D01*
X127752307Y-118129317D01*
X127835724Y-118472441D01*
X127835726Y-118472446D01*
X127958850Y-118803407D01*
X127958852Y-118803412D01*
X127958853Y-118803413D01*
X128119975Y-119117619D01*
X128119979Y-119117626D01*
X128316872Y-119410737D01*
X128316877Y-119410743D01*
X128316882Y-119410750D01*
X128429919Y-119546407D01*
X128429928Y-119546418D01*
X128536291Y-119673986D01*
X128542231Y-119681880D01*
X128728087Y-119956383D01*
X128733869Y-119966069D01*
X128886963Y-120259300D01*
X128891605Y-120269580D01*
X129010349Y-120578319D01*
X129013792Y-120589060D01*
X129096646Y-120909302D01*
X129098845Y-120920365D01*
X129144734Y-121247960D01*
X129145660Y-121259202D01*
X129153986Y-121589888D01*
X129153627Y-121601162D01*
X129124285Y-121930648D01*
X129122646Y-121941808D01*
X129056013Y-122265819D01*
X129053115Y-122276720D01*
X128950059Y-122591043D01*
X128945940Y-122601544D01*
X128807797Y-122902111D01*
X128802510Y-122912075D01*
X128631075Y-123194974D01*
X128624689Y-123204272D01*
X128422186Y-123465833D01*
X128414784Y-123474344D01*
X128183844Y-123711172D01*
X128175522Y-123718786D01*
X127919140Y-123927808D01*
X127910006Y-123934426D01*
X127631510Y-124112929D01*
X127621682Y-124118465D01*
X127324689Y-124264129D01*
X127314295Y-124268511D01*
X127002660Y-124379447D01*
X126991835Y-124382618D01*
X126669606Y-124457384D01*
X126658492Y-124459303D01*
X126329156Y-124497011D01*
X126319297Y-124497644D01*
X126153801Y-124499990D01*
X126152398Y-124500000D01*
X125500671Y-124500000D01*
X125499334Y-124499991D01*
X125336544Y-124497793D01*
X125326797Y-124497180D01*
X125002593Y-124460651D01*
X124991650Y-124458791D01*
X124878511Y-124432968D01*
X124674233Y-124386343D01*
X124663565Y-124383269D01*
X124356264Y-124275740D01*
X124346008Y-124271492D01*
X124052666Y-124130226D01*
X124042949Y-124124856D01*
X123767270Y-123951635D01*
X123758216Y-123945210D01*
X123503681Y-123742226D01*
X123495402Y-123734829D01*
X123265170Y-123504597D01*
X123257773Y-123496318D01*
X123054789Y-123241783D01*
X123048364Y-123232729D01*
X122875143Y-122957050D01*
X122869773Y-122947333D01*
X122728507Y-122653991D01*
X122724259Y-122643735D01*
X122616730Y-122336434D01*
X122613656Y-122325766D01*
X122612758Y-122321831D01*
X122541205Y-122008335D01*
X122539350Y-121997420D01*
X122502817Y-121673183D01*
X122502207Y-121663472D01*
X122500009Y-121500664D01*
X122500000Y-121499328D01*
X122500000Y-121375918D01*
X124002562Y-121375918D01*
X124002562Y-121375919D01*
X124002562Y-121624081D01*
X124043408Y-121868859D01*
X124087538Y-121997406D01*
X124123987Y-122103579D01*
X124211787Y-122265819D01*
X124242098Y-122321828D01*
X124394523Y-122517663D01*
X124577102Y-122685739D01*
X124577104Y-122685740D01*
X124577106Y-122685742D01*
X124784850Y-122821468D01*
X124784855Y-122821471D01*
X125012116Y-122921157D01*
X125252685Y-122982077D01*
X125500000Y-123002571D01*
X125747315Y-122982077D01*
X125987884Y-122921157D01*
X126215145Y-122821471D01*
X126422898Y-122685739D01*
X126605477Y-122517663D01*
X126757902Y-122321828D01*
X126876014Y-122103576D01*
X126956592Y-121868859D01*
X126997438Y-121624081D01*
X127000000Y-121500000D01*
X126997438Y-121375919D01*
X126956592Y-121131141D01*
X126876014Y-120896424D01*
X126757902Y-120678172D01*
X126605477Y-120482337D01*
X126422898Y-120314261D01*
X126422895Y-120314259D01*
X126422893Y-120314257D01*
X126215149Y-120178531D01*
X126215144Y-120178528D01*
X125987884Y-120078843D01*
X125747313Y-120017922D01*
X125500000Y-119997430D01*
X125252686Y-120017922D01*
X125012115Y-120078843D01*
X124784855Y-120178528D01*
X124784850Y-120178531D01*
X124577106Y-120314257D01*
X124394520Y-120482340D01*
X124242100Y-120678168D01*
X124242098Y-120678171D01*
X124123987Y-120896420D01*
X124043407Y-121131144D01*
X124002562Y-121375918D01*
X122500000Y-121375918D01*
X122500000Y-114499996D01*
X122497515Y-114324669D01*
X122456631Y-113976387D01*
X122456631Y-113976386D01*
X122375421Y-113635248D01*
X122254992Y-113305905D01*
X122096986Y-112992849D01*
X122096975Y-112992832D01*
X121903564Y-112700354D01*
X121677353Y-112432398D01*
X121421441Y-112192641D01*
X121421437Y-112192638D01*
X121139332Y-111984362D01*
X121139331Y-111984361D01*
X120834854Y-111810389D01*
X120512169Y-111673101D01*
X120512162Y-111673098D01*
X120175700Y-111574377D01*
X120175691Y-111574374D01*
X120175688Y-111574374D01*
X120003254Y-111542512D01*
X120003259Y-111542512D01*
X120003249Y-111542511D01*
X96246562Y-107499997D01*
X107544867Y-107499997D01*
X107544867Y-107500002D01*
X107563302Y-107628225D01*
X107600991Y-107710751D01*
X107617118Y-107746063D01*
X107699567Y-107841216D01*
X107701952Y-107843968D01*
X107779659Y-107893907D01*
X107810931Y-107914004D01*
X107935228Y-107950500D01*
X107935230Y-107950500D01*
X108064770Y-107950500D01*
X108064772Y-107950500D01*
X108189069Y-107914004D01*
X108263495Y-107866173D01*
X108302330Y-107841216D01*
X108355853Y-107825500D01*
X108475500Y-107825500D01*
X108533691Y-107844407D01*
X108569655Y-107893907D01*
X108574500Y-107924500D01*
X108574500Y-108289248D01*
X108590049Y-108387419D01*
X108590050Y-108387423D01*
X108647761Y-108500686D01*
X108650342Y-108505751D01*
X108744249Y-108599658D01*
X108862580Y-108659951D01*
X108929130Y-108670491D01*
X108960751Y-108675500D01*
X108960754Y-108675500D01*
X109464249Y-108675500D01*
X109492803Y-108670976D01*
X109562420Y-108659951D01*
X109680751Y-108599658D01*
X109774658Y-108505751D01*
X109834951Y-108387420D01*
X109850500Y-108289246D01*
X109850500Y-107710754D01*
X109834951Y-107612580D01*
X109774658Y-107494249D01*
X109680751Y-107400342D01*
X109676631Y-107398243D01*
X109562423Y-107340050D01*
X109562420Y-107340049D01*
X109537876Y-107336161D01*
X109464249Y-107324500D01*
X109464246Y-107324500D01*
X109038335Y-107324500D01*
X108980144Y-107305593D01*
X108968332Y-107295504D01*
X108912362Y-107239535D01*
X108912357Y-107239531D01*
X108838142Y-107196683D01*
X108838144Y-107196683D01*
X108801023Y-107186737D01*
X108755353Y-107174500D01*
X108755351Y-107174500D01*
X108355853Y-107174500D01*
X108302330Y-107158784D01*
X108189073Y-107085998D01*
X108189070Y-107085996D01*
X108189069Y-107085996D01*
X108189066Y-107085995D01*
X108064774Y-107049500D01*
X108064772Y-107049500D01*
X107935228Y-107049500D01*
X107935225Y-107049500D01*
X107810933Y-107085995D01*
X107810926Y-107085998D01*
X107701952Y-107156031D01*
X107617117Y-107253938D01*
X107563302Y-107371774D01*
X107544867Y-107499997D01*
X96246562Y-107499997D01*
X95997454Y-107457608D01*
X95996072Y-107457363D01*
X95829310Y-107426549D01*
X95819426Y-107424192D01*
X95493384Y-107328527D01*
X95482499Y-107324630D01*
X95170475Y-107191877D01*
X95160119Y-107186737D01*
X94865694Y-107018509D01*
X94856007Y-107012196D01*
X94827988Y-106991510D01*
X94583216Y-106810796D01*
X94574339Y-106803405D01*
X94356695Y-106599500D01*
X94326878Y-106571565D01*
X94318916Y-106563181D01*
X94100169Y-106304068D01*
X94093247Y-106294823D01*
X93906203Y-106011974D01*
X93900408Y-106001988D01*
X93899405Y-106000000D01*
X102094540Y-106000000D01*
X102114054Y-106185671D01*
X102114327Y-106188261D01*
X102172819Y-106368279D01*
X102172825Y-106368293D01*
X102245694Y-106494504D01*
X102267467Y-106532216D01*
X102394129Y-106672888D01*
X102547270Y-106784151D01*
X102720197Y-106861144D01*
X102905354Y-106900500D01*
X102905357Y-106900500D01*
X103094643Y-106900500D01*
X103094646Y-106900500D01*
X103279803Y-106861144D01*
X103452730Y-106784151D01*
X103605871Y-106672888D01*
X103732533Y-106532216D01*
X103827179Y-106368284D01*
X103885674Y-106188256D01*
X103905460Y-106000000D01*
X103885674Y-105811744D01*
X103827179Y-105631716D01*
X103827176Y-105631711D01*
X103827174Y-105631706D01*
X103758550Y-105512847D01*
X103732533Y-105467784D01*
X103678249Y-105407496D01*
X103605875Y-105327116D01*
X103605870Y-105327111D01*
X103452731Y-105215850D01*
X103452732Y-105215850D01*
X103452730Y-105215849D01*
X103452725Y-105215847D01*
X103452722Y-105215845D01*
X103279805Y-105138857D01*
X103279803Y-105138856D01*
X103279800Y-105138855D01*
X103279799Y-105138855D01*
X103244580Y-105131369D01*
X103094646Y-105099500D01*
X102905354Y-105099500D01*
X102787289Y-105124595D01*
X102720200Y-105138855D01*
X102720194Y-105138857D01*
X102547277Y-105215845D01*
X102547268Y-105215850D01*
X102394129Y-105327111D01*
X102394124Y-105327116D01*
X102267469Y-105467781D01*
X102267465Y-105467787D01*
X102172825Y-105631706D01*
X102172819Y-105631720D01*
X102114327Y-105811738D01*
X102114326Y-105811742D01*
X102114326Y-105811744D01*
X102094540Y-106000000D01*
X93899405Y-106000000D01*
X93747616Y-105699262D01*
X93743018Y-105688653D01*
X93738208Y-105675500D01*
X93626567Y-105370187D01*
X93623238Y-105359119D01*
X93544707Y-105029236D01*
X93542694Y-105017869D01*
X93503075Y-104680368D01*
X93502413Y-104670260D01*
X93500010Y-104500703D01*
X93500000Y-104499301D01*
X93500000Y-97431006D01*
X105799500Y-97431006D01*
X105799500Y-100568996D01*
X105826420Y-100704327D01*
X105826420Y-100704329D01*
X105879223Y-100831808D01*
X105953580Y-100943093D01*
X105955886Y-100946543D01*
X109053457Y-104044114D01*
X109168189Y-104120775D01*
X109295672Y-104173580D01*
X109431006Y-104200500D01*
X109431007Y-104200500D01*
X109568993Y-104200500D01*
X109568994Y-104200500D01*
X109704329Y-104173580D01*
X109831811Y-104120775D01*
X109946543Y-104044114D01*
X110044114Y-103946543D01*
X110120775Y-103831811D01*
X110173580Y-103704329D01*
X110200500Y-103568994D01*
X110200500Y-103431006D01*
X110173580Y-103295672D01*
X110120775Y-103168189D01*
X110120775Y-103168188D01*
X110120773Y-103168186D01*
X110045146Y-103055001D01*
X110028537Y-102996113D01*
X110045146Y-102944999D01*
X110079669Y-102893331D01*
X110120775Y-102831811D01*
X110173580Y-102704328D01*
X110200499Y-102568994D01*
X110200499Y-102431006D01*
X110173580Y-102295672D01*
X110120775Y-102168189D01*
X110044114Y-102053457D01*
X108229496Y-100238839D01*
X108201719Y-100184322D01*
X108200500Y-100168835D01*
X108200500Y-98431008D01*
X108200499Y-98431004D01*
X108190052Y-98378483D01*
X108173580Y-98295672D01*
X108152149Y-98243933D01*
X108120777Y-98168193D01*
X108120776Y-98168191D01*
X108120775Y-98168189D01*
X108091490Y-98124361D01*
X108044114Y-98053457D01*
X106946543Y-96955886D01*
X106831811Y-96879225D01*
X106831810Y-96879224D01*
X106831808Y-96879223D01*
X106704328Y-96826420D01*
X106568996Y-96799500D01*
X106568994Y-96799500D01*
X106431006Y-96799500D01*
X106431003Y-96799500D01*
X106295672Y-96826420D01*
X106295670Y-96826420D01*
X106168191Y-96879223D01*
X106053460Y-96955883D01*
X105955883Y-97053460D01*
X105879223Y-97168191D01*
X105826422Y-97295665D01*
X105826419Y-97295675D01*
X105816397Y-97346062D01*
X105816397Y-97346063D01*
X105799500Y-97431006D01*
X93500000Y-97431006D01*
X93500000Y-95000000D01*
X102094540Y-95000000D01*
X102109545Y-95142769D01*
X102114327Y-95188261D01*
X102172819Y-95368279D01*
X102172825Y-95368293D01*
X102220288Y-95450500D01*
X102267467Y-95532216D01*
X102267469Y-95532218D01*
X102381429Y-95658784D01*
X102394129Y-95672888D01*
X102547270Y-95784151D01*
X102720197Y-95861144D01*
X102905354Y-95900500D01*
X102905357Y-95900500D01*
X103094643Y-95900500D01*
X103094646Y-95900500D01*
X103279803Y-95861144D01*
X103452730Y-95784151D01*
X103605871Y-95672888D01*
X103732533Y-95532216D01*
X103827179Y-95368284D01*
X103885674Y-95188256D01*
X103905460Y-95000000D01*
X103885674Y-94811744D01*
X103827179Y-94631716D01*
X103827176Y-94631711D01*
X103827174Y-94631706D01*
X103750257Y-94498483D01*
X103732533Y-94467784D01*
X103605871Y-94327112D01*
X103603652Y-94325500D01*
X103452731Y-94215850D01*
X103452732Y-94215850D01*
X103452730Y-94215849D01*
X103452725Y-94215847D01*
X103452722Y-94215845D01*
X103279805Y-94138857D01*
X103279803Y-94138856D01*
X103279800Y-94138855D01*
X103279799Y-94138855D01*
X103244580Y-94131369D01*
X103094646Y-94099500D01*
X102905354Y-94099500D01*
X102787289Y-94124595D01*
X102720200Y-94138855D01*
X102720194Y-94138857D01*
X102547277Y-94215845D01*
X102547268Y-94215850D01*
X102394129Y-94327111D01*
X102394124Y-94327116D01*
X102267469Y-94467781D01*
X102267465Y-94467787D01*
X102172825Y-94631706D01*
X102172819Y-94631720D01*
X102114327Y-94811738D01*
X102114326Y-94811742D01*
X102114326Y-94811744D01*
X102094540Y-95000000D01*
X93500000Y-95000000D01*
X93500000Y-92254001D01*
X94792000Y-92254001D01*
X94792000Y-92273851D01*
X94802255Y-92374232D01*
X94856153Y-92536886D01*
X94856154Y-92536888D01*
X94946108Y-92682726D01*
X95067273Y-92803891D01*
X95213111Y-92893845D01*
X95213113Y-92893846D01*
X95375767Y-92947744D01*
X95476148Y-92958000D01*
X95745999Y-92958000D01*
X95746000Y-92957999D01*
X95746000Y-92254001D01*
X95745999Y-92254000D01*
X94792001Y-92254000D01*
X94792000Y-92254001D01*
X93500000Y-92254001D01*
X93500000Y-91726148D01*
X94792000Y-91726148D01*
X94792000Y-91745999D01*
X94792001Y-91746000D01*
X95839940Y-91746000D01*
X95815795Y-91759940D01*
X95759940Y-91815795D01*
X95720444Y-91884204D01*
X95700000Y-91960504D01*
X95700000Y-92039496D01*
X95720444Y-92115796D01*
X95759940Y-92184205D01*
X95815795Y-92240060D01*
X95884204Y-92279556D01*
X95960504Y-92300000D01*
X96039496Y-92300000D01*
X96115796Y-92279556D01*
X96160059Y-92254001D01*
X96254000Y-92254001D01*
X96254000Y-92957999D01*
X96254001Y-92958000D01*
X96523852Y-92958000D01*
X96624232Y-92947744D01*
X96786886Y-92893846D01*
X96786888Y-92893845D01*
X96932726Y-92803891D01*
X97053891Y-92682726D01*
X97143845Y-92536888D01*
X97143846Y-92536886D01*
X97197744Y-92374232D01*
X97208000Y-92273851D01*
X97208000Y-92254001D01*
X98792000Y-92254001D01*
X98792000Y-92273851D01*
X98802255Y-92374232D01*
X98856153Y-92536886D01*
X98856154Y-92536888D01*
X98946108Y-92682726D01*
X99067273Y-92803891D01*
X99213111Y-92893845D01*
X99213113Y-92893846D01*
X99375767Y-92947744D01*
X99476148Y-92958000D01*
X99745999Y-92958000D01*
X99746000Y-92957999D01*
X99746000Y-92254001D01*
X99745999Y-92254000D01*
X98792001Y-92254000D01*
X98792000Y-92254001D01*
X97208000Y-92254001D01*
X97207999Y-92254000D01*
X96254001Y-92254000D01*
X96254000Y-92254001D01*
X96160059Y-92254001D01*
X96184205Y-92240060D01*
X96240060Y-92184205D01*
X96279556Y-92115796D01*
X96300000Y-92039496D01*
X96300000Y-91960504D01*
X96279556Y-91884204D01*
X96240060Y-91815795D01*
X96184205Y-91759940D01*
X96160060Y-91746000D01*
X97207999Y-91746000D01*
X97208000Y-91745999D01*
X97208000Y-91726148D01*
X97197744Y-91625767D01*
X97143846Y-91463113D01*
X97143845Y-91463111D01*
X97053891Y-91317273D01*
X96932726Y-91196108D01*
X96874319Y-91160082D01*
X96834718Y-91113441D01*
X96830095Y-91052431D01*
X96834828Y-91037936D01*
X96875501Y-90939744D01*
X96900500Y-90814069D01*
X96900500Y-90685931D01*
X96875501Y-90560256D01*
X96826465Y-90441873D01*
X96826463Y-90441870D01*
X96826461Y-90441866D01*
X96797717Y-90398848D01*
X96755276Y-90335331D01*
X96664669Y-90244724D01*
X96608681Y-90207314D01*
X96570803Y-90159265D01*
X96568401Y-90098127D01*
X96602394Y-90047253D01*
X96608682Y-90042685D01*
X96619055Y-90035754D01*
X96664669Y-90005276D01*
X96755276Y-89914669D01*
X96785458Y-89869497D01*
X96833508Y-89831619D01*
X96867773Y-89825500D01*
X99132227Y-89825500D01*
X99190418Y-89844407D01*
X99214540Y-89869496D01*
X99244724Y-89914669D01*
X99244727Y-89914672D01*
X99335331Y-90005276D01*
X99391317Y-90042685D01*
X99429196Y-90090735D01*
X99431598Y-90151874D01*
X99397604Y-90202747D01*
X99391317Y-90207315D01*
X99335331Y-90244723D01*
X99244727Y-90335327D01*
X99244724Y-90335331D01*
X99173538Y-90441866D01*
X99173534Y-90441874D01*
X99124500Y-90560252D01*
X99124499Y-90560257D01*
X99102188Y-90672420D01*
X99099500Y-90685931D01*
X99099500Y-90814069D01*
X99118572Y-90909950D01*
X99124499Y-90939742D01*
X99124500Y-90939747D01*
X99165171Y-91037935D01*
X99169972Y-91098932D01*
X99138002Y-91151101D01*
X99125681Y-91160081D01*
X99067274Y-91196107D01*
X98946108Y-91317273D01*
X98856154Y-91463111D01*
X98856153Y-91463113D01*
X98802255Y-91625767D01*
X98792000Y-91726148D01*
X98792000Y-91745999D01*
X98792001Y-91746000D01*
X99839940Y-91746000D01*
X99815795Y-91759940D01*
X99759940Y-91815795D01*
X99720444Y-91884204D01*
X99700000Y-91960504D01*
X99700000Y-92039496D01*
X99720444Y-92115796D01*
X99759940Y-92184205D01*
X99815795Y-92240060D01*
X99884204Y-92279556D01*
X99960504Y-92300000D01*
X100039496Y-92300000D01*
X100115796Y-92279556D01*
X100160059Y-92254001D01*
X100254000Y-92254001D01*
X100254000Y-92957999D01*
X100254001Y-92958000D01*
X100523852Y-92958000D01*
X100624232Y-92947744D01*
X100786886Y-92893846D01*
X100786888Y-92893845D01*
X100932726Y-92803891D01*
X101053891Y-92682726D01*
X101143845Y-92536888D01*
X101143846Y-92536886D01*
X101197744Y-92374232D01*
X101208000Y-92273851D01*
X101208000Y-92254001D01*
X101207999Y-92254000D01*
X100254001Y-92254000D01*
X100254000Y-92254001D01*
X100160059Y-92254001D01*
X100184205Y-92240060D01*
X100240060Y-92184205D01*
X100279556Y-92115796D01*
X100300000Y-92039496D01*
X100300000Y-91960504D01*
X100279556Y-91884204D01*
X100240060Y-91815795D01*
X100184205Y-91759940D01*
X100160060Y-91746000D01*
X101207999Y-91746000D01*
X101208000Y-91745999D01*
X101208000Y-91726148D01*
X101197744Y-91625767D01*
X101143846Y-91463113D01*
X101143845Y-91463111D01*
X101053891Y-91317273D01*
X100932726Y-91196108D01*
X100874319Y-91160082D01*
X100834718Y-91113441D01*
X100830095Y-91052431D01*
X100834828Y-91037936D01*
X100875501Y-90939744D01*
X100900500Y-90814069D01*
X100900500Y-90685931D01*
X100875501Y-90560256D01*
X100826465Y-90441873D01*
X100826463Y-90441870D01*
X100826461Y-90441866D01*
X100797717Y-90398848D01*
X100755276Y-90335331D01*
X100664669Y-90244724D01*
X100608681Y-90207314D01*
X100570803Y-90159265D01*
X100568401Y-90098127D01*
X100602394Y-90047253D01*
X100608682Y-90042685D01*
X100619055Y-90035754D01*
X100664669Y-90005276D01*
X100755276Y-89914669D01*
X100785458Y-89869497D01*
X100833508Y-89831619D01*
X100867773Y-89825500D01*
X102324165Y-89825500D01*
X102382356Y-89844407D01*
X102394169Y-89854496D01*
X102695504Y-90155831D01*
X102723281Y-90210348D01*
X102724500Y-90225835D01*
X102724500Y-91143543D01*
X102724500Y-91229249D01*
X102727786Y-91241512D01*
X102746683Y-91312039D01*
X102789531Y-91386253D01*
X102789533Y-91386255D01*
X102789535Y-91386258D01*
X106103137Y-94699859D01*
X106103139Y-94699862D01*
X106163742Y-94760465D01*
X106183166Y-94771679D01*
X106183170Y-94771683D01*
X106183171Y-94771682D01*
X106237965Y-94803318D01*
X106320748Y-94825500D01*
X106320750Y-94825501D01*
X106320751Y-94825501D01*
X106412520Y-94825501D01*
X106412536Y-94825500D01*
X108966663Y-94825500D01*
X109024854Y-94844407D01*
X109060818Y-94893907D01*
X109061471Y-94939356D01*
X109064310Y-94939765D01*
X109044867Y-95074997D01*
X109044867Y-95075002D01*
X109063302Y-95203225D01*
X109082865Y-95246061D01*
X109117118Y-95321063D01*
X109150320Y-95359380D01*
X109174137Y-95415740D01*
X109174500Y-95424211D01*
X109174500Y-95957147D01*
X109174500Y-96042853D01*
X109175121Y-96045169D01*
X109196683Y-96125643D01*
X109239531Y-96199857D01*
X109239534Y-96199861D01*
X109239535Y-96199862D01*
X109453677Y-96414004D01*
X109645503Y-96605829D01*
X109673281Y-96660346D01*
X109674500Y-96675833D01*
X109674500Y-100057147D01*
X109674500Y-100142853D01*
X109688948Y-100196774D01*
X109696683Y-100225643D01*
X109739531Y-100299857D01*
X109739532Y-100299858D01*
X109739533Y-100299859D01*
X109739535Y-100299862D01*
X110090173Y-100650500D01*
X110439534Y-100999861D01*
X110439535Y-100999862D01*
X110439534Y-100999862D01*
X110475424Y-101035751D01*
X110500138Y-101060465D01*
X110574362Y-101103318D01*
X110657147Y-101125500D01*
X110742852Y-101125500D01*
X111975103Y-101125500D01*
X112033294Y-101144407D01*
X112069258Y-101193907D01*
X112069258Y-101255093D01*
X112033294Y-101304593D01*
X112022549Y-101311390D01*
X111942786Y-101354943D01*
X111719437Y-101522140D01*
X111522140Y-101719437D01*
X111354943Y-101942786D01*
X111221232Y-102187659D01*
X111221231Y-102187661D01*
X111123730Y-102449072D01*
X111064421Y-102721711D01*
X111044518Y-103000000D01*
X111064421Y-103278288D01*
X111064421Y-103278291D01*
X111064422Y-103278294D01*
X111123729Y-103550923D01*
X111123730Y-103550927D01*
X111221231Y-103812338D01*
X111221232Y-103812340D01*
X111354944Y-104057213D01*
X111354943Y-104057213D01*
X111522140Y-104280562D01*
X111522142Y-104280564D01*
X111522145Y-104280568D01*
X111719432Y-104477855D01*
X111719435Y-104477857D01*
X111719437Y-104477859D01*
X111942786Y-104645056D01*
X112187659Y-104778767D01*
X112187663Y-104778769D01*
X112449073Y-104876269D01*
X112449073Y-104876270D01*
X112449076Y-104876270D01*
X112449077Y-104876271D01*
X112596545Y-104908350D01*
X112649385Y-104939194D01*
X112674006Y-104995207D01*
X112674500Y-105005087D01*
X112674500Y-105824164D01*
X112655593Y-105882355D01*
X112645504Y-105894168D01*
X111226786Y-107312885D01*
X111172269Y-107340662D01*
X111141295Y-107340662D01*
X111039249Y-107324500D01*
X111039246Y-107324500D01*
X110535754Y-107324500D01*
X110535751Y-107324500D01*
X110437580Y-107340049D01*
X110437576Y-107340050D01*
X110319250Y-107400341D01*
X110225341Y-107494250D01*
X110165050Y-107612576D01*
X110165049Y-107612580D01*
X110149500Y-107710751D01*
X110149500Y-108289248D01*
X110165049Y-108387419D01*
X110165050Y-108387423D01*
X110222761Y-108500686D01*
X110225342Y-108505751D01*
X110319249Y-108599658D01*
X110437580Y-108659951D01*
X110504130Y-108670491D01*
X110535751Y-108675500D01*
X110535754Y-108675500D01*
X111039249Y-108675500D01*
X111067803Y-108670976D01*
X111137420Y-108659951D01*
X111255751Y-108599658D01*
X111349658Y-108505751D01*
X111409951Y-108387420D01*
X111425500Y-108289246D01*
X111425500Y-108075834D01*
X111444407Y-108017643D01*
X111454490Y-108005836D01*
X113260465Y-106199862D01*
X113303318Y-106125639D01*
X113325500Y-106042853D01*
X113325500Y-105957147D01*
X113325500Y-105005087D01*
X113344407Y-104946896D01*
X113393907Y-104910932D01*
X113403442Y-104908352D01*
X113550923Y-104876271D01*
X113812337Y-104778769D01*
X114057213Y-104645056D01*
X114280568Y-104477855D01*
X114477855Y-104280568D01*
X114645056Y-104057213D01*
X114778769Y-103812337D01*
X114876271Y-103550923D01*
X114935578Y-103278294D01*
X114955482Y-103000000D01*
X114935578Y-102721706D01*
X114876271Y-102449077D01*
X114778769Y-102187663D01*
X114772310Y-102175835D01*
X114705488Y-102053460D01*
X114645056Y-101942787D01*
X114645055Y-101942786D01*
X114645056Y-101942786D01*
X114477859Y-101719437D01*
X114477857Y-101719435D01*
X114477855Y-101719432D01*
X114280568Y-101522145D01*
X114280564Y-101522142D01*
X114280562Y-101522140D01*
X114057213Y-101354943D01*
X113977451Y-101311390D01*
X113935440Y-101266908D01*
X113927598Y-101206227D01*
X113956921Y-101152526D01*
X114012209Y-101126316D01*
X114024897Y-101125500D01*
X114624165Y-101125500D01*
X114682356Y-101144407D01*
X114694169Y-101154496D01*
X115645504Y-102105831D01*
X115673281Y-102160348D01*
X115674500Y-102175835D01*
X115674500Y-104093543D01*
X115674500Y-104179249D01*
X115690653Y-104239535D01*
X115696683Y-104262039D01*
X115739531Y-104336253D01*
X115739532Y-104336254D01*
X115739533Y-104336255D01*
X115739535Y-104336258D01*
X116182044Y-104778767D01*
X116603138Y-105199861D01*
X116603139Y-105199862D01*
X116603138Y-105199862D01*
X116663739Y-105260462D01*
X116663742Y-105260465D01*
X116737966Y-105303318D01*
X116820751Y-105325500D01*
X118324165Y-105325500D01*
X118382356Y-105344407D01*
X118394169Y-105354496D01*
X120800138Y-107760465D01*
X120800140Y-107760466D01*
X120800141Y-107760467D01*
X120800142Y-107760468D01*
X120874357Y-107803316D01*
X120874355Y-107803316D01*
X120874359Y-107803317D01*
X120874361Y-107803318D01*
X120957147Y-107825500D01*
X124645527Y-107825500D01*
X124703718Y-107844407D01*
X124739682Y-107893907D01*
X124742625Y-107905186D01*
X124749499Y-107939743D01*
X124749499Y-107939745D01*
X124798532Y-108058122D01*
X124798538Y-108058133D01*
X124831943Y-108108126D01*
X124869724Y-108164669D01*
X124960331Y-108255276D01*
X125011171Y-108289246D01*
X125066866Y-108326461D01*
X125066870Y-108326463D01*
X125066873Y-108326465D01*
X125185256Y-108375501D01*
X125310931Y-108400500D01*
X125310932Y-108400500D01*
X125439068Y-108400500D01*
X125439069Y-108400500D01*
X125564744Y-108375501D01*
X125683127Y-108326465D01*
X125789669Y-108255276D01*
X125875883Y-108169062D01*
X125930399Y-108141284D01*
X125990832Y-108150855D01*
X126034096Y-108194118D01*
X126051472Y-108228220D01*
X126146780Y-108323528D01*
X126146782Y-108323529D01*
X126266867Y-108384716D01*
X126266869Y-108384716D01*
X126266874Y-108384719D01*
X126342541Y-108396703D01*
X126366510Y-108400500D01*
X126366512Y-108400500D01*
X126883490Y-108400500D01*
X126904885Y-108397111D01*
X126983126Y-108384719D01*
X127103220Y-108323528D01*
X127198528Y-108228220D01*
X127259719Y-108108126D01*
X127275500Y-108008488D01*
X127275500Y-106991512D01*
X127259719Y-106891874D01*
X127259716Y-106891869D01*
X127259716Y-106891867D01*
X127198529Y-106771782D01*
X127198528Y-106771780D01*
X127103220Y-106676472D01*
X127103217Y-106676470D01*
X126983129Y-106615282D01*
X126983127Y-106615281D01*
X126916849Y-106604783D01*
X126862333Y-106577006D01*
X126470998Y-106185671D01*
X126024862Y-105739535D01*
X126024859Y-105739533D01*
X126024858Y-105739532D01*
X126024857Y-105739531D01*
X125950642Y-105696683D01*
X125950644Y-105696683D01*
X125896534Y-105682185D01*
X125867853Y-105674500D01*
X125867851Y-105674500D01*
X125844916Y-105674500D01*
X125786725Y-105655593D01*
X125750761Y-105606093D01*
X125750761Y-105544907D01*
X125770640Y-105512465D01*
X125770077Y-105512056D01*
X125774651Y-105505757D01*
X125774658Y-105505751D01*
X125834951Y-105387420D01*
X125848271Y-105303318D01*
X125850500Y-105289248D01*
X125850500Y-104710751D01*
X125844086Y-104670260D01*
X125834951Y-104612580D01*
X125774658Y-104494249D01*
X125680751Y-104400342D01*
X125676328Y-104398088D01*
X125592054Y-104355148D01*
X125548790Y-104311883D01*
X125538000Y-104266939D01*
X125538000Y-103499997D01*
X126044867Y-103499997D01*
X126044867Y-103500002D01*
X126063302Y-103628225D01*
X126078664Y-103661862D01*
X126117118Y-103746063D01*
X126191418Y-103831811D01*
X126201952Y-103843968D01*
X126234948Y-103865173D01*
X126310931Y-103914004D01*
X126390891Y-103937481D01*
X126441398Y-103972016D01*
X126461960Y-104029643D01*
X126462000Y-104032471D01*
X126462000Y-104266939D01*
X126443093Y-104325130D01*
X126407946Y-104355148D01*
X126319250Y-104400341D01*
X126225341Y-104494250D01*
X126165050Y-104612576D01*
X126165049Y-104612580D01*
X126149500Y-104710751D01*
X126149500Y-105289248D01*
X126165049Y-105387419D01*
X126165050Y-105387423D01*
X126205995Y-105467781D01*
X126225342Y-105505751D01*
X126319249Y-105599658D01*
X126437580Y-105659951D01*
X126504130Y-105670491D01*
X126535751Y-105675500D01*
X126535754Y-105675500D01*
X127039249Y-105675500D01*
X127067803Y-105670976D01*
X127137420Y-105659951D01*
X127255751Y-105599658D01*
X127349658Y-105505751D01*
X127409951Y-105387420D01*
X127423271Y-105303318D01*
X127425500Y-105289248D01*
X127425500Y-104710751D01*
X127419086Y-104670260D01*
X127409951Y-104612580D01*
X127349658Y-104494249D01*
X127255751Y-104400342D01*
X127251328Y-104398088D01*
X127167054Y-104355148D01*
X127123790Y-104311883D01*
X127113000Y-104266939D01*
X127113000Y-103744648D01*
X127102197Y-103704330D01*
X127090818Y-103661862D01*
X127047965Y-103587638D01*
X127029319Y-103568992D01*
X126987362Y-103527034D01*
X126987362Y-103527035D01*
X126977558Y-103517231D01*
X126949781Y-103462714D01*
X126949594Y-103461485D01*
X126936697Y-103371774D01*
X126882882Y-103253937D01*
X126798049Y-103156033D01*
X126798048Y-103156032D01*
X126798047Y-103156031D01*
X126689073Y-103085998D01*
X126689070Y-103085996D01*
X126689069Y-103085996D01*
X126689066Y-103085995D01*
X126564774Y-103049500D01*
X126564772Y-103049500D01*
X126435228Y-103049500D01*
X126435225Y-103049500D01*
X126310933Y-103085995D01*
X126310926Y-103085998D01*
X126201952Y-103156031D01*
X126117117Y-103253938D01*
X126063302Y-103371774D01*
X126044867Y-103499997D01*
X125538000Y-103499997D01*
X125538000Y-102963335D01*
X125556907Y-102905144D01*
X125566996Y-102893331D01*
X127780831Y-100679496D01*
X127835348Y-100651719D01*
X127850835Y-100650500D01*
X128644147Y-100650500D01*
X128697670Y-100666216D01*
X128718334Y-100679496D01*
X128810931Y-100739004D01*
X128935228Y-100775500D01*
X128935230Y-100775500D01*
X129064770Y-100775500D01*
X129064772Y-100775500D01*
X129189069Y-100739004D01*
X129298049Y-100668967D01*
X129382882Y-100571063D01*
X129436697Y-100453226D01*
X129451467Y-100350500D01*
X129455133Y-100325002D01*
X129455133Y-100324997D01*
X129436697Y-100196774D01*
X129429379Y-100180751D01*
X129382882Y-100078937D01*
X129298049Y-99981033D01*
X129298048Y-99981032D01*
X129298047Y-99981031D01*
X129189073Y-99910998D01*
X129189070Y-99910996D01*
X129189069Y-99910996D01*
X129172466Y-99906121D01*
X129064774Y-99874500D01*
X129064772Y-99874500D01*
X128935228Y-99874500D01*
X128935225Y-99874500D01*
X128810933Y-99910995D01*
X128810926Y-99910998D01*
X128697670Y-99983784D01*
X128644147Y-99999500D01*
X127717853Y-99999500D01*
X127632147Y-99999500D01*
X127581478Y-100013076D01*
X127549356Y-100021683D01*
X127475142Y-100064531D01*
X124952031Y-102587642D01*
X124909183Y-102661857D01*
X124909182Y-102661859D01*
X124899851Y-102696680D01*
X124899852Y-102696681D01*
X124887000Y-102744647D01*
X124887000Y-104266939D01*
X124868093Y-104325130D01*
X124832946Y-104355148D01*
X124744250Y-104400341D01*
X124650341Y-104494250D01*
X124590050Y-104612576D01*
X124590049Y-104612580D01*
X124574500Y-104710751D01*
X124574500Y-105289248D01*
X124590049Y-105387419D01*
X124590050Y-105387423D01*
X124620749Y-105447672D01*
X124650342Y-105505751D01*
X124650344Y-105505753D01*
X124654923Y-105512056D01*
X124653833Y-105512847D01*
X124677865Y-105560013D01*
X124668294Y-105620445D01*
X124625029Y-105663710D01*
X124580084Y-105674500D01*
X120675835Y-105674500D01*
X120617644Y-105655593D01*
X120605831Y-105645504D01*
X119907223Y-104946896D01*
X119199862Y-104239535D01*
X119199859Y-104239533D01*
X119199858Y-104239532D01*
X119199857Y-104239531D01*
X119125642Y-104196683D01*
X119125644Y-104196683D01*
X119093521Y-104188076D01*
X119042853Y-104174500D01*
X119042851Y-104174500D01*
X117175833Y-104174500D01*
X117117642Y-104155593D01*
X117105829Y-104145503D01*
X116854496Y-103894169D01*
X116826719Y-103839653D01*
X116825500Y-103824166D01*
X116825500Y-101919916D01*
X116844407Y-101861725D01*
X116893907Y-101825761D01*
X116955093Y-101825761D01*
X116987534Y-101845640D01*
X116987944Y-101845077D01*
X116994245Y-101849654D01*
X116994249Y-101849658D01*
X117112580Y-101909951D01*
X117179130Y-101920491D01*
X117210751Y-101925500D01*
X117210754Y-101925500D01*
X117789249Y-101925500D01*
X117817803Y-101920976D01*
X117887420Y-101909951D01*
X118005751Y-101849658D01*
X118099658Y-101755751D01*
X118103875Y-101747473D01*
X118147137Y-101704210D01*
X118207569Y-101694637D01*
X118262086Y-101722414D01*
X118262088Y-101722415D01*
X118582082Y-102042409D01*
X118609859Y-102096925D01*
X118614354Y-102125305D01*
X118669872Y-102234265D01*
X118671950Y-102238342D01*
X118761658Y-102328050D01*
X118874696Y-102385646D01*
X119000000Y-102405492D01*
X119125304Y-102385646D01*
X119238342Y-102328050D01*
X119328050Y-102238342D01*
X119385646Y-102125304D01*
X119405492Y-102000000D01*
X119385646Y-101874696D01*
X119328050Y-101761658D01*
X119238342Y-101671950D01*
X119125304Y-101614354D01*
X119125305Y-101614354D01*
X119096925Y-101609859D01*
X119042409Y-101582082D01*
X118764920Y-101304593D01*
X118496078Y-101035751D01*
X119824500Y-101035751D01*
X119824500Y-101539248D01*
X119840049Y-101637419D01*
X119840050Y-101637423D01*
X119874080Y-101704210D01*
X119900342Y-101755751D01*
X119994249Y-101849658D01*
X120112580Y-101909951D01*
X120179130Y-101920491D01*
X120210751Y-101925500D01*
X120210754Y-101925500D01*
X120789249Y-101925500D01*
X120817803Y-101920976D01*
X120887420Y-101909951D01*
X121005751Y-101849658D01*
X121099658Y-101755751D01*
X121103875Y-101747473D01*
X121147137Y-101704210D01*
X121207569Y-101694637D01*
X121262086Y-101722414D01*
X121262088Y-101722415D01*
X121800138Y-102260465D01*
X121800140Y-102260466D01*
X121800141Y-102260467D01*
X121800142Y-102260468D01*
X121874357Y-102303316D01*
X121874355Y-102303316D01*
X121874359Y-102303317D01*
X121874361Y-102303318D01*
X121957147Y-102325500D01*
X122042853Y-102325500D01*
X122644147Y-102325500D01*
X122697670Y-102341216D01*
X122766802Y-102385644D01*
X122810931Y-102414004D01*
X122935228Y-102450500D01*
X122935230Y-102450500D01*
X123064770Y-102450500D01*
X123064772Y-102450500D01*
X123189069Y-102414004D01*
X123298049Y-102343967D01*
X123382882Y-102246063D01*
X123436697Y-102128226D01*
X123455133Y-102000000D01*
X123436697Y-101871774D01*
X123382882Y-101753937D01*
X123298049Y-101656033D01*
X123298048Y-101656032D01*
X123298047Y-101656031D01*
X123189073Y-101585998D01*
X123189070Y-101585996D01*
X123189069Y-101585996D01*
X123175739Y-101582082D01*
X123064774Y-101549500D01*
X123064772Y-101549500D01*
X122935228Y-101549500D01*
X122935225Y-101549500D01*
X122810933Y-101585995D01*
X122810926Y-101585998D01*
X122697670Y-101658784D01*
X122644147Y-101674500D01*
X122175835Y-101674500D01*
X122117644Y-101655593D01*
X122105831Y-101645504D01*
X121815270Y-101354943D01*
X121487362Y-101027035D01*
X121487359Y-101027033D01*
X121487358Y-101027032D01*
X121487357Y-101027031D01*
X121413142Y-100984183D01*
X121413144Y-100984183D01*
X121381021Y-100975576D01*
X121330353Y-100962000D01*
X121330351Y-100962000D01*
X121233061Y-100962000D01*
X121174870Y-100943093D01*
X121144852Y-100907946D01*
X121126039Y-100871026D01*
X121099658Y-100819249D01*
X121005751Y-100725342D01*
X120915774Y-100679496D01*
X120887423Y-100665050D01*
X120887420Y-100665049D01*
X120862876Y-100661161D01*
X120789249Y-100649500D01*
X120789246Y-100649500D01*
X120210754Y-100649500D01*
X120210751Y-100649500D01*
X120112580Y-100665049D01*
X120112576Y-100665050D01*
X119994250Y-100725341D01*
X119900341Y-100819250D01*
X119840050Y-100937576D01*
X119840049Y-100937580D01*
X119824500Y-101035751D01*
X118496078Y-101035751D01*
X118487362Y-101027035D01*
X118487359Y-101027033D01*
X118487358Y-101027032D01*
X118487357Y-101027031D01*
X118413142Y-100984183D01*
X118413144Y-100984183D01*
X118381021Y-100975576D01*
X118330353Y-100962000D01*
X118330351Y-100962000D01*
X118233061Y-100962000D01*
X118174870Y-100943093D01*
X118144852Y-100907946D01*
X118126039Y-100871026D01*
X118099658Y-100819249D01*
X118005751Y-100725342D01*
X117915774Y-100679496D01*
X117887423Y-100665050D01*
X117887420Y-100665049D01*
X117862876Y-100661161D01*
X117789249Y-100649500D01*
X117789246Y-100649500D01*
X117210754Y-100649500D01*
X117210751Y-100649500D01*
X117112580Y-100665049D01*
X117112576Y-100665050D01*
X116994250Y-100725341D01*
X116900341Y-100819250D01*
X116840050Y-100937576D01*
X116840049Y-100937580D01*
X116824500Y-101035751D01*
X116824500Y-101325166D01*
X116805593Y-101383357D01*
X116756093Y-101419321D01*
X116694907Y-101419321D01*
X116655498Y-101395171D01*
X115299862Y-100039535D01*
X115277209Y-100026456D01*
X115236269Y-99980985D01*
X115229875Y-99920135D01*
X115233954Y-99906121D01*
X115251493Y-99859098D01*
X115251495Y-99859089D01*
X115258000Y-99798587D01*
X115258000Y-99460751D01*
X116824500Y-99460751D01*
X116824500Y-99964248D01*
X116833597Y-100021682D01*
X116836235Y-100038342D01*
X116840049Y-100062419D01*
X116840050Y-100062423D01*
X116857104Y-100095892D01*
X116900342Y-100180751D01*
X116994249Y-100274658D01*
X117112580Y-100334951D01*
X117179130Y-100345491D01*
X117210751Y-100350500D01*
X117210754Y-100350500D01*
X117789249Y-100350500D01*
X117817803Y-100345976D01*
X117887420Y-100334951D01*
X118005751Y-100274658D01*
X118099658Y-100180751D01*
X118159951Y-100062420D01*
X118175500Y-99964246D01*
X118175500Y-99460754D01*
X118175500Y-99460751D01*
X119824500Y-99460751D01*
X119824500Y-99964248D01*
X119833597Y-100021682D01*
X119836235Y-100038342D01*
X119840049Y-100062419D01*
X119840050Y-100062423D01*
X119857104Y-100095892D01*
X119900342Y-100180751D01*
X119994249Y-100274658D01*
X120112580Y-100334951D01*
X120179130Y-100345491D01*
X120210751Y-100350500D01*
X120210754Y-100350500D01*
X120789249Y-100350500D01*
X120817803Y-100345976D01*
X120887420Y-100334951D01*
X121005751Y-100274658D01*
X121099658Y-100180751D01*
X121159951Y-100062420D01*
X121175500Y-99964246D01*
X121175500Y-99460754D01*
X121159951Y-99362580D01*
X121099658Y-99244249D01*
X121005751Y-99150342D01*
X120906671Y-99099858D01*
X120906224Y-99099630D01*
X120862960Y-99056366D01*
X120853389Y-98995933D01*
X120881167Y-98941417D01*
X120980831Y-98841754D01*
X121035347Y-98813977D01*
X121050834Y-98812758D01*
X121064770Y-98812758D01*
X121064772Y-98812758D01*
X121189069Y-98776262D01*
X121298049Y-98706225D01*
X121382882Y-98608321D01*
X121436697Y-98490484D01*
X121445248Y-98431008D01*
X121455133Y-98362260D01*
X121455133Y-98362255D01*
X121436697Y-98234032D01*
X121400604Y-98155000D01*
X121382882Y-98116195D01*
X121298049Y-98018291D01*
X121298048Y-98018290D01*
X121298047Y-98018289D01*
X121189073Y-97948256D01*
X121189070Y-97948254D01*
X121189069Y-97948254D01*
X121189066Y-97948253D01*
X121064774Y-97911758D01*
X121064772Y-97911758D01*
X120935228Y-97911758D01*
X120935225Y-97911758D01*
X120810933Y-97948253D01*
X120810926Y-97948256D01*
X120701952Y-98018289D01*
X120617117Y-98116196D01*
X120563302Y-98234032D01*
X120550428Y-98323575D01*
X120523432Y-98378483D01*
X120522440Y-98379489D01*
X120239535Y-98662395D01*
X120239531Y-98662400D01*
X120196682Y-98736618D01*
X120196681Y-98736618D01*
X120196682Y-98736619D01*
X120174500Y-98819405D01*
X120174500Y-98998002D01*
X120155593Y-99056193D01*
X120117995Y-99083512D01*
X120119523Y-99086511D01*
X119994250Y-99150341D01*
X119900341Y-99244250D01*
X119840050Y-99362576D01*
X119840049Y-99362580D01*
X119824500Y-99460751D01*
X118175500Y-99460751D01*
X118159951Y-99362580D01*
X118159949Y-99362576D01*
X118159336Y-99358704D01*
X118168907Y-99298272D01*
X118187114Y-99273212D01*
X118730832Y-98729496D01*
X118785348Y-98701719D01*
X118800835Y-98700500D01*
X118814770Y-98700500D01*
X118814772Y-98700500D01*
X118939069Y-98664004D01*
X119048049Y-98593967D01*
X119132882Y-98496063D01*
X119186697Y-98378226D01*
X119198160Y-98298497D01*
X119205133Y-98250002D01*
X119205133Y-98249997D01*
X119186697Y-98121774D01*
X119173815Y-98093567D01*
X119132882Y-98003937D01*
X119048049Y-97906033D01*
X119048048Y-97906032D01*
X119048047Y-97906031D01*
X118939073Y-97835998D01*
X118939070Y-97835996D01*
X118939069Y-97835996D01*
X118939066Y-97835995D01*
X118814774Y-97799500D01*
X118814772Y-97799500D01*
X118685228Y-97799500D01*
X118685225Y-97799500D01*
X118560933Y-97835995D01*
X118560926Y-97835998D01*
X118451952Y-97906031D01*
X118367117Y-98003938D01*
X118313302Y-98121774D01*
X118300428Y-98211316D01*
X118273432Y-98266224D01*
X118272440Y-98267230D01*
X117494169Y-99045503D01*
X117439652Y-99073281D01*
X117424165Y-99074500D01*
X117210751Y-99074500D01*
X117112580Y-99090049D01*
X117112576Y-99090050D01*
X116994250Y-99150341D01*
X116900341Y-99244250D01*
X116840050Y-99362576D01*
X116840049Y-99362580D01*
X116824500Y-99460751D01*
X115258000Y-99460751D01*
X115258000Y-98254001D01*
X115257999Y-98254000D01*
X113918088Y-98254000D01*
X113950000Y-98093567D01*
X113950000Y-97906433D01*
X113918088Y-97746000D01*
X115257999Y-97746000D01*
X115258000Y-97745999D01*
X115258000Y-97099997D01*
X129644867Y-97099997D01*
X129644867Y-97100002D01*
X129663302Y-97228225D01*
X129694105Y-97295672D01*
X129717118Y-97346063D01*
X129750320Y-97384380D01*
X129774137Y-97440740D01*
X129774500Y-97449211D01*
X129774500Y-98857147D01*
X129774500Y-98942853D01*
X129793658Y-99014352D01*
X129796683Y-99025643D01*
X129839531Y-99099857D01*
X129839532Y-99099858D01*
X129839533Y-99099859D01*
X129839535Y-99099862D01*
X130200424Y-99460751D01*
X130539534Y-99799861D01*
X130539535Y-99799862D01*
X130539534Y-99799862D01*
X130571192Y-99831519D01*
X130600138Y-99860465D01*
X130674362Y-99903318D01*
X130757147Y-99925500D01*
X132153787Y-99925500D01*
X132211978Y-99944407D01*
X132241996Y-99979555D01*
X132265893Y-100026456D01*
X132271950Y-100038342D01*
X132361658Y-100128050D01*
X132474696Y-100185646D01*
X132568481Y-100200500D01*
X134231518Y-100200499D01*
X134231521Y-100200499D01*
X134231522Y-100200498D01*
X134278411Y-100193072D01*
X134325299Y-100185647D01*
X134325299Y-100185646D01*
X134325304Y-100185646D01*
X134438342Y-100128050D01*
X134528050Y-100038342D01*
X134585646Y-99925304D01*
X134600500Y-99831519D01*
X134600499Y-99368482D01*
X134585646Y-99274696D01*
X134528050Y-99161658D01*
X134438342Y-99071950D01*
X134325304Y-99014354D01*
X134325305Y-99014354D01*
X134231521Y-98999500D01*
X132568478Y-98999500D01*
X132568476Y-98999501D01*
X132474700Y-99014352D01*
X132474695Y-99014354D01*
X132361659Y-99071949D01*
X132271948Y-99161660D01*
X132241996Y-99220445D01*
X132198732Y-99263710D01*
X132153787Y-99274500D01*
X130975835Y-99274500D01*
X130917644Y-99255593D01*
X130905831Y-99245504D01*
X130454496Y-98794169D01*
X130426719Y-98739652D01*
X130425500Y-98724165D01*
X130425500Y-97449211D01*
X130444407Y-97391020D01*
X130449680Y-97384380D01*
X130482882Y-97346063D01*
X130536697Y-97228226D01*
X130555133Y-97100000D01*
X130553193Y-97086508D01*
X130536697Y-96971774D01*
X130529440Y-96955883D01*
X130482882Y-96853937D01*
X130398049Y-96756033D01*
X130398048Y-96756032D01*
X130398047Y-96756031D01*
X130289073Y-96685998D01*
X130289070Y-96685996D01*
X130289069Y-96685996D01*
X130289066Y-96685995D01*
X130164774Y-96649500D01*
X130164772Y-96649500D01*
X130035228Y-96649500D01*
X130035225Y-96649500D01*
X129910933Y-96685995D01*
X129910926Y-96685998D01*
X129801952Y-96756031D01*
X129717117Y-96853938D01*
X129663302Y-96971774D01*
X129644867Y-97099997D01*
X115258000Y-97099997D01*
X115258000Y-96201412D01*
X115251495Y-96140911D01*
X115251493Y-96140901D01*
X115200447Y-96004039D01*
X115112907Y-95887100D01*
X115112899Y-95887092D01*
X114995960Y-95799552D01*
X114859098Y-95748506D01*
X114859088Y-95748504D01*
X114798587Y-95742000D01*
X113254001Y-95742000D01*
X113254000Y-95742001D01*
X113254000Y-97081912D01*
X113093567Y-97050000D01*
X112906433Y-97050000D01*
X112746000Y-97081912D01*
X112746000Y-95742001D01*
X112745999Y-95742000D01*
X111201413Y-95742000D01*
X111140911Y-95748504D01*
X111140901Y-95748506D01*
X111004039Y-95799552D01*
X110983828Y-95814683D01*
X110925914Y-95834419D01*
X110867459Y-95816344D01*
X110830792Y-95767363D01*
X110825500Y-95735429D01*
X110825500Y-95424211D01*
X110844407Y-95366020D01*
X110849680Y-95359380D01*
X110882882Y-95321063D01*
X110936697Y-95203226D01*
X110947480Y-95128226D01*
X110955133Y-95075002D01*
X110955133Y-95074997D01*
X110935690Y-94939765D01*
X110938716Y-94939329D01*
X110940102Y-94891209D01*
X110977477Y-94842765D01*
X111033337Y-94825500D01*
X114824165Y-94825500D01*
X114882356Y-94844407D01*
X114894169Y-94854496D01*
X116239535Y-96199862D01*
X116239534Y-96199862D01*
X116285734Y-96246061D01*
X116300138Y-96260465D01*
X116374362Y-96303318D01*
X116457147Y-96325500D01*
X117644147Y-96325500D01*
X117697670Y-96341216D01*
X117810926Y-96414001D01*
X117810931Y-96414004D01*
X117935228Y-96450500D01*
X117935230Y-96450500D01*
X118064770Y-96450500D01*
X118064772Y-96450500D01*
X118189069Y-96414004D01*
X118298049Y-96343967D01*
X118382882Y-96246063D01*
X118436697Y-96128226D01*
X118450337Y-96033356D01*
X118455133Y-96000002D01*
X118455133Y-95999997D01*
X118436697Y-95871774D01*
X118414954Y-95824165D01*
X118382882Y-95753937D01*
X118298049Y-95656033D01*
X118298048Y-95656032D01*
X118298047Y-95656031D01*
X118294888Y-95654001D01*
X131892001Y-95654001D01*
X131892001Y-95657232D01*
X131898481Y-95728556D01*
X131898483Y-95728562D01*
X131949630Y-95892699D01*
X131949633Y-95892707D01*
X132038580Y-96039842D01*
X132160157Y-96161419D01*
X132307292Y-96250366D01*
X132307300Y-96250369D01*
X132471436Y-96301516D01*
X132471442Y-96301518D01*
X132542774Y-96307999D01*
X133145998Y-96307999D01*
X133146000Y-96307998D01*
X133146000Y-95654001D01*
X133654000Y-95654001D01*
X133654000Y-96307998D01*
X133654001Y-96307999D01*
X134257216Y-96307999D01*
X134257232Y-96307998D01*
X134328556Y-96301518D01*
X134328562Y-96301516D01*
X134492699Y-96250369D01*
X134492707Y-96250366D01*
X134639842Y-96161419D01*
X134761419Y-96039842D01*
X134850366Y-95892707D01*
X134850369Y-95892699D01*
X134901516Y-95728563D01*
X134901518Y-95728557D01*
X134907999Y-95657230D01*
X134908000Y-95657218D01*
X134908000Y-95654001D01*
X134907999Y-95654000D01*
X133654001Y-95654000D01*
X133654000Y-95654001D01*
X133146000Y-95654001D01*
X133145999Y-95654000D01*
X131892002Y-95654000D01*
X131892001Y-95654001D01*
X118294888Y-95654001D01*
X118189073Y-95585998D01*
X118189070Y-95585996D01*
X118189069Y-95585996D01*
X118189066Y-95585995D01*
X118064774Y-95549500D01*
X118064772Y-95549500D01*
X117935228Y-95549500D01*
X117935225Y-95549500D01*
X117810933Y-95585995D01*
X117810926Y-95585998D01*
X117697670Y-95658784D01*
X117644147Y-95674500D01*
X116675835Y-95674500D01*
X116617644Y-95655593D01*
X116605831Y-95645504D01*
X116454832Y-95494505D01*
X116427055Y-95439988D01*
X116436626Y-95379556D01*
X116479891Y-95336291D01*
X116524836Y-95325501D01*
X116548916Y-95325501D01*
X116548932Y-95325500D01*
X116644147Y-95325500D01*
X116697670Y-95341216D01*
X116769357Y-95387286D01*
X116810931Y-95414004D01*
X116935228Y-95450500D01*
X116935230Y-95450500D01*
X117064770Y-95450500D01*
X117064772Y-95450500D01*
X117189069Y-95414004D01*
X117298049Y-95343967D01*
X117382882Y-95246063D01*
X117430055Y-95142769D01*
X131892000Y-95142769D01*
X131892000Y-95145999D01*
X131892001Y-95146000D01*
X133145999Y-95146000D01*
X133146000Y-95145999D01*
X133146000Y-94492001D01*
X133654000Y-94492001D01*
X133654000Y-95145999D01*
X133654001Y-95146000D01*
X134907998Y-95146000D01*
X134907999Y-95145999D01*
X134907999Y-95142783D01*
X134907998Y-95142767D01*
X134901518Y-95071443D01*
X134901516Y-95071437D01*
X134850369Y-94907300D01*
X134850366Y-94907292D01*
X134761419Y-94760157D01*
X134639842Y-94638580D01*
X134492707Y-94549633D01*
X134492699Y-94549630D01*
X134328563Y-94498483D01*
X134328557Y-94498481D01*
X134257230Y-94492000D01*
X133654001Y-94492000D01*
X133654000Y-94492001D01*
X133146000Y-94492001D01*
X133145999Y-94492000D01*
X132542783Y-94492000D01*
X132542767Y-94492001D01*
X132471443Y-94498481D01*
X132471437Y-94498483D01*
X132307300Y-94549630D01*
X132307292Y-94549633D01*
X132160157Y-94638580D01*
X132038580Y-94760157D01*
X131949633Y-94907292D01*
X131949630Y-94907300D01*
X131898483Y-95071436D01*
X131898481Y-95071442D01*
X131892000Y-95142769D01*
X117430055Y-95142769D01*
X117436697Y-95128226D01*
X117455133Y-95000000D01*
X117447480Y-94946774D01*
X117436697Y-94871774D01*
X117417134Y-94828937D01*
X117382882Y-94753937D01*
X117298049Y-94656033D01*
X117298048Y-94656032D01*
X117298047Y-94656031D01*
X117189073Y-94585998D01*
X117189070Y-94585996D01*
X117189069Y-94585996D01*
X117189066Y-94585995D01*
X117064774Y-94549500D01*
X117064772Y-94549500D01*
X116935228Y-94549500D01*
X116935225Y-94549500D01*
X116810933Y-94585995D01*
X116810931Y-94585996D01*
X116716960Y-94646387D01*
X116657784Y-94661940D01*
X116600768Y-94639741D01*
X116593433Y-94633106D01*
X115954831Y-93994504D01*
X115927054Y-93939987D01*
X115936625Y-93879555D01*
X115979890Y-93836290D01*
X116024835Y-93825500D01*
X121644147Y-93825500D01*
X121697670Y-93841216D01*
X121757327Y-93879555D01*
X121810931Y-93914004D01*
X121935228Y-93950500D01*
X121935230Y-93950500D01*
X122064770Y-93950500D01*
X122064772Y-93950500D01*
X122189069Y-93914004D01*
X122298049Y-93843967D01*
X122382882Y-93746063D01*
X122436697Y-93628226D01*
X122442842Y-93585484D01*
X122455133Y-93500002D01*
X122455133Y-93499997D01*
X122436697Y-93371774D01*
X122415860Y-93326148D01*
X122382911Y-93254001D01*
X131692000Y-93254001D01*
X131692000Y-93273851D01*
X131702255Y-93374232D01*
X131756153Y-93536886D01*
X131756154Y-93536888D01*
X131846108Y-93682726D01*
X131967273Y-93803891D01*
X132113111Y-93893845D01*
X132113113Y-93893846D01*
X132275767Y-93947744D01*
X132376148Y-93958000D01*
X132745999Y-93958000D01*
X132746000Y-93957999D01*
X132746000Y-93254001D01*
X132745999Y-93254000D01*
X131692001Y-93254000D01*
X131692000Y-93254001D01*
X122382911Y-93254001D01*
X122382882Y-93253937D01*
X122298049Y-93156033D01*
X122298048Y-93156032D01*
X122298047Y-93156031D01*
X122189073Y-93085998D01*
X122189070Y-93085996D01*
X122189069Y-93085996D01*
X122189066Y-93085995D01*
X122064774Y-93049500D01*
X122064772Y-93049500D01*
X121935228Y-93049500D01*
X121935225Y-93049500D01*
X121810933Y-93085995D01*
X121810926Y-93085998D01*
X121697670Y-93158784D01*
X121644147Y-93174500D01*
X107175835Y-93174500D01*
X107117644Y-93155593D01*
X107105831Y-93145504D01*
X106686475Y-92726148D01*
X131692000Y-92726148D01*
X131692000Y-92745999D01*
X131692001Y-92746000D01*
X132759025Y-92746000D01*
X132719930Y-92785095D01*
X132673852Y-92864905D01*
X132650000Y-92953922D01*
X132650000Y-93046078D01*
X132673852Y-93135095D01*
X132719930Y-93214905D01*
X132785095Y-93280070D01*
X132864905Y-93326148D01*
X132953922Y-93350000D01*
X133046078Y-93350000D01*
X133135095Y-93326148D01*
X133214905Y-93280070D01*
X133240974Y-93254001D01*
X133254000Y-93254001D01*
X133254000Y-93957999D01*
X133254001Y-93958000D01*
X133623852Y-93958000D01*
X133724232Y-93947744D01*
X133886886Y-93893846D01*
X133886888Y-93893845D01*
X134032726Y-93803891D01*
X134153891Y-93682726D01*
X134243845Y-93536888D01*
X134243846Y-93536886D01*
X134297744Y-93374232D01*
X134308000Y-93273851D01*
X134308000Y-93254001D01*
X134307999Y-93254000D01*
X133254001Y-93254000D01*
X133254000Y-93254001D01*
X133240974Y-93254001D01*
X133280070Y-93214905D01*
X133326148Y-93135095D01*
X133350000Y-93046078D01*
X133350000Y-92953922D01*
X133326148Y-92864905D01*
X133280070Y-92785095D01*
X133240975Y-92746000D01*
X134307999Y-92746000D01*
X134308000Y-92745999D01*
X134308000Y-92726148D01*
X134297744Y-92625767D01*
X134243846Y-92463113D01*
X134243845Y-92463111D01*
X134153891Y-92317273D01*
X134032723Y-92196105D01*
X133936987Y-92137054D01*
X133897386Y-92090413D01*
X133892763Y-92029403D01*
X133918958Y-91982789D01*
X133923528Y-91978220D01*
X133984719Y-91858126D01*
X134000500Y-91758488D01*
X134000500Y-91241512D01*
X133998557Y-91229247D01*
X133996703Y-91217541D01*
X133984719Y-91141874D01*
X133984716Y-91141869D01*
X133984716Y-91141867D01*
X133923529Y-91021782D01*
X133923528Y-91021780D01*
X133828220Y-90926472D01*
X133828217Y-90926470D01*
X133708132Y-90865283D01*
X133708127Y-90865281D01*
X133708126Y-90865281D01*
X133674913Y-90860020D01*
X133608490Y-90849500D01*
X133608488Y-90849500D01*
X132391512Y-90849500D01*
X132391510Y-90849500D01*
X132291874Y-90865281D01*
X132291867Y-90865283D01*
X132171782Y-90926470D01*
X132076470Y-91021782D01*
X132015283Y-91141867D01*
X132015281Y-91141874D01*
X131999500Y-91241510D01*
X131999500Y-91758489D01*
X132015281Y-91858125D01*
X132015283Y-91858132D01*
X132067445Y-91960504D01*
X132076472Y-91978220D01*
X132081044Y-91982792D01*
X132108820Y-92037307D01*
X132099249Y-92097739D01*
X132063012Y-92137054D01*
X131967276Y-92196105D01*
X131846108Y-92317273D01*
X131756154Y-92463111D01*
X131756153Y-92463113D01*
X131702255Y-92625767D01*
X131692000Y-92726148D01*
X106686475Y-92726148D01*
X105854496Y-91894169D01*
X105826719Y-91839652D01*
X105825500Y-91824165D01*
X105825500Y-91036997D01*
X105844407Y-90978806D01*
X105882005Y-90951488D01*
X105880477Y-90948489D01*
X105923691Y-90926470D01*
X106005751Y-90884658D01*
X106099658Y-90790751D01*
X106159951Y-90672420D01*
X106175500Y-90574246D01*
X106175500Y-90070754D01*
X106169956Y-90035751D01*
X106824500Y-90035751D01*
X106824500Y-90539248D01*
X106840049Y-90637419D01*
X106840050Y-90637423D01*
X106864767Y-90685932D01*
X106900342Y-90755751D01*
X106994249Y-90849658D01*
X107112580Y-90909951D01*
X107179130Y-90920491D01*
X107210751Y-90925500D01*
X107210754Y-90925500D01*
X107789249Y-90925500D01*
X107817803Y-90920976D01*
X107887420Y-90909951D01*
X108005751Y-90849658D01*
X108099658Y-90755751D01*
X108144852Y-90667054D01*
X108188117Y-90623790D01*
X108233061Y-90613000D01*
X122480351Y-90613000D01*
X122480353Y-90613000D01*
X122563139Y-90590818D01*
X122563141Y-90590816D01*
X122563143Y-90590816D01*
X122637357Y-90547968D01*
X122637357Y-90547967D01*
X122637362Y-90547965D01*
X124205830Y-88979495D01*
X124260347Y-88951719D01*
X124275834Y-88950500D01*
X124289770Y-88950500D01*
X124289772Y-88950500D01*
X124414069Y-88914004D01*
X124523049Y-88843967D01*
X124607882Y-88746063D01*
X124661697Y-88628226D01*
X124671776Y-88558125D01*
X124680133Y-88500002D01*
X124680133Y-88499997D01*
X124661697Y-88371774D01*
X124647741Y-88341216D01*
X124607882Y-88253937D01*
X124523049Y-88156033D01*
X124523048Y-88156032D01*
X124523047Y-88156031D01*
X124414073Y-88085998D01*
X124414070Y-88085996D01*
X124414069Y-88085996D01*
X124388635Y-88078528D01*
X124289774Y-88049500D01*
X124289772Y-88049500D01*
X124160228Y-88049500D01*
X124160225Y-88049500D01*
X124035933Y-88085995D01*
X124035926Y-88085998D01*
X123926952Y-88156031D01*
X123842117Y-88253938D01*
X123788302Y-88371774D01*
X123775428Y-88461317D01*
X123748432Y-88516225D01*
X123747440Y-88517232D01*
X122331669Y-89933004D01*
X122277152Y-89960781D01*
X122261665Y-89962000D01*
X108233061Y-89962000D01*
X108174870Y-89943093D01*
X108144852Y-89907946D01*
X108117491Y-89854249D01*
X108099658Y-89819249D01*
X108005751Y-89725342D01*
X107956111Y-89700049D01*
X107887423Y-89665050D01*
X107887420Y-89665049D01*
X107862876Y-89661161D01*
X107789249Y-89649500D01*
X107789246Y-89649500D01*
X107210754Y-89649500D01*
X107210751Y-89649500D01*
X107112580Y-89665049D01*
X107112576Y-89665050D01*
X106994250Y-89725341D01*
X106900341Y-89819250D01*
X106840050Y-89937576D01*
X106840049Y-89937580D01*
X106824500Y-90035751D01*
X106169956Y-90035751D01*
X106159951Y-89972580D01*
X106099658Y-89854249D01*
X106005751Y-89760342D01*
X105977723Y-89746061D01*
X105887423Y-89700050D01*
X105887420Y-89700049D01*
X105862876Y-89696161D01*
X105789249Y-89684500D01*
X105789246Y-89684500D01*
X105210754Y-89684500D01*
X105210751Y-89684500D01*
X105112580Y-89700049D01*
X105112576Y-89700050D01*
X104994250Y-89760341D01*
X104900341Y-89854250D01*
X104840050Y-89972576D01*
X104840049Y-89972580D01*
X104824500Y-90070751D01*
X104824500Y-90574248D01*
X104840049Y-90672419D01*
X104840050Y-90672423D01*
X104898243Y-90786631D01*
X104900342Y-90790751D01*
X104994249Y-90884658D01*
X105043885Y-90909949D01*
X105119523Y-90948489D01*
X105117987Y-90951501D01*
X105155541Y-90978736D01*
X105174500Y-91036910D01*
X105174500Y-91975165D01*
X105155593Y-92033356D01*
X105106093Y-92069320D01*
X105044907Y-92069320D01*
X105005496Y-92045169D01*
X103854496Y-90894169D01*
X103826719Y-90839652D01*
X103825500Y-90824165D01*
X103825500Y-88957148D01*
X103825500Y-88957147D01*
X103803318Y-88874362D01*
X103803318Y-88874361D01*
X103803318Y-88874360D01*
X103760468Y-88800142D01*
X103760466Y-88800140D01*
X103760465Y-88800138D01*
X103456078Y-88495751D01*
X104824500Y-88495751D01*
X104824500Y-88999248D01*
X104827867Y-89020504D01*
X104838239Y-89085995D01*
X104840049Y-89097419D01*
X104840050Y-89097423D01*
X104888172Y-89191866D01*
X104900342Y-89215751D01*
X104994249Y-89309658D01*
X105112580Y-89369951D01*
X105179130Y-89380491D01*
X105210751Y-89385500D01*
X105210754Y-89385500D01*
X105789249Y-89385500D01*
X105817803Y-89380976D01*
X105887420Y-89369951D01*
X106005751Y-89309658D01*
X106099658Y-89215751D01*
X106159951Y-89097420D01*
X106175500Y-88999246D01*
X106175500Y-88495754D01*
X106169956Y-88460751D01*
X106824500Y-88460751D01*
X106824500Y-88964248D01*
X106840049Y-89062419D01*
X106840050Y-89062423D01*
X106876886Y-89134716D01*
X106900342Y-89180751D01*
X106994249Y-89274658D01*
X107112580Y-89334951D01*
X107179130Y-89345491D01*
X107210751Y-89350500D01*
X107210754Y-89350500D01*
X107789249Y-89350500D01*
X107817803Y-89345976D01*
X107887420Y-89334951D01*
X108005751Y-89274658D01*
X108099658Y-89180751D01*
X108144852Y-89092054D01*
X108188117Y-89048790D01*
X108233061Y-89038000D01*
X109830351Y-89038000D01*
X109830353Y-89038000D01*
X109913139Y-89015818D01*
X109913141Y-89015816D01*
X109913143Y-89015816D01*
X109987357Y-88972968D01*
X109987357Y-88972967D01*
X109987362Y-88972965D01*
X110605831Y-88354496D01*
X110660348Y-88326719D01*
X110675835Y-88325500D01*
X114644147Y-88325500D01*
X114697670Y-88341216D01*
X114810926Y-88414001D01*
X114810931Y-88414004D01*
X114935228Y-88450500D01*
X114935230Y-88450500D01*
X115064770Y-88450500D01*
X115064772Y-88450500D01*
X115189069Y-88414004D01*
X115298049Y-88343967D01*
X115382882Y-88246063D01*
X115436697Y-88128226D01*
X115447872Y-88050500D01*
X115455133Y-88000002D01*
X115455133Y-87999997D01*
X115436697Y-87871774D01*
X115382882Y-87753938D01*
X115382882Y-87753937D01*
X115298049Y-87656033D01*
X115298048Y-87656032D01*
X115298047Y-87656031D01*
X115189073Y-87585998D01*
X115189070Y-87585996D01*
X115189069Y-87585996D01*
X115189066Y-87585995D01*
X115064774Y-87549500D01*
X115064772Y-87549500D01*
X114935228Y-87549500D01*
X114935225Y-87549500D01*
X114810933Y-87585995D01*
X114810926Y-87585998D01*
X114697670Y-87658784D01*
X114644147Y-87674500D01*
X110542853Y-87674500D01*
X110457147Y-87674500D01*
X110406478Y-87688076D01*
X110374356Y-87696683D01*
X110300142Y-87739531D01*
X109681669Y-88358004D01*
X109627152Y-88385781D01*
X109611665Y-88387000D01*
X108233061Y-88387000D01*
X108174870Y-88368093D01*
X108144852Y-88332946D01*
X108117491Y-88279249D01*
X108099658Y-88244249D01*
X108005751Y-88150342D01*
X107980665Y-88137560D01*
X107887423Y-88090050D01*
X107887420Y-88090049D01*
X107861824Y-88085995D01*
X107789249Y-88074500D01*
X107789246Y-88074500D01*
X107210754Y-88074500D01*
X107210751Y-88074500D01*
X107112580Y-88090049D01*
X107112576Y-88090050D01*
X106994250Y-88150341D01*
X106900341Y-88244250D01*
X106840050Y-88362576D01*
X106840049Y-88362580D01*
X106824500Y-88460751D01*
X106169956Y-88460751D01*
X106159951Y-88397580D01*
X106099658Y-88279249D01*
X106005751Y-88185342D01*
X105996886Y-88180825D01*
X105953623Y-88137560D01*
X105943842Y-88078528D01*
X105955133Y-88000000D01*
X105953628Y-87989535D01*
X105936697Y-87871774D01*
X105882882Y-87753938D01*
X105882882Y-87753937D01*
X105798049Y-87656033D01*
X105798048Y-87656032D01*
X105798047Y-87656031D01*
X105689073Y-87585998D01*
X105689070Y-87585996D01*
X105689069Y-87585996D01*
X105689066Y-87585995D01*
X105564774Y-87549500D01*
X105564772Y-87549500D01*
X105435228Y-87549500D01*
X105435225Y-87549500D01*
X105310933Y-87585995D01*
X105310926Y-87585998D01*
X105201952Y-87656031D01*
X105117117Y-87753938D01*
X105063302Y-87871774D01*
X105044867Y-87999997D01*
X105044867Y-88000002D01*
X105056157Y-88078528D01*
X105045724Y-88138817D01*
X105003112Y-88180826D01*
X104994250Y-88185341D01*
X104900341Y-88279250D01*
X104840050Y-88397576D01*
X104840049Y-88397580D01*
X104824500Y-88495751D01*
X103456078Y-88495751D01*
X102949862Y-87989535D01*
X102949859Y-87989533D01*
X102949857Y-87989531D01*
X102875642Y-87946683D01*
X102875644Y-87946683D01*
X102843521Y-87938076D01*
X102792853Y-87924500D01*
X102792851Y-87924500D01*
X100867773Y-87924500D01*
X100809582Y-87905593D01*
X100785458Y-87880502D01*
X100755276Y-87835331D01*
X100664669Y-87744724D01*
X100622226Y-87716365D01*
X100558133Y-87673538D01*
X100558125Y-87673534D01*
X100439747Y-87624500D01*
X100439745Y-87624499D01*
X100439744Y-87624499D01*
X100314069Y-87599500D01*
X99685931Y-87599500D01*
X99685930Y-87599500D01*
X99623093Y-87611999D01*
X99560256Y-87624499D01*
X99560255Y-87624499D01*
X99560252Y-87624500D01*
X99441874Y-87673534D01*
X99441866Y-87673538D01*
X99335331Y-87744724D01*
X99335327Y-87744727D01*
X99244727Y-87835327D01*
X99244724Y-87835331D01*
X99220374Y-87871774D01*
X99214542Y-87880502D01*
X99166492Y-87918381D01*
X99132227Y-87924500D01*
X96867773Y-87924500D01*
X96809582Y-87905593D01*
X96785458Y-87880502D01*
X96755276Y-87835331D01*
X96664669Y-87744724D01*
X96622226Y-87716365D01*
X96558133Y-87673538D01*
X96558125Y-87673534D01*
X96439747Y-87624500D01*
X96439745Y-87624499D01*
X96439744Y-87624499D01*
X96314069Y-87599500D01*
X95685931Y-87599500D01*
X95685930Y-87599500D01*
X95623093Y-87611999D01*
X95560256Y-87624499D01*
X95560255Y-87624499D01*
X95560252Y-87624500D01*
X95441874Y-87673534D01*
X95441866Y-87673538D01*
X95335331Y-87744724D01*
X95335327Y-87744727D01*
X95244727Y-87835327D01*
X95244724Y-87835331D01*
X95173538Y-87941866D01*
X95173534Y-87941874D01*
X95124500Y-88060252D01*
X95124499Y-88060255D01*
X95124499Y-88060256D01*
X95099500Y-88185931D01*
X95099500Y-88314069D01*
X95119378Y-88414001D01*
X95124499Y-88439742D01*
X95124500Y-88439747D01*
X95173534Y-88558125D01*
X95173538Y-88558133D01*
X95212866Y-88616990D01*
X95244724Y-88664669D01*
X95244727Y-88664672D01*
X95335331Y-88755276D01*
X95391317Y-88792685D01*
X95429196Y-88840735D01*
X95431598Y-88901874D01*
X95397604Y-88952747D01*
X95391317Y-88957315D01*
X95335331Y-88994723D01*
X95244727Y-89085327D01*
X95244724Y-89085331D01*
X95173538Y-89191866D01*
X95173534Y-89191874D01*
X95124500Y-89310252D01*
X95124499Y-89310255D01*
X95124499Y-89310256D01*
X95120454Y-89330593D01*
X95101382Y-89426472D01*
X95099500Y-89435931D01*
X95099500Y-89564069D01*
X95114976Y-89641872D01*
X95124499Y-89689742D01*
X95124500Y-89689747D01*
X95173534Y-89808125D01*
X95173538Y-89808133D01*
X95214542Y-89869498D01*
X95244724Y-89914669D01*
X95244727Y-89914672D01*
X95335331Y-90005276D01*
X95391317Y-90042685D01*
X95429196Y-90090735D01*
X95431598Y-90151874D01*
X95397604Y-90202747D01*
X95391317Y-90207315D01*
X95335331Y-90244723D01*
X95244727Y-90335327D01*
X95244724Y-90335331D01*
X95173538Y-90441866D01*
X95173534Y-90441874D01*
X95124500Y-90560252D01*
X95124499Y-90560257D01*
X95102188Y-90672420D01*
X95099500Y-90685931D01*
X95099500Y-90814069D01*
X95118572Y-90909950D01*
X95124499Y-90939742D01*
X95124500Y-90939747D01*
X95165171Y-91037935D01*
X95169972Y-91098932D01*
X95138002Y-91151101D01*
X95125681Y-91160081D01*
X95067274Y-91196107D01*
X94946108Y-91317273D01*
X94856154Y-91463111D01*
X94856153Y-91463113D01*
X94802255Y-91625767D01*
X94792000Y-91726148D01*
X93500000Y-91726148D01*
X93500000Y-84754001D01*
X94492001Y-84754001D01*
X94492001Y-85357232D01*
X94498481Y-85428556D01*
X94498483Y-85428562D01*
X94549630Y-85592699D01*
X94549633Y-85592707D01*
X94638580Y-85739842D01*
X94760157Y-85861419D01*
X94907292Y-85950366D01*
X94907300Y-85950369D01*
X95071436Y-86001516D01*
X95071442Y-86001518D01*
X95142784Y-86008000D01*
X95145999Y-86007999D01*
X95146000Y-86007999D01*
X95146000Y-84754001D01*
X95654000Y-84754001D01*
X95654000Y-86007998D01*
X95654001Y-86007999D01*
X95657216Y-86007999D01*
X95657232Y-86007998D01*
X95728556Y-86001518D01*
X95728562Y-86001516D01*
X95892699Y-85950369D01*
X95892707Y-85950366D01*
X96039842Y-85861419D01*
X96161419Y-85739842D01*
X96250366Y-85592707D01*
X96250369Y-85592699D01*
X96301516Y-85428563D01*
X96301518Y-85428557D01*
X96307999Y-85357230D01*
X96308000Y-85357218D01*
X96308000Y-84754001D01*
X96307999Y-84754000D01*
X95654001Y-84754000D01*
X95654000Y-84754001D01*
X95146000Y-84754001D01*
X95145999Y-84754000D01*
X94492002Y-84754000D01*
X94492001Y-84754001D01*
X93500000Y-84754001D01*
X93500000Y-83642769D01*
X94492000Y-83642769D01*
X94492000Y-84245999D01*
X94492001Y-84246000D01*
X95145999Y-84246000D01*
X95146000Y-84245999D01*
X95146000Y-82992001D01*
X95654000Y-82992001D01*
X95654000Y-84245999D01*
X95654001Y-84246000D01*
X96307998Y-84246000D01*
X96307999Y-84245999D01*
X96307999Y-83642783D01*
X96307998Y-83642767D01*
X96301518Y-83571443D01*
X96301516Y-83571437D01*
X96250369Y-83407300D01*
X96250366Y-83407292D01*
X96161419Y-83260157D01*
X96039842Y-83138580D01*
X95892707Y-83049633D01*
X95892699Y-83049630D01*
X95728563Y-82998483D01*
X95728557Y-82998481D01*
X95657230Y-82992000D01*
X95654001Y-82992000D01*
X95654000Y-82992001D01*
X95146000Y-82992001D01*
X95146000Y-82992000D01*
X95142776Y-82992001D01*
X95142772Y-82992001D01*
X95071444Y-82998481D01*
X95071437Y-82998483D01*
X94907300Y-83049630D01*
X94907292Y-83049633D01*
X94760157Y-83138580D01*
X94638580Y-83260157D01*
X94549633Y-83407292D01*
X94549630Y-83407300D01*
X94498483Y-83571436D01*
X94498481Y-83571442D01*
X94492000Y-83642769D01*
X93500000Y-83642769D01*
X93500000Y-80254001D01*
X94492001Y-80254001D01*
X94492001Y-80857232D01*
X94498481Y-80928556D01*
X94498483Y-80928562D01*
X94549630Y-81092699D01*
X94549633Y-81092707D01*
X94638580Y-81239842D01*
X94760157Y-81361419D01*
X94907292Y-81450366D01*
X94907300Y-81450369D01*
X95071436Y-81501516D01*
X95071442Y-81501518D01*
X95142784Y-81508000D01*
X95145999Y-81507999D01*
X95146000Y-81507999D01*
X95146000Y-80254001D01*
X95654000Y-80254001D01*
X95654000Y-81507998D01*
X95654001Y-81507999D01*
X95657216Y-81507999D01*
X95657232Y-81507998D01*
X95728556Y-81501518D01*
X95728562Y-81501516D01*
X95892699Y-81450369D01*
X95892707Y-81450366D01*
X96039842Y-81361419D01*
X96161419Y-81239842D01*
X96250366Y-81092707D01*
X96250369Y-81092699D01*
X96301516Y-80928563D01*
X96301518Y-80928557D01*
X96307999Y-80857230D01*
X96308000Y-80857218D01*
X96308000Y-80254001D01*
X96307999Y-80254000D01*
X95654001Y-80254000D01*
X95654000Y-80254001D01*
X95146000Y-80254001D01*
X95145999Y-80254000D01*
X94492002Y-80254000D01*
X94492001Y-80254001D01*
X93500000Y-80254001D01*
X93500000Y-79142769D01*
X94492000Y-79142769D01*
X94492000Y-79745999D01*
X94492001Y-79746000D01*
X95145999Y-79746000D01*
X95146000Y-79745999D01*
X95146000Y-78492001D01*
X95654000Y-78492001D01*
X95654000Y-79745999D01*
X95654001Y-79746000D01*
X96307998Y-79746000D01*
X96307999Y-79745999D01*
X96307999Y-79142783D01*
X96307998Y-79142767D01*
X96301518Y-79071443D01*
X96301516Y-79071437D01*
X96250369Y-78907300D01*
X96250366Y-78907292D01*
X96161419Y-78760157D01*
X96039842Y-78638580D01*
X95892707Y-78549633D01*
X95892699Y-78549630D01*
X95728563Y-78498483D01*
X95728557Y-78498481D01*
X95657230Y-78492000D01*
X95654001Y-78492000D01*
X95654000Y-78492001D01*
X95146000Y-78492001D01*
X95146000Y-78492000D01*
X95142776Y-78492001D01*
X95142772Y-78492001D01*
X95071444Y-78498481D01*
X95071437Y-78498483D01*
X94907300Y-78549630D01*
X94907292Y-78549633D01*
X94760157Y-78638580D01*
X94638580Y-78760157D01*
X94549633Y-78907292D01*
X94549630Y-78907300D01*
X94498483Y-79071436D01*
X94498481Y-79071442D01*
X94492000Y-79142769D01*
X93500000Y-79142769D01*
X93500000Y-75754001D01*
X94492001Y-75754001D01*
X94492001Y-76357232D01*
X94498481Y-76428556D01*
X94498483Y-76428562D01*
X94549630Y-76592699D01*
X94549633Y-76592707D01*
X94638580Y-76739842D01*
X94760157Y-76861419D01*
X94907292Y-76950366D01*
X94907300Y-76950369D01*
X95071436Y-77001516D01*
X95071442Y-77001518D01*
X95142784Y-77008000D01*
X95145999Y-77007999D01*
X95146000Y-77007999D01*
X95146000Y-75754001D01*
X95654000Y-75754001D01*
X95654000Y-77007998D01*
X95654001Y-77007999D01*
X95657216Y-77007999D01*
X95657232Y-77007998D01*
X95728556Y-77001518D01*
X95728562Y-77001516D01*
X95892699Y-76950369D01*
X95892707Y-76950366D01*
X96039842Y-76861419D01*
X96161419Y-76739842D01*
X96250366Y-76592707D01*
X96250369Y-76592699D01*
X96301516Y-76428563D01*
X96301518Y-76428557D01*
X96307999Y-76357230D01*
X96308000Y-76357218D01*
X96308000Y-75754001D01*
X96307999Y-75754000D01*
X95654001Y-75754000D01*
X95654000Y-75754001D01*
X95146000Y-75754001D01*
X95145999Y-75754000D01*
X94492002Y-75754000D01*
X94492001Y-75754001D01*
X93500000Y-75754001D01*
X93500000Y-75599997D01*
X96744867Y-75599997D01*
X96744867Y-75600002D01*
X96763302Y-75728225D01*
X96781319Y-75767676D01*
X96817118Y-75846063D01*
X96850320Y-75884380D01*
X96874137Y-75940740D01*
X96874500Y-75949211D01*
X96874500Y-82057147D01*
X96874500Y-82142853D01*
X96889775Y-82199862D01*
X96896683Y-82225643D01*
X96939531Y-82299857D01*
X96939533Y-82299859D01*
X96939535Y-82299862D01*
X97975501Y-83335827D01*
X98970504Y-84330830D01*
X98998281Y-84385347D01*
X98999500Y-84400834D01*
X98999500Y-85331521D01*
X98999501Y-85331523D01*
X99014352Y-85425299D01*
X99014354Y-85425304D01*
X99071950Y-85538342D01*
X99161658Y-85628050D01*
X99274696Y-85685646D01*
X99368481Y-85700500D01*
X99831518Y-85700499D01*
X99831520Y-85700499D01*
X99831521Y-85700498D01*
X99878411Y-85693072D01*
X99925299Y-85685647D01*
X99925299Y-85685646D01*
X99925304Y-85685646D01*
X100038342Y-85628050D01*
X100128050Y-85538342D01*
X100185646Y-85425304D01*
X100200500Y-85331519D01*
X100200499Y-83668482D01*
X100200499Y-83668478D01*
X100200498Y-83668476D01*
X100185647Y-83574700D01*
X100185646Y-83574698D01*
X100185646Y-83574696D01*
X100128050Y-83461658D01*
X100038342Y-83371950D01*
X99925304Y-83314354D01*
X99925305Y-83314354D01*
X99831522Y-83299500D01*
X99368479Y-83299500D01*
X99368476Y-83299501D01*
X99274700Y-83314352D01*
X99274695Y-83314354D01*
X99161658Y-83371950D01*
X99161656Y-83371951D01*
X99116970Y-83416637D01*
X99062453Y-83444414D01*
X99002021Y-83434842D01*
X98976963Y-83416637D01*
X98274330Y-82714004D01*
X97914328Y-82354001D01*
X100492001Y-82354001D01*
X100492001Y-82357232D01*
X100498481Y-82428556D01*
X100498483Y-82428562D01*
X100549630Y-82592699D01*
X100549633Y-82592707D01*
X100638580Y-82739842D01*
X100760157Y-82861419D01*
X100907292Y-82950366D01*
X100907300Y-82950369D01*
X101071436Y-83001516D01*
X101071442Y-83001518D01*
X101142774Y-83007999D01*
X101745998Y-83007999D01*
X101746000Y-83007998D01*
X101746000Y-82354001D01*
X102254000Y-82354001D01*
X102254000Y-83007998D01*
X102254001Y-83007999D01*
X102857216Y-83007999D01*
X102857232Y-83007998D01*
X102928556Y-83001518D01*
X102928562Y-83001516D01*
X103092699Y-82950369D01*
X103092707Y-82950366D01*
X103239842Y-82861419D01*
X103361419Y-82739842D01*
X103450366Y-82592707D01*
X103450369Y-82592699D01*
X103501516Y-82428563D01*
X103501518Y-82428557D01*
X103507999Y-82357230D01*
X103508000Y-82357218D01*
X103508000Y-82354001D01*
X103507999Y-82354000D01*
X102254001Y-82354000D01*
X102254000Y-82354001D01*
X101746000Y-82354001D01*
X101745999Y-82354000D01*
X100492002Y-82354000D01*
X100492001Y-82354001D01*
X97914328Y-82354001D01*
X97554496Y-81994169D01*
X97526719Y-81939652D01*
X97525500Y-81924165D01*
X97525500Y-81842769D01*
X100492000Y-81842769D01*
X100492000Y-81845999D01*
X100492001Y-81846000D01*
X101745999Y-81846000D01*
X101746000Y-81845999D01*
X101746000Y-81192001D01*
X102254000Y-81192001D01*
X102254000Y-81845999D01*
X102254001Y-81846000D01*
X103507998Y-81846000D01*
X103507999Y-81845999D01*
X103507999Y-81842783D01*
X103507998Y-81842767D01*
X103501518Y-81771443D01*
X103501516Y-81771437D01*
X103450369Y-81607300D01*
X103450366Y-81607292D01*
X103361419Y-81460157D01*
X103239842Y-81338580D01*
X103092707Y-81249633D01*
X103092699Y-81249630D01*
X102928563Y-81198483D01*
X102928557Y-81198481D01*
X102857230Y-81192000D01*
X102254001Y-81192000D01*
X102254000Y-81192001D01*
X101746000Y-81192001D01*
X101745999Y-81192000D01*
X101142783Y-81192000D01*
X101142767Y-81192001D01*
X101071443Y-81198481D01*
X101071437Y-81198483D01*
X100907300Y-81249630D01*
X100907292Y-81249633D01*
X100760157Y-81338580D01*
X100638580Y-81460157D01*
X100549633Y-81607292D01*
X100549630Y-81607300D01*
X100498483Y-81771436D01*
X100498481Y-81771442D01*
X100492000Y-81842769D01*
X97525500Y-81842769D01*
X97525500Y-78598616D01*
X97544407Y-78540425D01*
X97593907Y-78504461D01*
X97655093Y-78504461D01*
X97704593Y-78540425D01*
X97710236Y-78549116D01*
X97739531Y-78599857D01*
X97739533Y-78599859D01*
X97739535Y-78599862D01*
X98445505Y-79305831D01*
X98970504Y-79830830D01*
X98998281Y-79885347D01*
X98999500Y-79900834D01*
X98999500Y-80831521D01*
X98999501Y-80831523D01*
X99014352Y-80925299D01*
X99014354Y-80925304D01*
X99071950Y-81038342D01*
X99161658Y-81128050D01*
X99274696Y-81185646D01*
X99368481Y-81200500D01*
X99831518Y-81200499D01*
X99831520Y-81200499D01*
X99831521Y-81200498D01*
X99885183Y-81192000D01*
X99925299Y-81185647D01*
X99925299Y-81185646D01*
X99925304Y-81185646D01*
X100038342Y-81128050D01*
X100128050Y-81038342D01*
X100185646Y-80925304D01*
X100200500Y-80831519D01*
X100200499Y-79168482D01*
X100200499Y-79168478D01*
X100200498Y-79168476D01*
X100185647Y-79074700D01*
X100185646Y-79074698D01*
X100185646Y-79074696D01*
X100128050Y-78961658D01*
X100038342Y-78871950D01*
X99925304Y-78814354D01*
X99925305Y-78814354D01*
X99831522Y-78799500D01*
X99368479Y-78799500D01*
X99368476Y-78799501D01*
X99274700Y-78814352D01*
X99274695Y-78814354D01*
X99161658Y-78871950D01*
X99161656Y-78871951D01*
X99116970Y-78916637D01*
X99062453Y-78944414D01*
X99002021Y-78934842D01*
X98976963Y-78916637D01*
X98688552Y-78628226D01*
X98354496Y-78294169D01*
X98326719Y-78239652D01*
X98325500Y-78224165D01*
X98325500Y-77668477D01*
X100799500Y-77668477D01*
X100799500Y-78131520D01*
X100799501Y-78131523D01*
X100814352Y-78225299D01*
X100814354Y-78225304D01*
X100871950Y-78338342D01*
X100961658Y-78428050D01*
X101074696Y-78485646D01*
X101168481Y-78500500D01*
X102831518Y-78500499D01*
X102831521Y-78500499D01*
X102831522Y-78500498D01*
X102885183Y-78492000D01*
X102925299Y-78485647D01*
X102925299Y-78485646D01*
X102925304Y-78485646D01*
X103038342Y-78428050D01*
X103128050Y-78338342D01*
X103145896Y-78303318D01*
X103158004Y-78279555D01*
X103201268Y-78236290D01*
X103246213Y-78225500D01*
X105224165Y-78225500D01*
X105282356Y-78244407D01*
X105294169Y-78254496D01*
X107290173Y-80250499D01*
X109239533Y-82199859D01*
X109239535Y-82199862D01*
X109300138Y-82260465D01*
X109346263Y-82287095D01*
X109374362Y-82303318D01*
X109457144Y-82325500D01*
X109457146Y-82325501D01*
X109457147Y-82325501D01*
X109548916Y-82325501D01*
X109548932Y-82325500D01*
X113503453Y-82325500D01*
X113556976Y-82341216D01*
X113670232Y-82414001D01*
X113670237Y-82414004D01*
X113794534Y-82450500D01*
X113794536Y-82450500D01*
X113924076Y-82450500D01*
X113924078Y-82450500D01*
X114048375Y-82414004D01*
X114157355Y-82343967D01*
X114242188Y-82246063D01*
X114296003Y-82128226D01*
X114314439Y-82000000D01*
X114311539Y-81979831D01*
X114296003Y-81871774D01*
X114282756Y-81842767D01*
X114242188Y-81753937D01*
X114157355Y-81656033D01*
X114157354Y-81656032D01*
X114157353Y-81656031D01*
X114048379Y-81585998D01*
X114048376Y-81585996D01*
X114048375Y-81585996D01*
X114048372Y-81585995D01*
X113924080Y-81549500D01*
X113924078Y-81549500D01*
X113794534Y-81549500D01*
X113794531Y-81549500D01*
X113670239Y-81585995D01*
X113670232Y-81585998D01*
X113556976Y-81658784D01*
X113503453Y-81674500D01*
X109675834Y-81674500D01*
X109617643Y-81655593D01*
X109605830Y-81645504D01*
X108960323Y-80999997D01*
X117544867Y-80999997D01*
X117544867Y-81000002D01*
X117563302Y-81128225D01*
X117596309Y-81200498D01*
X117617118Y-81246063D01*
X117699155Y-81340740D01*
X117701952Y-81343968D01*
X117789140Y-81400000D01*
X117810931Y-81414004D01*
X117935228Y-81450500D01*
X117935230Y-81450500D01*
X118064770Y-81450500D01*
X118064772Y-81450500D01*
X118189069Y-81414004D01*
X118298049Y-81343967D01*
X118382882Y-81246063D01*
X118436697Y-81128226D01*
X118455133Y-81000000D01*
X118453119Y-80985995D01*
X118436697Y-80871774D01*
X118382882Y-80753938D01*
X118382882Y-80753937D01*
X118298049Y-80656033D01*
X118298048Y-80656032D01*
X118298047Y-80656031D01*
X118189073Y-80585998D01*
X118189070Y-80585996D01*
X118189069Y-80585996D01*
X118189066Y-80585995D01*
X118064774Y-80549500D01*
X118064772Y-80549500D01*
X117935228Y-80549500D01*
X117935225Y-80549500D01*
X117810933Y-80585995D01*
X117810926Y-80585998D01*
X117701952Y-80656031D01*
X117617117Y-80753938D01*
X117563302Y-80871774D01*
X117544867Y-80999997D01*
X108960323Y-80999997D01*
X108460323Y-80499997D01*
X119944867Y-80499997D01*
X119944867Y-80500002D01*
X119963302Y-80628225D01*
X119994784Y-80697159D01*
X120017118Y-80746063D01*
X120101951Y-80843967D01*
X120101952Y-80843968D01*
X120210926Y-80914001D01*
X120210931Y-80914004D01*
X120335228Y-80950500D01*
X120335230Y-80950500D01*
X120464770Y-80950500D01*
X120464772Y-80950500D01*
X120589069Y-80914004D01*
X120698049Y-80843967D01*
X120782882Y-80746063D01*
X120805216Y-80697159D01*
X120822929Y-80658374D01*
X120864301Y-80613296D01*
X120912982Y-80600500D01*
X121534421Y-80600500D01*
X121592612Y-80619407D01*
X121628576Y-80668907D01*
X121628576Y-80730093D01*
X121617706Y-80753023D01*
X121617116Y-80753940D01*
X121563302Y-80871774D01*
X121544867Y-80999997D01*
X121544867Y-81000002D01*
X121563302Y-81128225D01*
X121596309Y-81200498D01*
X121617118Y-81246063D01*
X121650320Y-81284380D01*
X121674137Y-81340740D01*
X121674500Y-81349211D01*
X121674500Y-83320751D01*
X121674500Y-83406457D01*
X121686911Y-83452777D01*
X121696683Y-83489247D01*
X121739531Y-83563461D01*
X121739533Y-83563463D01*
X121739535Y-83563466D01*
X123207799Y-85031729D01*
X124645504Y-86469434D01*
X124673281Y-86523951D01*
X124674500Y-86539438D01*
X124674500Y-87457147D01*
X124674500Y-87542853D01*
X124689812Y-87600000D01*
X124696683Y-87625643D01*
X124739531Y-87699857D01*
X124739532Y-87699858D01*
X124739533Y-87699859D01*
X124739535Y-87699862D01*
X125634080Y-88594407D01*
X126522440Y-89482767D01*
X126550217Y-89537284D01*
X126550428Y-89538682D01*
X126563302Y-89628225D01*
X126617117Y-89746061D01*
X126617118Y-89746063D01*
X126691252Y-89831619D01*
X126701952Y-89843968D01*
X126810926Y-89914001D01*
X126810931Y-89914004D01*
X126935228Y-89950500D01*
X126935230Y-89950500D01*
X127064770Y-89950500D01*
X127064772Y-89950500D01*
X127189069Y-89914004D01*
X127298049Y-89843967D01*
X127382882Y-89746063D01*
X127436697Y-89628226D01*
X127448639Y-89545169D01*
X127455133Y-89500002D01*
X127455133Y-89499997D01*
X127436697Y-89371774D01*
X127408602Y-89310256D01*
X127382882Y-89253937D01*
X127298049Y-89156033D01*
X127298048Y-89156032D01*
X127298047Y-89156031D01*
X127189073Y-89085998D01*
X127189070Y-89085996D01*
X127189069Y-89085996D01*
X127189066Y-89085995D01*
X127064774Y-89049500D01*
X127064772Y-89049500D01*
X127050835Y-89049500D01*
X126992644Y-89030593D01*
X126980831Y-89020504D01*
X125354496Y-87394169D01*
X125326719Y-87339652D01*
X125325500Y-87324165D01*
X125325500Y-86697081D01*
X125344407Y-86638890D01*
X125393907Y-86602926D01*
X125455093Y-86602926D01*
X125504593Y-86638890D01*
X125515964Y-86659196D01*
X125575462Y-86802838D01*
X125575462Y-86802839D01*
X125606258Y-86842973D01*
X125671718Y-86928282D01*
X125797159Y-87024536D01*
X125943238Y-87085044D01*
X126060809Y-87100522D01*
X126099999Y-87105682D01*
X126100000Y-87105682D01*
X126100001Y-87105682D01*
X126131352Y-87101554D01*
X126256762Y-87085044D01*
X126402841Y-87024536D01*
X126528282Y-86928282D01*
X126596958Y-86838780D01*
X126647382Y-86804125D01*
X126708546Y-86805726D01*
X126757088Y-86842973D01*
X126774500Y-86899048D01*
X126774500Y-87250789D01*
X126755593Y-87308980D01*
X126750320Y-87315619D01*
X126717118Y-87353936D01*
X126717116Y-87353940D01*
X126663302Y-87471774D01*
X126644867Y-87599997D01*
X126644867Y-87600002D01*
X126663302Y-87728225D01*
X126675045Y-87753937D01*
X126717118Y-87846063D01*
X126801951Y-87943967D01*
X126801952Y-87943968D01*
X126889143Y-88000002D01*
X126910931Y-88014004D01*
X127035228Y-88050500D01*
X127035230Y-88050500D01*
X127164770Y-88050500D01*
X127164772Y-88050500D01*
X127289069Y-88014004D01*
X127398049Y-87943967D01*
X127482882Y-87846063D01*
X127536697Y-87728226D01*
X127544560Y-87673535D01*
X127555133Y-87600002D01*
X127555133Y-87599997D01*
X127536697Y-87471774D01*
X127501521Y-87394751D01*
X127482882Y-87353937D01*
X127449679Y-87315618D01*
X127425863Y-87259259D01*
X127425500Y-87250789D01*
X127425500Y-86150840D01*
X127425501Y-86150827D01*
X127425501Y-86057146D01*
X127425500Y-86057144D01*
X127412331Y-86007999D01*
X127403318Y-85974361D01*
X127380572Y-85934964D01*
X127360465Y-85900138D01*
X127299862Y-85839535D01*
X127299859Y-85839533D01*
X125704495Y-84244169D01*
X124079496Y-82619169D01*
X124051719Y-82564652D01*
X124050500Y-82549165D01*
X124050500Y-82049835D01*
X124069407Y-81991644D01*
X124118907Y-81955680D01*
X124180093Y-81955680D01*
X124219504Y-81979831D01*
X124522440Y-82282767D01*
X124550217Y-82337284D01*
X124550428Y-82338682D01*
X124563302Y-82428225D01*
X124573475Y-82450500D01*
X124617118Y-82546063D01*
X124655339Y-82590173D01*
X124701952Y-82643968D01*
X124752365Y-82676366D01*
X124810931Y-82714004D01*
X124935228Y-82750500D01*
X124935230Y-82750500D01*
X125064770Y-82750500D01*
X125064772Y-82750500D01*
X125189069Y-82714004D01*
X125298049Y-82643967D01*
X125382882Y-82546063D01*
X125436697Y-82428226D01*
X125447369Y-82354000D01*
X125455133Y-82300002D01*
X125455133Y-82299997D01*
X125436697Y-82171774D01*
X125416809Y-82128226D01*
X125382882Y-82053937D01*
X125298049Y-81956033D01*
X125298048Y-81956032D01*
X125298047Y-81956031D01*
X125262651Y-81933284D01*
X125223920Y-81885918D01*
X125220426Y-81824833D01*
X125253505Y-81773360D01*
X125262651Y-81766716D01*
X125298047Y-81743968D01*
X125298046Y-81743968D01*
X125298049Y-81743967D01*
X125382882Y-81646063D01*
X125436697Y-81528226D01*
X125447872Y-81450500D01*
X125455133Y-81400002D01*
X125455133Y-81399997D01*
X125436697Y-81271774D01*
X125404146Y-81200498D01*
X125382882Y-81153937D01*
X125298049Y-81056033D01*
X125298048Y-81056032D01*
X125298047Y-81056031D01*
X125189073Y-80985998D01*
X125189070Y-80985996D01*
X125189069Y-80985996D01*
X125189066Y-80985995D01*
X125064770Y-80949499D01*
X125060408Y-80948872D01*
X125005501Y-80921874D01*
X124976949Y-80867758D01*
X124975500Y-80850880D01*
X124975500Y-79064444D01*
X124975501Y-79064431D01*
X124975501Y-78970753D01*
X124975501Y-78970751D01*
X124953318Y-78887965D01*
X124927915Y-78843967D01*
X124910465Y-78813742D01*
X124849862Y-78753139D01*
X124849859Y-78753137D01*
X121918915Y-75822193D01*
X121891138Y-75767676D01*
X121898865Y-75711063D01*
X121936697Y-75628226D01*
X121955133Y-75500000D01*
X121953238Y-75486823D01*
X121936697Y-75371774D01*
X121931240Y-75359826D01*
X121882882Y-75253937D01*
X121798049Y-75156033D01*
X121798048Y-75156032D01*
X121798047Y-75156031D01*
X121689073Y-75085998D01*
X121689070Y-75085996D01*
X121689069Y-75085996D01*
X121689066Y-75085995D01*
X121564774Y-75049500D01*
X121564772Y-75049500D01*
X121435228Y-75049500D01*
X121435225Y-75049500D01*
X121310933Y-75085995D01*
X121310926Y-75085998D01*
X121201952Y-75156031D01*
X121117117Y-75253937D01*
X121090052Y-75313201D01*
X121048679Y-75358278D01*
X120988712Y-75370427D01*
X120933056Y-75345009D01*
X120909947Y-75313201D01*
X120882882Y-75253937D01*
X120798049Y-75156033D01*
X120798048Y-75156032D01*
X120798047Y-75156031D01*
X120689073Y-75085998D01*
X120689070Y-75085996D01*
X120689069Y-75085996D01*
X120689066Y-75085995D01*
X120564774Y-75049500D01*
X120564772Y-75049500D01*
X120435228Y-75049500D01*
X120435225Y-75049500D01*
X120310933Y-75085995D01*
X120310926Y-75085998D01*
X120201952Y-75156031D01*
X120117117Y-75253938D01*
X120063302Y-75371774D01*
X120044867Y-75499997D01*
X120044867Y-75500002D01*
X120063302Y-75628225D01*
X120108972Y-75728226D01*
X120117118Y-75746063D01*
X120201951Y-75843967D01*
X120201952Y-75843968D01*
X120310926Y-75914001D01*
X120310931Y-75914004D01*
X120435228Y-75950500D01*
X120449165Y-75950500D01*
X120507356Y-75969407D01*
X120519169Y-75979496D01*
X123845504Y-79305831D01*
X123873281Y-79360348D01*
X123874500Y-79375835D01*
X123874500Y-80125165D01*
X123855593Y-80183356D01*
X123806093Y-80219320D01*
X123744907Y-80219320D01*
X123705497Y-80195169D01*
X123524862Y-80014535D01*
X123524857Y-80014531D01*
X123450642Y-79971683D01*
X123450644Y-79971683D01*
X123418521Y-79963076D01*
X123367853Y-79949500D01*
X120667853Y-79949500D01*
X120582147Y-79949500D01*
X120531478Y-79963076D01*
X120499356Y-79971683D01*
X120425142Y-80014531D01*
X120425141Y-80014532D01*
X120425138Y-80014534D01*
X120425138Y-80014535D01*
X120419167Y-80020505D01*
X120364653Y-80048281D01*
X120349166Y-80049500D01*
X120335225Y-80049500D01*
X120210933Y-80085995D01*
X120210926Y-80085998D01*
X120101952Y-80156031D01*
X120017117Y-80253938D01*
X119963302Y-80371774D01*
X119944867Y-80499997D01*
X108460323Y-80499997D01*
X107632100Y-79671774D01*
X105599862Y-77639535D01*
X105599859Y-77639533D01*
X105599857Y-77639531D01*
X105525642Y-77596683D01*
X105525644Y-77596683D01*
X105493173Y-77587983D01*
X105442853Y-77574500D01*
X105442851Y-77574500D01*
X103246213Y-77574500D01*
X103188022Y-77555593D01*
X103158004Y-77520445D01*
X103128051Y-77461660D01*
X103128050Y-77461658D01*
X103038342Y-77371950D01*
X102925304Y-77314354D01*
X102925305Y-77314354D01*
X102831521Y-77299500D01*
X101168478Y-77299500D01*
X101168476Y-77299501D01*
X101074700Y-77314352D01*
X101074695Y-77314354D01*
X100961659Y-77371949D01*
X100871949Y-77461659D01*
X100814354Y-77574695D01*
X100799500Y-77668477D01*
X98325500Y-77668477D01*
X98325500Y-75527830D01*
X98344407Y-75469639D01*
X98354490Y-75457832D01*
X98830496Y-74981825D01*
X98885013Y-74954049D01*
X98945445Y-74963620D01*
X98988710Y-75006885D01*
X98999500Y-75051830D01*
X98999500Y-76331521D01*
X98999501Y-76331523D01*
X99014352Y-76425299D01*
X99014354Y-76425304D01*
X99071950Y-76538342D01*
X99161658Y-76628050D01*
X99274696Y-76685646D01*
X99368481Y-76700500D01*
X99831518Y-76700499D01*
X99831520Y-76700499D01*
X99831521Y-76700498D01*
X99878411Y-76693072D01*
X99925299Y-76685647D01*
X99925299Y-76685646D01*
X99925304Y-76685646D01*
X100038342Y-76628050D01*
X100128050Y-76538342D01*
X100185646Y-76425304D01*
X100200500Y-76331519D01*
X100200499Y-75424499D01*
X100219406Y-75366309D01*
X100268906Y-75330345D01*
X100299499Y-75325500D01*
X100644147Y-75325500D01*
X100697670Y-75341216D01*
X100780067Y-75394169D01*
X100810931Y-75414004D01*
X100935228Y-75450500D01*
X100935230Y-75450500D01*
X101064770Y-75450500D01*
X101064772Y-75450500D01*
X101189069Y-75414004D01*
X101298049Y-75343967D01*
X101382882Y-75246063D01*
X101436697Y-75128226D01*
X101455133Y-75000000D01*
X101449902Y-74963620D01*
X101436697Y-74871774D01*
X101392235Y-74774418D01*
X101382882Y-74753937D01*
X101298049Y-74656033D01*
X101298048Y-74656032D01*
X101298047Y-74656031D01*
X101189073Y-74585998D01*
X101189070Y-74585996D01*
X101189069Y-74585996D01*
X101189066Y-74585995D01*
X101064774Y-74549500D01*
X101064772Y-74549500D01*
X100935228Y-74549500D01*
X100935225Y-74549500D01*
X100810933Y-74585995D01*
X100810926Y-74585998D01*
X100697670Y-74658784D01*
X100644147Y-74674500D01*
X100286008Y-74674500D01*
X100227817Y-74655593D01*
X100191853Y-74606093D01*
X100188227Y-74590987D01*
X100185647Y-74574699D01*
X100185646Y-74574697D01*
X100185646Y-74574696D01*
X100128050Y-74461658D01*
X100038342Y-74371950D01*
X99925304Y-74314354D01*
X99925305Y-74314354D01*
X99831522Y-74299500D01*
X99831519Y-74299500D01*
X99751830Y-74299500D01*
X99693639Y-74280593D01*
X99657675Y-74231093D01*
X99657675Y-74169907D01*
X99681826Y-74130496D01*
X100512961Y-73299362D01*
X101457827Y-72354496D01*
X101512344Y-72326719D01*
X101527831Y-72325500D01*
X105644147Y-72325500D01*
X105697670Y-72341216D01*
X105810926Y-72414001D01*
X105810931Y-72414004D01*
X105935228Y-72450500D01*
X105935230Y-72450500D01*
X106064770Y-72450500D01*
X106064772Y-72450500D01*
X106189069Y-72414004D01*
X106298049Y-72343967D01*
X106382882Y-72246063D01*
X106436697Y-72128226D01*
X106455133Y-72000000D01*
X106447812Y-71949083D01*
X106436697Y-71871774D01*
X106405433Y-71803316D01*
X106382882Y-71753937D01*
X106298049Y-71656033D01*
X106298048Y-71656032D01*
X106298047Y-71656031D01*
X106189073Y-71585998D01*
X106189070Y-71585996D01*
X106189069Y-71585996D01*
X106189066Y-71585995D01*
X106064774Y-71549500D01*
X106064772Y-71549500D01*
X105935228Y-71549500D01*
X105935225Y-71549500D01*
X105810933Y-71585995D01*
X105810926Y-71585998D01*
X105697670Y-71658784D01*
X105644147Y-71674500D01*
X101394849Y-71674500D01*
X101309143Y-71674500D01*
X101266231Y-71685998D01*
X101226352Y-71696683D01*
X101152138Y-71739531D01*
X97739531Y-75152138D01*
X97696683Y-75226353D01*
X97696681Y-75226356D01*
X97691973Y-75243927D01*
X97658647Y-75295239D01*
X97601524Y-75317164D01*
X97542425Y-75301325D01*
X97521528Y-75283130D01*
X97498047Y-75256031D01*
X97389073Y-75185998D01*
X97389070Y-75185996D01*
X97389069Y-75185996D01*
X97389066Y-75185995D01*
X97264774Y-75149500D01*
X97264772Y-75149500D01*
X97135228Y-75149500D01*
X97135225Y-75149500D01*
X97010933Y-75185995D01*
X97010926Y-75185998D01*
X96901952Y-75256031D01*
X96817117Y-75353938D01*
X96763302Y-75471774D01*
X96744867Y-75599997D01*
X93500000Y-75599997D01*
X93500000Y-72920499D01*
X94117001Y-72920499D01*
X94117001Y-73390085D01*
X94123505Y-73450586D01*
X94123507Y-73450596D01*
X94174553Y-73587458D01*
X94262093Y-73704397D01*
X94262101Y-73704405D01*
X94379040Y-73791945D01*
X94515902Y-73842991D01*
X94515912Y-73842993D01*
X94576414Y-73849498D01*
X94899077Y-73849498D01*
X94957268Y-73868405D01*
X94993232Y-73917905D01*
X94993232Y-73979091D01*
X94957268Y-74028591D01*
X94928530Y-74043015D01*
X94907300Y-74049630D01*
X94907292Y-74049633D01*
X94760157Y-74138580D01*
X94638580Y-74260157D01*
X94549633Y-74407292D01*
X94549630Y-74407300D01*
X94498483Y-74571436D01*
X94498481Y-74571442D01*
X94492000Y-74642769D01*
X94492000Y-75245999D01*
X94492001Y-75246000D01*
X96307998Y-75246000D01*
X96307999Y-75245999D01*
X96307999Y-74642783D01*
X96307998Y-74642767D01*
X96301518Y-74571443D01*
X96301516Y-74571437D01*
X96250369Y-74407300D01*
X96250366Y-74407292D01*
X96161419Y-74260157D01*
X96039842Y-74138580D01*
X95892707Y-74049633D01*
X95892701Y-74049631D01*
X95841799Y-74033769D01*
X95791869Y-73998406D01*
X95772260Y-73940447D01*
X95790464Y-73882033D01*
X95801250Y-73869248D01*
X95821001Y-73849497D01*
X95821001Y-72920499D01*
X96329001Y-72920499D01*
X96329001Y-73849497D01*
X96329002Y-73849498D01*
X97573588Y-73849498D01*
X97634089Y-73842993D01*
X97634099Y-73842991D01*
X97770961Y-73791945D01*
X97887900Y-73704405D01*
X97887908Y-73704397D01*
X97975448Y-73587458D01*
X98026494Y-73450596D01*
X98026496Y-73450586D01*
X98033001Y-73390085D01*
X98033001Y-72920499D01*
X98033000Y-72920498D01*
X96329002Y-72920498D01*
X96329001Y-72920499D01*
X95821001Y-72920499D01*
X95821000Y-72920498D01*
X94117002Y-72920498D01*
X94117001Y-72920499D01*
X93500000Y-72920499D01*
X93500000Y-71942910D01*
X94117001Y-71942910D01*
X94117001Y-72412497D01*
X94117002Y-72412498D01*
X95821000Y-72412498D01*
X95821001Y-72412497D01*
X95821001Y-71483499D01*
X96329001Y-71483499D01*
X96329001Y-72412497D01*
X96329002Y-72412498D01*
X98033000Y-72412498D01*
X98033001Y-72412497D01*
X98033001Y-71942910D01*
X98026496Y-71882409D01*
X98026494Y-71882399D01*
X97975448Y-71745537D01*
X97887908Y-71628598D01*
X97887900Y-71628590D01*
X97770961Y-71541050D01*
X97634099Y-71490004D01*
X97634089Y-71490002D01*
X97573588Y-71483498D01*
X96329002Y-71483498D01*
X96329001Y-71483499D01*
X95821001Y-71483499D01*
X95821000Y-71483498D01*
X94576414Y-71483498D01*
X94515912Y-71490002D01*
X94515902Y-71490004D01*
X94379040Y-71541050D01*
X94262101Y-71628590D01*
X94262093Y-71628598D01*
X94174553Y-71745537D01*
X94123507Y-71882399D01*
X94123505Y-71882409D01*
X94117001Y-71942910D01*
X93500000Y-71942910D01*
X93500000Y-64943379D01*
X100199500Y-64943379D01*
X100199500Y-66056620D01*
X100205913Y-66127194D01*
X100256521Y-66289605D01*
X100256522Y-66289607D01*
X100321914Y-66397777D01*
X100344528Y-66435185D01*
X100464341Y-66554998D01*
X100492117Y-66609513D01*
X100482546Y-66669945D01*
X100464342Y-66695000D01*
X100399208Y-66760135D01*
X100344527Y-66814816D01*
X100256522Y-66960392D01*
X100256521Y-66960394D01*
X100205913Y-67122805D01*
X100199500Y-67193379D01*
X100199500Y-68306620D01*
X100205913Y-68377194D01*
X100256521Y-68539605D01*
X100256522Y-68539607D01*
X100321914Y-68647777D01*
X100344528Y-68685185D01*
X100464341Y-68804998D01*
X100492117Y-68859513D01*
X100482546Y-68919945D01*
X100464342Y-68945000D01*
X100344528Y-69064815D01*
X100344527Y-69064816D01*
X100256522Y-69210392D01*
X100256521Y-69210394D01*
X100205913Y-69372805D01*
X100199500Y-69443379D01*
X100199500Y-70556620D01*
X100205913Y-70627194D01*
X100256521Y-70789605D01*
X100256522Y-70789607D01*
X100321914Y-70897777D01*
X100344528Y-70935185D01*
X100464815Y-71055472D01*
X100491782Y-71071774D01*
X100585162Y-71128225D01*
X100610394Y-71143478D01*
X100772804Y-71194086D01*
X100843384Y-71200500D01*
X100843389Y-71200500D01*
X103956611Y-71200500D01*
X103956616Y-71200500D01*
X104027196Y-71194086D01*
X104189606Y-71143478D01*
X104335185Y-71055472D01*
X104455472Y-70935185D01*
X104543478Y-70789606D01*
X104594086Y-70627196D01*
X104600500Y-70556616D01*
X104600500Y-69443384D01*
X104594086Y-69372804D01*
X104543478Y-69210394D01*
X104455472Y-69064815D01*
X104335658Y-68945001D01*
X104307883Y-68890487D01*
X104317454Y-68830055D01*
X104335657Y-68804999D01*
X104455472Y-68685185D01*
X104543478Y-68539606D01*
X104594086Y-68377196D01*
X104600500Y-68306616D01*
X104600500Y-67193384D01*
X104594086Y-67122804D01*
X104543478Y-66960394D01*
X104455472Y-66814815D01*
X104335658Y-66695001D01*
X104307883Y-66640487D01*
X104317454Y-66580055D01*
X104335657Y-66554999D01*
X104455472Y-66435185D01*
X104543478Y-66289606D01*
X104594086Y-66127196D01*
X104600500Y-66056616D01*
X104600500Y-64943384D01*
X104594086Y-64872804D01*
X104543478Y-64710394D01*
X104455472Y-64564815D01*
X104335185Y-64444528D01*
X104297777Y-64421914D01*
X104189607Y-64356522D01*
X104189605Y-64356521D01*
X104027194Y-64305913D01*
X103956620Y-64299500D01*
X103956616Y-64299500D01*
X100843384Y-64299500D01*
X100843379Y-64299500D01*
X100772805Y-64305913D01*
X100610394Y-64356521D01*
X100610392Y-64356522D01*
X100464816Y-64444527D01*
X100344527Y-64564816D01*
X100256522Y-64710392D01*
X100256521Y-64710394D01*
X100205913Y-64872805D01*
X100199500Y-64943379D01*
X93500000Y-64943379D01*
X93500000Y-63130503D01*
X94117001Y-63130503D01*
X94117001Y-63600089D01*
X94123505Y-63660590D01*
X94123507Y-63660600D01*
X94174553Y-63797462D01*
X94262093Y-63914401D01*
X94262101Y-63914409D01*
X94379040Y-64001949D01*
X94515902Y-64052995D01*
X94515912Y-64052997D01*
X94576414Y-64059502D01*
X95821000Y-64059502D01*
X95821001Y-64059501D01*
X95821001Y-63130503D01*
X96329001Y-63130503D01*
X96329001Y-64059501D01*
X96329002Y-64059502D01*
X97573588Y-64059502D01*
X97634089Y-64052997D01*
X97634099Y-64052995D01*
X97770961Y-64001949D01*
X97887900Y-63914409D01*
X97887908Y-63914401D01*
X97975448Y-63797462D01*
X98026494Y-63660600D01*
X98026496Y-63660590D01*
X98033001Y-63600089D01*
X98033001Y-63130503D01*
X98033000Y-63130502D01*
X96329002Y-63130502D01*
X96329001Y-63130503D01*
X95821001Y-63130503D01*
X95821000Y-63130502D01*
X94117002Y-63130502D01*
X94117001Y-63130503D01*
X93500000Y-63130503D01*
X93500000Y-62152914D01*
X94117001Y-62152914D01*
X94117001Y-62622501D01*
X94117002Y-62622502D01*
X95821000Y-62622502D01*
X95821001Y-62622501D01*
X95821001Y-61693503D01*
X96329001Y-61693503D01*
X96329001Y-62622501D01*
X96329002Y-62622502D01*
X98033000Y-62622502D01*
X98033001Y-62622501D01*
X98033001Y-62152914D01*
X98026496Y-62092413D01*
X98026494Y-62092403D01*
X97975448Y-61955541D01*
X97887908Y-61838602D01*
X97887900Y-61838594D01*
X97770961Y-61751054D01*
X97634099Y-61700008D01*
X97634089Y-61700006D01*
X97573588Y-61693502D01*
X96329002Y-61693502D01*
X96329001Y-61693503D01*
X95821001Y-61693503D01*
X95821000Y-61693502D01*
X94576414Y-61693502D01*
X94515912Y-61700006D01*
X94515902Y-61700008D01*
X94379040Y-61751054D01*
X94262101Y-61838594D01*
X94262093Y-61838602D01*
X94174553Y-61955541D01*
X94123507Y-62092403D01*
X94123505Y-62092413D01*
X94117001Y-62152914D01*
X93500000Y-62152914D01*
X93500000Y-59254001D01*
X97167000Y-59254001D01*
X97167000Y-59344357D01*
X97203816Y-59529437D01*
X97203816Y-59529439D01*
X97276031Y-59703781D01*
X97380872Y-59860687D01*
X97514312Y-59994127D01*
X97671218Y-60098968D01*
X97845561Y-60171183D01*
X97871000Y-60176243D01*
X97871000Y-59254001D01*
X97870999Y-59254000D01*
X97167001Y-59254000D01*
X97167000Y-59254001D01*
X93500000Y-59254001D01*
X93500000Y-58960504D01*
X97825000Y-58960504D01*
X97825000Y-59039496D01*
X97845444Y-59115796D01*
X97884940Y-59184205D01*
X97940795Y-59240060D01*
X98009204Y-59279556D01*
X98085504Y-59300000D01*
X98164496Y-59300000D01*
X98240796Y-59279556D01*
X98309205Y-59240060D01*
X98365060Y-59184205D01*
X98379000Y-59160060D01*
X98379000Y-60176243D01*
X98404437Y-60171183D01*
X98404439Y-60171183D01*
X98578781Y-60098968D01*
X98735687Y-59994127D01*
X98869127Y-59860687D01*
X98890969Y-59827998D01*
X98939018Y-59790118D01*
X99000156Y-59787714D01*
X99028289Y-59800684D01*
X99066864Y-59826460D01*
X99066870Y-59826463D01*
X99066873Y-59826465D01*
X99185256Y-59875501D01*
X99310931Y-59900500D01*
X99310932Y-59900500D01*
X99439068Y-59900500D01*
X99439069Y-59900500D01*
X99564744Y-59875501D01*
X99683127Y-59826465D01*
X99789669Y-59755276D01*
X99880276Y-59664669D01*
X99917685Y-59608681D01*
X99965735Y-59570803D01*
X100026873Y-59568401D01*
X100077747Y-59602394D01*
X100082311Y-59608677D01*
X100119724Y-59664669D01*
X100210331Y-59755276D01*
X100258878Y-59787714D01*
X100316866Y-59826461D01*
X100316870Y-59826463D01*
X100316873Y-59826465D01*
X100435256Y-59875501D01*
X100560931Y-59900500D01*
X100560932Y-59900500D01*
X100689068Y-59900500D01*
X100689069Y-59900500D01*
X100814744Y-59875501D01*
X100933127Y-59826465D01*
X101039669Y-59755276D01*
X101125883Y-59669062D01*
X101180399Y-59641284D01*
X101240832Y-59650855D01*
X101284096Y-59694118D01*
X101301472Y-59728220D01*
X101396780Y-59823528D01*
X101396782Y-59823529D01*
X101516867Y-59884716D01*
X101516869Y-59884716D01*
X101516874Y-59884719D01*
X101592541Y-59896703D01*
X101616510Y-59900500D01*
X101616512Y-59900500D01*
X102133490Y-59900500D01*
X102154885Y-59897111D01*
X102233126Y-59884719D01*
X102353220Y-59823528D01*
X102448528Y-59728220D01*
X102509719Y-59608126D01*
X102525500Y-59508488D01*
X102525500Y-58491512D01*
X102509719Y-58391874D01*
X102509716Y-58391869D01*
X102509716Y-58391867D01*
X102448529Y-58271782D01*
X102448528Y-58271780D01*
X102353220Y-58176472D01*
X102353217Y-58176470D01*
X102233132Y-58115283D01*
X102233127Y-58115281D01*
X102233126Y-58115281D01*
X102199913Y-58110020D01*
X102133490Y-58099500D01*
X102133488Y-58099500D01*
X101616512Y-58099500D01*
X101616510Y-58099500D01*
X101516874Y-58115281D01*
X101516867Y-58115283D01*
X101396782Y-58176470D01*
X101301471Y-58271781D01*
X101284095Y-58305882D01*
X101240829Y-58349145D01*
X101180397Y-58358715D01*
X101125883Y-58330938D01*
X101039672Y-58244727D01*
X101039669Y-58244724D01*
X100996567Y-58215924D01*
X100933133Y-58173538D01*
X100933125Y-58173534D01*
X100814747Y-58124500D01*
X100814745Y-58124499D01*
X100814744Y-58124499D01*
X100689069Y-58099500D01*
X100560931Y-58099500D01*
X100560930Y-58099500D01*
X100498093Y-58111999D01*
X100435256Y-58124499D01*
X100435255Y-58124499D01*
X100435252Y-58124500D01*
X100316874Y-58173534D01*
X100316866Y-58173538D01*
X100210331Y-58244724D01*
X100210327Y-58244727D01*
X100119723Y-58335331D01*
X100082315Y-58391317D01*
X100034265Y-58429196D01*
X99973126Y-58431598D01*
X99922253Y-58397604D01*
X99917685Y-58391317D01*
X99880276Y-58335331D01*
X99789672Y-58244727D01*
X99789669Y-58244724D01*
X99746567Y-58215924D01*
X99683133Y-58173538D01*
X99683125Y-58173534D01*
X99564747Y-58124500D01*
X99564745Y-58124499D01*
X99564744Y-58124499D01*
X99439069Y-58099500D01*
X99310931Y-58099500D01*
X99310930Y-58099500D01*
X99248093Y-58111999D01*
X99185256Y-58124499D01*
X99185255Y-58124499D01*
X99185252Y-58124500D01*
X99066874Y-58173534D01*
X99066862Y-58173540D01*
X99028286Y-58199316D01*
X98969398Y-58215924D01*
X98911995Y-58194746D01*
X98890971Y-58172002D01*
X98869130Y-58139315D01*
X98735687Y-58005872D01*
X98578783Y-57901032D01*
X98404438Y-57828816D01*
X98379000Y-57823755D01*
X98379000Y-58839939D01*
X98365060Y-58815795D01*
X98309205Y-58759940D01*
X98240796Y-58720444D01*
X98164496Y-58700000D01*
X98085504Y-58700000D01*
X98009204Y-58720444D01*
X97940795Y-58759940D01*
X97884940Y-58815795D01*
X97845444Y-58884204D01*
X97825000Y-58960504D01*
X93500000Y-58960504D01*
X93500000Y-58655642D01*
X97167000Y-58655642D01*
X97167000Y-58745999D01*
X97167001Y-58746000D01*
X97870999Y-58746000D01*
X97871000Y-58745999D01*
X97871000Y-57823755D01*
X97845562Y-57828816D01*
X97845560Y-57828816D01*
X97671216Y-57901032D01*
X97514312Y-58005872D01*
X97380872Y-58139312D01*
X97276031Y-58296218D01*
X97203816Y-58470560D01*
X97203816Y-58470562D01*
X97167000Y-58655642D01*
X93500000Y-58655642D01*
X93500000Y-57669647D01*
X103674500Y-57669647D01*
X103674500Y-61957147D01*
X103674500Y-62042853D01*
X103683978Y-62078225D01*
X103696683Y-62125643D01*
X103739531Y-62199857D01*
X103739533Y-62199859D01*
X103739535Y-62199862D01*
X107145505Y-65605832D01*
X107173281Y-65660347D01*
X107174500Y-65675834D01*
X107174500Y-77857147D01*
X107174500Y-77942853D01*
X107189812Y-78000000D01*
X107196683Y-78025643D01*
X107239531Y-78099857D01*
X107239533Y-78099859D01*
X107239535Y-78099862D01*
X109139533Y-79999859D01*
X109139535Y-79999862D01*
X109200138Y-80060465D01*
X109225550Y-80075136D01*
X109225552Y-80075138D01*
X109225553Y-80075138D01*
X109274361Y-80103318D01*
X109357144Y-80125500D01*
X109357146Y-80125501D01*
X109357147Y-80125501D01*
X109448916Y-80125501D01*
X109448932Y-80125500D01*
X113644147Y-80125500D01*
X113697670Y-80141216D01*
X113781623Y-80195169D01*
X113810931Y-80214004D01*
X113935228Y-80250500D01*
X113935230Y-80250500D01*
X114064770Y-80250500D01*
X114064772Y-80250500D01*
X114189069Y-80214004D01*
X114298049Y-80143967D01*
X114382882Y-80046063D01*
X114436697Y-79928226D01*
X114446531Y-79859826D01*
X114455133Y-79800002D01*
X114455133Y-79799997D01*
X114436697Y-79671774D01*
X114382882Y-79553938D01*
X114382882Y-79553937D01*
X114298049Y-79456033D01*
X114298048Y-79456032D01*
X114298047Y-79456031D01*
X114189073Y-79385998D01*
X114189070Y-79385996D01*
X114189069Y-79385996D01*
X114189066Y-79385995D01*
X114064774Y-79349500D01*
X114064772Y-79349500D01*
X113935228Y-79349500D01*
X113935225Y-79349500D01*
X113810933Y-79385995D01*
X113810926Y-79385998D01*
X113697670Y-79458784D01*
X113644147Y-79474500D01*
X109575834Y-79474500D01*
X109517643Y-79455593D01*
X109505830Y-79445504D01*
X107854496Y-77794169D01*
X107826719Y-77739652D01*
X107825500Y-77724165D01*
X107825500Y-77524834D01*
X107844407Y-77466643D01*
X107893907Y-77430679D01*
X107955093Y-77430679D01*
X107994504Y-77454830D01*
X108739533Y-78199859D01*
X108739535Y-78199862D01*
X108800138Y-78260465D01*
X108824207Y-78274361D01*
X108874362Y-78303318D01*
X108957145Y-78325500D01*
X108957147Y-78325501D01*
X108957148Y-78325501D01*
X109048916Y-78325501D01*
X109048932Y-78325500D01*
X112219147Y-78325500D01*
X112272670Y-78341216D01*
X112330259Y-78378226D01*
X112385931Y-78414004D01*
X112510228Y-78450500D01*
X112510230Y-78450500D01*
X112639770Y-78450500D01*
X112639772Y-78450500D01*
X112764069Y-78414004D01*
X112873049Y-78343967D01*
X112957882Y-78246063D01*
X113011697Y-78128226D01*
X113017842Y-78085484D01*
X113030133Y-78000002D01*
X113030133Y-77999997D01*
X113011697Y-77871774D01*
X112995358Y-77835998D01*
X112957882Y-77753937D01*
X112899741Y-77686838D01*
X112875924Y-77630480D01*
X112889783Y-77570884D01*
X112899742Y-77557177D01*
X112931570Y-77520445D01*
X112957882Y-77490079D01*
X113011697Y-77372242D01*
X113020020Y-77314352D01*
X113030133Y-77244018D01*
X113030133Y-77244013D01*
X113011697Y-77115790D01*
X112987507Y-77062823D01*
X112957882Y-76997953D01*
X112873049Y-76900049D01*
X112873048Y-76900048D01*
X112873047Y-76900047D01*
X112764073Y-76830014D01*
X112764070Y-76830012D01*
X112764069Y-76830012D01*
X112764066Y-76830011D01*
X112639774Y-76793516D01*
X112639772Y-76793516D01*
X112510228Y-76793516D01*
X112510225Y-76793516D01*
X112385933Y-76830011D01*
X112385926Y-76830014D01*
X112272670Y-76902800D01*
X112219147Y-76918516D01*
X112144850Y-76918516D01*
X112086659Y-76899609D01*
X112074846Y-76889520D01*
X111777558Y-76592232D01*
X111749781Y-76537715D01*
X111749595Y-76536491D01*
X111736697Y-76446774D01*
X111736696Y-76446773D01*
X111735689Y-76439764D01*
X111738724Y-76439327D01*
X111740083Y-76391260D01*
X111777430Y-76342796D01*
X111833336Y-76325500D01*
X114824165Y-76325500D01*
X114882356Y-76344407D01*
X114894169Y-76354496D01*
X116772440Y-78232766D01*
X116800217Y-78287283D01*
X116800428Y-78288681D01*
X116813302Y-78378225D01*
X116846309Y-78450499D01*
X116867118Y-78496063D01*
X116913536Y-78549633D01*
X116951952Y-78593968D01*
X117005259Y-78628226D01*
X117060931Y-78664004D01*
X117185228Y-78700500D01*
X117185230Y-78700500D01*
X117314770Y-78700500D01*
X117314772Y-78700500D01*
X117439069Y-78664004D01*
X117548049Y-78593967D01*
X117632882Y-78496063D01*
X117686697Y-78378226D01*
X117697467Y-78303318D01*
X117705133Y-78250002D01*
X117705133Y-78249997D01*
X117686697Y-78121774D01*
X117632882Y-78003938D01*
X117632882Y-78003937D01*
X117548049Y-77906033D01*
X117548048Y-77906032D01*
X117548047Y-77906031D01*
X117439073Y-77835998D01*
X117439070Y-77835996D01*
X117439069Y-77835996D01*
X117439066Y-77835995D01*
X117314774Y-77799500D01*
X117314772Y-77799500D01*
X117300834Y-77799500D01*
X117242643Y-77780593D01*
X117230830Y-77770504D01*
X117029033Y-77568707D01*
X117001256Y-77514190D01*
X117001923Y-77509974D01*
X116992285Y-77510802D01*
X116944705Y-77484379D01*
X116523144Y-77062818D01*
X116982046Y-77062818D01*
X116982046Y-77062823D01*
X117000481Y-77191046D01*
X117050011Y-77299500D01*
X117054297Y-77308884D01*
X117059037Y-77314354D01*
X117089529Y-77349544D01*
X117111446Y-77401409D01*
X117114524Y-77400922D01*
X117152560Y-77415419D01*
X117224512Y-77461660D01*
X117248110Y-77476825D01*
X117372407Y-77513321D01*
X117372409Y-77513321D01*
X117501949Y-77513321D01*
X117501951Y-77513321D01*
X117626248Y-77476825D01*
X117735228Y-77406788D01*
X117820061Y-77308884D01*
X117873876Y-77191047D01*
X117886750Y-77101500D01*
X117913743Y-77046597D01*
X117914670Y-77045655D01*
X123260465Y-71699862D01*
X123260468Y-71699857D01*
X123303316Y-71625643D01*
X123303316Y-71625641D01*
X123303318Y-71625639D01*
X123325500Y-71542853D01*
X123325500Y-71457147D01*
X123325500Y-67349211D01*
X123344407Y-67291020D01*
X123349680Y-67284380D01*
X123382882Y-67246063D01*
X123436697Y-67128226D01*
X123455133Y-67000000D01*
X123449438Y-66960392D01*
X123436697Y-66871774D01*
X123385714Y-66760138D01*
X123382882Y-66753937D01*
X123298049Y-66656033D01*
X123298048Y-66656032D01*
X123298047Y-66656031D01*
X123189073Y-66585998D01*
X123189070Y-66585996D01*
X123189069Y-66585996D01*
X123189066Y-66585995D01*
X123064774Y-66549500D01*
X123064772Y-66549500D01*
X122935228Y-66549500D01*
X122935225Y-66549500D01*
X122810933Y-66585995D01*
X122810926Y-66585998D01*
X122701952Y-66656031D01*
X122617117Y-66753938D01*
X122563302Y-66871774D01*
X122544867Y-66999997D01*
X122544867Y-67000002D01*
X122563302Y-67128225D01*
X122593060Y-67193384D01*
X122617118Y-67246063D01*
X122650320Y-67284380D01*
X122674137Y-67340740D01*
X122674500Y-67349211D01*
X122674500Y-71324165D01*
X122655593Y-71382356D01*
X122645504Y-71394169D01*
X117456348Y-76583325D01*
X117401831Y-76611102D01*
X117386344Y-76612321D01*
X117372404Y-76612321D01*
X117248112Y-76648816D01*
X117248105Y-76648819D01*
X117139131Y-76718852D01*
X117054296Y-76816759D01*
X117000481Y-76934595D01*
X116982046Y-77062818D01*
X116523144Y-77062818D01*
X116253842Y-76793516D01*
X115199862Y-75739535D01*
X115199859Y-75739533D01*
X115199857Y-75739531D01*
X115125642Y-75696683D01*
X115125644Y-75696683D01*
X115093521Y-75688076D01*
X115042853Y-75674500D01*
X115042851Y-75674500D01*
X109175833Y-75674500D01*
X109117642Y-75655593D01*
X109105829Y-75645503D01*
X108854496Y-75394169D01*
X108826719Y-75339653D01*
X108825500Y-75324166D01*
X108825500Y-74074997D01*
X109544867Y-74074997D01*
X109544867Y-74075002D01*
X109563302Y-74203225D01*
X109606789Y-74298447D01*
X109617118Y-74321063D01*
X109677216Y-74390421D01*
X109701952Y-74418968D01*
X109790894Y-74476127D01*
X109810931Y-74489004D01*
X109935228Y-74525500D01*
X109935230Y-74525500D01*
X109992031Y-74525500D01*
X110050222Y-74544407D01*
X110086186Y-74593907D01*
X110090023Y-74610411D01*
X110096661Y-74656580D01*
X110141124Y-74753938D01*
X110150477Y-74774418D01*
X110234835Y-74871774D01*
X110235311Y-74872323D01*
X110322636Y-74928443D01*
X110344290Y-74942359D01*
X110468587Y-74978855D01*
X110468589Y-74978855D01*
X110598129Y-74978855D01*
X110598131Y-74978855D01*
X110722428Y-74942359D01*
X110831408Y-74872322D01*
X110916241Y-74774418D01*
X110970056Y-74656581D01*
X110984098Y-74558917D01*
X110988492Y-74528357D01*
X110988492Y-74528352D01*
X110970056Y-74400129D01*
X110916242Y-74282294D01*
X110916213Y-74282249D01*
X110916197Y-74282197D01*
X110913300Y-74275852D01*
X110914212Y-74275435D01*
X110900500Y-74228729D01*
X110900500Y-73787661D01*
X110919407Y-73729470D01*
X110929490Y-73717663D01*
X111948568Y-72698584D01*
X112003083Y-72670809D01*
X112063515Y-72680380D01*
X112106780Y-72723645D01*
X112108623Y-72727462D01*
X112117117Y-72746062D01*
X112158597Y-72793933D01*
X112185949Y-72825500D01*
X112201952Y-72843968D01*
X112249245Y-72874361D01*
X112310931Y-72914004D01*
X112435228Y-72950500D01*
X112435230Y-72950500D01*
X112564770Y-72950500D01*
X112564772Y-72950500D01*
X112689069Y-72914004D01*
X112763495Y-72866173D01*
X112802330Y-72841216D01*
X112855853Y-72825500D01*
X115644147Y-72825500D01*
X115697670Y-72841216D01*
X115749245Y-72874361D01*
X115810931Y-72914004D01*
X115935228Y-72950500D01*
X115935230Y-72950500D01*
X116064770Y-72950500D01*
X116064772Y-72950500D01*
X116189069Y-72914004D01*
X116298049Y-72843967D01*
X116382882Y-72746063D01*
X116436697Y-72628226D01*
X116455133Y-72500000D01*
X116448811Y-72456031D01*
X116436697Y-72371774D01*
X116384715Y-72257951D01*
X116382882Y-72253937D01*
X116298049Y-72156033D01*
X116298048Y-72156032D01*
X116298047Y-72156031D01*
X116189073Y-72085998D01*
X116189070Y-72085996D01*
X116189069Y-72085996D01*
X116189066Y-72085995D01*
X116064774Y-72049500D01*
X116064772Y-72049500D01*
X115935228Y-72049500D01*
X115935225Y-72049500D01*
X115810933Y-72085995D01*
X115810926Y-72085998D01*
X115697670Y-72158784D01*
X115644147Y-72174500D01*
X112855853Y-72174500D01*
X112802329Y-72158784D01*
X112798049Y-72156033D01*
X112714548Y-72102370D01*
X112675818Y-72055005D01*
X112672326Y-71993919D01*
X112698070Y-71949083D01*
X112727248Y-71919906D01*
X112792658Y-71854496D01*
X112847175Y-71826719D01*
X112862661Y-71825500D01*
X119542851Y-71825500D01*
X119542853Y-71825500D01*
X119625639Y-71803318D01*
X119625641Y-71803316D01*
X119625643Y-71803316D01*
X119699857Y-71760468D01*
X119699857Y-71760467D01*
X119699862Y-71760465D01*
X119980829Y-71479496D01*
X120035346Y-71451719D01*
X120050833Y-71450500D01*
X120064770Y-71450500D01*
X120064772Y-71450500D01*
X120189069Y-71414004D01*
X120298049Y-71343967D01*
X120382882Y-71246063D01*
X120436697Y-71128226D01*
X120455133Y-71000000D01*
X120448510Y-70953938D01*
X120436697Y-70871774D01*
X120399172Y-70789607D01*
X120382882Y-70753937D01*
X120298049Y-70656033D01*
X120298048Y-70656032D01*
X120298047Y-70656031D01*
X120189073Y-70585998D01*
X120189070Y-70585996D01*
X120189069Y-70585996D01*
X120189066Y-70585995D01*
X120064774Y-70549500D01*
X120064772Y-70549500D01*
X119935228Y-70549500D01*
X119935225Y-70549500D01*
X119810933Y-70585995D01*
X119810925Y-70585999D01*
X119798364Y-70594071D01*
X119739188Y-70609623D01*
X119682173Y-70587422D01*
X119654791Y-70551912D01*
X119632882Y-70503937D01*
X119548049Y-70406033D01*
X119548048Y-70406032D01*
X119548047Y-70406031D01*
X119439073Y-70335998D01*
X119439070Y-70335996D01*
X119439069Y-70335996D01*
X119439066Y-70335995D01*
X119314774Y-70299500D01*
X119314772Y-70299500D01*
X119185228Y-70299500D01*
X119185225Y-70299500D01*
X119060933Y-70335995D01*
X119060926Y-70335998D01*
X118951952Y-70406031D01*
X118867117Y-70503938D01*
X118815653Y-70616627D01*
X118774281Y-70661704D01*
X118725600Y-70674500D01*
X112467853Y-70674500D01*
X112382147Y-70674500D01*
X112335589Y-70686975D01*
X112299356Y-70696683D01*
X112225142Y-70739531D01*
X109739531Y-73225142D01*
X109696682Y-73299360D01*
X109696681Y-73299360D01*
X109696682Y-73299361D01*
X109674500Y-73382147D01*
X109674500Y-73725789D01*
X109655593Y-73783980D01*
X109650320Y-73790619D01*
X109617118Y-73828936D01*
X109617116Y-73828940D01*
X109563302Y-73946774D01*
X109544867Y-74074997D01*
X108825500Y-74074997D01*
X108825500Y-69500000D01*
X120000000Y-69500000D01*
X121999999Y-69500000D01*
X122000000Y-69500000D01*
X122000000Y-66500000D01*
X121999999Y-66500000D01*
X120000001Y-66500000D01*
X120000000Y-66500000D01*
X120000000Y-69500000D01*
X108825500Y-69500000D01*
X108825500Y-64957148D01*
X108825499Y-64957144D01*
X108816494Y-64923535D01*
X108803318Y-64874361D01*
X108779483Y-64833078D01*
X108760465Y-64800138D01*
X108699862Y-64739535D01*
X108699859Y-64739533D01*
X108696404Y-64736077D01*
X108696398Y-64736072D01*
X108354496Y-64394169D01*
X108326719Y-64339653D01*
X108325500Y-64324166D01*
X108325500Y-58101412D01*
X110062000Y-58101412D01*
X110062000Y-58745999D01*
X110062001Y-58746000D01*
X110989297Y-58746000D01*
X110954075Y-58807007D01*
X110920000Y-58934174D01*
X110920000Y-59065826D01*
X110954075Y-59192993D01*
X110989297Y-59254000D01*
X110062001Y-59254000D01*
X110062000Y-59254001D01*
X110062000Y-59898587D01*
X110068504Y-59959088D01*
X110068506Y-59959098D01*
X110119552Y-60095960D01*
X110207092Y-60212899D01*
X110207100Y-60212907D01*
X110324039Y-60300447D01*
X110460901Y-60351493D01*
X110460911Y-60351495D01*
X110521413Y-60358000D01*
X111165999Y-60358000D01*
X111166000Y-60357999D01*
X111166000Y-59430702D01*
X111227007Y-59465925D01*
X111354174Y-59500000D01*
X111485826Y-59500000D01*
X111612993Y-59465925D01*
X111674000Y-59430702D01*
X111674000Y-60357999D01*
X111674001Y-60358000D01*
X112318587Y-60358000D01*
X112379088Y-60351495D01*
X112379098Y-60351493D01*
X112515960Y-60300447D01*
X112632899Y-60212907D01*
X112632907Y-60212899D01*
X112720447Y-60095960D01*
X112771493Y-59959098D01*
X112771495Y-59959088D01*
X112778000Y-59898587D01*
X112778000Y-59389733D01*
X112796907Y-59331542D01*
X112846407Y-59295578D01*
X112907593Y-59295578D01*
X112957093Y-59331542D01*
X112971737Y-59360995D01*
X112984768Y-59403954D01*
X113082316Y-59586452D01*
X113170675Y-59694118D01*
X113213590Y-59746410D01*
X113224392Y-59755275D01*
X113373547Y-59877683D01*
X113373548Y-59877683D01*
X113373550Y-59877685D01*
X113556046Y-59975232D01*
X113679553Y-60012697D01*
X113754065Y-60035300D01*
X113754070Y-60035301D01*
X113959997Y-60055583D01*
X113960000Y-60055583D01*
X113960003Y-60055583D01*
X114165929Y-60035301D01*
X114165934Y-60035300D01*
X114363954Y-59975232D01*
X114546450Y-59877685D01*
X114706410Y-59746410D01*
X114837685Y-59586450D01*
X114935232Y-59403954D01*
X114995300Y-59205934D01*
X114995301Y-59205929D01*
X115015583Y-59000003D01*
X115015583Y-58999996D01*
X115444417Y-58999996D01*
X115444417Y-59000003D01*
X115464698Y-59205929D01*
X115464699Y-59205934D01*
X115524768Y-59403954D01*
X115622316Y-59586452D01*
X115710675Y-59694118D01*
X115753590Y-59746410D01*
X115764392Y-59755275D01*
X115913547Y-59877683D01*
X115913548Y-59877683D01*
X115913550Y-59877685D01*
X116096046Y-59975232D01*
X116104236Y-59977716D01*
X116154431Y-60012697D01*
X116174481Y-60070504D01*
X116174500Y-60072453D01*
X116174500Y-60957147D01*
X116174500Y-61042853D01*
X116185217Y-61082851D01*
X116196683Y-61125643D01*
X116239531Y-61199857D01*
X116239533Y-61199859D01*
X116239535Y-61199862D01*
X117239533Y-62199859D01*
X117239535Y-62199862D01*
X117300138Y-62260465D01*
X117344876Y-62286294D01*
X117368850Y-62300136D01*
X117374360Y-62303317D01*
X117374362Y-62303318D01*
X117374363Y-62303318D01*
X117374365Y-62303319D01*
X117415755Y-62314409D01*
X117457145Y-62325500D01*
X117457147Y-62325501D01*
X117457148Y-62325501D01*
X117548916Y-62325501D01*
X117548932Y-62325500D01*
X120727769Y-62325500D01*
X120785960Y-62344407D01*
X120797773Y-62354496D01*
X125570504Y-67127227D01*
X125598281Y-67181744D01*
X125599500Y-67197231D01*
X125599500Y-77150789D01*
X125580593Y-77208980D01*
X125575320Y-77215619D01*
X125542118Y-77253936D01*
X125542116Y-77253940D01*
X125488302Y-77371774D01*
X125469867Y-77499997D01*
X125469867Y-77500002D01*
X125488302Y-77628225D01*
X125500801Y-77655593D01*
X125542118Y-77746063D01*
X125620044Y-77835996D01*
X125626952Y-77843968D01*
X125735926Y-77914001D01*
X125735931Y-77914004D01*
X125860228Y-77950500D01*
X125860230Y-77950500D01*
X125989770Y-77950500D01*
X125989772Y-77950500D01*
X126047611Y-77933517D01*
X126108768Y-77935264D01*
X126157221Y-77972626D01*
X126174500Y-78028507D01*
X126174500Y-78150789D01*
X126155593Y-78208980D01*
X126150320Y-78215619D01*
X126117118Y-78253936D01*
X126117116Y-78253940D01*
X126063302Y-78371774D01*
X126044867Y-78499997D01*
X126044867Y-78500002D01*
X126063302Y-78628225D01*
X126079641Y-78664001D01*
X126117118Y-78746063D01*
X126175763Y-78813744D01*
X126201951Y-78843967D01*
X126245493Y-78871950D01*
X126310931Y-78914004D01*
X126435228Y-78950500D01*
X126435230Y-78950500D01*
X126564770Y-78950500D01*
X126564772Y-78950500D01*
X126689069Y-78914004D01*
X126798049Y-78843967D01*
X126882882Y-78746063D01*
X126936697Y-78628226D01*
X126955061Y-78500500D01*
X126955133Y-78500002D01*
X126955133Y-78499997D01*
X126936697Y-78371774D01*
X126921428Y-78338340D01*
X126882882Y-78253937D01*
X126849679Y-78215618D01*
X126825863Y-78159259D01*
X126825500Y-78150789D01*
X126825500Y-72099997D01*
X128144867Y-72099997D01*
X128144867Y-72100002D01*
X128163302Y-72228225D01*
X128176878Y-72257951D01*
X128217118Y-72346063D01*
X128250320Y-72384380D01*
X128274137Y-72440740D01*
X128274500Y-72449211D01*
X128274500Y-74390421D01*
X128274500Y-74476127D01*
X128288494Y-74528355D01*
X128296683Y-74558917D01*
X128339531Y-74633131D01*
X128339533Y-74633133D01*
X128339535Y-74633136D01*
X128834625Y-75128225D01*
X129245504Y-75539104D01*
X129273281Y-75593621D01*
X129274500Y-75609108D01*
X129274500Y-75823860D01*
X129255593Y-75882051D01*
X129206093Y-75918015D01*
X129144907Y-75918015D01*
X129121977Y-75907144D01*
X129089073Y-75885998D01*
X129089070Y-75885996D01*
X129089069Y-75885996D01*
X129089066Y-75885995D01*
X128964774Y-75849500D01*
X128964772Y-75849500D01*
X128835228Y-75849500D01*
X128835225Y-75849500D01*
X128710933Y-75885995D01*
X128710926Y-75885998D01*
X128601952Y-75956031D01*
X128517117Y-76053938D01*
X128463302Y-76171774D01*
X128444867Y-76299997D01*
X128444867Y-76300002D01*
X128463302Y-76428225D01*
X128513591Y-76538340D01*
X128517118Y-76546063D01*
X128550320Y-76584380D01*
X128574137Y-76640740D01*
X128574500Y-76649211D01*
X128574500Y-85934964D01*
X128574500Y-86020670D01*
X128584273Y-86057144D01*
X128596683Y-86103460D01*
X128639531Y-86177674D01*
X128639533Y-86177676D01*
X128639535Y-86177679D01*
X130342359Y-87880502D01*
X131994276Y-89532419D01*
X132022053Y-89586936D01*
X132014684Y-89633486D01*
X132017689Y-89634463D01*
X132015281Y-89641872D01*
X131999500Y-89741510D01*
X131999500Y-90258489D01*
X132015281Y-90358125D01*
X132015283Y-90358132D01*
X132076470Y-90478217D01*
X132076472Y-90478220D01*
X132171780Y-90573528D01*
X132171782Y-90573529D01*
X132291867Y-90634716D01*
X132291869Y-90634716D01*
X132291874Y-90634719D01*
X132367541Y-90646703D01*
X132391510Y-90650500D01*
X132391512Y-90650500D01*
X133608490Y-90650500D01*
X133629885Y-90647111D01*
X133708126Y-90634719D01*
X133828220Y-90573528D01*
X133923528Y-90478220D01*
X133984719Y-90358126D01*
X134000500Y-90258488D01*
X134000500Y-89741512D01*
X133984719Y-89641874D01*
X133984716Y-89641869D01*
X133984716Y-89641867D01*
X133923529Y-89521782D01*
X133923528Y-89521780D01*
X133828220Y-89426472D01*
X133828217Y-89426470D01*
X133708132Y-89365283D01*
X133708127Y-89365281D01*
X133708126Y-89365281D01*
X133674913Y-89360020D01*
X133608490Y-89349500D01*
X133608488Y-89349500D01*
X132773017Y-89349500D01*
X132714826Y-89330593D01*
X132703013Y-89320504D01*
X132702013Y-89319504D01*
X132674236Y-89264987D01*
X132683807Y-89204555D01*
X132727072Y-89161290D01*
X132772017Y-89150500D01*
X133608490Y-89150500D01*
X133629885Y-89147111D01*
X133708126Y-89134719D01*
X133828220Y-89073528D01*
X133923528Y-88978220D01*
X133984719Y-88858126D01*
X134000500Y-88758488D01*
X134000500Y-88241512D01*
X133984719Y-88141874D01*
X133984716Y-88141869D01*
X133984716Y-88141867D01*
X133923529Y-88021782D01*
X133923528Y-88021780D01*
X133828220Y-87926472D01*
X133828217Y-87926470D01*
X133708132Y-87865283D01*
X133708127Y-87865281D01*
X133708126Y-87865281D01*
X133674913Y-87860020D01*
X133608490Y-87849500D01*
X133608488Y-87849500D01*
X132391512Y-87849500D01*
X132391509Y-87849500D01*
X132370817Y-87852777D01*
X132310385Y-87843205D01*
X132285327Y-87825000D01*
X132273454Y-87813127D01*
X132245677Y-87758610D01*
X132255248Y-87698178D01*
X132298513Y-87654913D01*
X132358945Y-87645342D01*
X132366019Y-87646462D01*
X132391510Y-87650500D01*
X132391512Y-87650500D01*
X133608490Y-87650500D01*
X133629885Y-87647111D01*
X133708126Y-87634719D01*
X133828220Y-87573528D01*
X133923528Y-87478220D01*
X133926813Y-87471774D01*
X133984716Y-87358132D01*
X133984716Y-87358131D01*
X133984719Y-87358126D01*
X134000378Y-87259259D01*
X134000500Y-87258489D01*
X134000500Y-86741510D01*
X133993463Y-86697081D01*
X133984719Y-86641874D01*
X133984716Y-86641869D01*
X133984716Y-86641867D01*
X133923529Y-86521782D01*
X133923528Y-86521780D01*
X133828220Y-86426472D01*
X133828217Y-86426470D01*
X133708132Y-86365283D01*
X133708127Y-86365281D01*
X133708126Y-86365281D01*
X133674913Y-86360020D01*
X133608490Y-86349500D01*
X133608488Y-86349500D01*
X132550835Y-86349500D01*
X132492644Y-86330593D01*
X132480831Y-86320504D01*
X132479831Y-86319504D01*
X132452054Y-86264987D01*
X132461625Y-86204555D01*
X132504890Y-86161290D01*
X132549835Y-86150500D01*
X133608490Y-86150500D01*
X133629885Y-86147111D01*
X133708126Y-86134719D01*
X133828220Y-86073528D01*
X133923528Y-85978220D01*
X133984719Y-85858126D01*
X134000500Y-85758488D01*
X134000500Y-85241512D01*
X133984719Y-85141874D01*
X133984716Y-85141869D01*
X133984716Y-85141867D01*
X133923529Y-85021782D01*
X133923528Y-85021780D01*
X133828220Y-84926472D01*
X133828217Y-84926470D01*
X133708132Y-84865283D01*
X133708127Y-84865281D01*
X133708126Y-84865281D01*
X133674913Y-84860020D01*
X133608490Y-84849500D01*
X133608488Y-84849500D01*
X132850835Y-84849500D01*
X132792644Y-84830593D01*
X132780831Y-84820504D01*
X130854496Y-82894169D01*
X130826719Y-82839652D01*
X130825500Y-82824165D01*
X130825500Y-73050840D01*
X130825501Y-73050827D01*
X130825501Y-72957149D01*
X130825501Y-72957147D01*
X130803318Y-72874361D01*
X130785770Y-72843968D01*
X130781892Y-72837251D01*
X130781889Y-72837247D01*
X130762929Y-72804406D01*
X130750675Y-72769001D01*
X130736697Y-72671774D01*
X130736256Y-72670809D01*
X130682883Y-72553939D01*
X130682882Y-72553938D01*
X130682882Y-72553937D01*
X130598049Y-72456033D01*
X130598048Y-72456032D01*
X130598047Y-72456031D01*
X130489073Y-72385998D01*
X130489070Y-72385996D01*
X130489069Y-72385996D01*
X130489066Y-72385995D01*
X130364774Y-72349500D01*
X130364772Y-72349500D01*
X130235228Y-72349500D01*
X130235224Y-72349500D01*
X130152391Y-72373822D01*
X130091230Y-72372074D01*
X130042778Y-72334711D01*
X130025500Y-72278832D01*
X130025500Y-71549211D01*
X130044407Y-71491020D01*
X130049680Y-71484380D01*
X130082882Y-71446063D01*
X130136697Y-71328226D01*
X130148510Y-71246063D01*
X130155133Y-71200002D01*
X130155133Y-71199997D01*
X130136697Y-71071774D01*
X130103919Y-71000002D01*
X130082882Y-70953937D01*
X129998049Y-70856033D01*
X129998048Y-70856032D01*
X129998047Y-70856031D01*
X129889073Y-70785998D01*
X129889070Y-70785996D01*
X129889069Y-70785996D01*
X129889066Y-70785995D01*
X129764774Y-70749500D01*
X129764772Y-70749500D01*
X129635228Y-70749500D01*
X129635225Y-70749500D01*
X129510933Y-70785995D01*
X129510926Y-70785998D01*
X129401952Y-70856031D01*
X129317117Y-70953938D01*
X129263302Y-71071774D01*
X129244867Y-71199997D01*
X129244867Y-71200002D01*
X129263302Y-71328225D01*
X129302477Y-71414004D01*
X129317118Y-71446063D01*
X129350320Y-71484380D01*
X129374137Y-71540740D01*
X129374500Y-71549211D01*
X129374500Y-72970320D01*
X129374500Y-73056026D01*
X129394062Y-73129036D01*
X129396683Y-73138816D01*
X129439531Y-73213030D01*
X129439535Y-73213035D01*
X129695503Y-73469002D01*
X129723281Y-73523519D01*
X129724500Y-73539006D01*
X129724500Y-74858439D01*
X129705593Y-74916630D01*
X129656093Y-74952594D01*
X129594907Y-74952594D01*
X129555496Y-74928443D01*
X128954496Y-74327443D01*
X128926719Y-74272926D01*
X128925500Y-74257439D01*
X128925500Y-72449211D01*
X128944407Y-72391020D01*
X128949680Y-72384380D01*
X128982882Y-72346063D01*
X129036697Y-72228226D01*
X129055133Y-72100000D01*
X129053119Y-72085995D01*
X129036697Y-71971774D01*
X128982882Y-71853938D01*
X128982882Y-71853937D01*
X128898049Y-71756033D01*
X128898048Y-71756032D01*
X128898047Y-71756031D01*
X128789073Y-71685998D01*
X128789070Y-71685996D01*
X128789069Y-71685996D01*
X128789066Y-71685995D01*
X128664774Y-71649500D01*
X128664772Y-71649500D01*
X128535228Y-71649500D01*
X128535225Y-71649500D01*
X128410933Y-71685995D01*
X128410926Y-71685998D01*
X128301952Y-71756031D01*
X128217117Y-71853938D01*
X128163302Y-71971774D01*
X128144867Y-72099997D01*
X126825500Y-72099997D01*
X126825500Y-69500000D01*
X131000000Y-69500000D01*
X132999999Y-69500000D01*
X133000000Y-69500000D01*
X133000000Y-66500000D01*
X132999999Y-66500000D01*
X131000001Y-66500000D01*
X131000000Y-66500000D01*
X131000000Y-69500000D01*
X126825500Y-69500000D01*
X126825500Y-66917148D01*
X126813342Y-66871774D01*
X126803318Y-66834362D01*
X126760465Y-66760138D01*
X126754264Y-66753937D01*
X126699862Y-66699534D01*
X126699862Y-66699535D01*
X121219862Y-61219535D01*
X121219859Y-61219533D01*
X121219858Y-61219532D01*
X121219857Y-61219531D01*
X121145642Y-61176683D01*
X121145644Y-61176683D01*
X121104425Y-61165639D01*
X121062853Y-61154500D01*
X121062851Y-61154500D01*
X119655835Y-61154500D01*
X119597644Y-61135593D01*
X119585831Y-61125504D01*
X119394496Y-60934169D01*
X119366719Y-60879652D01*
X119365500Y-60864165D01*
X119365500Y-60072453D01*
X119384407Y-60014262D01*
X119433907Y-59978298D01*
X119435633Y-59977755D01*
X119443954Y-59975232D01*
X119626450Y-59877685D01*
X119786410Y-59746410D01*
X119917685Y-59586450D01*
X120015232Y-59403954D01*
X120075300Y-59205934D01*
X120075301Y-59205929D01*
X120095583Y-59000003D01*
X120095583Y-58999996D01*
X120075301Y-58794070D01*
X120075300Y-58794065D01*
X120027783Y-58637423D01*
X120015232Y-58596046D01*
X119917685Y-58413550D01*
X119907250Y-58400835D01*
X119786414Y-58253595D01*
X119786410Y-58253590D01*
X119692441Y-58176472D01*
X119626452Y-58122316D01*
X119443954Y-58024768D01*
X119245934Y-57964699D01*
X119245929Y-57964698D01*
X119040003Y-57944417D01*
X119039997Y-57944417D01*
X118834070Y-57964698D01*
X118834065Y-57964699D01*
X118636045Y-58024768D01*
X118453547Y-58122316D01*
X118293595Y-58253585D01*
X118293585Y-58253595D01*
X118162316Y-58413547D01*
X118064768Y-58596045D01*
X118004699Y-58794065D01*
X118004698Y-58794070D01*
X117984417Y-58999996D01*
X117984417Y-59000003D01*
X118004698Y-59205929D01*
X118004699Y-59205934D01*
X118064768Y-59403954D01*
X118162316Y-59586452D01*
X118250675Y-59694118D01*
X118293590Y-59746410D01*
X118304392Y-59755275D01*
X118453547Y-59877683D01*
X118453548Y-59877683D01*
X118453550Y-59877685D01*
X118636046Y-59975232D01*
X118644236Y-59977716D01*
X118694431Y-60012697D01*
X118714481Y-60070504D01*
X118714500Y-60072453D01*
X118714500Y-60997147D01*
X118714500Y-61082853D01*
X118733697Y-61154500D01*
X118736683Y-61165643D01*
X118779531Y-61239857D01*
X118779535Y-61239862D01*
X119045169Y-61505497D01*
X119072946Y-61560013D01*
X119063375Y-61620445D01*
X119020110Y-61663710D01*
X118975165Y-61674500D01*
X117675834Y-61674500D01*
X117617643Y-61655593D01*
X117605830Y-61645504D01*
X116854496Y-60894169D01*
X116826719Y-60839652D01*
X116825500Y-60824165D01*
X116825500Y-60072453D01*
X116844407Y-60014262D01*
X116893907Y-59978298D01*
X116895633Y-59977755D01*
X116903954Y-59975232D01*
X117086450Y-59877685D01*
X117246410Y-59746410D01*
X117377685Y-59586450D01*
X117475232Y-59403954D01*
X117535300Y-59205934D01*
X117535301Y-59205929D01*
X117555583Y-59000003D01*
X117555583Y-58999996D01*
X117535301Y-58794070D01*
X117535300Y-58794065D01*
X117487783Y-58637423D01*
X117475232Y-58596046D01*
X117377685Y-58413550D01*
X117367250Y-58400835D01*
X117246414Y-58253595D01*
X117246410Y-58253590D01*
X117152441Y-58176472D01*
X117086452Y-58122316D01*
X116903954Y-58024768D01*
X116705934Y-57964699D01*
X116705929Y-57964698D01*
X116500003Y-57944417D01*
X116499997Y-57944417D01*
X116294070Y-57964698D01*
X116294065Y-57964699D01*
X116096045Y-58024768D01*
X115913547Y-58122316D01*
X115753595Y-58253585D01*
X115753585Y-58253595D01*
X115622316Y-58413547D01*
X115524768Y-58596045D01*
X115464699Y-58794065D01*
X115464698Y-58794070D01*
X115444417Y-58999996D01*
X115015583Y-58999996D01*
X114995301Y-58794070D01*
X114995300Y-58794065D01*
X114947783Y-58637423D01*
X114935232Y-58596046D01*
X114837685Y-58413550D01*
X114827250Y-58400835D01*
X114706414Y-58253595D01*
X114706410Y-58253590D01*
X114612441Y-58176472D01*
X114546452Y-58122316D01*
X114363954Y-58024768D01*
X114165934Y-57964699D01*
X114165929Y-57964698D01*
X113960003Y-57944417D01*
X113959997Y-57944417D01*
X113754070Y-57964698D01*
X113754065Y-57964699D01*
X113556045Y-58024768D01*
X113373547Y-58122316D01*
X113213595Y-58253585D01*
X113213585Y-58253595D01*
X113082316Y-58413547D01*
X112984768Y-58596045D01*
X112971737Y-58639004D01*
X112936752Y-58689201D01*
X112878944Y-58709247D01*
X112820393Y-58691486D01*
X112783464Y-58642701D01*
X112778000Y-58610266D01*
X112778000Y-58101412D01*
X112771495Y-58040911D01*
X112771493Y-58040901D01*
X112720447Y-57904039D01*
X112632907Y-57787100D01*
X112632899Y-57787092D01*
X112515960Y-57699552D01*
X112379098Y-57648506D01*
X112379088Y-57648504D01*
X112318587Y-57642000D01*
X111674001Y-57642000D01*
X111674000Y-57642001D01*
X111674000Y-58569297D01*
X111612993Y-58534075D01*
X111485826Y-58500000D01*
X111354174Y-58500000D01*
X111227007Y-58534075D01*
X111166000Y-58569297D01*
X111166000Y-57642001D01*
X111165999Y-57642000D01*
X110521413Y-57642000D01*
X110460911Y-57648504D01*
X110460901Y-57648506D01*
X110324039Y-57699552D01*
X110207100Y-57787092D01*
X110207092Y-57787100D01*
X110119552Y-57904039D01*
X110068506Y-58040901D01*
X110068504Y-58040911D01*
X110062000Y-58101412D01*
X108325500Y-58101412D01*
X108325500Y-57763340D01*
X108325501Y-57763327D01*
X108325501Y-57669647D01*
X108325500Y-57669645D01*
X108324433Y-57665662D01*
X108303318Y-57586862D01*
X108303317Y-57586861D01*
X108260465Y-57512638D01*
X108199862Y-57452035D01*
X108199859Y-57452033D01*
X107704496Y-56956669D01*
X107676719Y-56902152D01*
X107675500Y-56886665D01*
X107675500Y-56460751D01*
X107670491Y-56429130D01*
X107659951Y-56362580D01*
X107599658Y-56244249D01*
X107505751Y-56150342D01*
X107494766Y-56144745D01*
X107387423Y-56090050D01*
X107387420Y-56090049D01*
X107362876Y-56086161D01*
X107289249Y-56074500D01*
X107289246Y-56074500D01*
X106710754Y-56074500D01*
X106710751Y-56074500D01*
X106612580Y-56090049D01*
X106612576Y-56090050D01*
X106494250Y-56150341D01*
X106400341Y-56244250D01*
X106340050Y-56362576D01*
X106340049Y-56362580D01*
X106324500Y-56460751D01*
X106324500Y-56968136D01*
X106323428Y-56968136D01*
X106310176Y-57023307D01*
X106263647Y-57063039D01*
X106202649Y-57067833D01*
X106197879Y-57066561D01*
X106139775Y-57049500D01*
X106139772Y-57049500D01*
X106010228Y-57049500D01*
X106010225Y-57049500D01*
X105885933Y-57085995D01*
X105885931Y-57085996D01*
X105816051Y-57130905D01*
X105756875Y-57146458D01*
X105699859Y-57124260D01*
X105666780Y-57072787D01*
X105664747Y-57032136D01*
X105675500Y-56964246D01*
X105675500Y-56460754D01*
X105659951Y-56362580D01*
X105599658Y-56244249D01*
X105505751Y-56150342D01*
X105494766Y-56144745D01*
X105387423Y-56090050D01*
X105387420Y-56090049D01*
X105362876Y-56086161D01*
X105289249Y-56074500D01*
X105289246Y-56074500D01*
X104710754Y-56074500D01*
X104710751Y-56074500D01*
X104612580Y-56090049D01*
X104612576Y-56090050D01*
X104494250Y-56150341D01*
X104400341Y-56244250D01*
X104340050Y-56362576D01*
X104340049Y-56362580D01*
X104324500Y-56460751D01*
X104324500Y-56886665D01*
X104305593Y-56944856D01*
X104295504Y-56956669D01*
X103739531Y-57512642D01*
X103696682Y-57586860D01*
X103696681Y-57586860D01*
X103696682Y-57586861D01*
X103681908Y-57642000D01*
X103674500Y-57669647D01*
X93500000Y-57669647D01*
X93500000Y-56500866D01*
X93500016Y-56499101D01*
X93500700Y-56460751D01*
X93502437Y-56363321D01*
X93503428Y-56351016D01*
X93542203Y-56081323D01*
X93545199Y-56067551D01*
X93621714Y-55806962D01*
X93626644Y-55793746D01*
X93739463Y-55546706D01*
X93746222Y-55534329D01*
X93893048Y-55305863D01*
X93901512Y-55294559D01*
X94079345Y-55089328D01*
X94089331Y-55079343D01*
X94294575Y-54901498D01*
X94305857Y-54893052D01*
X94534326Y-54746224D01*
X94546705Y-54739464D01*
X94793747Y-54626644D01*
X94806963Y-54621714D01*
X95067552Y-54545199D01*
X95081324Y-54542203D01*
X95351017Y-54503428D01*
X95363322Y-54502437D01*
X95497922Y-54500037D01*
X95502079Y-54500050D01*
X95589725Y-54502198D01*
X95606613Y-54504070D01*
X95663581Y-54515401D01*
X95781428Y-54538842D01*
X95799989Y-54544473D01*
X95963530Y-54612214D01*
X95980641Y-54621360D01*
X96073404Y-54683342D01*
X96127818Y-54719700D01*
X96142821Y-54732012D01*
X96267987Y-54857178D01*
X96280298Y-54872180D01*
X96299221Y-54900500D01*
X96378639Y-55019356D01*
X96387785Y-55036467D01*
X96395002Y-55053891D01*
X96455522Y-55200001D01*
X96461156Y-55218572D01*
X96495928Y-55393384D01*
X96497800Y-55410271D01*
X96499970Y-55498773D01*
X96500000Y-55501200D01*
X96500000Y-57500000D01*
X98499999Y-57500000D01*
X98500000Y-57500000D01*
X98500000Y-55646155D01*
X114699500Y-55646155D01*
X114699500Y-56353844D01*
X114730263Y-56508496D01*
X114730263Y-56508498D01*
X114790603Y-56654174D01*
X114790609Y-56654185D01*
X114804862Y-56675515D01*
X114878211Y-56785289D01*
X114989711Y-56896789D01*
X115061648Y-56944856D01*
X115120814Y-56984390D01*
X115120825Y-56984396D01*
X115174638Y-57006685D01*
X115266503Y-57044737D01*
X115421158Y-57075500D01*
X115421159Y-57075500D01*
X115578841Y-57075500D01*
X115578842Y-57075500D01*
X115733497Y-57044737D01*
X115879179Y-56984394D01*
X116010289Y-56896789D01*
X116121789Y-56785289D01*
X116209394Y-56654179D01*
X116269737Y-56508497D01*
X116300500Y-56353842D01*
X116300500Y-55646158D01*
X116300499Y-55646155D01*
X116699500Y-55646155D01*
X116699500Y-56353844D01*
X116730263Y-56508496D01*
X116730263Y-56508498D01*
X116790603Y-56654174D01*
X116790609Y-56654185D01*
X116804862Y-56675515D01*
X116878211Y-56785289D01*
X116989711Y-56896789D01*
X117061648Y-56944856D01*
X117120814Y-56984390D01*
X117120825Y-56984396D01*
X117174638Y-57006685D01*
X117266503Y-57044737D01*
X117421158Y-57075500D01*
X117421159Y-57075500D01*
X117578841Y-57075500D01*
X117578842Y-57075500D01*
X117733497Y-57044737D01*
X117879179Y-56984394D01*
X118010289Y-56896789D01*
X118121789Y-56785289D01*
X118195138Y-56675515D01*
X118212097Y-56650135D01*
X118213757Y-56651244D01*
X118252085Y-56614356D01*
X118312690Y-56605943D01*
X118366664Y-56634759D01*
X118393394Y-56689797D01*
X118393821Y-56693347D01*
X118402605Y-56779321D01*
X118458342Y-56947525D01*
X118551364Y-57098337D01*
X118676662Y-57223635D01*
X118827474Y-57316657D01*
X118995678Y-57372394D01*
X119099484Y-57383000D01*
X119245999Y-57383000D01*
X119246000Y-57382999D01*
X119246000Y-56276330D01*
X119269745Y-56300075D01*
X119355255Y-56349444D01*
X119450630Y-56375000D01*
X119549370Y-56375000D01*
X119644745Y-56349444D01*
X119730255Y-56300075D01*
X119754000Y-56276330D01*
X119754000Y-57382999D01*
X119754001Y-57383000D01*
X119900516Y-57383000D01*
X120004321Y-57372394D01*
X120172525Y-57316657D01*
X120323337Y-57223635D01*
X120448635Y-57098337D01*
X120541657Y-56947525D01*
X120597394Y-56779321D01*
X120608000Y-56675515D01*
X120608000Y-56254001D01*
X120607999Y-56254000D01*
X119776330Y-56254000D01*
X119800075Y-56230255D01*
X119849444Y-56144745D01*
X119875000Y-56049370D01*
X119875000Y-55950630D01*
X119849444Y-55855255D01*
X119800075Y-55769745D01*
X119776330Y-55746000D01*
X120607999Y-55746000D01*
X120608000Y-55745999D01*
X120608000Y-55324484D01*
X120597394Y-55220678D01*
X120541657Y-55052474D01*
X120448635Y-54901662D01*
X120323337Y-54776364D01*
X120172525Y-54683342D01*
X120004321Y-54627605D01*
X119900516Y-54617000D01*
X119754001Y-54617000D01*
X119754000Y-54617001D01*
X119754000Y-55723670D01*
X119730255Y-55699925D01*
X119644745Y-55650556D01*
X119549370Y-55625000D01*
X119450630Y-55625000D01*
X119355255Y-55650556D01*
X119269745Y-55699925D01*
X119246000Y-55723670D01*
X119246000Y-54617001D01*
X119245999Y-54617000D01*
X119099484Y-54617000D01*
X118995678Y-54627605D01*
X118827474Y-54683342D01*
X118676662Y-54776364D01*
X118551364Y-54901662D01*
X118458342Y-55052474D01*
X118402605Y-55220678D01*
X118393821Y-55306652D01*
X118369097Y-55362620D01*
X118316198Y-55393366D01*
X118255329Y-55387146D01*
X118213004Y-55349258D01*
X118212097Y-55349865D01*
X118156357Y-55266446D01*
X118121789Y-55214711D01*
X118010289Y-55103211D01*
X117958059Y-55068312D01*
X117879185Y-55015609D01*
X117879174Y-55015603D01*
X117733497Y-54955263D01*
X117578844Y-54924500D01*
X117578842Y-54924500D01*
X117421158Y-54924500D01*
X117421155Y-54924500D01*
X117266503Y-54955263D01*
X117266501Y-54955263D01*
X117120825Y-55015603D01*
X117120814Y-55015609D01*
X116989711Y-55103211D01*
X116989707Y-55103214D01*
X116878214Y-55214707D01*
X116878211Y-55214711D01*
X116790609Y-55345814D01*
X116790603Y-55345825D01*
X116730263Y-55491501D01*
X116730263Y-55491503D01*
X116699500Y-55646155D01*
X116300499Y-55646155D01*
X116269737Y-55491503D01*
X116226511Y-55387146D01*
X116209396Y-55345825D01*
X116209390Y-55345814D01*
X116156357Y-55266446D01*
X116121789Y-55214711D01*
X116010289Y-55103211D01*
X115958059Y-55068312D01*
X115879185Y-55015609D01*
X115879174Y-55015603D01*
X115733497Y-54955263D01*
X115578844Y-54924500D01*
X115578842Y-54924500D01*
X115421158Y-54924500D01*
X115421155Y-54924500D01*
X115266503Y-54955263D01*
X115266501Y-54955263D01*
X115120825Y-55015603D01*
X115120814Y-55015609D01*
X114989711Y-55103211D01*
X114989707Y-55103214D01*
X114878214Y-55214707D01*
X114878211Y-55214711D01*
X114790609Y-55345814D01*
X114790603Y-55345825D01*
X114730263Y-55491501D01*
X114730263Y-55491503D01*
X114699500Y-55646155D01*
X98500000Y-55646155D01*
X98500000Y-55501200D01*
X98500030Y-55498774D01*
X98502199Y-55410272D01*
X98504071Y-55393385D01*
X98517776Y-55324484D01*
X98538843Y-55218567D01*
X98544472Y-55200012D01*
X98612216Y-55036464D01*
X98621357Y-55019362D01*
X98719704Y-54872176D01*
X98732007Y-54857183D01*
X98857183Y-54732007D01*
X98872175Y-54719704D01*
X99019366Y-54621354D01*
X99036459Y-54612218D01*
X99200005Y-54544475D01*
X99218568Y-54538844D01*
X99393384Y-54504070D01*
X99410270Y-54502199D01*
X99498774Y-54500030D01*
X99501200Y-54500000D01*
X103999999Y-54500000D01*
X104000000Y-54500000D01*
X104000000Y-54254001D01*
X108042000Y-54254001D01*
X108042000Y-54523851D01*
X108052255Y-54624232D01*
X108106153Y-54786886D01*
X108106154Y-54786888D01*
X108196108Y-54932726D01*
X108317273Y-55053891D01*
X108463111Y-55143845D01*
X108463113Y-55143846D01*
X108625767Y-55197744D01*
X108726148Y-55208000D01*
X108745999Y-55208000D01*
X108746000Y-55207999D01*
X108746000Y-54254001D01*
X108745999Y-54254000D01*
X108042001Y-54254000D01*
X108042000Y-54254001D01*
X104000000Y-54254001D01*
X104000000Y-53960504D01*
X108700000Y-53960504D01*
X108700000Y-54039496D01*
X108720444Y-54115796D01*
X108759940Y-54184205D01*
X108815795Y-54240060D01*
X108884204Y-54279556D01*
X108960504Y-54300000D01*
X109039496Y-54300000D01*
X109115796Y-54279556D01*
X109184205Y-54240060D01*
X109240060Y-54184205D01*
X109254000Y-54160060D01*
X109254000Y-55207999D01*
X109254001Y-55208000D01*
X109273852Y-55208000D01*
X109374232Y-55197744D01*
X109536886Y-55143846D01*
X109536888Y-55143845D01*
X109682726Y-55053891D01*
X109803893Y-54932724D01*
X109839917Y-54874320D01*
X109886558Y-54834718D01*
X109947568Y-54830095D01*
X109962059Y-54834826D01*
X110060256Y-54875501D01*
X110185931Y-54900500D01*
X110185932Y-54900500D01*
X110314068Y-54900500D01*
X110314069Y-54900500D01*
X110439744Y-54875501D01*
X110558127Y-54826465D01*
X110664669Y-54755276D01*
X110755276Y-54664669D01*
X110792685Y-54608681D01*
X110840735Y-54570803D01*
X110901873Y-54568401D01*
X110952747Y-54602394D01*
X110957311Y-54608677D01*
X110994724Y-54664669D01*
X111085331Y-54755276D01*
X111132639Y-54786886D01*
X111191866Y-54826461D01*
X111191870Y-54826463D01*
X111191873Y-54826465D01*
X111310256Y-54875501D01*
X111435931Y-54900500D01*
X111435932Y-54900500D01*
X111564068Y-54900500D01*
X111564069Y-54900500D01*
X111689744Y-54875501D01*
X111808127Y-54826465D01*
X111914669Y-54755276D01*
X112005276Y-54664669D01*
X112076465Y-54558127D01*
X112125501Y-54439744D01*
X112150500Y-54314069D01*
X112150500Y-53685931D01*
X112125501Y-53560256D01*
X112076465Y-53441873D01*
X112076463Y-53441870D01*
X112076461Y-53441866D01*
X112046885Y-53397604D01*
X112005276Y-53335331D01*
X111914669Y-53244724D01*
X111867357Y-53213111D01*
X111808133Y-53173538D01*
X111808125Y-53173534D01*
X111689747Y-53124500D01*
X111689745Y-53124499D01*
X111689744Y-53124499D01*
X111564069Y-53099500D01*
X111435931Y-53099500D01*
X111435930Y-53099500D01*
X111373093Y-53111999D01*
X111310256Y-53124499D01*
X111310255Y-53124499D01*
X111310252Y-53124500D01*
X111191874Y-53173534D01*
X111191866Y-53173538D01*
X111085331Y-53244724D01*
X111085327Y-53244727D01*
X110994723Y-53335331D01*
X110957315Y-53391317D01*
X110909265Y-53429196D01*
X110848126Y-53431598D01*
X110797253Y-53397604D01*
X110792685Y-53391317D01*
X110755276Y-53335331D01*
X110664672Y-53244727D01*
X110664669Y-53244724D01*
X110617357Y-53213111D01*
X110558133Y-53173538D01*
X110558125Y-53173534D01*
X110439747Y-53124500D01*
X110439745Y-53124499D01*
X110439744Y-53124499D01*
X110314069Y-53099500D01*
X110185931Y-53099500D01*
X110185930Y-53099500D01*
X110123093Y-53111999D01*
X110060256Y-53124499D01*
X110060254Y-53124499D01*
X110060248Y-53124501D01*
X109962063Y-53165171D01*
X109901066Y-53169972D01*
X109848898Y-53138002D01*
X109839917Y-53125679D01*
X109803893Y-53067275D01*
X109682726Y-52946108D01*
X109536888Y-52856154D01*
X109536886Y-52856153D01*
X109374232Y-52802255D01*
X109273852Y-52792000D01*
X109254001Y-52792000D01*
X109254000Y-52792001D01*
X109254000Y-53839939D01*
X109240060Y-53815795D01*
X109184205Y-53759940D01*
X109115796Y-53720444D01*
X109039496Y-53700000D01*
X108960504Y-53700000D01*
X108884204Y-53720444D01*
X108815795Y-53759940D01*
X108759940Y-53815795D01*
X108720444Y-53884204D01*
X108700000Y-53960504D01*
X104000000Y-53960504D01*
X104000000Y-53476148D01*
X108042000Y-53476148D01*
X108042000Y-53745999D01*
X108042001Y-53746000D01*
X108745999Y-53746000D01*
X108746000Y-53745999D01*
X108746000Y-52792001D01*
X108745999Y-52792000D01*
X108726148Y-52792000D01*
X108625767Y-52802255D01*
X108463113Y-52856153D01*
X108463111Y-52856154D01*
X108317273Y-52946108D01*
X108196108Y-53067273D01*
X108106154Y-53213111D01*
X108106153Y-53213113D01*
X108052255Y-53375767D01*
X108042000Y-53476148D01*
X104000000Y-53476148D01*
X104000000Y-50501200D01*
X104000030Y-50498774D01*
X104002199Y-50410272D01*
X104004071Y-50393385D01*
X104008619Y-50370517D01*
X104038843Y-50218567D01*
X104044472Y-50200012D01*
X104112216Y-50036464D01*
X104121357Y-50019362D01*
X104219704Y-49872176D01*
X104232007Y-49857183D01*
X104357183Y-49732007D01*
X104372175Y-49719704D01*
X104519366Y-49621354D01*
X104536459Y-49612218D01*
X104700005Y-49544475D01*
X104718568Y-49538844D01*
X104893384Y-49504070D01*
X104910270Y-49502199D01*
X104998774Y-49500030D01*
X105001200Y-49500000D01*
X117432566Y-49500000D01*
X117435020Y-49500030D01*
G37*
%TD.AperFunction*%
%TD*%
M02*
