%TF.GenerationSoftware,KiCad,Pcbnew,8.0.6*%
%TF.CreationDate,2024-11-20T23:00:01+09:00*%
%TF.ProjectId,ORION_sub_v3,4f52494f-4e5f-4737-9562-5f76332e6b69,rev?*%
%TF.SameCoordinates,Original*%
%TF.FileFunction,Soldermask,Top*%
%TF.FilePolarity,Negative*%
%FSLAX46Y46*%
G04 Gerber Fmt 4.6, Leading zero omitted, Abs format (unit mm)*
G04 Created by KiCad (PCBNEW 8.0.6) date 2024-11-20 23:00:01*
%MOMM*%
%LPD*%
G01*
G04 APERTURE LIST*
G04 Aperture macros list*
%AMRoundRect*
0 Rectangle with rounded corners*
0 $1 Rounding radius*
0 $2 $3 $4 $5 $6 $7 $8 $9 X,Y pos of 4 corners*
0 Add a 4 corners polygon primitive as box body*
4,1,4,$2,$3,$4,$5,$6,$7,$8,$9,$2,$3,0*
0 Add four circle primitives for the rounded corners*
1,1,$1+$1,$2,$3*
1,1,$1+$1,$4,$5*
1,1,$1+$1,$6,$7*
1,1,$1+$1,$8,$9*
0 Add four rect primitives between the rounded corners*
20,1,$1+$1,$2,$3,$4,$5,0*
20,1,$1+$1,$4,$5,$6,$7,0*
20,1,$1+$1,$6,$7,$8,$9,0*
20,1,$1+$1,$8,$9,$2,$3,0*%
G04 Aperture macros list end*
%ADD10C,0.000000*%
%ADD11RoundRect,0.200000X-0.200000X-0.800000X0.200000X-0.800000X0.200000X0.800000X-0.200000X0.800000X0*%
%ADD12RoundRect,0.218750X0.256250X-0.218750X0.256250X0.218750X-0.256250X0.218750X-0.256250X-0.218750X0*%
%ADD13RoundRect,0.218750X-0.218750X-0.256250X0.218750X-0.256250X0.218750X0.256250X-0.218750X0.256250X0*%
%ADD14RoundRect,0.200000X0.800000X-0.200000X0.800000X0.200000X-0.800000X0.200000X-0.800000X-0.200000X0*%
%ADD15R,1.700000X1.700000*%
%ADD16O,1.700000X1.700000*%
%ADD17RoundRect,0.225000X0.225000X0.475000X-0.225000X0.475000X-0.225000X-0.475000X0.225000X-0.475000X0*%
%ADD18O,0.900000X1.400000*%
%ADD19RoundRect,0.218750X-0.256250X0.218750X-0.256250X-0.218750X0.256250X-0.218750X0.256250X0.218750X0*%
%ADD20R,1.450000X1.100000*%
%ADD21R,2.899999X1.350000*%
%ADD22RoundRect,0.225000X0.475000X-0.225000X0.475000X0.225000X-0.475000X0.225000X-0.475000X-0.225000X0*%
%ADD23O,1.400000X0.900000*%
%ADD24RoundRect,0.225000X-0.225000X-0.475000X0.225000X-0.475000X0.225000X0.475000X-0.225000X0.475000X0*%
%ADD25RoundRect,0.250000X0.350000X0.625000X-0.350000X0.625000X-0.350000X-0.625000X0.350000X-0.625000X0*%
%ADD26O,1.200000X1.750000*%
%ADD27C,1.400000*%
%ADD28R,3.500000X3.500000*%
%ADD29C,3.500000*%
%ADD30RoundRect,0.218750X0.218750X0.256250X-0.218750X0.256250X-0.218750X-0.256250X0.218750X-0.256250X0*%
%ADD31RoundRect,0.225000X0.575000X-0.225000X0.575000X0.225000X-0.575000X0.225000X-0.575000X-0.225000X0*%
%ADD32RoundRect,0.375000X0.375000X0.375000X-0.375000X0.375000X-0.375000X-0.375000X0.375000X-0.375000X0*%
%ADD33RoundRect,0.500000X1.500000X0.500000X-1.500000X0.500000X-1.500000X-0.500000X1.500000X-0.500000X0*%
G04 APERTURE END LIST*
D10*
%TO.C,LG1*%
G36*
X117480000Y-109660000D02*
G01*
X117320000Y-109660000D01*
X117320000Y-108480000D01*
X117480000Y-108480000D01*
X117480000Y-109660000D01*
G37*
G36*
X118880000Y-107270000D02*
G01*
X118870000Y-107280000D01*
X118860000Y-107270000D01*
X118870000Y-107260000D01*
X118880000Y-107270000D01*
G37*
G36*
X118776909Y-107248090D02*
G01*
X118798212Y-107266681D01*
X118800000Y-107271180D01*
X118790508Y-107279400D01*
X118770747Y-107260981D01*
X118768090Y-107256909D01*
X118765732Y-107243223D01*
X118776909Y-107248090D01*
G37*
G36*
X114896624Y-105230173D02*
G01*
X114900000Y-105238819D01*
X114886766Y-105264936D01*
X114861116Y-105271190D01*
X114852789Y-105266122D01*
X114840623Y-105237090D01*
X114862029Y-105220580D01*
X114870000Y-105220000D01*
X114896624Y-105230173D01*
G37*
G36*
X117480152Y-107920086D02*
G01*
X117481314Y-107920703D01*
X117512723Y-107958036D01*
X117520000Y-108007603D01*
X117504814Y-108075459D01*
X117465635Y-108120617D01*
X117412023Y-108138659D01*
X117353544Y-108125167D01*
X117320000Y-108100000D01*
X117285212Y-108044531D01*
X117283530Y-107989794D01*
X117308568Y-107942884D01*
X117353942Y-107910898D01*
X117413264Y-107900933D01*
X117480152Y-107920086D01*
G37*
G36*
X118558410Y-106180438D02*
G01*
X118590118Y-106219863D01*
X118599627Y-106234172D01*
X118642152Y-106294779D01*
X118695247Y-106364773D01*
X118723575Y-106400039D01*
X118765599Y-106456701D01*
X118803551Y-106517682D01*
X118832990Y-106574229D01*
X118849477Y-106617589D01*
X118848571Y-106639009D01*
X118845268Y-106639912D01*
X118820188Y-106633621D01*
X118768115Y-106617100D01*
X118699666Y-106593739D01*
X118690000Y-106590334D01*
X118612511Y-106565605D01*
X118542136Y-106547724D01*
X118493700Y-106540438D01*
X118492575Y-106540421D01*
X118453524Y-106548813D01*
X118387534Y-106572064D01*
X118303259Y-106606792D01*
X118209357Y-106649612D01*
X118192575Y-106657688D01*
X118083330Y-106708517D01*
X117968057Y-106758538D01*
X117860894Y-106801811D01*
X117780000Y-106831085D01*
X117694765Y-106859686D01*
X117616681Y-106887058D01*
X117559063Y-106908496D01*
X117546977Y-106913397D01*
X117497745Y-106931638D01*
X117463436Y-106939950D01*
X117461977Y-106940000D01*
X117441156Y-106955514D01*
X117440000Y-106962798D01*
X117457726Y-106976685D01*
X117506493Y-106978157D01*
X117579685Y-106968287D01*
X117670685Y-106948144D01*
X117772876Y-106918800D01*
X117830000Y-106899642D01*
X118072906Y-106822344D01*
X118290192Y-106770790D01*
X118450000Y-106747897D01*
X118526902Y-106742409D01*
X118579742Y-106745105D01*
X118624116Y-106758949D01*
X118675620Y-106786905D01*
X118685023Y-106792558D01*
X118741852Y-106830805D01*
X118769463Y-106862080D01*
X118775356Y-106895274D01*
X118775023Y-106899214D01*
X118762972Y-106934701D01*
X118728662Y-106955329D01*
X118694918Y-106963918D01*
X118631234Y-106982686D01*
X118556622Y-107012320D01*
X118524918Y-107027293D01*
X118450060Y-107060752D01*
X118361400Y-107094449D01*
X118310000Y-107111317D01*
X118244464Y-107132361D01*
X118194608Y-107150776D01*
X118173650Y-107161078D01*
X118185883Y-107167350D01*
X118231100Y-107174624D01*
X118302327Y-107182038D01*
X118392590Y-107188731D01*
X118402228Y-107189317D01*
X118500812Y-107196436D01*
X118587730Y-107204986D01*
X118653524Y-107213888D01*
X118688578Y-107221993D01*
X118702912Y-107231792D01*
X118680861Y-107233486D01*
X118640000Y-107229656D01*
X118575572Y-107226851D01*
X118480861Y-107228625D01*
X118365230Y-107234270D01*
X118238044Y-107243078D01*
X118108667Y-107254339D01*
X117986465Y-107267346D01*
X117880802Y-107281389D01*
X117820712Y-107291648D01*
X117668132Y-107339747D01*
X117506338Y-107425726D01*
X117336481Y-107548829D01*
X117159711Y-107708301D01*
X117110000Y-107758473D01*
X117029335Y-107837785D01*
X116960747Y-107892236D01*
X116892361Y-107927261D01*
X116812307Y-107948293D01*
X116708711Y-107960766D01*
X116660000Y-107964440D01*
X116561262Y-107971903D01*
X116467294Y-107980174D01*
X116391685Y-107988003D01*
X116361302Y-107991894D01*
X116272605Y-108004906D01*
X116362121Y-107902576D01*
X116427117Y-107814675D01*
X116469913Y-107728388D01*
X116476293Y-107708063D01*
X116488105Y-107656699D01*
X116489216Y-107615771D01*
X116477331Y-107571094D01*
X116450154Y-107508485D01*
X116440760Y-107488492D01*
X116383509Y-107391893D01*
X116313654Y-107326718D01*
X116221253Y-107285374D01*
X116154069Y-107269443D01*
X116106349Y-107256320D01*
X116081166Y-107241259D01*
X116080000Y-107237927D01*
X116088867Y-107213660D01*
X116112694Y-107162905D01*
X116147316Y-107094305D01*
X116170346Y-107050414D01*
X116215282Y-106958505D01*
X116256073Y-106862064D01*
X116285824Y-106777811D01*
X116292111Y-106755261D01*
X116314706Y-106680223D01*
X116344200Y-106622976D01*
X116390380Y-106567288D01*
X116427943Y-106530000D01*
X116495944Y-106461892D01*
X116565830Y-106387224D01*
X116611987Y-106334491D01*
X116691616Y-106238982D01*
X116920808Y-106227292D01*
X117020153Y-106222633D01*
X117090096Y-106221643D01*
X117141178Y-106225815D01*
X117183937Y-106236641D01*
X117228913Y-106255612D01*
X117272404Y-106277069D01*
X117391440Y-106334761D01*
X117486843Y-106374855D01*
X117569268Y-106400355D01*
X117649368Y-106414267D01*
X117737797Y-106419597D01*
X117779082Y-106420000D01*
X117869477Y-106417891D01*
X117945163Y-106409451D01*
X118016189Y-106391510D01*
X118092603Y-106360897D01*
X118184453Y-106314442D01*
X118277654Y-106262691D01*
X118353761Y-106222613D01*
X118425165Y-106190221D01*
X118478406Y-106171521D01*
X118485286Y-106170025D01*
X118528151Y-106166454D01*
X118558410Y-106180438D01*
G37*
%TD*%
D11*
%TO.C,SW2*%
X95400000Y-84500000D03*
X99600000Y-84500000D03*
%TD*%
D12*
%TO.C,D6*%
X107000000Y-58287500D03*
X107000000Y-56712500D03*
%TD*%
D13*
%TO.C,D7*%
X109212500Y-108000000D03*
X110787500Y-108000000D03*
%TD*%
D14*
%TO.C,SW5*%
X102000000Y-82100000D03*
X102000000Y-77900000D03*
%TD*%
D12*
%TO.C,D5*%
X105000000Y-58287500D03*
X105000000Y-56712500D03*
%TD*%
D11*
%TO.C,SW3*%
X95400000Y-75500000D03*
X99600000Y-75500000D03*
%TD*%
D15*
%TO.C,J12*%
X111420000Y-59000000D03*
D16*
X113960000Y-59000000D03*
X116500000Y-59000000D03*
X119040000Y-59000000D03*
%TD*%
D17*
%TO.C,J1*%
X126625000Y-107500000D03*
D18*
X125375000Y-107500000D03*
%TD*%
D19*
%TO.C,D10*%
X117500000Y-99712500D03*
X117500000Y-101287500D03*
%TD*%
D20*
%TO.C,J11*%
X102050000Y-65771500D03*
X102050000Y-67771501D03*
X102050000Y-69771500D03*
D21*
X96075001Y-62876502D03*
X96075001Y-72666498D03*
%TD*%
D19*
%TO.C,D3*%
X105500000Y-88747500D03*
X105500000Y-90322500D03*
%TD*%
D11*
%TO.C,SW4*%
X95400000Y-80000000D03*
X99600000Y-80000000D03*
%TD*%
D22*
%TO.C,J6*%
X100000000Y-92000000D03*
D23*
X100000000Y-90750000D03*
X100000000Y-89500000D03*
X100000000Y-88250000D03*
%TD*%
D19*
%TO.C,D2*%
X107500000Y-88712500D03*
X107500000Y-90287500D03*
%TD*%
D17*
%TO.C,J3*%
X101875000Y-59000000D03*
D18*
X100625000Y-59000000D03*
X99375000Y-59000000D03*
X98125000Y-59000000D03*
%TD*%
D24*
%TO.C,J7*%
X109000000Y-54000000D03*
D18*
X110250000Y-54000000D03*
X111500000Y-54000000D03*
%TD*%
D19*
%TO.C,D4*%
X120500000Y-99712500D03*
X120500000Y-101287500D03*
%TD*%
D14*
%TO.C,SW1*%
X133400000Y-99600000D03*
X133400000Y-95400000D03*
%TD*%
D25*
%TO.C,J2*%
X119500000Y-56000000D03*
D26*
X117500000Y-56000000D03*
X115500000Y-56000000D03*
%TD*%
D27*
%TO.C,J4*%
X103000000Y-106000000D03*
X103000000Y-95000000D03*
D28*
X113000000Y-98000000D03*
D29*
X113000000Y-103000000D03*
%TD*%
D22*
%TO.C,J8*%
X96000000Y-92000000D03*
D23*
X96000000Y-90750000D03*
X96000000Y-89500000D03*
X96000000Y-88250000D03*
%TD*%
D30*
%TO.C,D1*%
X126787500Y-105000000D03*
X125212500Y-105000000D03*
%TD*%
D31*
%TO.C,P1*%
X133000000Y-93000000D03*
X133000000Y-91500000D03*
X133000000Y-90000000D03*
X133000000Y-88500000D03*
X133000000Y-87000000D03*
X133000000Y-85500000D03*
%TD*%
D32*
%TO.C,J10*%
X103600000Y-65500000D03*
D33*
X102400000Y-65500000D03*
D32*
X101200000Y-65500000D03*
%TD*%
%TO.C,J9*%
X103600000Y-70000000D03*
D33*
X102400000Y-70000000D03*
D32*
X101200000Y-70000000D03*
%TD*%
%TO.C,J5*%
X103600000Y-67750000D03*
D33*
X102400000Y-67750000D03*
D32*
X101200000Y-67750000D03*
%TD*%
M02*
