M48
; DRILL file {KiCad 8.0.6} date 2024-11-20T23:00:01+0900
; FORMAT={-:-/ absolute / inch / decimal}
; #@! TF.CreationDate,2024-11-20T23:00:01+09:00
; #@! TF.GenerationSoftware,Kicad,Pcbnew,8.0.6
; #@! TF.FileFunction,Plated,1,2,PTH
FMAT,2
INCH
; #@! TA.AperFunction,Plated,PTH,ViaDrill
T1C0.0079
; #@! TA.AperFunction,Plated,PTH,ViaDrill
T2C0.0118
; #@! TA.AperFunction,Plated,PTH,ViaDrill
T3C0.0197
; #@! TA.AperFunction,Plated,PTH,ComponentDrill
T4C0.0236
; #@! TA.AperFunction,Plated,PTH,ComponentDrill
T5C0.0276
; #@! TA.AperFunction,Plated,PTH,ComponentDrill
T6C0.0295
; #@! TA.AperFunction,Plated,PTH,ComponentDrill
T7C0.0315
; #@! TA.AperFunction,Plated,PTH,ComponentDrill
T8C0.0394
; #@! TA.AperFunction,Plated,PTH,ComponentDrill
T9C0.0748
%
G90
G05
T1
X3.8268Y-2.9764
X3.8386Y-3.6614
X3.8386Y-3.7008
X3.878Y-3.6614
X3.878Y-3.7008
X3.8976Y-2.874
X3.9764Y-2.9528
X3.9764Y-3.6614
X3.9764Y-3.7008
X4.0157Y-3.2677
X4.0157Y-3.6614
X4.1339Y-4.2323
X4.1535Y-2.439
X4.1535Y-3.3268
X4.1535Y-3.4646
X4.1732Y-2.8346
X4.1762Y-2.2638
X4.1929Y-4.1142
X4.2126Y-2.2677
X4.252Y-4.2323
X4.2736Y-3.8957
X4.311Y-3.7431
X4.3307Y-2.9163
X4.3504Y-3.7431
X4.3517Y-2.9342
X4.3819Y-3.0148
X4.4291Y-2.8543
X4.4291Y-2.9331
X4.4321Y-3.0411
X4.4321Y-3.0709
X4.4826Y-3.2283
X4.4882Y-3.1417
X4.5096Y-2.9117
X4.5276Y-3.4646
X4.5669Y-2.8543
X4.5866Y-2.8937
X4.6063Y-3.7402
X4.6161Y-3.0807
X4.6235Y-3.034
X4.6457Y-3.189
X4.6457Y-3.7795
X4.6752Y-3.8681
X4.6924Y-3.0709
X4.6949Y-2.7854
X4.7244Y-2.7953
X4.7244Y-3.0389
X4.7244Y-3.1029
X4.7402Y-3.1693
X4.7441Y-2.9724
X4.7441Y-3.3858
X4.7564Y-3.0709
X4.7638Y-3.8725
X4.7835Y-2.9724
X4.7835Y-3.6024
X4.8031Y-3.189
X4.8031Y-3.6811
X4.8425Y-2.6378
X4.8425Y-4.0157
X4.8907Y-3.4843
X4.9213Y-3.2047
X4.9213Y-3.2402
X4.9409Y-3.8976
X4.9577Y-3.0512
X4.9803Y-3.0906
X4.9803Y-3.6309
X4.9803Y-3.8976
X4.9803Y-4.0748
X5.0Y-3.5236
X5.0039Y-3.4488
X5.063Y-2.8386
X5.0748Y-3.0039
X5.0787Y-3.9498
X5.0886Y-3.9951
X5.1063Y-2.8031
X5.122Y-3.8228
X5.1299Y-2.8661
T2
X4.685Y-4.0157
T3
X4.1929Y-3.8386
X4.1929Y-3.878
X4.311Y-4.0354
X4.311Y-4.0748
X4.8425Y-3.189
X4.9646Y-3.4055
T4
X3.7795Y-3.4744
X3.7795Y-3.5236
X3.7795Y-3.5728
X3.7795Y-3.622
X3.8632Y-2.3228
X3.9124Y-2.3228
X3.937Y-3.4744
X3.937Y-3.5236
X3.937Y-3.5728
X3.937Y-3.622
X3.9616Y-2.3228
X4.0108Y-2.3228
X4.2913Y-2.126
X4.3406Y-2.126
X4.3898Y-2.126
X4.936Y-4.2323
X4.9852Y-4.2323
T5
X5.2362Y-3.3661
X5.2362Y-3.4252
X5.2362Y-3.4843
X5.2362Y-3.5433
X5.2362Y-3.6024
X5.2362Y-3.6614
T6
X4.5472Y-2.2047
X4.626Y-2.2047
X4.7047Y-2.2047
T7
X3.9843Y-2.5787
X3.9843Y-2.6673
X3.9843Y-2.7559
X4.0315Y-2.5787
X4.0315Y-2.6673
X4.0315Y-2.7559
X4.0787Y-2.5787
X4.0787Y-2.6673
X4.0787Y-2.7559
T8
X4.0551Y-3.7402
X4.0551Y-4.1732
X4.3866Y-2.3228
X4.4866Y-2.3228
X4.5866Y-2.3228
X4.6866Y-2.3228
T9
X4.4488Y-3.8583
X4.4488Y-4.0551
M30
