%TF.GenerationSoftware,KiCad,Pcbnew,8.0.6*%
%TF.CreationDate,2024-11-20T23:00:01+09:00*%
%TF.ProjectId,ORION_sub_v3,4f52494f-4e5f-4737-9562-5f76332e6b69,rev?*%
%TF.SameCoordinates,Original*%
%TF.FileFunction,Paste,Bot*%
%TF.FilePolarity,Positive*%
%FSLAX46Y46*%
G04 Gerber Fmt 4.6, Leading zero omitted, Abs format (unit mm)*
G04 Created by KiCad (PCBNEW 8.0.6) date 2024-11-20 23:00:01*
%MOMM*%
%LPD*%
G01*
G04 APERTURE LIST*
G04 Aperture macros list*
%AMRoundRect*
0 Rectangle with rounded corners*
0 $1 Rounding radius*
0 $2 $3 $4 $5 $6 $7 $8 $9 X,Y pos of 4 corners*
0 Add a 4 corners polygon primitive as box body*
4,1,4,$2,$3,$4,$5,$6,$7,$8,$9,$2,$3,0*
0 Add four circle primitives for the rounded corners*
1,1,$1+$1,$2,$3*
1,1,$1+$1,$4,$5*
1,1,$1+$1,$6,$7*
1,1,$1+$1,$8,$9*
0 Add four rect primitives between the rounded corners*
20,1,$1+$1,$2,$3,$4,$5,0*
20,1,$1+$1,$4,$5,$6,$7,0*
20,1,$1+$1,$6,$7,$8,$9,0*
20,1,$1+$1,$8,$9,$2,$3,0*%
G04 Aperture macros list end*
%ADD10RoundRect,0.200000X0.275000X-0.200000X0.275000X0.200000X-0.275000X0.200000X-0.275000X-0.200000X0*%
%ADD11RoundRect,0.200000X-0.200000X-0.275000X0.200000X-0.275000X0.200000X0.275000X-0.200000X0.275000X0*%
%ADD12RoundRect,0.200000X-0.275000X0.200000X-0.275000X-0.200000X0.275000X-0.200000X0.275000X0.200000X0*%
%ADD13RoundRect,0.200000X0.200000X0.275000X-0.200000X0.275000X-0.200000X-0.275000X0.200000X-0.275000X0*%
%ADD14RoundRect,0.225000X-0.225000X-0.250000X0.225000X-0.250000X0.225000X0.250000X-0.225000X0.250000X0*%
%ADD15RoundRect,0.225000X-0.250000X0.225000X-0.250000X-0.225000X0.250000X-0.225000X0.250000X0.225000X0*%
%ADD16RoundRect,0.250000X0.650000X-0.325000X0.650000X0.325000X-0.650000X0.325000X-0.650000X-0.325000X0*%
%ADD17R,4.000000X1.500000*%
%ADD18RoundRect,0.150000X0.725000X0.150000X-0.725000X0.150000X-0.725000X-0.150000X0.725000X-0.150000X0*%
%ADD19RoundRect,0.075000X0.075000X-0.662500X0.075000X0.662500X-0.075000X0.662500X-0.075000X-0.662500X0*%
%ADD20RoundRect,0.075000X0.662500X-0.075000X0.662500X0.075000X-0.662500X0.075000X-0.662500X-0.075000X0*%
%ADD21RoundRect,0.225000X0.250000X-0.225000X0.250000X0.225000X-0.250000X0.225000X-0.250000X-0.225000X0*%
%ADD22RoundRect,0.140000X0.170000X-0.140000X0.170000X0.140000X-0.170000X0.140000X-0.170000X-0.140000X0*%
%ADD23R,0.400000X1.900000*%
%ADD24RoundRect,0.150000X-0.150000X0.587500X-0.150000X-0.587500X0.150000X-0.587500X0.150000X0.587500X0*%
%ADD25RoundRect,0.250000X-0.325000X-0.650000X0.325000X-0.650000X0.325000X0.650000X-0.325000X0.650000X0*%
%ADD26RoundRect,0.140000X0.140000X0.170000X-0.140000X0.170000X-0.140000X-0.170000X0.140000X-0.170000X0*%
%ADD27RoundRect,0.250000X0.375000X0.625000X-0.375000X0.625000X-0.375000X-0.625000X0.375000X-0.625000X0*%
%ADD28R,2.400000X1.500000*%
%ADD29R,1.050000X1.500000*%
%ADD30RoundRect,0.150000X0.587500X0.150000X-0.587500X0.150000X-0.587500X-0.150000X0.587500X-0.150000X0*%
%ADD31RoundRect,0.150000X-0.512500X-0.150000X0.512500X-0.150000X0.512500X0.150000X-0.512500X0.150000X0*%
G04 APERTURE END LIST*
D10*
%TO.C,R19*%
X113500000Y-86825000D03*
X113500000Y-85175000D03*
%TD*%
D11*
%TO.C,R13*%
X105675000Y-107500000D03*
X107325000Y-107500000D03*
%TD*%
D12*
%TO.C,R14*%
X123000000Y-63175000D03*
X123000000Y-64825000D03*
%TD*%
D10*
%TO.C,R2*%
X117500000Y-94325000D03*
X117500000Y-92675000D03*
%TD*%
D13*
%TO.C,R5*%
X128825000Y-103000000D03*
X127175000Y-103000000D03*
%TD*%
D12*
%TO.C,R18*%
X99400000Y-60575000D03*
X99400000Y-62225000D03*
%TD*%
D14*
%TO.C,C2*%
X122525000Y-72000000D03*
X124075000Y-72000000D03*
%TD*%
D10*
%TO.C,R1*%
X130100000Y-99625000D03*
X130100000Y-97975000D03*
%TD*%
D15*
%TO.C,C11*%
X113000000Y-92725000D03*
X113000000Y-94275000D03*
%TD*%
D10*
%TO.C,R16*%
X96500000Y-102300000D03*
X96500000Y-100650000D03*
%TD*%
D16*
%TO.C,C7*%
X119000000Y-103475000D03*
X119000000Y-100525000D03*
%TD*%
D12*
%TO.C,R3*%
X109000000Y-55675000D03*
X109000000Y-57325000D03*
%TD*%
D17*
%TO.C,L1*%
X100500000Y-100700000D03*
X100500000Y-104300000D03*
%TD*%
D10*
%TO.C,R17*%
X119500000Y-99062258D03*
X119500000Y-97412258D03*
%TD*%
%TO.C,R9*%
X116000000Y-95825000D03*
X116000000Y-94175000D03*
%TD*%
D18*
%TO.C,U2*%
X125075000Y-91595000D03*
X125075000Y-92865000D03*
X125075000Y-94135000D03*
X125075000Y-95405000D03*
X119925000Y-95405000D03*
X119925000Y-94135000D03*
X119925000Y-92865000D03*
X119925000Y-91595000D03*
%TD*%
D16*
%TO.C,C8*%
X126000000Y-100975000D03*
X126000000Y-98025000D03*
%TD*%
D15*
%TO.C,C1*%
X127000000Y-92725000D03*
X127000000Y-94275000D03*
%TD*%
D19*
%TO.C,U1*%
X122750000Y-82162500D03*
X122250000Y-82162500D03*
X121750000Y-82162500D03*
X121250000Y-82162500D03*
X120750000Y-82162500D03*
X120250000Y-82162500D03*
X119750000Y-82162500D03*
X119250000Y-82162500D03*
X118750000Y-82162500D03*
X118250000Y-82162500D03*
X117750000Y-82162500D03*
X117250000Y-82162500D03*
D20*
X115837500Y-80750000D03*
X115837500Y-80250000D03*
X115837500Y-79750000D03*
X115837500Y-79250000D03*
X115837500Y-78750000D03*
X115837500Y-78250000D03*
X115837500Y-77750000D03*
X115837500Y-77250000D03*
X115837500Y-76750000D03*
X115837500Y-76250000D03*
X115837500Y-75750000D03*
X115837500Y-75250000D03*
D19*
X117250000Y-73837500D03*
X117750000Y-73837500D03*
X118250000Y-73837500D03*
X118750000Y-73837500D03*
X119250000Y-73837500D03*
X119750000Y-73837500D03*
X120250000Y-73837500D03*
X120750000Y-73837500D03*
X121250000Y-73837500D03*
X121750000Y-73837500D03*
X122250000Y-73837500D03*
X122750000Y-73837500D03*
D20*
X124162500Y-75250000D03*
X124162500Y-75750000D03*
X124162500Y-76250000D03*
X124162500Y-76750000D03*
X124162500Y-77250000D03*
X124162500Y-77750000D03*
X124162500Y-78250000D03*
X124162500Y-78750000D03*
X124162500Y-79250000D03*
X124162500Y-79750000D03*
X124162500Y-80250000D03*
X124162500Y-80750000D03*
%TD*%
D21*
%TO.C,C5*%
X113500000Y-75275000D03*
X113500000Y-73725000D03*
%TD*%
D22*
%TO.C,C3*%
X97025000Y-99455000D03*
X97025000Y-98495000D03*
%TD*%
D12*
%TO.C,R7*%
X105500000Y-85675000D03*
X105500000Y-87325000D03*
%TD*%
D23*
%TO.C,X1*%
X119300000Y-87500000D03*
X120500000Y-87500000D03*
X121700000Y-87500000D03*
%TD*%
D10*
%TO.C,R12*%
X108500000Y-60825000D03*
X108500000Y-59175000D03*
%TD*%
D24*
%TO.C,Q1*%
X103550000Y-59562500D03*
X105450000Y-59562500D03*
X104500000Y-61437500D03*
%TD*%
D12*
%TO.C,R6*%
X115000000Y-85175000D03*
X115000000Y-86825000D03*
%TD*%
D10*
%TO.C,R11*%
X107000000Y-60825000D03*
X107000000Y-59175000D03*
%TD*%
D12*
%TO.C,R20*%
X106500000Y-62675000D03*
X106500000Y-64325000D03*
%TD*%
D25*
%TO.C,C12*%
X105550000Y-97500000D03*
X108500000Y-97500000D03*
%TD*%
D13*
%TO.C,R4*%
X112325000Y-56500000D03*
X110675000Y-56500000D03*
%TD*%
D26*
%TO.C,C4*%
X97980000Y-103500000D03*
X97020000Y-103500000D03*
%TD*%
D10*
%TO.C,R10*%
X114500000Y-94325000D03*
X114500000Y-92675000D03*
%TD*%
D11*
%TO.C,R21*%
X101675000Y-57000000D03*
X103325000Y-57000000D03*
%TD*%
D27*
%TO.C,F1*%
X111400000Y-103500000D03*
X108600000Y-103500000D03*
%TD*%
D28*
%TO.C,D9*%
X104650000Y-100000000D03*
D29*
X107025000Y-100000000D03*
%TD*%
D25*
%TO.C,C13*%
X104025000Y-102500000D03*
X106975000Y-102500000D03*
%TD*%
D30*
%TO.C,U3*%
X123437500Y-101050000D03*
X123437500Y-102950000D03*
X121562500Y-102000000D03*
%TD*%
D10*
%TO.C,R22*%
X108000000Y-64325000D03*
X108000000Y-62675000D03*
%TD*%
D15*
%TO.C,C6*%
X127000000Y-80725000D03*
X127000000Y-82275000D03*
%TD*%
D10*
%TO.C,R15*%
X96500000Y-97325000D03*
X96500000Y-95675000D03*
%TD*%
%TO.C,R8*%
X122500000Y-99062258D03*
X122500000Y-97412258D03*
%TD*%
D31*
%TO.C,U4*%
X98862500Y-97950000D03*
X98862500Y-97000000D03*
X98862500Y-96050000D03*
X101137500Y-96050000D03*
X101137500Y-97000000D03*
X101137500Y-97950000D03*
%TD*%
M02*
